M48
; DRILL file {KiCad 9.0.2} date 2025-10-15T23:03:26+0900
; FORMAT={-:-/ absolute / inch / decimal}
; #@! TF.CreationDate,2025-10-15T23:03:26+09:00
; #@! TF.GenerationSoftware,Kicad,Pcbnew,9.0.2
; #@! TF.FileFunction,NonPlated,1,4,NPTH
FMAT,2
INCH
; #@! TA.AperFunction,NonPlated,NPTH,ComponentDrill
T1C0.0295
; #@! TA.AperFunction,NonPlated,NPTH,ComponentDrill
T2C0.0394
; #@! TA.AperFunction,NonPlated,NPTH,ComponentDrill
T3C0.0630
; #@! TA.AperFunction,NonPlated,NPTH,ComponentDrill
T4C0.1260
; #@! TA.AperFunction,NonPlated,NPTH,ComponentDrill
T5C0.1280
%
G90
G05
T1
X5.7746Y-4.9876
X5.8454Y-4.9876
X5.9346Y-4.9874
X6.0054Y-4.9874
T2
X5.7573Y-3.7709
X5.7573Y-3.9678
X5.7573Y-4.0209
X5.7573Y-4.2178
X5.7573Y-4.2659
X5.7573Y-4.8565
X6.1009Y-4.8727
X6.4553Y-4.8727
X6.5109Y-4.8727
X6.8653Y-4.8727
X6.9209Y-4.8727
X7.2753Y-4.8727
X7.6327Y-4.2672
X7.6327Y-4.7791
T3
X5.6104Y-3.4309
X5.6104Y-3.705
T4
X5.6102Y-3.248
X5.6102Y-5.0197
X7.7756Y-3.248
X7.7756Y-5.0197
T5
X7.4438Y-3.495
X7.4438Y-3.945
M30
