M48
; DRILL file {KiCad 9.0.2} date 2025-10-15T23:03:26+0900
; FORMAT={-:-/ absolute / inch / decimal}
; #@! TF.CreationDate,2025-10-15T23:03:26+09:00
; #@! TF.GenerationSoftware,Kicad,Pcbnew,9.0.2
; #@! TF.FileFunction,Plated,1,4,PTH
FMAT,2
INCH
; #@! TA.AperFunction,Plated,PTH,ViaDrill
T1C0.0118
; #@! TA.AperFunction,Plated,PTH,ComponentDrill
T2C0.0315
; #@! TA.AperFunction,Plated,PTH,ComponentDrill
T3C0.0350
; #@! TA.AperFunction,Plated,PTH,ComponentDrill
T4C0.0354
; #@! TA.AperFunction,Plated,PTH,ComponentDrill
T5C0.0630
; #@! TA.AperFunction,Plated,PTH,ComponentDrill
T6C0.0709
%
G90
G05
T1
X5.805Y-3.22
X5.95Y-4.665
X5.97Y-4.29
X5.97Y-5.055
X5.9717Y-4.7817
X6.0336Y-4.7264
X6.04Y-4.57
X6.0536Y-4.68
X6.065Y-4.595
X6.08Y-3.22
X6.09Y-4.29
X6.115Y-3.25
X6.115Y-4.015
X6.12Y-4.49
X6.125Y-4.17
X6.125Y-4.23
X6.135Y-4.47
X6.135Y-4.51
X6.15Y-4.06
X6.15Y-4.49
X6.16Y-3.945
X6.165Y-4.47
X6.165Y-4.51
X6.18Y-4.49
X6.19Y-4.3914
X6.1949Y-4.3586
X6.2046Y-3.7046
X6.205Y-3.185
X6.235Y-3.7197
X6.245Y-4.63
X6.2686Y-4.5714
X6.275Y-4.62
X6.325Y-3.445
X6.325Y-3.59
X6.325Y-3.615
X6.325Y-3.64
X6.3264Y-4.042
X6.33Y-4.175
X6.3464Y-4.3572
X6.35Y-3.59
X6.35Y-3.615
X6.35Y-3.64
X6.35Y-4.49
X6.365Y-4.47
X6.365Y-4.51
X6.375Y-3.59
X6.375Y-3.615
X6.375Y-3.64
X6.375Y-4.145
X6.3816Y-4.49
X6.385Y-3.445
X6.4Y-4.47
X6.4Y-4.51
X6.41Y-3.43
X6.415Y-3.85
X6.415Y-4.49
X6.435Y-3.955
X6.47Y-3.92
X6.47Y-3.955
X6.485Y-4.1151
X6.487Y-3.6135
X6.495Y-3.5759
X6.5Y-3.9
X6.5Y-3.935
X6.5192Y-3.7259
X6.5628Y-4.47
X6.579Y-3.7264
X6.58Y-3.96
X6.585Y-4.175
X6.59Y-4.975
X6.6Y-4.565
X6.6188Y-3.7267
X6.62Y-3.96
X6.635Y-3.6137
X6.635Y-3.775
X6.635Y-3.815
X6.64Y-3.91
X6.64Y-4.155
X6.7Y-4.3
X6.7Y-4.35
X6.7Y-4.425
X6.7Y-4.475
X6.7139Y-4.1321
X6.7369Y-4.575
X6.744Y-3.685
X6.75Y-4.3
X6.75Y-4.35
X6.75Y-4.425
X6.75Y-4.475
X6.7531Y-4.6029
X6.7538Y-3.9023
X6.7548Y-4.125
X6.7561Y-3.825
X6.7592Y-4.9292
X6.76Y-4.205
X6.79Y-4.385
X6.7939Y-3.765
X6.8203Y-3.8969
X6.825Y-4.3
X6.825Y-4.35
X6.825Y-4.425
X6.825Y-4.475
X6.8345Y-4.6473
X6.84Y-3.65
X6.855Y-4.74
X6.865Y-4.655
X6.8717Y-4.1562
X6.875Y-4.19
X6.875Y-4.3
X6.875Y-4.35
X6.875Y-4.425
X6.875Y-4.475
X6.8798Y-4.7161
X6.885Y-4.685
X6.89Y-3.86
X6.8903Y-4.0497
X6.8917Y-3.9733
X6.895Y-3.625
X6.895Y-4.01
X6.9Y-3.825
X6.9012Y-3.8989
X6.91Y-4.645
X6.94Y-4.655
X6.9622Y-4.2796
X6.9651Y-3.665
X6.9651Y-3.805
X7.0354Y-4.2732
X7.04Y-3.37
X7.06Y-4.465
X7.06Y-4.545
X7.0931Y-4.2436
X7.125Y-4.3586
X7.16Y-4.49
X7.175Y-4.47
X7.175Y-4.51
X7.1893Y-4.4893
X7.205Y-4.285
X7.205Y-4.47
X7.205Y-4.51
X7.22Y-4.49
X7.27Y-5.06
X7.295Y-4.245
X7.38Y-4.33
X7.38Y-4.52
X7.38Y-4.805
X7.4Y-3.19
X7.435Y-4.165
X7.46Y-4.82
X7.49Y-4.135
X7.525Y-4.825
T2
X5.84Y-3.83
X5.84Y-3.9087
X5.84Y-4.08
X5.84Y-4.1587
X5.84Y-4.325
X5.84Y-4.4037
X5.84Y-4.4825
X5.84Y-4.5612
X5.84Y-4.64
X5.84Y-4.7187
X5.84Y-4.7974
X6.16Y-4.79
X6.2387Y-4.79
X6.3175Y-4.79
X6.3962Y-4.79
X6.57Y-4.79
X6.6487Y-4.79
X6.7275Y-4.79
X6.79Y-3.2549
X6.79Y-3.3927
X6.8062Y-4.79
X6.98Y-4.79
X7.0587Y-4.79
X7.1375Y-4.79
X7.2162Y-4.79
X7.55Y-4.3263
X7.55Y-4.405
X7.55Y-4.4838
X7.55Y-4.5625
X7.55Y-4.6413
X7.55Y-4.72
T3
X7.5769Y-3.471
X7.5769Y-3.869
X7.6367Y-3.571
X7.6367Y-3.969
T4
X7.0942Y-3.545
X7.0942Y-3.645
X7.0942Y-3.745
X7.0942Y-3.845
X7.1942Y-3.595
X7.1942Y-3.695
X7.1942Y-3.795
X7.1942Y-3.895
T5
X7.3237Y-3.4139
X7.3237Y-4.0261
T6
X6.01Y-3.49
X6.01Y-3.6459
M30
