%TF.GenerationSoftware,KiCad,Pcbnew,9.0.2*%
%TF.CreationDate,2025-10-15T23:03:26+09:00*%
%TF.ProjectId,Mother_v1_0_0,4d6f7468-6572-45f7-9631-5f305f302e6b,rev?*%
%TF.SameCoordinates,Original*%
%TF.FileFunction,Copper,L4,Bot*%
%TF.FilePolarity,Positive*%
%FSLAX46Y46*%
G04 Gerber Fmt 4.6, Leading zero omitted, Abs format (unit mm)*
G04 Created by KiCad (PCBNEW 9.0.2) date 2025-10-15 23:03:26*
%MOMM*%
%LPD*%
G01*
G04 APERTURE LIST*
G04 Aperture macros list*
%AMRoundRect*
0 Rectangle with rounded corners*
0 $1 Rounding radius*
0 $2 $3 $4 $5 $6 $7 $8 $9 X,Y pos of 4 corners*
0 Add a 4 corners polygon primitive as box body*
4,1,4,$2,$3,$4,$5,$6,$7,$8,$9,$2,$3,0*
0 Add four circle primitives for the rounded corners*
1,1,$1+$1,$2,$3*
1,1,$1+$1,$4,$5*
1,1,$1+$1,$6,$7*
1,1,$1+$1,$8,$9*
0 Add four rect primitives between the rounded corners*
20,1,$1+$1,$2,$3,$4,$5,0*
20,1,$1+$1,$4,$5,$6,$7,0*
20,1,$1+$1,$6,$7,$8,$9,0*
20,1,$1+$1,$8,$9,$2,$3,0*%
G04 Aperture macros list end*
%TA.AperFunction,ComponentPad*%
%ADD10RoundRect,0.195000X0.455000X-0.455000X0.455000X0.455000X-0.455000X0.455000X-0.455000X-0.455000X0*%
%TD*%
%TA.AperFunction,ComponentPad*%
%ADD11C,1.300000*%
%TD*%
%TA.AperFunction,ComponentPad*%
%ADD12RoundRect,0.195000X-0.455000X0.455000X-0.455000X-0.455000X0.455000X-0.455000X0.455000X0.455000X0*%
%TD*%
%TA.AperFunction,ComponentPad*%
%ADD13C,1.890000*%
%TD*%
%TA.AperFunction,ComponentPad*%
%ADD14R,1.900000X1.900000*%
%TD*%
%TA.AperFunction,ComponentPad*%
%ADD15C,1.900000*%
%TD*%
%TA.AperFunction,ComponentPad*%
%ADD16C,2.600000*%
%TD*%
%TA.AperFunction,ComponentPad*%
%ADD17RoundRect,0.195000X0.455000X0.455000X-0.455000X0.455000X-0.455000X-0.455000X0.455000X-0.455000X0*%
%TD*%
%TA.AperFunction,ComponentPad*%
%ADD18RoundRect,0.250000X-0.550000X0.550000X-0.550000X-0.550000X0.550000X-0.550000X0.550000X0.550000X0*%
%TD*%
%TA.AperFunction,ComponentPad*%
%ADD19C,1.600000*%
%TD*%
%TA.AperFunction,ComponentPad*%
%ADD20RoundRect,0.304348X1.095652X-1.095652X1.095652X1.095652X-1.095652X1.095652X-1.095652X-1.095652X0*%
%TD*%
%TA.AperFunction,ComponentPad*%
%ADD21C,2.800000*%
%TD*%
%TA.AperFunction,SMDPad,CuDef*%
%ADD22RoundRect,0.250000X0.850000X0.350000X-0.850000X0.350000X-0.850000X-0.350000X0.850000X-0.350000X0*%
%TD*%
%TA.AperFunction,SMDPad,CuDef*%
%ADD23RoundRect,0.249997X2.950003X2.650003X-2.950003X2.650003X-2.950003X-2.650003X2.950003X-2.650003X0*%
%TD*%
%TA.AperFunction,SMDPad,CuDef*%
%ADD24R,1.200000X1.200000*%
%TD*%
%TA.AperFunction,SMDPad,CuDef*%
%ADD25RoundRect,0.237500X-0.237500X0.250000X-0.237500X-0.250000X0.237500X-0.250000X0.237500X0.250000X0*%
%TD*%
%TA.AperFunction,SMDPad,CuDef*%
%ADD26RoundRect,0.237500X0.237500X-0.300000X0.237500X0.300000X-0.237500X0.300000X-0.237500X-0.300000X0*%
%TD*%
%TA.AperFunction,SMDPad,CuDef*%
%ADD27RoundRect,0.250000X-0.850000X-0.350000X0.850000X-0.350000X0.850000X0.350000X-0.850000X0.350000X0*%
%TD*%
%TA.AperFunction,SMDPad,CuDef*%
%ADD28RoundRect,0.249997X-2.950003X-2.650003X2.950003X-2.650003X2.950003X2.650003X-2.950003X2.650003X0*%
%TD*%
%TA.AperFunction,SMDPad,CuDef*%
%ADD29RoundRect,0.237500X-0.237500X0.300000X-0.237500X-0.300000X0.237500X-0.300000X0.237500X0.300000X0*%
%TD*%
%TA.AperFunction,ViaPad*%
%ADD30C,0.600000*%
%TD*%
%TA.AperFunction,Conductor*%
%ADD31C,0.200000*%
%TD*%
G04 APERTURE END LIST*
D10*
%TO.P,J10,1,Pin_1*%
%TO.N,Net-(J10-Pin_1)*%
X148336000Y-109855000D03*
D11*
%TO.P,J10,2,Pin_2*%
%TO.N,GND*%
X148336000Y-111855000D03*
%TO.P,J10,3,Pin_3*%
%TO.N,Net-(J10-Pin_3)*%
X148336000Y-113855000D03*
%TO.P,J10,4,Pin_4*%
%TO.N,Net-(J10-Pin_4)*%
X148336000Y-115855000D03*
%TO.P,J10,5,Pin_5*%
%TO.N,GND*%
X148336000Y-117855000D03*
%TO.P,J10,6,Pin_6*%
%TO.N,/U_MCU/SWD.CLK*%
X148336000Y-119855000D03*
%TO.P,J10,7,Pin_7*%
%TO.N,Net-(J10-Pin_7)*%
X148336000Y-121855000D03*
%TD*%
D12*
%TO.P,J3,1,Pin_1*%
%TO.N,+5V*%
X191770000Y-119888000D03*
D11*
%TO.P,J3,2,Pin_2*%
%TO.N,GND*%
X191770000Y-117888000D03*
%TO.P,J3,3,Pin_3*%
%TO.N,Net-(J3-Pin_3)*%
X191770000Y-115888000D03*
%TO.P,J3,4,Pin_4*%
%TO.N,Net-(J3-Pin_4)*%
X191770000Y-113888000D03*
%TO.P,J3,5,Pin_5*%
%TO.N,/U_I2C/I2C.RST*%
X191770000Y-111888000D03*
%TO.P,J3,6,Pin_6*%
%TO.N,/U_I2C/I2C.INT*%
X191770000Y-109888000D03*
%TD*%
D13*
%TO.P,J2,L1*%
%TO.N,+3.3V*%
X192453000Y-88163000D03*
%TO.P,J2,L2*%
%TO.N,Net-(J2-PadL2)*%
X193973000Y-90703000D03*
%TO.P,J2,L3*%
%TO.N,Net-(J2-PadL3)*%
X192453000Y-98273000D03*
%TO.P,J2,L4*%
%TO.N,+3.3V*%
X193973000Y-100813000D03*
D14*
%TO.P,J2,R1,TD+*%
%TO.N,/U_ETHERNET/TX_P*%
X182733000Y-98933000D03*
D15*
%TO.P,J2,R2,TD-*%
%TO.N,/U_ETHERNET/TX_N*%
X180193000Y-97663000D03*
%TO.P,J2,R3,RD+*%
%TO.N,/U_ETHERNET/RX_P*%
X182733000Y-96393000D03*
%TO.P,J2,R4,TCT*%
%TO.N,Net-(J2-TCT)*%
X180193000Y-95123000D03*
%TO.P,J2,R5,RCT*%
%TO.N,Net-(J2-RCT)*%
X182733000Y-93853000D03*
%TO.P,J2,R6,RD-*%
%TO.N,/U_ETHERNET/RX_N*%
X180193000Y-92583000D03*
%TO.P,J2,R7,NC*%
%TO.N,unconnected-(J2-NC-PadR7)*%
X182733000Y-91313000D03*
%TO.P,J2,R8*%
%TO.N,Net-(C32-Pad1)*%
X180193000Y-90043000D03*
D16*
%TO.P,J2,SH*%
X186023000Y-102263000D03*
X186023000Y-86713000D03*
%TD*%
D10*
%TO.P,J4,1,Pin_1*%
%TO.N,+3.3V*%
X148336000Y-103632000D03*
D11*
%TO.P,J4,2,Pin_2*%
%TO.N,Net-(J4-Pin_2)*%
X148336000Y-105632000D03*
%TD*%
D17*
%TO.P,J6,1,Pin_1*%
%TO.N,+12V*%
X166878000Y-121666000D03*
D11*
%TO.P,J6,2,Pin_2*%
%TO.N,GND*%
X168878000Y-121666000D03*
%TO.P,J6,3,Pin_3*%
%TO.N,/U_CAN2/CANFD_N*%
X170878000Y-121666000D03*
%TO.P,J6,4,Pin_4*%
%TO.N,/U_CAN2/CANFD_P*%
X172878000Y-121666000D03*
%TD*%
D18*
%TO.P,C13,1*%
%TO.N,+12V*%
X172466000Y-82675349D03*
D19*
%TO.P,C13,2*%
%TO.N,GND*%
X172466000Y-86175349D03*
%TD*%
D17*
%TO.P,J5,1,Pin_1*%
%TO.N,+12V*%
X156464000Y-121666000D03*
D11*
%TO.P,J5,2,Pin_2*%
%TO.N,GND*%
X158464000Y-121666000D03*
%TO.P,J5,3,Pin_3*%
%TO.N,/U_CAN1/CANFD_N*%
X160464000Y-121666000D03*
%TO.P,J5,4,Pin_4*%
%TO.N,/U_CAN1/CANFD_P*%
X162464000Y-121666000D03*
%TD*%
D10*
%TO.P,J7,1,Pin_1*%
%TO.N,Net-(J7-Pin_1)*%
X148336000Y-97282000D03*
D11*
%TO.P,J7,2,Pin_2*%
%TO.N,GND*%
X148336000Y-99282000D03*
%TD*%
D20*
%TO.P,J1,1,Pin_1*%
%TO.N,Net-(J1-Pin_1)*%
X152654000Y-88646000D03*
D21*
%TO.P,J1,2,Pin_2*%
%TO.N,GND*%
X152654000Y-92606000D03*
%TD*%
D17*
%TO.P,J8,1,Pin_1*%
%TO.N,+12V*%
X177292000Y-121666000D03*
D11*
%TO.P,J8,2,Pin_2*%
%TO.N,GND*%
X179292000Y-121666000D03*
%TO.P,J8,3,Pin_3*%
%TO.N,/U_CAN3/CANFD_N*%
X181292000Y-121666000D03*
%TO.P,J8,4,Pin_4*%
%TO.N,/U_CAN3/CANFD_P*%
X183292000Y-121666000D03*
%TD*%
D22*
%TO.P,U2,1,VIN*%
%TO.N,+5V*%
X159258000Y-95770000D03*
D23*
%TO.P,U2,2,GND*%
%TO.N,GND*%
X152958000Y-98050000D03*
D22*
%TO.P,U2,3,VOUT*%
%TO.N,+3.3V*%
X159258000Y-100330000D03*
%TD*%
D24*
%TO.P,D1,1,K*%
%TO.N,+5V*%
X163322000Y-96390000D03*
%TO.P,D1,2,A*%
%TO.N,+3.3V*%
X163322000Y-99190000D03*
%TD*%
D25*
%TO.P,R14,1*%
%TO.N,Net-(Q1-S)*%
X159639000Y-84685500D03*
%TO.P,R14,2*%
%TO.N,Net-(Q4-G)*%
X159639000Y-86510500D03*
%TD*%
D22*
%TO.P,Q1,1,G*%
%TO.N,Net-(Q1-G)*%
X155956000Y-81280000D03*
D23*
%TO.P,Q1,2,D*%
%TO.N,Net-(J1-Pin_1)*%
X149656000Y-83560000D03*
D22*
%TO.P,Q1,3,S*%
%TO.N,Net-(Q1-S)*%
X155956000Y-85840000D03*
%TD*%
D26*
%TO.P,C11,1*%
%TO.N,GND*%
X161417000Y-97282000D03*
%TO.P,C11,2*%
%TO.N,+5V*%
X161417000Y-95557000D03*
%TD*%
D25*
%TO.P,R15,1*%
%TO.N,Net-(Q4-G)*%
X148336000Y-93321500D03*
%TO.P,R15,2*%
%TO.N,Net-(J7-Pin_1)*%
X148336000Y-95146500D03*
%TD*%
D27*
%TO.P,Q4,1,G*%
%TO.N,Net-(Q4-G)*%
X161789000Y-85840000D03*
D28*
%TO.P,Q4,2,D*%
%TO.N,+12V*%
X168089000Y-83560000D03*
D27*
%TO.P,Q4,3,S*%
%TO.N,Net-(Q1-S)*%
X161789000Y-81280000D03*
%TD*%
D26*
%TO.P,C12,1*%
%TO.N,Net-(Q4-G)*%
X158115000Y-86460500D03*
%TO.P,C12,2*%
%TO.N,Net-(Q1-S)*%
X158115000Y-84735500D03*
%TD*%
D29*
%TO.P,C10,1*%
%TO.N,GND*%
X161417000Y-98959500D03*
%TO.P,C10,2*%
%TO.N,+3.3V*%
X161417000Y-100684500D03*
%TD*%
D30*
%TO.N,GND*%
X155829000Y-113538000D03*
X161671000Y-113538000D03*
X183388000Y-114046000D03*
X170180000Y-112395000D03*
X183007000Y-108839000D03*
X174625000Y-113665000D03*
X182608500Y-114028500D03*
X168118467Y-94659341D03*
X190246000Y-105029000D03*
X174541144Y-105566994D03*
X168148000Y-100584000D03*
X162093000Y-114046000D03*
X181864000Y-114046000D03*
X171572500Y-104775000D03*
X184658000Y-128524000D03*
X162560000Y-113538000D03*
X151130000Y-118491000D03*
X182245000Y-114554000D03*
X172565000Y-95631000D03*
X168529000Y-96901000D03*
X173355000Y-112395000D03*
X183007000Y-114554000D03*
X155575000Y-107442000D03*
X172466000Y-111379000D03*
X173355000Y-113665000D03*
X168656000Y-99314000D03*
X187960000Y-81026000D03*
X155448000Y-114046000D03*
X164973000Y-90829000D03*
X165587496Y-94639057D03*
X175260000Y-97155000D03*
X155829000Y-114554000D03*
X161290000Y-114046000D03*
X175133000Y-92075000D03*
X167106215Y-94651546D03*
X161671000Y-114554000D03*
X156464000Y-100203000D03*
X173355000Y-109220000D03*
X157607000Y-80899000D03*
X182245000Y-113538000D03*
X156591000Y-113538000D03*
X170180000Y-113665000D03*
X162941000Y-97790000D03*
X171450000Y-113665000D03*
X175014000Y-102862000D03*
X158369000Y-94480000D03*
X171450000Y-112395000D03*
X157226000Y-111541000D03*
X160655000Y-87503000D03*
X171450000Y-109220000D03*
X170180000Y-110490000D03*
X183007000Y-113538000D03*
X156591000Y-114554000D03*
X174625000Y-112395000D03*
X171450000Y-110490000D03*
X173235433Y-98980908D03*
X156210000Y-103124000D03*
X151638000Y-128397000D03*
X166696000Y-113538000D03*
X174625000Y-109220000D03*
X170180000Y-109220000D03*
X162941000Y-114046000D03*
X174625000Y-110490000D03*
X162814000Y-87122000D03*
X173355000Y-110490000D03*
X162179000Y-87503000D03*
X162560000Y-114554000D03*
X156972000Y-114046000D03*
X178699564Y-108539933D03*
X175514000Y-117983000D03*
X175289680Y-99033150D03*
X156210000Y-114046000D03*
%TO.N,+3.3V*%
X165100000Y-99060000D03*
X159223000Y-116113000D03*
X180164681Y-107786789D03*
X174625000Y-106426000D03*
X153416000Y-116078000D03*
X151681265Y-121455265D03*
X179324000Y-115443000D03*
X164719000Y-104523000D03*
X187452000Y-109982000D03*
X157596238Y-94096238D03*
X164338000Y-100457000D03*
X163449000Y-100457000D03*
X187452000Y-114808000D03*
X161925000Y-105283000D03*
X167640000Y-115951000D03*
X151638000Y-108966000D03*
X176276000Y-118237000D03*
X153254440Y-120049546D03*
X165100000Y-99949000D03*
X173736000Y-92710000D03*
X188849000Y-105791000D03*
X164338000Y-99568000D03*
X155575000Y-105918000D03*
%TO.N,+5V*%
X161925000Y-92456000D03*
X161197725Y-110671980D03*
X160655000Y-91186000D03*
X157350491Y-110709000D03*
X180975000Y-110709000D03*
X160655000Y-91821000D03*
X161925000Y-91186000D03*
X178816000Y-85598000D03*
X160655000Y-92456000D03*
X161290000Y-92456000D03*
X161290000Y-91821000D03*
X161290000Y-91186000D03*
X155321000Y-101981000D03*
X161925000Y-91821000D03*
%TO.N,Net-(Q1-S)*%
X155321000Y-82550000D03*
%TO.N,+3.3V_A*%
X168529000Y-91789000D03*
X171605000Y-97155000D03*
X171547735Y-99117265D03*
X175049265Y-100921735D03*
X175006000Y-98044000D03*
X164769273Y-91783198D03*
X171297500Y-93599000D03*
%TO.N,Net-(J2-RCT)*%
X176913000Y-93091000D03*
X176913000Y-96647000D03*
%TO.N,/U_MCU/NRST*%
X153762000Y-118872000D03*
X171704000Y-106807000D03*
%TO.N,Net-(J1-Pin_1)*%
X147447000Y-81788000D03*
%TO.N,Net-(Q1-G)*%
X154432000Y-81788000D03*
%TO.N,Net-(U7-TXD)*%
X174371000Y-118237000D03*
X158623000Y-117602000D03*
%TO.N,Net-(U6-Sy)*%
X179324000Y-113411000D03*
X185293000Y-107823000D03*
%TO.N,Net-(U5-~{SCS})*%
X168656000Y-105537000D03*
X167132000Y-100584000D03*
%TO.N,Net-(U5-MOSI)*%
X160782000Y-106045000D03*
X160691097Y-102667454D03*
%TO.N,/U_ETHERNET/ACTLED*%
X175133000Y-101854000D03*
X168529000Y-95885000D03*
%TO.N,/U_MCU/BOOT*%
X176840986Y-108701516D03*
X154051000Y-116713000D03*
%TO.N,/CANFD1.RX*%
X159385000Y-117348000D03*
X173595310Y-118041280D03*
%TO.N,/U_I2C/I2C.RST*%
X171527967Y-116913033D03*
%TO.N,/U_I2C/I2C.INT*%
X171116000Y-116205000D03*
%TO.N,/U_MCU/SWD.CLK*%
X171683765Y-125201765D03*
%TO.N,/U_MCU/USER_LED1*%
X187452000Y-122047000D03*
X174117000Y-120396000D03*
%TO.N,/U_MCU/USER_LED2*%
X174747480Y-119788118D03*
X189484000Y-122428000D03*
%TO.N,/U_MCU/USER_LED3*%
X191135000Y-122555000D03*
X174879000Y-118999000D03*
%TO.N,/U_MCU/UART.RX*%
X167259000Y-106045000D03*
X154686000Y-108966000D03*
%TO.N,Net-(J10-Pin_3)*%
X170534265Y-104954351D03*
%TO.N,Net-(J10-Pin_7)*%
X167386000Y-126365000D03*
%TD*%
D31*
%TO.N,Net-(Q4-G)*%
X161789000Y-85840000D02*
X161142000Y-86487000D01*
X154051000Y-90678000D02*
X154559000Y-90170000D01*
X150979500Y-90678000D02*
X154051000Y-90678000D01*
X159639000Y-86510500D02*
X158165000Y-86510500D01*
X161142000Y-86487000D02*
X159662500Y-86487000D01*
X154559000Y-90170000D02*
X154559000Y-87503000D01*
X154559000Y-87503000D02*
X155067000Y-86995000D01*
X158165000Y-86510500D02*
X158115000Y-86460500D01*
X159662500Y-86487000D02*
X159639000Y-86510500D01*
X157580500Y-86995000D02*
X158115000Y-86460500D01*
X148336000Y-93321500D02*
X150979500Y-90678000D01*
X155067000Y-86995000D02*
X157580500Y-86995000D01*
%TO.N,/U_MCU/NRST*%
X170180000Y-106807000D02*
X171704000Y-106807000D01*
X152400000Y-114808000D02*
X155067000Y-112141000D01*
X153762000Y-118872000D02*
X152400000Y-117510000D01*
X164846000Y-112141000D02*
X170180000Y-106807000D01*
X152400000Y-117510000D02*
X152400000Y-114808000D01*
X155067000Y-112141000D02*
X164846000Y-112141000D01*
%TO.N,Net-(Q1-G)*%
X155448000Y-81788000D02*
X155956000Y-81280000D01*
X154432000Y-81788000D02*
X155448000Y-81788000D01*
%TO.N,Net-(U7-TXD)*%
X160020000Y-118999000D02*
X173609000Y-118999000D01*
X173609000Y-118999000D02*
X174371000Y-118237000D01*
X158623000Y-117602000D02*
X160020000Y-118999000D01*
%TO.N,Net-(J7-Pin_1)*%
X148336000Y-97282000D02*
X148336000Y-95146500D01*
%TO.N,Net-(U6-Sy)*%
X179324000Y-113411000D02*
X179705000Y-113411000D01*
X179705000Y-113411000D02*
X185293000Y-107823000D01*
%TO.N,Net-(U5-~{SCS})*%
X167132000Y-100584000D02*
X168529000Y-101981000D01*
X168529000Y-101981000D02*
X168529000Y-105410000D01*
X168529000Y-105410000D02*
X168656000Y-105537000D01*
%TO.N,Net-(U5-MOSI)*%
X160691097Y-105954097D02*
X160691097Y-102667454D01*
X160782000Y-106045000D02*
X160691097Y-105954097D01*
%TO.N,/U_ETHERNET/ACTLED*%
X169164000Y-95885000D02*
X175133000Y-101854000D01*
X168529000Y-95885000D02*
X169164000Y-95885000D01*
%TO.N,/U_MCU/BOOT*%
X154051000Y-116713000D02*
X168529000Y-116713000D01*
X176784000Y-109220000D02*
X176840986Y-109163014D01*
X170053000Y-115189000D02*
X176022000Y-115189000D01*
X176022000Y-115189000D02*
X176784000Y-114427000D01*
X168529000Y-116713000D02*
X170053000Y-115189000D01*
X176784000Y-114427000D02*
X176784000Y-109220000D01*
X176840986Y-109163014D02*
X176840986Y-108701516D01*
%TO.N,/CANFD1.RX*%
X160401000Y-118364000D02*
X173272590Y-118364000D01*
X159385000Y-117348000D02*
X160401000Y-118364000D01*
X173272590Y-118364000D02*
X173595310Y-118041280D01*
%TO.N,/U_I2C/I2C.RST*%
X188467000Y-111888000D02*
X191770000Y-111888000D01*
X171527967Y-116873480D02*
X171561447Y-116840000D01*
X171561447Y-116840000D02*
X183515000Y-116840000D01*
X171527967Y-116913033D02*
X171527967Y-116873480D01*
X183515000Y-116840000D02*
X188467000Y-111888000D01*
%TO.N,/U_I2C/I2C.INT*%
X183261000Y-116205000D02*
X171116000Y-116205000D01*
X191770000Y-109888000D02*
X189578000Y-109888000D01*
X189578000Y-109888000D02*
X183261000Y-116205000D01*
%TO.N,/U_MCU/SWD.CLK*%
X148336000Y-119982000D02*
X148336000Y-119855000D01*
X149479000Y-120396000D02*
X148750000Y-120396000D01*
X154305000Y-125222000D02*
X149479000Y-120396000D01*
X171683765Y-125201765D02*
X171663530Y-125222000D01*
X171663530Y-125222000D02*
X154305000Y-125222000D01*
X148750000Y-120396000D02*
X148336000Y-119982000D01*
%TO.N,/U_MCU/USER_LED1*%
X187452000Y-122047000D02*
X187452000Y-121920000D01*
X187452000Y-121920000D02*
X185928000Y-120396000D01*
X185928000Y-120396000D02*
X174117000Y-120396000D01*
%TO.N,/U_MCU/USER_LED2*%
X186844118Y-119788118D02*
X174747480Y-119788118D01*
X189484000Y-122428000D02*
X186844118Y-119788118D01*
%TO.N,/U_MCU/USER_LED3*%
X187706000Y-119126000D02*
X191135000Y-122555000D01*
X175006000Y-119126000D02*
X187706000Y-119126000D01*
X174879000Y-118999000D02*
X175006000Y-119126000D01*
%TO.N,/U_MCU/UART.RX*%
X164973000Y-108331000D02*
X155321000Y-108331000D01*
X155321000Y-108331000D02*
X154686000Y-108966000D01*
X167259000Y-106045000D02*
X164973000Y-108331000D01*
%TO.N,Net-(J10-Pin_3)*%
X148463000Y-113982000D02*
X148336000Y-113855000D01*
X155575000Y-109855000D02*
X151448000Y-113982000D01*
X151448000Y-113982000D02*
X148463000Y-113982000D01*
X170534265Y-104954351D02*
X165633616Y-109855000D01*
X165633616Y-109855000D02*
X155575000Y-109855000D01*
%TO.N,Net-(J10-Pin_7)*%
X153797000Y-126365000D02*
X149352000Y-121920000D01*
X167386000Y-126365000D02*
X153797000Y-126365000D01*
X148401000Y-121920000D02*
X148336000Y-121855000D01*
X149352000Y-121920000D02*
X148401000Y-121920000D01*
%TD*%
%TA.AperFunction,Conductor*%
%TO.N,+3.3V*%
G36*
X165589694Y-98570306D02*
G01*
X165608000Y-98614500D01*
X165608000Y-101410500D01*
X165589694Y-101454694D01*
X165545500Y-101473000D01*
X158177500Y-101473000D01*
X158133306Y-101454694D01*
X158115000Y-101410500D01*
X158115000Y-99757500D01*
X158133306Y-99713306D01*
X158177500Y-99695000D01*
X161097161Y-99695000D01*
X161102994Y-99695272D01*
X161126744Y-99697500D01*
X161126747Y-99697500D01*
X161707253Y-99697500D01*
X161707256Y-99697500D01*
X161731005Y-99695272D01*
X161736839Y-99695000D01*
X162306000Y-99695000D01*
X162306000Y-98614500D01*
X162324306Y-98570306D01*
X162368500Y-98552000D01*
X165545500Y-98552000D01*
X165589694Y-98570306D01*
G37*
%TD.AperFunction*%
%TD*%
%TA.AperFunction,Conductor*%
%TO.N,+12V*%
G36*
X173679039Y-80537685D02*
G01*
X173724794Y-80590489D01*
X173736000Y-80642000D01*
X173736000Y-84204000D01*
X173716315Y-84271039D01*
X173663511Y-84316794D01*
X173612000Y-84328000D01*
X171323000Y-84328000D01*
X171323000Y-86490000D01*
X171303315Y-86557039D01*
X171250511Y-86602794D01*
X171199000Y-86614000D01*
X165097000Y-86614000D01*
X165029961Y-86594315D01*
X164984206Y-86541511D01*
X164973000Y-86490000D01*
X164973000Y-80642000D01*
X164992685Y-80574961D01*
X165045489Y-80529206D01*
X165097000Y-80518000D01*
X173612000Y-80518000D01*
X173679039Y-80537685D01*
G37*
%TD.AperFunction*%
%TD*%
%TA.AperFunction,Conductor*%
%TO.N,+5V*%
G36*
X162160694Y-90823306D02*
G01*
X162179000Y-90867500D01*
X162179000Y-93853000D01*
X163322000Y-94996000D01*
X163322000Y-95377000D01*
X159131000Y-95377000D01*
X159131000Y-94996000D01*
X160274000Y-93853000D01*
X160274000Y-90867500D01*
X160292306Y-90823306D01*
X160336500Y-90805000D01*
X162116500Y-90805000D01*
X162160694Y-90823306D01*
G37*
%TD.AperFunction*%
%TD*%
%TA.AperFunction,Conductor*%
%TO.N,Net-(Q1-S)*%
G36*
X162884039Y-80537685D02*
G01*
X162929794Y-80590489D01*
X162941000Y-80642000D01*
X162941000Y-84712000D01*
X162921315Y-84779039D01*
X162868511Y-84824794D01*
X162817000Y-84836000D01*
X160274000Y-84836000D01*
X160274000Y-85220000D01*
X160254315Y-85287039D01*
X160201511Y-85332794D01*
X160150000Y-85344000D01*
X157099000Y-85344000D01*
X157099000Y-86363000D01*
X157079315Y-86430039D01*
X157026511Y-86475794D01*
X156975000Y-86487000D01*
X154937000Y-86487000D01*
X154869961Y-86467315D01*
X154824206Y-86414511D01*
X154813000Y-86363000D01*
X154813000Y-82420000D01*
X154832685Y-82352961D01*
X154885489Y-82307206D01*
X154937000Y-82296000D01*
X157353000Y-82296000D01*
X157353000Y-81566601D01*
X157372685Y-81499562D01*
X157425489Y-81453807D01*
X157494647Y-81443863D01*
X157509081Y-81446823D01*
X157533999Y-81453500D01*
X157534002Y-81453500D01*
X157679999Y-81453500D01*
X157680001Y-81453500D01*
X157821029Y-81415712D01*
X157947471Y-81342711D01*
X158050711Y-81239471D01*
X158123712Y-81113029D01*
X158161500Y-80972001D01*
X158161500Y-80825999D01*
X158123712Y-80684971D01*
X158123711Y-80684969D01*
X158121608Y-80677120D01*
X158124169Y-80676433D01*
X158118098Y-80619989D01*
X158149370Y-80557509D01*
X158209457Y-80521853D01*
X158240129Y-80518000D01*
X162817000Y-80518000D01*
X162884039Y-80537685D01*
G37*
%TD.AperFunction*%
%TD*%
%TA.AperFunction,Conductor*%
%TO.N,+5V*%
G36*
X159131000Y-95377000D02*
G01*
X163322000Y-95377000D01*
X163322000Y-94996000D01*
X163894500Y-94996000D01*
X163938694Y-95014306D01*
X163957000Y-95058500D01*
X163957000Y-96965500D01*
X163938694Y-97009694D01*
X163894500Y-97028000D01*
X162368500Y-97028000D01*
X162324306Y-97009694D01*
X162306000Y-96965500D01*
X162306000Y-96393000D01*
X158177500Y-96393000D01*
X158133306Y-96374694D01*
X158115000Y-96330500D01*
X158115000Y-95058500D01*
X158133306Y-95014306D01*
X158177500Y-94996000D01*
X159131000Y-94996000D01*
X159131000Y-95377000D01*
G37*
%TD.AperFunction*%
%TD*%
%TA.AperFunction,Conductor*%
%TO.N,Net-(J1-Pin_1)*%
G36*
X153994039Y-80537685D02*
G01*
X154039794Y-80590489D01*
X154051000Y-80642000D01*
X154051000Y-81013542D01*
X154031315Y-81080581D01*
X153995892Y-81116644D01*
X153921707Y-81166213D01*
X153810213Y-81277707D01*
X153810210Y-81277711D01*
X153722609Y-81408814D01*
X153722602Y-81408827D01*
X153662264Y-81554498D01*
X153662261Y-81554510D01*
X153631500Y-81709153D01*
X153631500Y-81866846D01*
X153662261Y-82021489D01*
X153662264Y-82021501D01*
X153722602Y-82167172D01*
X153722609Y-82167185D01*
X153810210Y-82298288D01*
X153810213Y-82298292D01*
X153921708Y-82409787D01*
X153921711Y-82409789D01*
X153995891Y-82459354D01*
X154040695Y-82512965D01*
X154051000Y-82562456D01*
X154051000Y-87148655D01*
X154046850Y-87164141D01*
X154047506Y-87177884D01*
X154034390Y-87210649D01*
X154028360Y-87221094D01*
X154028359Y-87221096D01*
X153999425Y-87271209D01*
X153999424Y-87271210D01*
X153999423Y-87271215D01*
X153958499Y-87423943D01*
X153958499Y-87423945D01*
X153958499Y-87592046D01*
X153958500Y-87592059D01*
X153958500Y-89869903D01*
X153949855Y-89899343D01*
X153943332Y-89929330D01*
X153939577Y-89934345D01*
X153938815Y-89936942D01*
X153922181Y-89957584D01*
X153873084Y-90006681D01*
X153811761Y-90040166D01*
X153785403Y-90043000D01*
X146428000Y-90043000D01*
X146360961Y-90023315D01*
X146315206Y-89970511D01*
X146304000Y-89919000D01*
X146304000Y-80642000D01*
X146323685Y-80574961D01*
X146376489Y-80529206D01*
X146428000Y-80518000D01*
X153927000Y-80518000D01*
X153994039Y-80537685D01*
G37*
%TD.AperFunction*%
%TD*%
%TA.AperFunction,Conductor*%
%TO.N,GND*%
G36*
X164666057Y-80502298D02*
G01*
X164670611Y-80501136D01*
X164687628Y-80511233D01*
X164705910Y-80518806D01*
X164707708Y-80523147D01*
X164711750Y-80525546D01*
X164716643Y-80544719D01*
X164724216Y-80563000D01*
X164723580Y-80571890D01*
X164719866Y-80597723D01*
X164713500Y-80641998D01*
X164713500Y-80751385D01*
X164709993Y-80772027D01*
X164691352Y-80825297D01*
X164688500Y-80855727D01*
X164688500Y-86264272D01*
X164691352Y-86294699D01*
X164691352Y-86294700D01*
X164691353Y-86294702D01*
X164709993Y-86347971D01*
X164713500Y-86368614D01*
X164713500Y-86490007D01*
X164719430Y-86545156D01*
X164719431Y-86545163D01*
X164723336Y-86563112D01*
X164730635Y-86596669D01*
X164737984Y-86623458D01*
X164752186Y-86648398D01*
X164788089Y-86711448D01*
X164833844Y-86764252D01*
X164833848Y-86764255D01*
X164833849Y-86764257D01*
X164833854Y-86764262D01*
X164867132Y-86796372D01*
X164956846Y-86843302D01*
X164956848Y-86843302D01*
X164956849Y-86843303D01*
X165023888Y-86862988D01*
X165072443Y-86869969D01*
X165096998Y-86873500D01*
X165097000Y-86873500D01*
X171198994Y-86873500D01*
X171199000Y-86873500D01*
X171254163Y-86867569D01*
X171305674Y-86856363D01*
X171323818Y-86851385D01*
X171332458Y-86849015D01*
X171332458Y-86849014D01*
X171332461Y-86849014D01*
X171420448Y-86798911D01*
X171473252Y-86753156D01*
X171505371Y-86719869D01*
X171552303Y-86630151D01*
X171562652Y-86594906D01*
X184522500Y-86594906D01*
X184522500Y-86831093D01*
X184529217Y-86873500D01*
X184556491Y-87045706D01*
X184559448Y-87064372D01*
X184632431Y-87288990D01*
X184632435Y-87288998D01*
X184739658Y-87499435D01*
X184878482Y-87690509D01*
X184878489Y-87690517D01*
X185045482Y-87857510D01*
X185045490Y-87857517D01*
X185161368Y-87941708D01*
X185236567Y-87996343D01*
X185447008Y-88103568D01*
X185671632Y-88176553D01*
X185904908Y-88213500D01*
X185904910Y-88213500D01*
X186141090Y-88213500D01*
X186141092Y-88213500D01*
X186374368Y-88176553D01*
X186598992Y-88103568D01*
X186809433Y-87996343D01*
X187000510Y-87857517D01*
X187167517Y-87690510D01*
X187306343Y-87499433D01*
X187413568Y-87288992D01*
X187486553Y-87064368D01*
X187523500Y-86831092D01*
X187523500Y-86594908D01*
X187486553Y-86361632D01*
X187413568Y-86137008D01*
X187306343Y-85926567D01*
X187290905Y-85905319D01*
X187167517Y-85735490D01*
X187167510Y-85735482D01*
X187000517Y-85568489D01*
X187000509Y-85568482D01*
X186809435Y-85429658D01*
X186598998Y-85322435D01*
X186598990Y-85322431D01*
X186374372Y-85249448D01*
X186374370Y-85249447D01*
X186374368Y-85249447D01*
X186188446Y-85220000D01*
X186141093Y-85212500D01*
X186141092Y-85212500D01*
X185904908Y-85212500D01*
X185904906Y-85212500D01*
X185764113Y-85234799D01*
X185671632Y-85249447D01*
X185671630Y-85249447D01*
X185671627Y-85249448D01*
X185447009Y-85322431D01*
X185447001Y-85322435D01*
X185236564Y-85429658D01*
X185045490Y-85568482D01*
X185045482Y-85568489D01*
X184878489Y-85735482D01*
X184878482Y-85735490D01*
X184739658Y-85926564D01*
X184632435Y-86137001D01*
X184632431Y-86137009D01*
X184559448Y-86361627D01*
X184559447Y-86361630D01*
X184559447Y-86361632D01*
X184547651Y-86436112D01*
X184522500Y-86594906D01*
X171562652Y-86594906D01*
X171571988Y-86563112D01*
X171582500Y-86490000D01*
X171582500Y-85532109D01*
X178315500Y-85532109D01*
X178315500Y-85663890D01*
X178315501Y-85663898D01*
X178349606Y-85791182D01*
X178349607Y-85791185D01*
X178415501Y-85905315D01*
X178415504Y-85905319D01*
X178508680Y-85998495D01*
X178508684Y-85998498D01*
X178508686Y-85998500D01*
X178622814Y-86064392D01*
X178622817Y-86064393D01*
X178674164Y-86078151D01*
X178750108Y-86098500D01*
X178750109Y-86098500D01*
X178881891Y-86098500D01*
X178881892Y-86098500D01*
X179009186Y-86064392D01*
X179123314Y-85998500D01*
X179216500Y-85905314D01*
X179282392Y-85791186D01*
X179316500Y-85663892D01*
X179316500Y-85532108D01*
X179282523Y-85405303D01*
X179282393Y-85404817D01*
X179282392Y-85404814D01*
X179216500Y-85290686D01*
X179216498Y-85290684D01*
X179216495Y-85290680D01*
X179123319Y-85197504D01*
X179123315Y-85197501D01*
X179123314Y-85197500D01*
X179065647Y-85164206D01*
X179009185Y-85131607D01*
X179009182Y-85131606D01*
X178881898Y-85097501D01*
X178881893Y-85097500D01*
X178881892Y-85097500D01*
X178750108Y-85097500D01*
X178750107Y-85097500D01*
X178750101Y-85097501D01*
X178622817Y-85131606D01*
X178622814Y-85131607D01*
X178508684Y-85197501D01*
X178508680Y-85197504D01*
X178415504Y-85290680D01*
X178415501Y-85290684D01*
X178349607Y-85404814D01*
X178349606Y-85404817D01*
X178315501Y-85532101D01*
X178315500Y-85532109D01*
X171582500Y-85532109D01*
X171582500Y-84650000D01*
X171600806Y-84605806D01*
X171645000Y-84587500D01*
X173611994Y-84587500D01*
X173612000Y-84587500D01*
X173667163Y-84581569D01*
X173718674Y-84570363D01*
X173736818Y-84565385D01*
X173745458Y-84563015D01*
X173745458Y-84563014D01*
X173745461Y-84563014D01*
X173833448Y-84512911D01*
X173886252Y-84467156D01*
X173918371Y-84433869D01*
X173965303Y-84344151D01*
X173984988Y-84277112D01*
X173995500Y-84204000D01*
X173995500Y-80642000D01*
X173989569Y-80586837D01*
X173987273Y-80576283D01*
X173995767Y-80529209D01*
X174035060Y-80501928D01*
X174048345Y-80500500D01*
X194448944Y-80500500D01*
X194493138Y-80518806D01*
X194511444Y-80563000D01*
X194500911Y-80597723D01*
X194450958Y-80672482D01*
X194450958Y-80672483D01*
X194286514Y-80980136D01*
X194153020Y-81302418D01*
X194153017Y-81302426D01*
X194153016Y-81302430D01*
X194141890Y-81339109D01*
X194051750Y-81636256D01*
X194051746Y-81636272D01*
X193983691Y-81978412D01*
X193955790Y-82261707D01*
X193950915Y-82311214D01*
X193949500Y-82325578D01*
X193949500Y-82674421D01*
X193983691Y-83021587D01*
X194051746Y-83363727D01*
X194051750Y-83363742D01*
X194153016Y-83697570D01*
X194153018Y-83697575D01*
X194153020Y-83697581D01*
X194286514Y-84019863D01*
X194450958Y-84327516D01*
X194450958Y-84327517D01*
X194450961Y-84327522D01*
X194450962Y-84327523D01*
X194644772Y-84617581D01*
X194644775Y-84617585D01*
X194644776Y-84617586D01*
X194644778Y-84617589D01*
X194866075Y-84887240D01*
X194866081Y-84887247D01*
X195112752Y-85133918D01*
X195112759Y-85133924D01*
X195342460Y-85322435D01*
X195382419Y-85355228D01*
X195672477Y-85549038D01*
X195672479Y-85549039D01*
X195672482Y-85549041D01*
X195701105Y-85564340D01*
X195980135Y-85713485D01*
X196302418Y-85846979D01*
X196302417Y-85846979D01*
X196302420Y-85846980D01*
X196302430Y-85846984D01*
X196636258Y-85948250D01*
X196636267Y-85948251D01*
X196636272Y-85948253D01*
X196662777Y-85953525D01*
X196978405Y-86016307D01*
X196978410Y-86016307D01*
X196978413Y-86016308D01*
X196978411Y-86016308D01*
X197140359Y-86032258D01*
X197325575Y-86050500D01*
X197325579Y-86050500D01*
X197674421Y-86050500D01*
X197674425Y-86050500D01*
X197900100Y-86028273D01*
X198021587Y-86016308D01*
X198021589Y-86016307D01*
X198021595Y-86016307D01*
X198363742Y-85948250D01*
X198697570Y-85846984D01*
X199019865Y-85713485D01*
X199327523Y-85549038D01*
X199402278Y-85499087D01*
X199449193Y-85489756D01*
X199488967Y-85516331D01*
X199499500Y-85551055D01*
X199499500Y-124448944D01*
X199481194Y-124493138D01*
X199437000Y-124511444D01*
X199402277Y-124500911D01*
X199382442Y-124487658D01*
X199327523Y-124450962D01*
X199327522Y-124450961D01*
X199327517Y-124450958D01*
X199019863Y-124286514D01*
X198697581Y-124153020D01*
X198697582Y-124153020D01*
X198697573Y-124153017D01*
X198697570Y-124153016D01*
X198516447Y-124098072D01*
X198363743Y-124051750D01*
X198363727Y-124051746D01*
X198021586Y-123983691D01*
X198021588Y-123983691D01*
X197754660Y-123957402D01*
X197674425Y-123949500D01*
X197325575Y-123949500D01*
X197245339Y-123957402D01*
X196978412Y-123983691D01*
X196636272Y-124051746D01*
X196636256Y-124051750D01*
X196444363Y-124109961D01*
X196302430Y-124153016D01*
X196302426Y-124153017D01*
X196302418Y-124153020D01*
X195980136Y-124286514D01*
X195672483Y-124450958D01*
X195672482Y-124450958D01*
X195382413Y-124644776D01*
X195382410Y-124644778D01*
X195112759Y-124866075D01*
X195112752Y-124866081D01*
X194866081Y-125112752D01*
X194866075Y-125112759D01*
X194644778Y-125382410D01*
X194644776Y-125382413D01*
X194450958Y-125672482D01*
X194450958Y-125672483D01*
X194286514Y-125980136D01*
X194153020Y-126302418D01*
X194153017Y-126302426D01*
X194153016Y-126302430D01*
X194148206Y-126318287D01*
X194051750Y-126636256D01*
X194051746Y-126636272D01*
X193983691Y-126978412D01*
X193957996Y-127239309D01*
X193951478Y-127305499D01*
X193949500Y-127325578D01*
X193949500Y-127674421D01*
X193983691Y-128021587D01*
X194051746Y-128363727D01*
X194051750Y-128363742D01*
X194153016Y-128697570D01*
X194153018Y-128697575D01*
X194153020Y-128697581D01*
X194286514Y-129019863D01*
X194450958Y-129327516D01*
X194450958Y-129327517D01*
X194500911Y-129402277D01*
X194510243Y-129449193D01*
X194483667Y-129488967D01*
X194448944Y-129499500D01*
X145551056Y-129499500D01*
X145506862Y-129481194D01*
X145488556Y-129437000D01*
X145499089Y-129402277D01*
X145533685Y-129350500D01*
X145549038Y-129327523D01*
X145713485Y-129019865D01*
X145846984Y-128697570D01*
X145948250Y-128363742D01*
X146016307Y-128021595D01*
X146050500Y-127674425D01*
X146050500Y-127325575D01*
X146023223Y-127048624D01*
X146037109Y-127002849D01*
X146079296Y-126980300D01*
X146125072Y-126994186D01*
X146137389Y-127007776D01*
X146164683Y-127048625D01*
X146188142Y-127083733D01*
X146275267Y-127170858D01*
X146377714Y-127239311D01*
X146491548Y-127286463D01*
X146612394Y-127310500D01*
X146612395Y-127310500D01*
X146735605Y-127310500D01*
X146735606Y-127310500D01*
X146856452Y-127286463D01*
X146970286Y-127239311D01*
X147072733Y-127170858D01*
X147159858Y-127083733D01*
X147228311Y-126981286D01*
X147275463Y-126867452D01*
X147299500Y-126746606D01*
X147299500Y-126623394D01*
X147299500Y-126623393D01*
X147848500Y-126623393D01*
X147848500Y-126746606D01*
X147872536Y-126867450D01*
X147872537Y-126867453D01*
X147919687Y-126981283D01*
X147919690Y-126981287D01*
X147964683Y-127048625D01*
X147988142Y-127083733D01*
X148075267Y-127170858D01*
X148177714Y-127239311D01*
X148291548Y-127286463D01*
X148412394Y-127310500D01*
X148412395Y-127310500D01*
X148535605Y-127310500D01*
X148535606Y-127310500D01*
X148656452Y-127286463D01*
X148770286Y-127239311D01*
X148872733Y-127170858D01*
X148959858Y-127083733D01*
X149028311Y-126981286D01*
X149075463Y-126867452D01*
X149099500Y-126746606D01*
X149099500Y-126623394D01*
X149098505Y-126618393D01*
X150112500Y-126618393D01*
X150112500Y-126741606D01*
X150136536Y-126862450D01*
X150136537Y-126862453D01*
X150183687Y-126976283D01*
X150183688Y-126976285D01*
X150183689Y-126976286D01*
X150252142Y-127078733D01*
X150339267Y-127165858D01*
X150441714Y-127234311D01*
X150555548Y-127281463D01*
X150676394Y-127305500D01*
X150676395Y-127305500D01*
X150799605Y-127305500D01*
X150799606Y-127305500D01*
X150920452Y-127281463D01*
X151034286Y-127234311D01*
X151136733Y-127165858D01*
X151223858Y-127078733D01*
X151292311Y-126976286D01*
X151339463Y-126862452D01*
X151363500Y-126741606D01*
X151363500Y-126618394D01*
X151363500Y-126618393D01*
X151912500Y-126618393D01*
X151912500Y-126741606D01*
X151936536Y-126862450D01*
X151936537Y-126862453D01*
X151983687Y-126976283D01*
X151983688Y-126976285D01*
X151983689Y-126976286D01*
X152052142Y-127078733D01*
X152139267Y-127165858D01*
X152241714Y-127234311D01*
X152355548Y-127281463D01*
X152476394Y-127305500D01*
X152476395Y-127305500D01*
X152599605Y-127305500D01*
X152599606Y-127305500D01*
X152720452Y-127281463D01*
X152834286Y-127234311D01*
X152936733Y-127165858D01*
X153023858Y-127078733D01*
X153092311Y-126976286D01*
X153139463Y-126862452D01*
X153163500Y-126741606D01*
X153163500Y-126618394D01*
X153139463Y-126497548D01*
X153092311Y-126383714D01*
X153023858Y-126281267D01*
X152936733Y-126194142D01*
X152834286Y-126125689D01*
X152834285Y-126125688D01*
X152834283Y-126125687D01*
X152720453Y-126078537D01*
X152720450Y-126078536D01*
X152599606Y-126054500D01*
X152476394Y-126054500D01*
X152476393Y-126054500D01*
X152355549Y-126078536D01*
X152355546Y-126078537D01*
X152241716Y-126125687D01*
X152241712Y-126125690D01*
X152139267Y-126194141D01*
X152052141Y-126281267D01*
X151983690Y-126383712D01*
X151983687Y-126383716D01*
X151936537Y-126497546D01*
X151936536Y-126497549D01*
X151912500Y-126618393D01*
X151363500Y-126618393D01*
X151339463Y-126497548D01*
X151292311Y-126383714D01*
X151223858Y-126281267D01*
X151136733Y-126194142D01*
X151034286Y-126125689D01*
X151034285Y-126125688D01*
X151034283Y-126125687D01*
X150920453Y-126078537D01*
X150920450Y-126078536D01*
X150799606Y-126054500D01*
X150676394Y-126054500D01*
X150676393Y-126054500D01*
X150555549Y-126078536D01*
X150555546Y-126078537D01*
X150441716Y-126125687D01*
X150441712Y-126125690D01*
X150339267Y-126194141D01*
X150252141Y-126281267D01*
X150183690Y-126383712D01*
X150183687Y-126383716D01*
X150136537Y-126497546D01*
X150136536Y-126497549D01*
X150112500Y-126618393D01*
X149098505Y-126618393D01*
X149075463Y-126502548D01*
X149028311Y-126388714D01*
X148959858Y-126286267D01*
X148872733Y-126199142D01*
X148865248Y-126194141D01*
X148770287Y-126130690D01*
X148770283Y-126130687D01*
X148656453Y-126083537D01*
X148656450Y-126083536D01*
X148535606Y-126059500D01*
X148412394Y-126059500D01*
X148412393Y-126059500D01*
X148291549Y-126083536D01*
X148291546Y-126083537D01*
X148177716Y-126130687D01*
X148177712Y-126130690D01*
X148075267Y-126199141D01*
X147988141Y-126286267D01*
X147919690Y-126388712D01*
X147919687Y-126388716D01*
X147872537Y-126502546D01*
X147872536Y-126502549D01*
X147848500Y-126623393D01*
X147299500Y-126623393D01*
X147275463Y-126502548D01*
X147228311Y-126388714D01*
X147159858Y-126286267D01*
X147072733Y-126199142D01*
X147065248Y-126194141D01*
X146970287Y-126130690D01*
X146970283Y-126130687D01*
X146856453Y-126083537D01*
X146856450Y-126083536D01*
X146735606Y-126059500D01*
X146612394Y-126059500D01*
X146612393Y-126059500D01*
X146491549Y-126083536D01*
X146491546Y-126083537D01*
X146377716Y-126130687D01*
X146377712Y-126130690D01*
X146275267Y-126199141D01*
X146188141Y-126286267D01*
X146119690Y-126388712D01*
X146119687Y-126388716D01*
X146072537Y-126502546D01*
X146072536Y-126502549D01*
X146055929Y-126586042D01*
X146029353Y-126625816D01*
X145982437Y-126635148D01*
X145942663Y-126608572D01*
X145934823Y-126591997D01*
X145846984Y-126302430D01*
X145713485Y-125980135D01*
X145549038Y-125672477D01*
X145355228Y-125382419D01*
X145333661Y-125356140D01*
X145133924Y-125112759D01*
X145133918Y-125112752D01*
X144887247Y-124866081D01*
X144887240Y-124866075D01*
X144617589Y-124644778D01*
X144617586Y-124644776D01*
X144617585Y-124644775D01*
X144617581Y-124644772D01*
X144327523Y-124450962D01*
X144327522Y-124450961D01*
X144327517Y-124450958D01*
X144019863Y-124286514D01*
X143697581Y-124153020D01*
X143697582Y-124153020D01*
X143697573Y-124153017D01*
X143697570Y-124153016D01*
X143516447Y-124098072D01*
X143363743Y-124051750D01*
X143363727Y-124051746D01*
X143021586Y-123983691D01*
X143021588Y-123983691D01*
X142754660Y-123957402D01*
X142674425Y-123949500D01*
X142325575Y-123949500D01*
X142245339Y-123957402D01*
X141978412Y-123983691D01*
X141636272Y-124051746D01*
X141636256Y-124051750D01*
X141444363Y-124109961D01*
X141302430Y-124153016D01*
X141302426Y-124153017D01*
X141302418Y-124153020D01*
X140980136Y-124286514D01*
X140672483Y-124450958D01*
X140672482Y-124450958D01*
X140597723Y-124500911D01*
X140550807Y-124510243D01*
X140511033Y-124483667D01*
X140500500Y-124448944D01*
X140500500Y-123281080D01*
X145485500Y-123281080D01*
X145485500Y-123428919D01*
X145514341Y-123573911D01*
X145514341Y-123573912D01*
X145563288Y-123692080D01*
X145570916Y-123710495D01*
X145653049Y-123833416D01*
X145757584Y-123937951D01*
X145880505Y-124020084D01*
X146017087Y-124076658D01*
X146162082Y-124105500D01*
X146309918Y-124105500D01*
X146454913Y-124076658D01*
X146591495Y-124020084D01*
X146714416Y-123937951D01*
X146818951Y-123833416D01*
X146901084Y-123710495D01*
X146957658Y-123573913D01*
X146986500Y-123428918D01*
X146986500Y-123281082D01*
X146957658Y-123136087D01*
X146901084Y-122999505D01*
X146818951Y-122876584D01*
X146714416Y-122772049D01*
X146714415Y-122772048D01*
X146591497Y-122689917D01*
X146591495Y-122689916D01*
X146454911Y-122633341D01*
X146309919Y-122604500D01*
X146309918Y-122604500D01*
X146162082Y-122604500D01*
X146162080Y-122604500D01*
X146017088Y-122633341D01*
X146017087Y-122633341D01*
X145880504Y-122689916D01*
X145880502Y-122689917D01*
X145757584Y-122772048D01*
X145653048Y-122876584D01*
X145570917Y-122999502D01*
X145570916Y-122999504D01*
X145514341Y-123136087D01*
X145514341Y-123136088D01*
X145485500Y-123281080D01*
X140500500Y-123281080D01*
X140500500Y-121771232D01*
X147485500Y-121771232D01*
X147485500Y-121938767D01*
X147518183Y-122103080D01*
X147582295Y-122257860D01*
X147582298Y-122257864D01*
X147651951Y-122362108D01*
X147675374Y-122397162D01*
X147793838Y-122515626D01*
X147933137Y-122608703D01*
X147933138Y-122608703D01*
X147933139Y-122608704D01*
X147962578Y-122620898D01*
X148087918Y-122672816D01*
X148252233Y-122705500D01*
X148419767Y-122705500D01*
X148584082Y-122672816D01*
X148738863Y-122608703D01*
X148878162Y-122515626D01*
X148996626Y-122397162D01*
X149089703Y-122257863D01*
X149089704Y-122257859D01*
X149091151Y-122255154D01*
X149092436Y-122255841D01*
X149097990Y-122250288D01*
X149102747Y-122238806D01*
X149114235Y-122234047D01*
X149123030Y-122225255D01*
X149146941Y-122220500D01*
X149201641Y-122220500D01*
X149245835Y-122238806D01*
X153556540Y-126549511D01*
X153612489Y-126605460D01*
X153681011Y-126645021D01*
X153704396Y-126651287D01*
X153757432Y-126665499D01*
X153757438Y-126665500D01*
X166952798Y-126665500D01*
X166996992Y-126683806D01*
X167078680Y-126765495D01*
X167078684Y-126765498D01*
X167078686Y-126765500D01*
X167170623Y-126818580D01*
X167192814Y-126831392D01*
X167192817Y-126831393D01*
X167270712Y-126852264D01*
X167320108Y-126865500D01*
X167320109Y-126865500D01*
X167451891Y-126865500D01*
X167451892Y-126865500D01*
X167579186Y-126831392D01*
X167693314Y-126765500D01*
X167786500Y-126672314D01*
X167852392Y-126558186D01*
X167886500Y-126430892D01*
X167886500Y-126299108D01*
X167873264Y-126249712D01*
X167852393Y-126171817D01*
X167852392Y-126171814D01*
X167825762Y-126125690D01*
X167786500Y-126057686D01*
X167786498Y-126057684D01*
X167786495Y-126057680D01*
X167693319Y-125964504D01*
X167693315Y-125964501D01*
X167693314Y-125964500D01*
X167636250Y-125931554D01*
X167579185Y-125898607D01*
X167579182Y-125898606D01*
X167451898Y-125864501D01*
X167451893Y-125864500D01*
X167451892Y-125864500D01*
X167320108Y-125864500D01*
X167320107Y-125864500D01*
X167320101Y-125864501D01*
X167192817Y-125898606D01*
X167192814Y-125898607D01*
X167078684Y-125964501D01*
X167078680Y-125964504D01*
X166996992Y-126046194D01*
X166952798Y-126064500D01*
X153947359Y-126064500D01*
X153903165Y-126046194D01*
X149536511Y-121679540D01*
X149511770Y-121665256D01*
X149467989Y-121639979D01*
X149467986Y-121639978D01*
X149391567Y-121619500D01*
X149391562Y-121619500D01*
X149200788Y-121619500D01*
X149156594Y-121601194D01*
X149143046Y-121580918D01*
X149142917Y-121580607D01*
X149093755Y-121461919D01*
X149089704Y-121452139D01*
X149089703Y-121452138D01*
X149089703Y-121452137D01*
X148996626Y-121312838D01*
X148878162Y-121194374D01*
X148856461Y-121179874D01*
X148738864Y-121101298D01*
X148738860Y-121101295D01*
X148584080Y-121037183D01*
X148419767Y-121004500D01*
X148252233Y-121004500D01*
X148087919Y-121037183D01*
X147933139Y-121101295D01*
X147933135Y-121101298D01*
X147793838Y-121194373D01*
X147675373Y-121312838D01*
X147582298Y-121452135D01*
X147582295Y-121452139D01*
X147518183Y-121606919D01*
X147485500Y-121771232D01*
X140500500Y-121771232D01*
X140500500Y-119771232D01*
X147485500Y-119771232D01*
X147485500Y-119938767D01*
X147518183Y-120103080D01*
X147582295Y-120257860D01*
X147582298Y-120257864D01*
X147648445Y-120356861D01*
X147675374Y-120397162D01*
X147793838Y-120515626D01*
X147933137Y-120608703D01*
X148087918Y-120672816D01*
X148252233Y-120705500D01*
X148419767Y-120705500D01*
X148584082Y-120672816D01*
X148584084Y-120672814D01*
X148587023Y-120671924D01*
X148587637Y-120673950D01*
X148629140Y-120673849D01*
X148631131Y-120674828D01*
X148634008Y-120676019D01*
X148634011Y-120676021D01*
X148657396Y-120682287D01*
X148710432Y-120696499D01*
X148710438Y-120696500D01*
X148789562Y-120696500D01*
X149328641Y-120696500D01*
X149372835Y-120714806D01*
X154120483Y-125462455D01*
X154120492Y-125462462D01*
X154189006Y-125502019D01*
X154189009Y-125502020D01*
X154189012Y-125502022D01*
X154189013Y-125502022D01*
X154189015Y-125502023D01*
X154198159Y-125504473D01*
X154265438Y-125522500D01*
X171270798Y-125522500D01*
X171314992Y-125540806D01*
X171376451Y-125602265D01*
X171490579Y-125668157D01*
X171490582Y-125668158D01*
X171539115Y-125681162D01*
X171617873Y-125702265D01*
X171617874Y-125702265D01*
X171749656Y-125702265D01*
X171749657Y-125702265D01*
X171876951Y-125668157D01*
X171991079Y-125602265D01*
X172084265Y-125509079D01*
X172150157Y-125394951D01*
X172184265Y-125267657D01*
X172184265Y-125135873D01*
X172150157Y-125008579D01*
X172084265Y-124894451D01*
X172084263Y-124894449D01*
X172084260Y-124894445D01*
X171991084Y-124801269D01*
X171991080Y-124801266D01*
X171991079Y-124801265D01*
X171934015Y-124768319D01*
X171876950Y-124735372D01*
X171876947Y-124735371D01*
X171749663Y-124701266D01*
X171749658Y-124701265D01*
X171749657Y-124701265D01*
X171617873Y-124701265D01*
X171617872Y-124701265D01*
X171617866Y-124701266D01*
X171490582Y-124735371D01*
X171490579Y-124735372D01*
X171376449Y-124801266D01*
X171376445Y-124801269D01*
X171283269Y-124894445D01*
X171281275Y-124897045D01*
X171239850Y-124920965D01*
X171231688Y-124921500D01*
X154455359Y-124921500D01*
X154411165Y-124903194D01*
X153200051Y-123692080D01*
X154213500Y-123692080D01*
X154213500Y-123839919D01*
X154242341Y-123984911D01*
X154242341Y-123984912D01*
X154298916Y-124121495D01*
X154298917Y-124121497D01*
X154319980Y-124153020D01*
X154381049Y-124244416D01*
X154485584Y-124348951D01*
X154608505Y-124431084D01*
X154745087Y-124487658D01*
X154890082Y-124516500D01*
X155037918Y-124516500D01*
X155182913Y-124487658D01*
X155319495Y-124431084D01*
X155442416Y-124348951D01*
X155546951Y-124244416D01*
X155629084Y-124121495D01*
X155685658Y-123984913D01*
X155714500Y-123839918D01*
X155714500Y-123692082D01*
X155714500Y-123692080D01*
X163213500Y-123692080D01*
X163213500Y-123839919D01*
X163242341Y-123984911D01*
X163242341Y-123984912D01*
X163298916Y-124121495D01*
X163298917Y-124121497D01*
X163319980Y-124153020D01*
X163381049Y-124244416D01*
X163485584Y-124348951D01*
X163608505Y-124431084D01*
X163745087Y-124487658D01*
X163890082Y-124516500D01*
X164037918Y-124516500D01*
X164182913Y-124487658D01*
X164319495Y-124431084D01*
X164442416Y-124348951D01*
X164546951Y-124244416D01*
X164619033Y-124136536D01*
X164658807Y-124109961D01*
X164705723Y-124119293D01*
X164722966Y-124136536D01*
X164795049Y-124244416D01*
X164899584Y-124348951D01*
X165022505Y-124431084D01*
X165159087Y-124487658D01*
X165304082Y-124516500D01*
X165451918Y-124516500D01*
X165596913Y-124487658D01*
X165733495Y-124431084D01*
X165856416Y-124348951D01*
X165960951Y-124244416D01*
X166043084Y-124121495D01*
X166099658Y-123984913D01*
X166128500Y-123839918D01*
X166128500Y-123692082D01*
X166128500Y-123692080D01*
X173627500Y-123692080D01*
X173627500Y-123839919D01*
X173656341Y-123984911D01*
X173656341Y-123984912D01*
X173712916Y-124121495D01*
X173712917Y-124121497D01*
X173733980Y-124153020D01*
X173795049Y-124244416D01*
X173899584Y-124348951D01*
X174022505Y-124431084D01*
X174159087Y-124487658D01*
X174304082Y-124516500D01*
X174451918Y-124516500D01*
X174596913Y-124487658D01*
X174733495Y-124431084D01*
X174856416Y-124348951D01*
X174960951Y-124244416D01*
X175033033Y-124136536D01*
X175072807Y-124109961D01*
X175119723Y-124119293D01*
X175136966Y-124136536D01*
X175209049Y-124244416D01*
X175313584Y-124348951D01*
X175436505Y-124431084D01*
X175573087Y-124487658D01*
X175718082Y-124516500D01*
X175865918Y-124516500D01*
X176010913Y-124487658D01*
X176147495Y-124431084D01*
X176270416Y-124348951D01*
X176374951Y-124244416D01*
X176457084Y-124121495D01*
X176513658Y-123984913D01*
X176542500Y-123839918D01*
X176542500Y-123692082D01*
X176542500Y-123692080D01*
X184041500Y-123692080D01*
X184041500Y-123839919D01*
X184070341Y-123984911D01*
X184070341Y-123984912D01*
X184126916Y-124121495D01*
X184126917Y-124121497D01*
X184147980Y-124153020D01*
X184209049Y-124244416D01*
X184313584Y-124348951D01*
X184436505Y-124431084D01*
X184573087Y-124487658D01*
X184718082Y-124516500D01*
X184865918Y-124516500D01*
X185010913Y-124487658D01*
X185147495Y-124431084D01*
X185270416Y-124348951D01*
X185374951Y-124244416D01*
X185457084Y-124121495D01*
X185513658Y-123984913D01*
X185542500Y-123839918D01*
X185542500Y-123692082D01*
X185513658Y-123547087D01*
X185457084Y-123410505D01*
X185374951Y-123287584D01*
X185270416Y-123183049D01*
X185200134Y-123136088D01*
X185147497Y-123100917D01*
X185147495Y-123100916D01*
X185010911Y-123044341D01*
X184865919Y-123015500D01*
X184865918Y-123015500D01*
X184718082Y-123015500D01*
X184718080Y-123015500D01*
X184573088Y-123044341D01*
X184573087Y-123044341D01*
X184436504Y-123100916D01*
X184436502Y-123100917D01*
X184313584Y-123183048D01*
X184209048Y-123287584D01*
X184126917Y-123410502D01*
X184126916Y-123410504D01*
X184070341Y-123547087D01*
X184070341Y-123547088D01*
X184041500Y-123692080D01*
X176542500Y-123692080D01*
X176513658Y-123547087D01*
X176457084Y-123410505D01*
X176374951Y-123287584D01*
X176270416Y-123183049D01*
X176200134Y-123136088D01*
X176147497Y-123100917D01*
X176147495Y-123100916D01*
X176010911Y-123044341D01*
X175865919Y-123015500D01*
X175865918Y-123015500D01*
X175718082Y-123015500D01*
X175718080Y-123015500D01*
X175573088Y-123044341D01*
X175573087Y-123044341D01*
X175436504Y-123100916D01*
X175436502Y-123100917D01*
X175313584Y-123183048D01*
X175209048Y-123287584D01*
X175136967Y-123395462D01*
X175097193Y-123422038D01*
X175050277Y-123412706D01*
X175033033Y-123395462D01*
X174960951Y-123287584D01*
X174856415Y-123183048D01*
X174733497Y-123100917D01*
X174733495Y-123100916D01*
X174596911Y-123044341D01*
X174451919Y-123015500D01*
X174451918Y-123015500D01*
X174304082Y-123015500D01*
X174304080Y-123015500D01*
X174159088Y-123044341D01*
X174159087Y-123044341D01*
X174022504Y-123100916D01*
X174022502Y-123100917D01*
X173899584Y-123183048D01*
X173795048Y-123287584D01*
X173712917Y-123410502D01*
X173712916Y-123410504D01*
X173656341Y-123547087D01*
X173656341Y-123547088D01*
X173627500Y-123692080D01*
X166128500Y-123692080D01*
X166099658Y-123547087D01*
X166043084Y-123410505D01*
X165960951Y-123287584D01*
X165856416Y-123183049D01*
X165786134Y-123136088D01*
X165733497Y-123100917D01*
X165733495Y-123100916D01*
X165596911Y-123044341D01*
X165451919Y-123015500D01*
X165451918Y-123015500D01*
X165304082Y-123015500D01*
X165304080Y-123015500D01*
X165159088Y-123044341D01*
X165159087Y-123044341D01*
X165022504Y-123100916D01*
X165022502Y-123100917D01*
X164899584Y-123183048D01*
X164795048Y-123287584D01*
X164722967Y-123395462D01*
X164683193Y-123422038D01*
X164636277Y-123412706D01*
X164619033Y-123395462D01*
X164546951Y-123287584D01*
X164442415Y-123183048D01*
X164319497Y-123100917D01*
X164319495Y-123100916D01*
X164182911Y-123044341D01*
X164037919Y-123015500D01*
X164037918Y-123015500D01*
X163890082Y-123015500D01*
X163890080Y-123015500D01*
X163745088Y-123044341D01*
X163745087Y-123044341D01*
X163608504Y-123100916D01*
X163608502Y-123100917D01*
X163485584Y-123183048D01*
X163381048Y-123287584D01*
X163298917Y-123410502D01*
X163298916Y-123410504D01*
X163242341Y-123547087D01*
X163242341Y-123547088D01*
X163213500Y-123692080D01*
X155714500Y-123692080D01*
X155685658Y-123547087D01*
X155629084Y-123410505D01*
X155546951Y-123287584D01*
X155442416Y-123183049D01*
X155372134Y-123136088D01*
X155319497Y-123100917D01*
X155319495Y-123100916D01*
X155182911Y-123044341D01*
X155037919Y-123015500D01*
X155037918Y-123015500D01*
X154890082Y-123015500D01*
X154890080Y-123015500D01*
X154745088Y-123044341D01*
X154745087Y-123044341D01*
X154608504Y-123100916D01*
X154608502Y-123100917D01*
X154485584Y-123183048D01*
X154381048Y-123287584D01*
X154298917Y-123410502D01*
X154298916Y-123410504D01*
X154242341Y-123547087D01*
X154242341Y-123547088D01*
X154213500Y-123692080D01*
X153200051Y-123692080D01*
X151570430Y-122062459D01*
X151552124Y-122018265D01*
X151570430Y-121974071D01*
X151614624Y-121955765D01*
X151747156Y-121955765D01*
X151747157Y-121955765D01*
X151874451Y-121921657D01*
X151988579Y-121855765D01*
X152081765Y-121762579D01*
X152147657Y-121648451D01*
X152181765Y-121521157D01*
X152181765Y-121389373D01*
X152161591Y-121314082D01*
X152147658Y-121262082D01*
X152147654Y-121262073D01*
X152116822Y-121208671D01*
X152116821Y-121208670D01*
X152100193Y-121179870D01*
X155613500Y-121179870D01*
X155613500Y-122152129D01*
X155628168Y-122244740D01*
X155628169Y-122244744D01*
X155685044Y-122356366D01*
X155773633Y-122444955D01*
X155885255Y-122501830D01*
X155885257Y-122501830D01*
X155885260Y-122501832D01*
X155977872Y-122516500D01*
X155977874Y-122516500D01*
X156950126Y-122516500D01*
X156950128Y-122516500D01*
X157042740Y-122501832D01*
X157154367Y-122444955D01*
X157242955Y-122356367D01*
X157299832Y-122244740D01*
X157314500Y-122152128D01*
X157314500Y-121582232D01*
X159613500Y-121582232D01*
X159613500Y-121749767D01*
X159646183Y-121914080D01*
X159710295Y-122068860D01*
X159710296Y-122068862D01*
X159710297Y-122068863D01*
X159803374Y-122208162D01*
X159921838Y-122326626D01*
X160061137Y-122419703D01*
X160215918Y-122483816D01*
X160380233Y-122516500D01*
X160547767Y-122516500D01*
X160712082Y-122483816D01*
X160866863Y-122419703D01*
X161006162Y-122326626D01*
X161124626Y-122208162D01*
X161217703Y-122068863D01*
X161281816Y-121914082D01*
X161314500Y-121749767D01*
X161314500Y-121582233D01*
X161314500Y-121582232D01*
X161613500Y-121582232D01*
X161613500Y-121749767D01*
X161646183Y-121914080D01*
X161710295Y-122068860D01*
X161710296Y-122068862D01*
X161710297Y-122068863D01*
X161803374Y-122208162D01*
X161921838Y-122326626D01*
X162061137Y-122419703D01*
X162215918Y-122483816D01*
X162380233Y-122516500D01*
X162547767Y-122516500D01*
X162712082Y-122483816D01*
X162866863Y-122419703D01*
X163006162Y-122326626D01*
X163124626Y-122208162D01*
X163217703Y-122068863D01*
X163281816Y-121914082D01*
X163314500Y-121749767D01*
X163314500Y-121582233D01*
X163281816Y-121417918D01*
X163217703Y-121263137D01*
X163162066Y-121179870D01*
X166027500Y-121179870D01*
X166027500Y-122152129D01*
X166042168Y-122244740D01*
X166042169Y-122244744D01*
X166099044Y-122356366D01*
X166187633Y-122444955D01*
X166299255Y-122501830D01*
X166299257Y-122501830D01*
X166299260Y-122501832D01*
X166391872Y-122516500D01*
X166391874Y-122516500D01*
X167364126Y-122516500D01*
X167364128Y-122516500D01*
X167456740Y-122501832D01*
X167568367Y-122444955D01*
X167656955Y-122356367D01*
X167713832Y-122244740D01*
X167728500Y-122152128D01*
X167728500Y-121582232D01*
X170027500Y-121582232D01*
X170027500Y-121749767D01*
X170060183Y-121914080D01*
X170124295Y-122068860D01*
X170124296Y-122068862D01*
X170124297Y-122068863D01*
X170217374Y-122208162D01*
X170335838Y-122326626D01*
X170475137Y-122419703D01*
X170629918Y-122483816D01*
X170794233Y-122516500D01*
X170961767Y-122516500D01*
X171126082Y-122483816D01*
X171280863Y-122419703D01*
X171420162Y-122326626D01*
X171538626Y-122208162D01*
X171631703Y-122068863D01*
X171695816Y-121914082D01*
X171728500Y-121749767D01*
X171728500Y-121582233D01*
X171728500Y-121582232D01*
X172027500Y-121582232D01*
X172027500Y-121749767D01*
X172060183Y-121914080D01*
X172124295Y-122068860D01*
X172124296Y-122068862D01*
X172124297Y-122068863D01*
X172217374Y-122208162D01*
X172335838Y-122326626D01*
X172475137Y-122419703D01*
X172629918Y-122483816D01*
X172794233Y-122516500D01*
X172961767Y-122516500D01*
X173126082Y-122483816D01*
X173280863Y-122419703D01*
X173420162Y-122326626D01*
X173538626Y-122208162D01*
X173631703Y-122068863D01*
X173695816Y-121914082D01*
X173728500Y-121749767D01*
X173728500Y-121582233D01*
X173695816Y-121417918D01*
X173631703Y-121263137D01*
X173538626Y-121123838D01*
X173420162Y-121005374D01*
X173280863Y-120912297D01*
X173280862Y-120912296D01*
X173280860Y-120912295D01*
X173126080Y-120848183D01*
X172961767Y-120815500D01*
X172794233Y-120815500D01*
X172629919Y-120848183D01*
X172475139Y-120912295D01*
X172475135Y-120912298D01*
X172335838Y-121005373D01*
X172217373Y-121123838D01*
X172124298Y-121263135D01*
X172124295Y-121263139D01*
X172060183Y-121417919D01*
X172027500Y-121582232D01*
X171728500Y-121582232D01*
X171695816Y-121417918D01*
X171631703Y-121263137D01*
X171538626Y-121123838D01*
X171420162Y-121005374D01*
X171280863Y-120912297D01*
X171280862Y-120912296D01*
X171280860Y-120912295D01*
X171126080Y-120848183D01*
X170961767Y-120815500D01*
X170794233Y-120815500D01*
X170629919Y-120848183D01*
X170475139Y-120912295D01*
X170475135Y-120912298D01*
X170335838Y-121005373D01*
X170217373Y-121123838D01*
X170124298Y-121263135D01*
X170124295Y-121263139D01*
X170060183Y-121417919D01*
X170027500Y-121582232D01*
X167728500Y-121582232D01*
X167728500Y-121179872D01*
X167713832Y-121087260D01*
X167713830Y-121087257D01*
X167713830Y-121087255D01*
X167656955Y-120975633D01*
X167568366Y-120887044D01*
X167456744Y-120830169D01*
X167456740Y-120830168D01*
X167364129Y-120815500D01*
X167364128Y-120815500D01*
X166391872Y-120815500D01*
X166391870Y-120815500D01*
X166299259Y-120830168D01*
X166299255Y-120830169D01*
X166187633Y-120887044D01*
X166099044Y-120975633D01*
X166042169Y-121087255D01*
X166042168Y-121087259D01*
X166027500Y-121179870D01*
X163162066Y-121179870D01*
X163124626Y-121123838D01*
X163006162Y-121005374D01*
X162866863Y-120912297D01*
X162866862Y-120912296D01*
X162866860Y-120912295D01*
X162712080Y-120848183D01*
X162547767Y-120815500D01*
X162380233Y-120815500D01*
X162215919Y-120848183D01*
X162061139Y-120912295D01*
X162061135Y-120912298D01*
X161921838Y-121005373D01*
X161803373Y-121123838D01*
X161710298Y-121263135D01*
X161710295Y-121263139D01*
X161646183Y-121417919D01*
X161613500Y-121582232D01*
X161314500Y-121582232D01*
X161281816Y-121417918D01*
X161217703Y-121263137D01*
X161124626Y-121123838D01*
X161006162Y-121005374D01*
X160866863Y-120912297D01*
X160866862Y-120912296D01*
X160866860Y-120912295D01*
X160712080Y-120848183D01*
X160547767Y-120815500D01*
X160380233Y-120815500D01*
X160215919Y-120848183D01*
X160061139Y-120912295D01*
X160061135Y-120912298D01*
X159921838Y-121005373D01*
X159803373Y-121123838D01*
X159710298Y-121263135D01*
X159710295Y-121263139D01*
X159646183Y-121417919D01*
X159613500Y-121582232D01*
X157314500Y-121582232D01*
X157314500Y-121179872D01*
X157299832Y-121087260D01*
X157299830Y-121087257D01*
X157299830Y-121087255D01*
X157242955Y-120975633D01*
X157154366Y-120887044D01*
X157042744Y-120830169D01*
X157042740Y-120830168D01*
X156950129Y-120815500D01*
X156950128Y-120815500D01*
X155977872Y-120815500D01*
X155977870Y-120815500D01*
X155885259Y-120830168D01*
X155885255Y-120830169D01*
X155773633Y-120887044D01*
X155685044Y-120975633D01*
X155628169Y-121087255D01*
X155628168Y-121087259D01*
X155613500Y-121179870D01*
X152100193Y-121179870D01*
X152081765Y-121147951D01*
X152081763Y-121147949D01*
X152081760Y-121147945D01*
X151988584Y-121054769D01*
X151988580Y-121054766D01*
X151988579Y-121054765D01*
X151931515Y-121021819D01*
X151874450Y-120988872D01*
X151874447Y-120988871D01*
X151747163Y-120954766D01*
X151747158Y-120954765D01*
X151747157Y-120954765D01*
X151615373Y-120954765D01*
X151615372Y-120954765D01*
X151615366Y-120954766D01*
X151488082Y-120988871D01*
X151488079Y-120988872D01*
X151373949Y-121054766D01*
X151373945Y-121054769D01*
X151280769Y-121147945D01*
X151280766Y-121147949D01*
X151214872Y-121262079D01*
X151214871Y-121262082D01*
X151180766Y-121389366D01*
X151180765Y-121389374D01*
X151180765Y-121521906D01*
X151162459Y-121566100D01*
X151118265Y-121584406D01*
X151074071Y-121566100D01*
X149663508Y-120155537D01*
X149654066Y-120150086D01*
X149654066Y-120150087D01*
X149594989Y-120115979D01*
X149594986Y-120115978D01*
X149518567Y-120095500D01*
X149518562Y-120095500D01*
X149231480Y-120095500D01*
X149225565Y-120093050D01*
X149219287Y-120094299D01*
X149204128Y-120084170D01*
X149187286Y-120077194D01*
X149184836Y-120071279D01*
X149179513Y-120067723D01*
X149175956Y-120049842D01*
X149168980Y-120033000D01*
X149170181Y-120020807D01*
X149177571Y-119983655D01*
X152753940Y-119983655D01*
X152753940Y-120115436D01*
X152753941Y-120115444D01*
X152788046Y-120242728D01*
X152788047Y-120242731D01*
X152853941Y-120356861D01*
X152853944Y-120356865D01*
X152947120Y-120450041D01*
X152947124Y-120450044D01*
X152947126Y-120450046D01*
X153060714Y-120515626D01*
X153061254Y-120515938D01*
X153061257Y-120515939D01*
X153139152Y-120536810D01*
X153188548Y-120550046D01*
X153188549Y-120550046D01*
X153320331Y-120550046D01*
X153320332Y-120550046D01*
X153447626Y-120515938D01*
X153561754Y-120450046D01*
X153654940Y-120356860D01*
X153720832Y-120242732D01*
X153754940Y-120115438D01*
X153754940Y-119983654D01*
X153731320Y-119895501D01*
X153720833Y-119856363D01*
X153720832Y-119856360D01*
X153707345Y-119833000D01*
X153654940Y-119742232D01*
X153654938Y-119742230D01*
X153654935Y-119742226D01*
X153561759Y-119649050D01*
X153561755Y-119649047D01*
X153561754Y-119649046D01*
X153488788Y-119606919D01*
X153447625Y-119583153D01*
X153447622Y-119583152D01*
X153320338Y-119549047D01*
X153320333Y-119549046D01*
X153320332Y-119549046D01*
X153188548Y-119549046D01*
X153188547Y-119549046D01*
X153188541Y-119549047D01*
X153061257Y-119583152D01*
X153061254Y-119583153D01*
X152947124Y-119649047D01*
X152947120Y-119649050D01*
X152853944Y-119742226D01*
X152853941Y-119742230D01*
X152788047Y-119856360D01*
X152788046Y-119856363D01*
X152753941Y-119983647D01*
X152753940Y-119983655D01*
X149177571Y-119983655D01*
X149177571Y-119983654D01*
X149186500Y-119938767D01*
X149186500Y-119771233D01*
X149153816Y-119606918D01*
X149089703Y-119452137D01*
X148996626Y-119312838D01*
X148878162Y-119194374D01*
X148874887Y-119192186D01*
X148808512Y-119147835D01*
X148738863Y-119101297D01*
X148738862Y-119101296D01*
X148738860Y-119101295D01*
X148584080Y-119037183D01*
X148419767Y-119004500D01*
X148252233Y-119004500D01*
X148087919Y-119037183D01*
X147933139Y-119101295D01*
X147933135Y-119101298D01*
X147793838Y-119194373D01*
X147675373Y-119312838D01*
X147582298Y-119452135D01*
X147582295Y-119452139D01*
X147518183Y-119606919D01*
X147485500Y-119771232D01*
X140500500Y-119771232D01*
X140500500Y-115771232D01*
X147485500Y-115771232D01*
X147485500Y-115938767D01*
X147518183Y-116103080D01*
X147582295Y-116257860D01*
X147582296Y-116257862D01*
X147582297Y-116257863D01*
X147591003Y-116270892D01*
X147670261Y-116389511D01*
X147675374Y-116397162D01*
X147793838Y-116515626D01*
X147933137Y-116608703D01*
X148087918Y-116672816D01*
X148252233Y-116705500D01*
X148419767Y-116705500D01*
X148584082Y-116672816D01*
X148738863Y-116608703D01*
X148878162Y-116515626D01*
X148996626Y-116397162D01*
X149089703Y-116257863D01*
X149153816Y-116103082D01*
X149186500Y-115938767D01*
X149186500Y-115771233D01*
X149153816Y-115606918D01*
X149089703Y-115452137D01*
X148996626Y-115312838D01*
X148878162Y-115194374D01*
X148738863Y-115101297D01*
X148738862Y-115101296D01*
X148738860Y-115101295D01*
X148584080Y-115037183D01*
X148419767Y-115004500D01*
X148252233Y-115004500D01*
X148087919Y-115037183D01*
X147933139Y-115101295D01*
X147933135Y-115101298D01*
X147793838Y-115194373D01*
X147675373Y-115312838D01*
X147582298Y-115452135D01*
X147582295Y-115452139D01*
X147518183Y-115606919D01*
X147485500Y-115771232D01*
X140500500Y-115771232D01*
X140500500Y-114768432D01*
X152099500Y-114768432D01*
X152099500Y-117549567D01*
X152119978Y-117625987D01*
X152119978Y-117625988D01*
X152128518Y-117640779D01*
X152128518Y-117640780D01*
X152128519Y-117640780D01*
X152159540Y-117694511D01*
X153243194Y-118778165D01*
X153261500Y-118822359D01*
X153261500Y-118937890D01*
X153261501Y-118937898D01*
X153295606Y-119065182D01*
X153295607Y-119065185D01*
X153361501Y-119179315D01*
X153361504Y-119179319D01*
X153454680Y-119272495D01*
X153454684Y-119272498D01*
X153454686Y-119272500D01*
X153568814Y-119338392D01*
X153568817Y-119338393D01*
X153646712Y-119359264D01*
X153696108Y-119372500D01*
X153696109Y-119372500D01*
X153827891Y-119372500D01*
X153827892Y-119372500D01*
X153955186Y-119338392D01*
X154069314Y-119272500D01*
X154162500Y-119179314D01*
X154228392Y-119065186D01*
X154262500Y-118937892D01*
X154262500Y-118806108D01*
X154235721Y-118706167D01*
X154228393Y-118678817D01*
X154228392Y-118678814D01*
X154204536Y-118637495D01*
X154162500Y-118564686D01*
X154162498Y-118564684D01*
X154162495Y-118564680D01*
X154069319Y-118471504D01*
X154069315Y-118471501D01*
X154069314Y-118471500D01*
X153979809Y-118419824D01*
X153955185Y-118405607D01*
X153955182Y-118405606D01*
X153827898Y-118371501D01*
X153827893Y-118371500D01*
X153827892Y-118371500D01*
X153712359Y-118371500D01*
X153668165Y-118353194D01*
X152718806Y-117403835D01*
X152700500Y-117359641D01*
X152700500Y-116012109D01*
X152915500Y-116012109D01*
X152915500Y-116143890D01*
X152915501Y-116143898D01*
X152949606Y-116271182D01*
X152949607Y-116271185D01*
X152960969Y-116290864D01*
X153004451Y-116366177D01*
X153015501Y-116385315D01*
X153015504Y-116385319D01*
X153108680Y-116478495D01*
X153108684Y-116478498D01*
X153108686Y-116478500D01*
X153214341Y-116539500D01*
X153222814Y-116544392D01*
X153222817Y-116544393D01*
X153300712Y-116565264D01*
X153350108Y-116578500D01*
X153350109Y-116578500D01*
X153485988Y-116578500D01*
X153485988Y-116580295D01*
X153526350Y-116591109D01*
X153550269Y-116632535D01*
X153550272Y-116643012D01*
X153550500Y-116643012D01*
X153550500Y-116778890D01*
X153550501Y-116778898D01*
X153584606Y-116906182D01*
X153584607Y-116906185D01*
X153611902Y-116953460D01*
X153646565Y-117013499D01*
X153650501Y-117020315D01*
X153650504Y-117020319D01*
X153743680Y-117113495D01*
X153743684Y-117113498D01*
X153743686Y-117113500D01*
X153844578Y-117171750D01*
X153857814Y-117179392D01*
X153857817Y-117179393D01*
X153935712Y-117200264D01*
X153985108Y-117213500D01*
X153985109Y-117213500D01*
X154116891Y-117213500D01*
X154116892Y-117213500D01*
X154244186Y-117179392D01*
X154358314Y-117113500D01*
X154440008Y-117031806D01*
X154484202Y-117013500D01*
X158410793Y-117013500D01*
X158454987Y-117031806D01*
X158473293Y-117076000D01*
X158454987Y-117120194D01*
X158433097Y-117132832D01*
X158433598Y-117134041D01*
X158429814Y-117135607D01*
X158315684Y-117201501D01*
X158315680Y-117201504D01*
X158222504Y-117294680D01*
X158222501Y-117294684D01*
X158156607Y-117408814D01*
X158156606Y-117408817D01*
X158122501Y-117536101D01*
X158122500Y-117536109D01*
X158122500Y-117667890D01*
X158122501Y-117667898D01*
X158156606Y-117795182D01*
X158156607Y-117795185D01*
X158222501Y-117909315D01*
X158222504Y-117909319D01*
X158315680Y-118002495D01*
X158315684Y-118002498D01*
X158315686Y-118002500D01*
X158421341Y-118063500D01*
X158429814Y-118068392D01*
X158429817Y-118068393D01*
X158507712Y-118089264D01*
X158557108Y-118102500D01*
X158557109Y-118102500D01*
X158672641Y-118102500D01*
X158716835Y-118120806D01*
X159779540Y-119183511D01*
X159835489Y-119239460D01*
X159904011Y-119279021D01*
X159927396Y-119285287D01*
X159980432Y-119299499D01*
X159980438Y-119299500D01*
X173648562Y-119299500D01*
X173648567Y-119299499D01*
X173671271Y-119293414D01*
X173724989Y-119279021D01*
X173793511Y-119239460D01*
X173849460Y-119183511D01*
X174277164Y-118755805D01*
X174321358Y-118737500D01*
X174349461Y-118737500D01*
X174393655Y-118755806D01*
X174411961Y-118800000D01*
X174409831Y-118816176D01*
X174378501Y-118933101D01*
X174378500Y-118933109D01*
X174378500Y-119064890D01*
X174378501Y-119064898D01*
X174412606Y-119192182D01*
X174412607Y-119192185D01*
X174472872Y-119296566D01*
X174479115Y-119343992D01*
X174449997Y-119381941D01*
X174440169Y-119387615D01*
X174440160Y-119387622D01*
X174346984Y-119480798D01*
X174346981Y-119480802D01*
X174281087Y-119594932D01*
X174281086Y-119594935D01*
X174246981Y-119722219D01*
X174246980Y-119722227D01*
X174246980Y-119833000D01*
X174228674Y-119877194D01*
X174184480Y-119895500D01*
X174182892Y-119895500D01*
X174051108Y-119895500D01*
X174051107Y-119895500D01*
X174051101Y-119895501D01*
X173923817Y-119929606D01*
X173923814Y-119929607D01*
X173809684Y-119995501D01*
X173809680Y-119995504D01*
X173716504Y-120088680D01*
X173716501Y-120088684D01*
X173650607Y-120202814D01*
X173650606Y-120202817D01*
X173616501Y-120330101D01*
X173616500Y-120330109D01*
X173616500Y-120461890D01*
X173616501Y-120461898D01*
X173650606Y-120589182D01*
X173650607Y-120589185D01*
X173678502Y-120637500D01*
X173712565Y-120696499D01*
X173716501Y-120703315D01*
X173716504Y-120703319D01*
X173809680Y-120796495D01*
X173809684Y-120796498D01*
X173809686Y-120796500D01*
X173899205Y-120848184D01*
X173923814Y-120862392D01*
X173923817Y-120862393D01*
X174001712Y-120883264D01*
X174051108Y-120896500D01*
X174051109Y-120896500D01*
X174182891Y-120896500D01*
X174182892Y-120896500D01*
X174310186Y-120862392D01*
X174424314Y-120796500D01*
X174506008Y-120714806D01*
X174550202Y-120696500D01*
X176763069Y-120696500D01*
X176807263Y-120714806D01*
X176825569Y-120759000D01*
X176807263Y-120803194D01*
X176772846Y-120820730D01*
X176733741Y-120826924D01*
X176713259Y-120830168D01*
X176713255Y-120830169D01*
X176601633Y-120887044D01*
X176513044Y-120975633D01*
X176456169Y-121087255D01*
X176456168Y-121087259D01*
X176441500Y-121179870D01*
X176441500Y-122152129D01*
X176456168Y-122244740D01*
X176456169Y-122244744D01*
X176513044Y-122356366D01*
X176601633Y-122444955D01*
X176713255Y-122501830D01*
X176713257Y-122501830D01*
X176713260Y-122501832D01*
X176805872Y-122516500D01*
X176805874Y-122516500D01*
X177778126Y-122516500D01*
X177778128Y-122516500D01*
X177870740Y-122501832D01*
X177982367Y-122444955D01*
X178070955Y-122356367D01*
X178127832Y-122244740D01*
X178142500Y-122152128D01*
X178142500Y-121179872D01*
X178127832Y-121087260D01*
X178127830Y-121087257D01*
X178127830Y-121087255D01*
X178070955Y-120975633D01*
X177982366Y-120887044D01*
X177870744Y-120830169D01*
X177870740Y-120830168D01*
X177811153Y-120820730D01*
X177770367Y-120795737D01*
X177759200Y-120749223D01*
X177784194Y-120708436D01*
X177820931Y-120696500D01*
X181171913Y-120696500D01*
X181216107Y-120714806D01*
X181234413Y-120759000D01*
X181216107Y-120803194D01*
X181184106Y-120820299D01*
X181043919Y-120848183D01*
X180889139Y-120912295D01*
X180889135Y-120912298D01*
X180749838Y-121005373D01*
X180631373Y-121123838D01*
X180538298Y-121263135D01*
X180538295Y-121263139D01*
X180474183Y-121417919D01*
X180441500Y-121582232D01*
X180441500Y-121749767D01*
X180474183Y-121914080D01*
X180538295Y-122068860D01*
X180538296Y-122068862D01*
X180538297Y-122068863D01*
X180631374Y-122208162D01*
X180749838Y-122326626D01*
X180889137Y-122419703D01*
X181043918Y-122483816D01*
X181208233Y-122516500D01*
X181375767Y-122516500D01*
X181540082Y-122483816D01*
X181694863Y-122419703D01*
X181834162Y-122326626D01*
X181952626Y-122208162D01*
X182045703Y-122068863D01*
X182109816Y-121914082D01*
X182142500Y-121749767D01*
X182142500Y-121582233D01*
X182109816Y-121417918D01*
X182045703Y-121263137D01*
X181952626Y-121123838D01*
X181834162Y-121005374D01*
X181694863Y-120912297D01*
X181694862Y-120912296D01*
X181694860Y-120912295D01*
X181540080Y-120848183D01*
X181399894Y-120820299D01*
X181360120Y-120793723D01*
X181350788Y-120746807D01*
X181377364Y-120707033D01*
X181412087Y-120696500D01*
X183171913Y-120696500D01*
X183216107Y-120714806D01*
X183234413Y-120759000D01*
X183216107Y-120803194D01*
X183184106Y-120820299D01*
X183043919Y-120848183D01*
X182889139Y-120912295D01*
X182889135Y-120912298D01*
X182749838Y-121005373D01*
X182631373Y-121123838D01*
X182538298Y-121263135D01*
X182538295Y-121263139D01*
X182474183Y-121417919D01*
X182441500Y-121582232D01*
X182441500Y-121749767D01*
X182474183Y-121914080D01*
X182538295Y-122068860D01*
X182538296Y-122068862D01*
X182538297Y-122068863D01*
X182631374Y-122208162D01*
X182749838Y-122326626D01*
X182889137Y-122419703D01*
X183043918Y-122483816D01*
X183208233Y-122516500D01*
X183375767Y-122516500D01*
X183540082Y-122483816D01*
X183694863Y-122419703D01*
X183834162Y-122326626D01*
X183952626Y-122208162D01*
X184045703Y-122068863D01*
X184109816Y-121914082D01*
X184142500Y-121749767D01*
X184142500Y-121582233D01*
X184109816Y-121417918D01*
X184045703Y-121263137D01*
X183952626Y-121123838D01*
X183834162Y-121005374D01*
X183694863Y-120912297D01*
X183694862Y-120912296D01*
X183694860Y-120912295D01*
X183540080Y-120848183D01*
X183399894Y-120820299D01*
X183360120Y-120793723D01*
X183350788Y-120746807D01*
X183377364Y-120707033D01*
X183412087Y-120696500D01*
X185777641Y-120696500D01*
X185821835Y-120714806D01*
X186954858Y-121847829D01*
X186973164Y-121892023D01*
X186971035Y-121908198D01*
X186951500Y-121981106D01*
X186951500Y-122112890D01*
X186951501Y-122112898D01*
X186985606Y-122240182D01*
X186985607Y-122240185D01*
X186994646Y-122255841D01*
X187035514Y-122326626D01*
X187051501Y-122354315D01*
X187051504Y-122354319D01*
X187144680Y-122447495D01*
X187144684Y-122447498D01*
X187144686Y-122447500D01*
X187258814Y-122513392D01*
X187258817Y-122513393D01*
X187270413Y-122516500D01*
X187386108Y-122547500D01*
X187386109Y-122547500D01*
X187517891Y-122547500D01*
X187517892Y-122547500D01*
X187645186Y-122513392D01*
X187759314Y-122447500D01*
X187852500Y-122354314D01*
X187918392Y-122240186D01*
X187952500Y-122112892D01*
X187952500Y-121981108D01*
X187921769Y-121866416D01*
X187918393Y-121853817D01*
X187918392Y-121853814D01*
X187914937Y-121847829D01*
X187852500Y-121739686D01*
X187852498Y-121739684D01*
X187852495Y-121739680D01*
X187759319Y-121646504D01*
X187759315Y-121646501D01*
X187759314Y-121646500D01*
X187690756Y-121606918D01*
X187645185Y-121580607D01*
X187645182Y-121580606D01*
X187514368Y-121545555D01*
X187486350Y-121529379D01*
X186152283Y-120195312D01*
X186133977Y-120151118D01*
X186152283Y-120106924D01*
X186196477Y-120088618D01*
X186693759Y-120088618D01*
X186737953Y-120106924D01*
X188965194Y-122334165D01*
X188983500Y-122378359D01*
X188983500Y-122493890D01*
X188983501Y-122493898D01*
X189017606Y-122621182D01*
X189017607Y-122621185D01*
X189083501Y-122735315D01*
X189083504Y-122735319D01*
X189176680Y-122828495D01*
X189176684Y-122828498D01*
X189176686Y-122828500D01*
X189259970Y-122876584D01*
X189290814Y-122894392D01*
X189290817Y-122894393D01*
X189368712Y-122915264D01*
X189418108Y-122928500D01*
X189418109Y-122928500D01*
X189549891Y-122928500D01*
X189549892Y-122928500D01*
X189677186Y-122894392D01*
X189791314Y-122828500D01*
X189884500Y-122735314D01*
X189950392Y-122621186D01*
X189984500Y-122493892D01*
X189984500Y-122362108D01*
X189953841Y-122247686D01*
X189950393Y-122234817D01*
X189950392Y-122234814D01*
X189935004Y-122208161D01*
X189884500Y-122120686D01*
X189884498Y-122120684D01*
X189884495Y-122120680D01*
X189791319Y-122027504D01*
X189791315Y-122027501D01*
X189791314Y-122027500D01*
X189710961Y-121981108D01*
X189677185Y-121961607D01*
X189677182Y-121961606D01*
X189549898Y-121927501D01*
X189549893Y-121927500D01*
X189549892Y-121927500D01*
X189434359Y-121927500D01*
X189390165Y-121909194D01*
X187028626Y-119547655D01*
X187020781Y-119543126D01*
X186991661Y-119505176D01*
X186997905Y-119457750D01*
X187035855Y-119428630D01*
X187052031Y-119426500D01*
X187555641Y-119426500D01*
X187599835Y-119444806D01*
X190616194Y-122461165D01*
X190634500Y-122505359D01*
X190634500Y-122620890D01*
X190634501Y-122620898D01*
X190668606Y-122748182D01*
X190668607Y-122748185D01*
X190668608Y-122748186D01*
X190714977Y-122828500D01*
X190734501Y-122862315D01*
X190734504Y-122862319D01*
X190827680Y-122955495D01*
X190827684Y-122955498D01*
X190827686Y-122955500D01*
X190903900Y-122999502D01*
X190941814Y-123021392D01*
X190941817Y-123021393D01*
X191019712Y-123042264D01*
X191069108Y-123055500D01*
X191069109Y-123055500D01*
X191200891Y-123055500D01*
X191200892Y-123055500D01*
X191328186Y-123021392D01*
X191442314Y-122955500D01*
X191535500Y-122862314D01*
X191601392Y-122748186D01*
X191635500Y-122620892D01*
X191635500Y-122489108D01*
X191601392Y-122361814D01*
X191535500Y-122247686D01*
X191535498Y-122247684D01*
X191535495Y-122247680D01*
X191442319Y-122154504D01*
X191442315Y-122154501D01*
X191442314Y-122154500D01*
X191383736Y-122120680D01*
X191328185Y-122088607D01*
X191328182Y-122088606D01*
X191200898Y-122054501D01*
X191200893Y-122054500D01*
X191200892Y-122054500D01*
X191085359Y-122054500D01*
X191041165Y-122036194D01*
X190319051Y-121314080D01*
X193119500Y-121314080D01*
X193119500Y-121461919D01*
X193148341Y-121606911D01*
X193148341Y-121606912D01*
X193204916Y-121743495D01*
X193204917Y-121743497D01*
X193279929Y-121855760D01*
X193287049Y-121866416D01*
X193391584Y-121970951D01*
X193514505Y-122053084D01*
X193651087Y-122109658D01*
X193796082Y-122138500D01*
X193943918Y-122138500D01*
X194088913Y-122109658D01*
X194225495Y-122053084D01*
X194348416Y-121970951D01*
X194452951Y-121866416D01*
X194535084Y-121743495D01*
X194591658Y-121606913D01*
X194620500Y-121461918D01*
X194620500Y-121314082D01*
X194591658Y-121169087D01*
X194535084Y-121032505D01*
X194452951Y-120909584D01*
X194348416Y-120805049D01*
X194345640Y-120803194D01*
X194225497Y-120722917D01*
X194225495Y-120722916D01*
X194088911Y-120666341D01*
X193943919Y-120637500D01*
X193943918Y-120637500D01*
X193796082Y-120637500D01*
X193796080Y-120637500D01*
X193651088Y-120666341D01*
X193651087Y-120666341D01*
X193514504Y-120722916D01*
X193514502Y-120722917D01*
X193391584Y-120805048D01*
X193287048Y-120909584D01*
X193204917Y-121032502D01*
X193204916Y-121032504D01*
X193148341Y-121169087D01*
X193148341Y-121169088D01*
X193119500Y-121314080D01*
X190319051Y-121314080D01*
X188406841Y-119401870D01*
X190919500Y-119401870D01*
X190919500Y-120374129D01*
X190934168Y-120466740D01*
X190934169Y-120466744D01*
X190991044Y-120578366D01*
X191079633Y-120666955D01*
X191191255Y-120723830D01*
X191191257Y-120723830D01*
X191191260Y-120723832D01*
X191283872Y-120738500D01*
X191283874Y-120738500D01*
X192256126Y-120738500D01*
X192256128Y-120738500D01*
X192348740Y-120723832D01*
X192460367Y-120666955D01*
X192548955Y-120578367D01*
X192605832Y-120466740D01*
X192620500Y-120374128D01*
X192620500Y-119401872D01*
X192605832Y-119309260D01*
X192605830Y-119309257D01*
X192605830Y-119309255D01*
X192548955Y-119197633D01*
X192460366Y-119109044D01*
X192348744Y-119052169D01*
X192348740Y-119052168D01*
X192256129Y-119037500D01*
X192256128Y-119037500D01*
X191283872Y-119037500D01*
X191283870Y-119037500D01*
X191191259Y-119052168D01*
X191191255Y-119052169D01*
X191079633Y-119109044D01*
X190991044Y-119197633D01*
X190934169Y-119309255D01*
X190934168Y-119309259D01*
X190919500Y-119401870D01*
X188406841Y-119401870D01*
X187890510Y-118885539D01*
X187886132Y-118883011D01*
X187886131Y-118883011D01*
X187821989Y-118845979D01*
X187821988Y-118845978D01*
X187821987Y-118845978D01*
X187745567Y-118825500D01*
X187745562Y-118825500D01*
X176488207Y-118825500D01*
X176444013Y-118807194D01*
X176425707Y-118763000D01*
X176444013Y-118718806D01*
X176465902Y-118706167D01*
X176465402Y-118704959D01*
X176469183Y-118703392D01*
X176469186Y-118703392D01*
X176583314Y-118637500D01*
X176676500Y-118544314D01*
X176742392Y-118430186D01*
X176776500Y-118302892D01*
X176776500Y-118171108D01*
X176742392Y-118043814D01*
X176676500Y-117929686D01*
X176676498Y-117929684D01*
X176676495Y-117929680D01*
X176583319Y-117836504D01*
X176583315Y-117836501D01*
X176583314Y-117836500D01*
X176496073Y-117786131D01*
X176469185Y-117770607D01*
X176469182Y-117770606D01*
X176341898Y-117736501D01*
X176341893Y-117736500D01*
X176341892Y-117736500D01*
X176210108Y-117736500D01*
X176210107Y-117736500D01*
X176210101Y-117736501D01*
X176082817Y-117770606D01*
X176082814Y-117770607D01*
X175968684Y-117836501D01*
X175968680Y-117836504D01*
X175875504Y-117929680D01*
X175875501Y-117929684D01*
X175809607Y-118043814D01*
X175809606Y-118043817D01*
X175775501Y-118171101D01*
X175775500Y-118171109D01*
X175775500Y-118302890D01*
X175775501Y-118302898D01*
X175809606Y-118430182D01*
X175809607Y-118430185D01*
X175833461Y-118471500D01*
X175868740Y-118532606D01*
X175875501Y-118544315D01*
X175875504Y-118544319D01*
X175968680Y-118637495D01*
X175968684Y-118637498D01*
X175968686Y-118637500D01*
X176062539Y-118691686D01*
X176082814Y-118703392D01*
X176086598Y-118704959D01*
X176085731Y-118707050D01*
X176117921Y-118731752D01*
X176124163Y-118779178D01*
X176095041Y-118817128D01*
X176063793Y-118825500D01*
X175392843Y-118825500D01*
X175348649Y-118807194D01*
X175338717Y-118794250D01*
X175279502Y-118691689D01*
X175279495Y-118691680D01*
X175186319Y-118598504D01*
X175186315Y-118598501D01*
X175186314Y-118598500D01*
X175092470Y-118544319D01*
X175072185Y-118532607D01*
X175072182Y-118532606D01*
X174944898Y-118498501D01*
X174944893Y-118498500D01*
X174944892Y-118498500D01*
X174900539Y-118498500D01*
X174856345Y-118480194D01*
X174838039Y-118436000D01*
X174840169Y-118419824D01*
X174871498Y-118302898D01*
X174871500Y-118302890D01*
X174871500Y-118171109D01*
X174871498Y-118171101D01*
X174837393Y-118043817D01*
X174837392Y-118043814D01*
X174812673Y-118001000D01*
X174771500Y-117929686D01*
X174771498Y-117929684D01*
X174771495Y-117929680D01*
X174678319Y-117836504D01*
X174678315Y-117836501D01*
X174678314Y-117836500D01*
X174591073Y-117786131D01*
X174564185Y-117770607D01*
X174564182Y-117770606D01*
X174436898Y-117736501D01*
X174436893Y-117736500D01*
X174436892Y-117736500D01*
X174305108Y-117736500D01*
X174305107Y-117736500D01*
X174305101Y-117736501D01*
X174177817Y-117770606D01*
X174177814Y-117770607D01*
X174135245Y-117795185D01*
X174111303Y-117809008D01*
X174063878Y-117815251D01*
X174025927Y-117786131D01*
X174016965Y-117770608D01*
X173995810Y-117733966D01*
X173995808Y-117733964D01*
X173995805Y-117733960D01*
X173902629Y-117640784D01*
X173902625Y-117640781D01*
X173902624Y-117640780D01*
X173845560Y-117607834D01*
X173788495Y-117574887D01*
X173788492Y-117574886D01*
X173661208Y-117540781D01*
X173661203Y-117540780D01*
X173661202Y-117540780D01*
X173529418Y-117540780D01*
X173529417Y-117540780D01*
X173529411Y-117540781D01*
X173402127Y-117574886D01*
X173402124Y-117574887D01*
X173287994Y-117640781D01*
X173287990Y-117640784D01*
X173194814Y-117733960D01*
X173194811Y-117733964D01*
X173128917Y-117848094D01*
X173128916Y-117848097D01*
X173094811Y-117975381D01*
X173094810Y-117975389D01*
X173094810Y-118001000D01*
X173076504Y-118045194D01*
X173032310Y-118063500D01*
X160551359Y-118063500D01*
X160507165Y-118045194D01*
X159903806Y-117441835D01*
X159885500Y-117397641D01*
X159885500Y-117282109D01*
X159885498Y-117282101D01*
X159851393Y-117154817D01*
X159851389Y-117154808D01*
X159823931Y-117107250D01*
X159817687Y-117059824D01*
X159846807Y-117021874D01*
X159878057Y-117013500D01*
X168568562Y-117013500D01*
X168568567Y-117013499D01*
X168591271Y-117007414D01*
X168644989Y-116993021D01*
X168713511Y-116953460D01*
X168769460Y-116897511D01*
X169527862Y-116139109D01*
X170615500Y-116139109D01*
X170615500Y-116270890D01*
X170615501Y-116270898D01*
X170649606Y-116398182D01*
X170649607Y-116398185D01*
X170649608Y-116398186D01*
X170699742Y-116485021D01*
X170715501Y-116512315D01*
X170715504Y-116512319D01*
X170808680Y-116605495D01*
X170808684Y-116605498D01*
X170808686Y-116605500D01*
X170922814Y-116671392D01*
X170922817Y-116671393D01*
X171004023Y-116693152D01*
X171041974Y-116722272D01*
X171048217Y-116769698D01*
X171027468Y-116847134D01*
X171027467Y-116847142D01*
X171027467Y-116978923D01*
X171027468Y-116978931D01*
X171061573Y-117106215D01*
X171061574Y-117106218D01*
X171081367Y-117140500D01*
X171116586Y-117201501D01*
X171127468Y-117220348D01*
X171127471Y-117220352D01*
X171220647Y-117313528D01*
X171220651Y-117313531D01*
X171220653Y-117313533D01*
X171334781Y-117379425D01*
X171334784Y-117379426D01*
X171402765Y-117397641D01*
X171462075Y-117413533D01*
X171462076Y-117413533D01*
X171593858Y-117413533D01*
X171593859Y-117413533D01*
X171721153Y-117379425D01*
X171835281Y-117313533D01*
X171928467Y-117220347D01*
X171956525Y-117171749D01*
X171994475Y-117142630D01*
X172010651Y-117140500D01*
X183554562Y-117140500D01*
X183554567Y-117140499D01*
X183578667Y-117134041D01*
X183630989Y-117120021D01*
X183699511Y-117080460D01*
X183755460Y-117024511D01*
X184975739Y-115804232D01*
X190919500Y-115804232D01*
X190919500Y-115971767D01*
X190952183Y-116136080D01*
X191016295Y-116290860D01*
X191016296Y-116290862D01*
X191016297Y-116290863D01*
X191030755Y-116312501D01*
X191097572Y-116412500D01*
X191109374Y-116430162D01*
X191227838Y-116548626D01*
X191367137Y-116641703D01*
X191367138Y-116641703D01*
X191367139Y-116641704D01*
X191412471Y-116660481D01*
X191521918Y-116705816D01*
X191686233Y-116738500D01*
X191853767Y-116738500D01*
X192018082Y-116705816D01*
X192172863Y-116641703D01*
X192312162Y-116548626D01*
X192430626Y-116430162D01*
X192523703Y-116290863D01*
X192587816Y-116136082D01*
X192620500Y-115971767D01*
X192620500Y-115804233D01*
X192587816Y-115639918D01*
X192523703Y-115485137D01*
X192430626Y-115345838D01*
X192312162Y-115227374D01*
X192172863Y-115134297D01*
X192172862Y-115134296D01*
X192172860Y-115134295D01*
X192018080Y-115070183D01*
X191853767Y-115037500D01*
X191686233Y-115037500D01*
X191521919Y-115070183D01*
X191367139Y-115134295D01*
X191367135Y-115134298D01*
X191227838Y-115227373D01*
X191109373Y-115345838D01*
X191016298Y-115485135D01*
X191016295Y-115485139D01*
X190952183Y-115639919D01*
X190919500Y-115804232D01*
X184975739Y-115804232D01*
X186037862Y-114742109D01*
X186951500Y-114742109D01*
X186951500Y-114873890D01*
X186951501Y-114873898D01*
X186985606Y-115001182D01*
X186985607Y-115001185D01*
X187006574Y-115037500D01*
X187043407Y-115101297D01*
X187051501Y-115115315D01*
X187051504Y-115115319D01*
X187144680Y-115208495D01*
X187144684Y-115208498D01*
X187144686Y-115208500D01*
X187258814Y-115274392D01*
X187258817Y-115274393D01*
X187336712Y-115295264D01*
X187386108Y-115308500D01*
X187386109Y-115308500D01*
X187517891Y-115308500D01*
X187517892Y-115308500D01*
X187645186Y-115274392D01*
X187759314Y-115208500D01*
X187852500Y-115115314D01*
X187918392Y-115001186D01*
X187952500Y-114873892D01*
X187952500Y-114742108D01*
X187925596Y-114641701D01*
X187918393Y-114614817D01*
X187918392Y-114614814D01*
X187880178Y-114548626D01*
X187852500Y-114500686D01*
X187852498Y-114500684D01*
X187852495Y-114500680D01*
X187759319Y-114407504D01*
X187759315Y-114407501D01*
X187759314Y-114407500D01*
X187702250Y-114374554D01*
X187645185Y-114341607D01*
X187645182Y-114341606D01*
X187517898Y-114307501D01*
X187517893Y-114307500D01*
X187517892Y-114307500D01*
X187386108Y-114307500D01*
X187386107Y-114307500D01*
X187386101Y-114307501D01*
X187258817Y-114341606D01*
X187258814Y-114341607D01*
X187144684Y-114407501D01*
X187144680Y-114407504D01*
X187051504Y-114500680D01*
X187051501Y-114500684D01*
X186985607Y-114614814D01*
X186985606Y-114614817D01*
X186951501Y-114742101D01*
X186951500Y-114742109D01*
X186037862Y-114742109D01*
X186975739Y-113804232D01*
X190919500Y-113804232D01*
X190919500Y-113971767D01*
X190952183Y-114136080D01*
X191016295Y-114290860D01*
X191016298Y-114290864D01*
X191094231Y-114407500D01*
X191109374Y-114430162D01*
X191227838Y-114548626D01*
X191367137Y-114641703D01*
X191521918Y-114705816D01*
X191686233Y-114738500D01*
X191853767Y-114738500D01*
X192018082Y-114705816D01*
X192172863Y-114641703D01*
X192312162Y-114548626D01*
X192430626Y-114430162D01*
X192523703Y-114290863D01*
X192587816Y-114136082D01*
X192620500Y-113971767D01*
X192620500Y-113804233D01*
X192587816Y-113639918D01*
X192523703Y-113485137D01*
X192430626Y-113345838D01*
X192312162Y-113227374D01*
X192172863Y-113134297D01*
X192172862Y-113134296D01*
X192172860Y-113134295D01*
X192018080Y-113070183D01*
X191853767Y-113037500D01*
X191686233Y-113037500D01*
X191521919Y-113070183D01*
X191367139Y-113134295D01*
X191367135Y-113134298D01*
X191227838Y-113227373D01*
X191109373Y-113345838D01*
X191016298Y-113485135D01*
X191016295Y-113485139D01*
X190952183Y-113639919D01*
X190919500Y-113804232D01*
X186975739Y-113804232D01*
X188573165Y-112206806D01*
X188617359Y-112188500D01*
X190932135Y-112188500D01*
X190976329Y-112206806D01*
X190989877Y-112227082D01*
X191016295Y-112290860D01*
X191016296Y-112290862D01*
X191016297Y-112290863D01*
X191109374Y-112430162D01*
X191227838Y-112548626D01*
X191367137Y-112641703D01*
X191521918Y-112705816D01*
X191686233Y-112738500D01*
X191853767Y-112738500D01*
X192018082Y-112705816D01*
X192172863Y-112641703D01*
X192312162Y-112548626D01*
X192430626Y-112430162D01*
X192523703Y-112290863D01*
X192587816Y-112136082D01*
X192620500Y-111971767D01*
X192620500Y-111804233D01*
X192587816Y-111639918D01*
X192523703Y-111485137D01*
X192430626Y-111345838D01*
X192312162Y-111227374D01*
X192172863Y-111134297D01*
X192172862Y-111134296D01*
X192172860Y-111134295D01*
X192018080Y-111070183D01*
X191853767Y-111037500D01*
X191686233Y-111037500D01*
X191521919Y-111070183D01*
X191367139Y-111134295D01*
X191367135Y-111134298D01*
X191227838Y-111227373D01*
X191109373Y-111345838D01*
X191016298Y-111485135D01*
X191016295Y-111485139D01*
X190989877Y-111548918D01*
X190956052Y-111582743D01*
X190932135Y-111587500D01*
X188454359Y-111587500D01*
X188410165Y-111569194D01*
X188391859Y-111525000D01*
X188410165Y-111480806D01*
X189684165Y-110206806D01*
X189728359Y-110188500D01*
X190932135Y-110188500D01*
X190976329Y-110206806D01*
X190989877Y-110227082D01*
X191016295Y-110290860D01*
X191016296Y-110290862D01*
X191016297Y-110290863D01*
X191049881Y-110341125D01*
X191090345Y-110401684D01*
X191109374Y-110430162D01*
X191227838Y-110548626D01*
X191367137Y-110641703D01*
X191521918Y-110705816D01*
X191686233Y-110738500D01*
X191853767Y-110738500D01*
X192018082Y-110705816D01*
X192172863Y-110641703D01*
X192312162Y-110548626D01*
X192430626Y-110430162D01*
X192523703Y-110290863D01*
X192587816Y-110136082D01*
X192620500Y-109971767D01*
X192620500Y-109804233D01*
X192587816Y-109639918D01*
X192574586Y-109607978D01*
X192523704Y-109485139D01*
X192523703Y-109485138D01*
X192523703Y-109485137D01*
X192430626Y-109345838D01*
X192312162Y-109227374D01*
X192275049Y-109202576D01*
X192179153Y-109138500D01*
X192172863Y-109134297D01*
X192172862Y-109134296D01*
X192172860Y-109134295D01*
X192018080Y-109070183D01*
X191853767Y-109037500D01*
X191686233Y-109037500D01*
X191521919Y-109070183D01*
X191367139Y-109134295D01*
X191367135Y-109134298D01*
X191227838Y-109227373D01*
X191109373Y-109345838D01*
X191016298Y-109485135D01*
X191016295Y-109485139D01*
X190989877Y-109548918D01*
X190956052Y-109582743D01*
X190932135Y-109587500D01*
X189538432Y-109587500D01*
X189462013Y-109607978D01*
X189462011Y-109607978D01*
X189406691Y-109639918D01*
X189393488Y-109647540D01*
X183154835Y-115886194D01*
X183110641Y-115904500D01*
X179721203Y-115904500D01*
X179677009Y-115886194D01*
X179658703Y-115842000D01*
X179677009Y-115797806D01*
X179724495Y-115750319D01*
X179724500Y-115750314D01*
X179790392Y-115636186D01*
X179824500Y-115508892D01*
X179824500Y-115377108D01*
X179790392Y-115249814D01*
X179724500Y-115135686D01*
X179724498Y-115135684D01*
X179724495Y-115135680D01*
X179631319Y-115042504D01*
X179631315Y-115042501D01*
X179631314Y-115042500D01*
X179559749Y-115001182D01*
X179517185Y-114976607D01*
X179517182Y-114976606D01*
X179389898Y-114942501D01*
X179389893Y-114942500D01*
X179389892Y-114942500D01*
X179258108Y-114942500D01*
X179258107Y-114942500D01*
X179258101Y-114942501D01*
X179130817Y-114976606D01*
X179130814Y-114976607D01*
X179016684Y-115042501D01*
X179016680Y-115042504D01*
X178923504Y-115135680D01*
X178923501Y-115135684D01*
X178857607Y-115249814D01*
X178857606Y-115249817D01*
X178823501Y-115377101D01*
X178823500Y-115377109D01*
X178823500Y-115508890D01*
X178823501Y-115508898D01*
X178857606Y-115636182D01*
X178857607Y-115636185D01*
X178863625Y-115646608D01*
X178916740Y-115738606D01*
X178923501Y-115750315D01*
X178923504Y-115750319D01*
X178970991Y-115797806D01*
X178989297Y-115842000D01*
X178970991Y-115886194D01*
X178926797Y-115904500D01*
X171549202Y-115904500D01*
X171505008Y-115886194D01*
X171423319Y-115804504D01*
X171423315Y-115804501D01*
X171423314Y-115804500D01*
X171329470Y-115750319D01*
X171309185Y-115738607D01*
X171309182Y-115738606D01*
X171181898Y-115704501D01*
X171181893Y-115704500D01*
X171181892Y-115704500D01*
X171050108Y-115704500D01*
X171050107Y-115704500D01*
X171050101Y-115704501D01*
X170922817Y-115738606D01*
X170922814Y-115738607D01*
X170808684Y-115804501D01*
X170808680Y-115804504D01*
X170715504Y-115897680D01*
X170715501Y-115897684D01*
X170649607Y-116011814D01*
X170649606Y-116011817D01*
X170615501Y-116139101D01*
X170615500Y-116139109D01*
X169527862Y-116139109D01*
X170159165Y-115507806D01*
X170203359Y-115489500D01*
X176061562Y-115489500D01*
X176061567Y-115489499D01*
X176084271Y-115483414D01*
X176137989Y-115469021D01*
X176206511Y-115429460D01*
X176262460Y-115373511D01*
X177024460Y-114611511D01*
X177064022Y-114542988D01*
X177084500Y-114466562D01*
X177084500Y-114387438D01*
X177084500Y-113345109D01*
X178823500Y-113345109D01*
X178823500Y-113476890D01*
X178823501Y-113476898D01*
X178857606Y-113604182D01*
X178857607Y-113604185D01*
X178884902Y-113651460D01*
X178919863Y-113712015D01*
X178923501Y-113718315D01*
X178923504Y-113718319D01*
X179016680Y-113811495D01*
X179016684Y-113811498D01*
X179016686Y-113811500D01*
X179130814Y-113877392D01*
X179130817Y-113877393D01*
X179208712Y-113898264D01*
X179258108Y-113911500D01*
X179258109Y-113911500D01*
X179389891Y-113911500D01*
X179389892Y-113911500D01*
X179517186Y-113877392D01*
X179631314Y-113811500D01*
X179714625Y-113728188D01*
X179742640Y-113712015D01*
X179820985Y-113691022D01*
X179820983Y-113691022D01*
X179820989Y-113691021D01*
X179889511Y-113651460D01*
X179945460Y-113595511D01*
X183624861Y-109916109D01*
X186951500Y-109916109D01*
X186951500Y-110047890D01*
X186951501Y-110047898D01*
X186985606Y-110175182D01*
X186985607Y-110175185D01*
X187003864Y-110206806D01*
X187039765Y-110268989D01*
X187051501Y-110289315D01*
X187051504Y-110289319D01*
X187144680Y-110382495D01*
X187144684Y-110382498D01*
X187144686Y-110382500D01*
X187227237Y-110430161D01*
X187258814Y-110448392D01*
X187258817Y-110448393D01*
X187336712Y-110469264D01*
X187386108Y-110482500D01*
X187386109Y-110482500D01*
X187517891Y-110482500D01*
X187517892Y-110482500D01*
X187645186Y-110448392D01*
X187759314Y-110382500D01*
X187852500Y-110289314D01*
X187918392Y-110175186D01*
X187952500Y-110047892D01*
X187952500Y-109916108D01*
X187939264Y-109866712D01*
X187918393Y-109788817D01*
X187918392Y-109788814D01*
X187852500Y-109674686D01*
X187852498Y-109674684D01*
X187852495Y-109674680D01*
X187759319Y-109581504D01*
X187759315Y-109581501D01*
X187759314Y-109581500D01*
X187680842Y-109536194D01*
X187645185Y-109515607D01*
X187645182Y-109515606D01*
X187517898Y-109481501D01*
X187517893Y-109481500D01*
X187517892Y-109481500D01*
X187386108Y-109481500D01*
X187386107Y-109481500D01*
X187386101Y-109481501D01*
X187258817Y-109515606D01*
X187258814Y-109515607D01*
X187144684Y-109581501D01*
X187144680Y-109581504D01*
X187051504Y-109674680D01*
X187051501Y-109674684D01*
X186985607Y-109788814D01*
X186985606Y-109788817D01*
X186951501Y-109916101D01*
X186951500Y-109916109D01*
X183624861Y-109916109D01*
X185199164Y-108341805D01*
X185243358Y-108323500D01*
X185358891Y-108323500D01*
X185358892Y-108323500D01*
X185394048Y-108314080D01*
X193119500Y-108314080D01*
X193119500Y-108461919D01*
X193148341Y-108606911D01*
X193148341Y-108606912D01*
X193204916Y-108743495D01*
X193204917Y-108743497D01*
X193287048Y-108866415D01*
X193391584Y-108970951D01*
X193463747Y-109019169D01*
X193514505Y-109053084D01*
X193651087Y-109109658D01*
X193796082Y-109138500D01*
X193943918Y-109138500D01*
X194088913Y-109109658D01*
X194225495Y-109053084D01*
X194348416Y-108970951D01*
X194452951Y-108866416D01*
X194535084Y-108743495D01*
X194591658Y-108606913D01*
X194620500Y-108461918D01*
X194620500Y-108314082D01*
X194591658Y-108169087D01*
X194535084Y-108032505D01*
X194452951Y-107909584D01*
X194348416Y-107805049D01*
X194348415Y-107805048D01*
X194225497Y-107722917D01*
X194225495Y-107722916D01*
X194088911Y-107666341D01*
X193943919Y-107637500D01*
X193943918Y-107637500D01*
X193796082Y-107637500D01*
X193796080Y-107637500D01*
X193651088Y-107666341D01*
X193651087Y-107666341D01*
X193514504Y-107722916D01*
X193514502Y-107722917D01*
X193391584Y-107805048D01*
X193287048Y-107909584D01*
X193204917Y-108032502D01*
X193204916Y-108032504D01*
X193148341Y-108169087D01*
X193148341Y-108169088D01*
X193119500Y-108314080D01*
X185394048Y-108314080D01*
X185486186Y-108289392D01*
X185600314Y-108223500D01*
X185693500Y-108130314D01*
X185759392Y-108016186D01*
X185793500Y-107888892D01*
X185793500Y-107757108D01*
X185769179Y-107666341D01*
X185759393Y-107629817D01*
X185759392Y-107629814D01*
X185748193Y-107610417D01*
X185693500Y-107515686D01*
X185693498Y-107515684D01*
X185693495Y-107515680D01*
X185600319Y-107422504D01*
X185600315Y-107422501D01*
X185600314Y-107422500D01*
X185537595Y-107386289D01*
X185486185Y-107356607D01*
X185486182Y-107356606D01*
X185358898Y-107322501D01*
X185358893Y-107322500D01*
X185358892Y-107322500D01*
X185227108Y-107322500D01*
X185227107Y-107322500D01*
X185227101Y-107322501D01*
X185099817Y-107356606D01*
X185099814Y-107356607D01*
X184985684Y-107422501D01*
X184985680Y-107422504D01*
X184892504Y-107515680D01*
X184892501Y-107515684D01*
X184826607Y-107629814D01*
X184826606Y-107629817D01*
X184792501Y-107757101D01*
X184792500Y-107757109D01*
X184792500Y-107872640D01*
X184774194Y-107916834D01*
X179696425Y-112994602D01*
X179652231Y-113012908D01*
X179620981Y-113004534D01*
X179517191Y-112944610D01*
X179517182Y-112944606D01*
X179389898Y-112910501D01*
X179389893Y-112910500D01*
X179389892Y-112910500D01*
X179258108Y-112910500D01*
X179258107Y-112910500D01*
X179258101Y-112910501D01*
X179130817Y-112944606D01*
X179130814Y-112944607D01*
X179016684Y-113010501D01*
X179016680Y-113010504D01*
X178923504Y-113103680D01*
X178923501Y-113103684D01*
X178857607Y-113217814D01*
X178857606Y-113217817D01*
X178823501Y-113345101D01*
X178823500Y-113345109D01*
X177084500Y-113345109D01*
X177084500Y-110643109D01*
X180474500Y-110643109D01*
X180474500Y-110774890D01*
X180474501Y-110774898D01*
X180508606Y-110902182D01*
X180508607Y-110902185D01*
X180508608Y-110902186D01*
X180553126Y-110979294D01*
X180574501Y-111016315D01*
X180574504Y-111016319D01*
X180667680Y-111109495D01*
X180667684Y-111109498D01*
X180667686Y-111109500D01*
X180776767Y-111172478D01*
X180781814Y-111175392D01*
X180781817Y-111175393D01*
X180859712Y-111196264D01*
X180909108Y-111209500D01*
X180909109Y-111209500D01*
X181040891Y-111209500D01*
X181040892Y-111209500D01*
X181168186Y-111175392D01*
X181282314Y-111109500D01*
X181375500Y-111016314D01*
X181441392Y-110902186D01*
X181475500Y-110774892D01*
X181475500Y-110643108D01*
X181441392Y-110515814D01*
X181375500Y-110401686D01*
X181375498Y-110401684D01*
X181375495Y-110401680D01*
X181282319Y-110308504D01*
X181282315Y-110308501D01*
X181282314Y-110308500D01*
X181202110Y-110262194D01*
X181168185Y-110242607D01*
X181168182Y-110242606D01*
X181040898Y-110208501D01*
X181040893Y-110208500D01*
X181040892Y-110208500D01*
X180909108Y-110208500D01*
X180909107Y-110208500D01*
X180909101Y-110208501D01*
X180781817Y-110242606D01*
X180781814Y-110242607D01*
X180667684Y-110308501D01*
X180667680Y-110308504D01*
X180574504Y-110401680D01*
X180574501Y-110401684D01*
X180508607Y-110515814D01*
X180508606Y-110515817D01*
X180474501Y-110643101D01*
X180474500Y-110643109D01*
X177084500Y-110643109D01*
X177084500Y-109358982D01*
X177092872Y-109327733D01*
X177121007Y-109279003D01*
X177141486Y-109202576D01*
X177141486Y-109134718D01*
X177159792Y-109090524D01*
X177241481Y-109008835D01*
X177241486Y-109008830D01*
X177307378Y-108894702D01*
X177341486Y-108767408D01*
X177341486Y-108635624D01*
X177324951Y-108573913D01*
X177307379Y-108508333D01*
X177307378Y-108508330D01*
X177302341Y-108499606D01*
X177241486Y-108394202D01*
X177241484Y-108394200D01*
X177241481Y-108394196D01*
X177148305Y-108301020D01*
X177148301Y-108301017D01*
X177148300Y-108301016D01*
X177091236Y-108268070D01*
X177034171Y-108235123D01*
X177034168Y-108235122D01*
X176906884Y-108201017D01*
X176906879Y-108201016D01*
X176906878Y-108201016D01*
X176775094Y-108201016D01*
X176775093Y-108201016D01*
X176775087Y-108201017D01*
X176647803Y-108235122D01*
X176647800Y-108235123D01*
X176533670Y-108301017D01*
X176533666Y-108301020D01*
X176440490Y-108394196D01*
X176440487Y-108394200D01*
X176374593Y-108508330D01*
X176374592Y-108508333D01*
X176340487Y-108635617D01*
X176340486Y-108635625D01*
X176340486Y-108767406D01*
X176340487Y-108767414D01*
X176374592Y-108894698D01*
X176374593Y-108894701D01*
X176387097Y-108916358D01*
X176418616Y-108970951D01*
X176440487Y-109008831D01*
X176440490Y-109008835D01*
X176485159Y-109053504D01*
X176503465Y-109097698D01*
X176501335Y-109113874D01*
X176483501Y-109180430D01*
X176483500Y-109180438D01*
X176483500Y-114276641D01*
X176465194Y-114320835D01*
X175915835Y-114870194D01*
X175871641Y-114888500D01*
X170013432Y-114888500D01*
X169937010Y-114908979D01*
X169937005Y-114908981D01*
X169911015Y-114923987D01*
X169911015Y-114923988D01*
X169868488Y-114948540D01*
X168422835Y-116394194D01*
X168378641Y-116412500D01*
X168037203Y-116412500D01*
X167993009Y-116394194D01*
X167974703Y-116350000D01*
X167993009Y-116305806D01*
X168040495Y-116258319D01*
X168040500Y-116258314D01*
X168106392Y-116144186D01*
X168140500Y-116016892D01*
X168140500Y-115885108D01*
X168119218Y-115805680D01*
X168106393Y-115757817D01*
X168106392Y-115757814D01*
X168080230Y-115712500D01*
X168040500Y-115643686D01*
X168040498Y-115643684D01*
X168040495Y-115643680D01*
X167947319Y-115550504D01*
X167947315Y-115550501D01*
X167947314Y-115550500D01*
X167890250Y-115517554D01*
X167833185Y-115484607D01*
X167833182Y-115484606D01*
X167705898Y-115450501D01*
X167705893Y-115450500D01*
X167705892Y-115450500D01*
X167574108Y-115450500D01*
X167574107Y-115450500D01*
X167574101Y-115450501D01*
X167446817Y-115484606D01*
X167446814Y-115484607D01*
X167332684Y-115550501D01*
X167332680Y-115550504D01*
X167239504Y-115643680D01*
X167239501Y-115643684D01*
X167173607Y-115757814D01*
X167173606Y-115757817D01*
X167139501Y-115885101D01*
X167139500Y-115885109D01*
X167139500Y-116016890D01*
X167139501Y-116016898D01*
X167173606Y-116144182D01*
X167173607Y-116144185D01*
X167193649Y-116178898D01*
X167239240Y-116257864D01*
X167239501Y-116258315D01*
X167239504Y-116258319D01*
X167286991Y-116305806D01*
X167305297Y-116350000D01*
X167286991Y-116394194D01*
X167242797Y-116412500D01*
X159736265Y-116412500D01*
X159692071Y-116394194D01*
X159673765Y-116350000D01*
X159682138Y-116318751D01*
X159689390Y-116306189D01*
X159689392Y-116306186D01*
X159723500Y-116178892D01*
X159723500Y-116047108D01*
X159703313Y-115971767D01*
X159689393Y-115919817D01*
X159689392Y-115919814D01*
X159669186Y-115884817D01*
X159623500Y-115805686D01*
X159623498Y-115805684D01*
X159623495Y-115805680D01*
X159530319Y-115712504D01*
X159530315Y-115712501D01*
X159530314Y-115712500D01*
X159469692Y-115677500D01*
X159416185Y-115646607D01*
X159416182Y-115646606D01*
X159288898Y-115612501D01*
X159288893Y-115612500D01*
X159288892Y-115612500D01*
X159157108Y-115612500D01*
X159157107Y-115612500D01*
X159157101Y-115612501D01*
X159029817Y-115646606D01*
X159029814Y-115646607D01*
X158915684Y-115712501D01*
X158915680Y-115712504D01*
X158822504Y-115805680D01*
X158822501Y-115805684D01*
X158756607Y-115919814D01*
X158756606Y-115919817D01*
X158722501Y-116047101D01*
X158722500Y-116047109D01*
X158722500Y-116178890D01*
X158722501Y-116178898D01*
X158756606Y-116306182D01*
X158756609Y-116306189D01*
X158763862Y-116318751D01*
X158770105Y-116366177D01*
X158740984Y-116404127D01*
X158709735Y-116412500D01*
X154484202Y-116412500D01*
X154440008Y-116394194D01*
X154358319Y-116312504D01*
X154358315Y-116312501D01*
X154358314Y-116312500D01*
X154286749Y-116271182D01*
X154244185Y-116246607D01*
X154244182Y-116246606D01*
X154116898Y-116212501D01*
X154116893Y-116212500D01*
X154116892Y-116212500D01*
X153985108Y-116212500D01*
X153981012Y-116212500D01*
X153981012Y-116210712D01*
X153940626Y-116199872D01*
X153916726Y-116158435D01*
X153916729Y-116147988D01*
X153916500Y-116147988D01*
X153916500Y-116012109D01*
X153916498Y-116012101D01*
X153882393Y-115884817D01*
X153882392Y-115884814D01*
X153836706Y-115805684D01*
X153816500Y-115770686D01*
X153816498Y-115770684D01*
X153816495Y-115770680D01*
X153723319Y-115677504D01*
X153723315Y-115677501D01*
X153723314Y-115677500D01*
X153610733Y-115612501D01*
X153609185Y-115611607D01*
X153609182Y-115611606D01*
X153481898Y-115577501D01*
X153481893Y-115577500D01*
X153481892Y-115577500D01*
X153350108Y-115577500D01*
X153350107Y-115577500D01*
X153350101Y-115577501D01*
X153222817Y-115611606D01*
X153222814Y-115611607D01*
X153108684Y-115677501D01*
X153108680Y-115677504D01*
X153015504Y-115770680D01*
X153015501Y-115770684D01*
X152949607Y-115884814D01*
X152949606Y-115884817D01*
X152915501Y-116012101D01*
X152915500Y-116012109D01*
X152700500Y-116012109D01*
X152700500Y-114958359D01*
X152718806Y-114914165D01*
X155173165Y-112459806D01*
X155217359Y-112441500D01*
X164885562Y-112441500D01*
X164885567Y-112441499D01*
X164908271Y-112435414D01*
X164961989Y-112421021D01*
X165030511Y-112381460D01*
X165086460Y-112325511D01*
X169691073Y-107720898D01*
X179664181Y-107720898D01*
X179664181Y-107852679D01*
X179664182Y-107852687D01*
X179698287Y-107979971D01*
X179698288Y-107979974D01*
X179716891Y-108012194D01*
X179762126Y-108090544D01*
X179764182Y-108094104D01*
X179764185Y-108094108D01*
X179857361Y-108187284D01*
X179857365Y-108187287D01*
X179857367Y-108187289D01*
X179971495Y-108253181D01*
X179971498Y-108253182D01*
X180049393Y-108274053D01*
X180098789Y-108287289D01*
X180098790Y-108287289D01*
X180230572Y-108287289D01*
X180230573Y-108287289D01*
X180357867Y-108253181D01*
X180471995Y-108187289D01*
X180565181Y-108094103D01*
X180631073Y-107979975D01*
X180665181Y-107852681D01*
X180665181Y-107720897D01*
X180642835Y-107637500D01*
X180631074Y-107593606D01*
X180631073Y-107593603D01*
X180586086Y-107515684D01*
X180565181Y-107479475D01*
X180565179Y-107479473D01*
X180565176Y-107479469D01*
X180472000Y-107386293D01*
X180471996Y-107386290D01*
X180471995Y-107386289D01*
X180410719Y-107350911D01*
X180357866Y-107320396D01*
X180357863Y-107320395D01*
X180230579Y-107286290D01*
X180230574Y-107286289D01*
X180230573Y-107286289D01*
X180098789Y-107286289D01*
X180098788Y-107286289D01*
X180098782Y-107286290D01*
X179971498Y-107320395D01*
X179971495Y-107320396D01*
X179857365Y-107386290D01*
X179857361Y-107386293D01*
X179764185Y-107479469D01*
X179764182Y-107479473D01*
X179698288Y-107593603D01*
X179698287Y-107593606D01*
X179664182Y-107720890D01*
X179664181Y-107720898D01*
X169691073Y-107720898D01*
X170286165Y-107125806D01*
X170330359Y-107107500D01*
X171270798Y-107107500D01*
X171314992Y-107125806D01*
X171396680Y-107207495D01*
X171396684Y-107207498D01*
X171396686Y-107207500D01*
X171510814Y-107273392D01*
X171510817Y-107273393D01*
X171558950Y-107286290D01*
X171638108Y-107307500D01*
X171638109Y-107307500D01*
X171769891Y-107307500D01*
X171769892Y-107307500D01*
X171897186Y-107273392D01*
X172011314Y-107207500D01*
X172104500Y-107114314D01*
X172170392Y-107000186D01*
X172204500Y-106872892D01*
X172204500Y-106741108D01*
X172181048Y-106653584D01*
X172170393Y-106613817D01*
X172170392Y-106613814D01*
X172143097Y-106566538D01*
X172104500Y-106499686D01*
X172104498Y-106499684D01*
X172104495Y-106499680D01*
X172011317Y-106406502D01*
X171930963Y-106360109D01*
X174124500Y-106360109D01*
X174124500Y-106491890D01*
X174124501Y-106491898D01*
X174158606Y-106619182D01*
X174158607Y-106619185D01*
X174224501Y-106733315D01*
X174224504Y-106733319D01*
X174317680Y-106826495D01*
X174317684Y-106826498D01*
X174317686Y-106826500D01*
X174431814Y-106892392D01*
X174431817Y-106892393D01*
X174509050Y-106913087D01*
X174559108Y-106926500D01*
X174559109Y-106926500D01*
X174690891Y-106926500D01*
X174690892Y-106926500D01*
X174818186Y-106892392D01*
X174932314Y-106826500D01*
X175025500Y-106733314D01*
X175091392Y-106619186D01*
X175125500Y-106491892D01*
X175125500Y-106360108D01*
X175097978Y-106257392D01*
X175091393Y-106232817D01*
X175091392Y-106232814D01*
X175057529Y-106174162D01*
X175025500Y-106118686D01*
X175025498Y-106118684D01*
X175025495Y-106118680D01*
X174932319Y-106025504D01*
X174932315Y-106025501D01*
X174932314Y-106025500D01*
X174860749Y-105984182D01*
X174818185Y-105959607D01*
X174818182Y-105959606D01*
X174690898Y-105925501D01*
X174690893Y-105925500D01*
X174690892Y-105925500D01*
X174559108Y-105925500D01*
X174559107Y-105925500D01*
X174559101Y-105925501D01*
X174431817Y-105959606D01*
X174431814Y-105959607D01*
X174317684Y-106025501D01*
X174317680Y-106025504D01*
X174224504Y-106118680D01*
X174224501Y-106118684D01*
X174158607Y-106232814D01*
X174158606Y-106232817D01*
X174124501Y-106360101D01*
X174124500Y-106360109D01*
X171930963Y-106360109D01*
X171897185Y-106340607D01*
X171897182Y-106340606D01*
X171769898Y-106306501D01*
X171769893Y-106306500D01*
X171769892Y-106306500D01*
X171638108Y-106306500D01*
X171638107Y-106306500D01*
X171638101Y-106306501D01*
X171510817Y-106340606D01*
X171510814Y-106340607D01*
X171396684Y-106406501D01*
X171396680Y-106406504D01*
X171314992Y-106488194D01*
X171270798Y-106506500D01*
X170140432Y-106506500D01*
X170064013Y-106526978D01*
X170064011Y-106526979D01*
X170004934Y-106561087D01*
X170004933Y-106561086D01*
X169995491Y-106566537D01*
X169995491Y-106566538D01*
X164739835Y-111822194D01*
X164695641Y-111840500D01*
X155106562Y-111840500D01*
X155027438Y-111840500D01*
X155027437Y-111840500D01*
X155027431Y-111840501D01*
X154951015Y-111860976D01*
X154951006Y-111860980D01*
X154882492Y-111900537D01*
X154882483Y-111900544D01*
X152871531Y-113911498D01*
X152215489Y-114567540D01*
X152187515Y-114595514D01*
X152159541Y-114623487D01*
X152119978Y-114692011D01*
X152119978Y-114692013D01*
X152099500Y-114768432D01*
X140500500Y-114768432D01*
X140500500Y-113771232D01*
X147485500Y-113771232D01*
X147485500Y-113938767D01*
X147518183Y-114103080D01*
X147582295Y-114257860D01*
X147582296Y-114257862D01*
X147582297Y-114257863D01*
X147604345Y-114290860D01*
X147668876Y-114387438D01*
X147675374Y-114397162D01*
X147793838Y-114515626D01*
X147933137Y-114608703D01*
X148087918Y-114672816D01*
X148252233Y-114705500D01*
X148419767Y-114705500D01*
X148430630Y-114703339D01*
X148432125Y-114703042D01*
X148487581Y-114692011D01*
X148584082Y-114672816D01*
X148738863Y-114608703D01*
X148878162Y-114515626D01*
X148996626Y-114397162D01*
X149054681Y-114310277D01*
X149094455Y-114283701D01*
X149106648Y-114282500D01*
X151487562Y-114282500D01*
X151487567Y-114282499D01*
X151510271Y-114276414D01*
X151563989Y-114262021D01*
X151632511Y-114222460D01*
X151688460Y-114166511D01*
X155681165Y-110173806D01*
X155725359Y-110155500D01*
X157074928Y-110155500D01*
X157119122Y-110173806D01*
X157137428Y-110218000D01*
X157119122Y-110262194D01*
X157106181Y-110272124D01*
X157054101Y-110302192D01*
X157043175Y-110308501D01*
X157043171Y-110308504D01*
X156949995Y-110401680D01*
X156949992Y-110401684D01*
X156884098Y-110515814D01*
X156884097Y-110515817D01*
X156849992Y-110643101D01*
X156849991Y-110643109D01*
X156849991Y-110774890D01*
X156849992Y-110774898D01*
X156884097Y-110902182D01*
X156884098Y-110902185D01*
X156884099Y-110902186D01*
X156928617Y-110979294D01*
X156949992Y-111016315D01*
X156949995Y-111016319D01*
X157043171Y-111109495D01*
X157043175Y-111109498D01*
X157043177Y-111109500D01*
X157152258Y-111172478D01*
X157157305Y-111175392D01*
X157157308Y-111175393D01*
X157235203Y-111196264D01*
X157284599Y-111209500D01*
X157284600Y-111209500D01*
X157416382Y-111209500D01*
X157416383Y-111209500D01*
X157543677Y-111175392D01*
X157657805Y-111109500D01*
X157750991Y-111016314D01*
X157816883Y-110902186D01*
X157850991Y-110774892D01*
X157850991Y-110643108D01*
X157816883Y-110515814D01*
X157750991Y-110401686D01*
X157750989Y-110401684D01*
X157750986Y-110401680D01*
X157657810Y-110308504D01*
X157657806Y-110308501D01*
X157657805Y-110308500D01*
X157594802Y-110272125D01*
X157565684Y-110234176D01*
X157571927Y-110186750D01*
X157609878Y-110157630D01*
X157626054Y-110155500D01*
X160858041Y-110155500D01*
X160902235Y-110173806D01*
X160920541Y-110218000D01*
X160902235Y-110262194D01*
X160893555Y-110268854D01*
X160893658Y-110268989D01*
X160890405Y-110271484D01*
X160797229Y-110364660D01*
X160797226Y-110364664D01*
X160731332Y-110478794D01*
X160731331Y-110478797D01*
X160697226Y-110606081D01*
X160697225Y-110606089D01*
X160697225Y-110737870D01*
X160697226Y-110737878D01*
X160731331Y-110865162D01*
X160731332Y-110865165D01*
X160797226Y-110979295D01*
X160797229Y-110979299D01*
X160890405Y-111072475D01*
X160890409Y-111072478D01*
X160890411Y-111072480D01*
X160997481Y-111134297D01*
X161004539Y-111138372D01*
X161004542Y-111138373D01*
X161082437Y-111159244D01*
X161131833Y-111172480D01*
X161131834Y-111172480D01*
X161263616Y-111172480D01*
X161263617Y-111172480D01*
X161390911Y-111138372D01*
X161505039Y-111072480D01*
X161598225Y-110979294D01*
X161664117Y-110865166D01*
X161698225Y-110737872D01*
X161698225Y-110606088D01*
X161665110Y-110482500D01*
X161664118Y-110478797D01*
X161664117Y-110478794D01*
X161636039Y-110430162D01*
X161598225Y-110364666D01*
X161598223Y-110364664D01*
X161598220Y-110364660D01*
X161505044Y-110271484D01*
X161501792Y-110268989D01*
X161502770Y-110267713D01*
X161477038Y-110234173D01*
X161483284Y-110186747D01*
X161521236Y-110157629D01*
X161537409Y-110155500D01*
X165673178Y-110155500D01*
X165673183Y-110155499D01*
X165695887Y-110149414D01*
X165749605Y-110135021D01*
X165818127Y-110095460D01*
X165874076Y-110039511D01*
X170188476Y-105725109D01*
X188348500Y-105725109D01*
X188348500Y-105856890D01*
X188348501Y-105856898D01*
X188382606Y-105984182D01*
X188382607Y-105984185D01*
X188448501Y-106098315D01*
X188448504Y-106098319D01*
X188541680Y-106191495D01*
X188541684Y-106191498D01*
X188541686Y-106191500D01*
X188655814Y-106257392D01*
X188655817Y-106257393D01*
X188733712Y-106278264D01*
X188783108Y-106291500D01*
X188783109Y-106291500D01*
X188914891Y-106291500D01*
X188914892Y-106291500D01*
X189042186Y-106257392D01*
X189156314Y-106191500D01*
X189249500Y-106098314D01*
X189315392Y-105984186D01*
X189349500Y-105856892D01*
X189349500Y-105725108D01*
X189336264Y-105675712D01*
X189315393Y-105597817D01*
X189315392Y-105597814D01*
X189286766Y-105548233D01*
X189249500Y-105483686D01*
X189249498Y-105483684D01*
X189249495Y-105483680D01*
X189156319Y-105390504D01*
X189156315Y-105390501D01*
X189156314Y-105390500D01*
X189094560Y-105354846D01*
X189042185Y-105324607D01*
X189042182Y-105324606D01*
X188914898Y-105290501D01*
X188914893Y-105290500D01*
X188914892Y-105290500D01*
X188783108Y-105290500D01*
X188783107Y-105290500D01*
X188783101Y-105290501D01*
X188655817Y-105324606D01*
X188655814Y-105324607D01*
X188541684Y-105390501D01*
X188541680Y-105390504D01*
X188448504Y-105483680D01*
X188448501Y-105483684D01*
X188382607Y-105597814D01*
X188382606Y-105597817D01*
X188348501Y-105725101D01*
X188348500Y-105725109D01*
X170188476Y-105725109D01*
X170440429Y-105473156D01*
X170484623Y-105454851D01*
X170600156Y-105454851D01*
X170600157Y-105454851D01*
X170727451Y-105420743D01*
X170841579Y-105354851D01*
X170934765Y-105261665D01*
X171000657Y-105147537D01*
X171034765Y-105020243D01*
X171034765Y-104888459D01*
X171015513Y-104816608D01*
X171000658Y-104761168D01*
X171000657Y-104761165D01*
X170974688Y-104716186D01*
X170935321Y-104648000D01*
X172466000Y-104648000D01*
X174498000Y-104648000D01*
X174498000Y-102235000D01*
X172466000Y-102235000D01*
X172466000Y-104648000D01*
X170935321Y-104648000D01*
X170934765Y-104647037D01*
X170934763Y-104647035D01*
X170934760Y-104647031D01*
X170841584Y-104553855D01*
X170841580Y-104553852D01*
X170841579Y-104553851D01*
X170784515Y-104520905D01*
X170727450Y-104487958D01*
X170727447Y-104487957D01*
X170600163Y-104453852D01*
X170600158Y-104453851D01*
X170600157Y-104453851D01*
X170468373Y-104453851D01*
X170468372Y-104453851D01*
X170468366Y-104453852D01*
X170341082Y-104487957D01*
X170341079Y-104487958D01*
X170226949Y-104553852D01*
X170226945Y-104553855D01*
X170133769Y-104647031D01*
X170133766Y-104647035D01*
X170067872Y-104761165D01*
X170067871Y-104761168D01*
X170033766Y-104888452D01*
X170033765Y-104888460D01*
X170033765Y-105003991D01*
X170015459Y-105048185D01*
X169169757Y-105893887D01*
X169125563Y-105912193D01*
X169081369Y-105893887D01*
X169063063Y-105849693D01*
X169071437Y-105818443D01*
X169122389Y-105730191D01*
X169122388Y-105730191D01*
X169122392Y-105730186D01*
X169156500Y-105602892D01*
X169156500Y-105471108D01*
X169142136Y-105417500D01*
X169122393Y-105343817D01*
X169122392Y-105343814D01*
X169091872Y-105290952D01*
X169056500Y-105229686D01*
X169056498Y-105229684D01*
X169056495Y-105229680D01*
X168963319Y-105136504D01*
X168963310Y-105136497D01*
X168860750Y-105077283D01*
X168831629Y-105039333D01*
X168829500Y-105023157D01*
X168829500Y-101941438D01*
X168829499Y-101941432D01*
X168818616Y-101900822D01*
X168809021Y-101865011D01*
X168769460Y-101796489D01*
X168713511Y-101740540D01*
X167650806Y-100677835D01*
X167632500Y-100633641D01*
X167632500Y-100518109D01*
X167632498Y-100518101D01*
X167598393Y-100390817D01*
X167598392Y-100390814D01*
X167588265Y-100373274D01*
X167532500Y-100276686D01*
X167532498Y-100276684D01*
X167532495Y-100276680D01*
X167439319Y-100183504D01*
X167439315Y-100183501D01*
X167439314Y-100183500D01*
X167382250Y-100150554D01*
X167325185Y-100117607D01*
X167325182Y-100117606D01*
X167197898Y-100083501D01*
X167197893Y-100083500D01*
X167197892Y-100083500D01*
X167066108Y-100083500D01*
X167066107Y-100083500D01*
X167066101Y-100083501D01*
X166938817Y-100117606D01*
X166938814Y-100117607D01*
X166824684Y-100183501D01*
X166824680Y-100183504D01*
X166731504Y-100276680D01*
X166731501Y-100276684D01*
X166665607Y-100390814D01*
X166665606Y-100390817D01*
X166631501Y-100518101D01*
X166631500Y-100518109D01*
X166631500Y-100649890D01*
X166631501Y-100649898D01*
X166665606Y-100777182D01*
X166665607Y-100777185D01*
X166665608Y-100777186D01*
X166720598Y-100872432D01*
X166731501Y-100891315D01*
X166731504Y-100891319D01*
X166824680Y-100984495D01*
X166824684Y-100984498D01*
X166824686Y-100984500D01*
X166938814Y-101050392D01*
X166938817Y-101050393D01*
X167016712Y-101071264D01*
X167066108Y-101084500D01*
X167066109Y-101084500D01*
X167181641Y-101084500D01*
X167225835Y-101102806D01*
X168210194Y-102087165D01*
X168228500Y-102131359D01*
X168228500Y-105259703D01*
X168220127Y-105290952D01*
X168189609Y-105343811D01*
X168189606Y-105343817D01*
X168155501Y-105471101D01*
X168155500Y-105471109D01*
X168155500Y-105602890D01*
X168155501Y-105602898D01*
X168189606Y-105730182D01*
X168189607Y-105730185D01*
X168200697Y-105749393D01*
X168250595Y-105835819D01*
X168255501Y-105844315D01*
X168255504Y-105844319D01*
X168348680Y-105937495D01*
X168348684Y-105937498D01*
X168348686Y-105937500D01*
X168462809Y-106003389D01*
X168462814Y-106003392D01*
X168462817Y-106003393D01*
X168535019Y-106022739D01*
X168590108Y-106037500D01*
X168590109Y-106037500D01*
X168721891Y-106037500D01*
X168721892Y-106037500D01*
X168849186Y-106003392D01*
X168882452Y-105984186D01*
X168937443Y-105952437D01*
X168984869Y-105946193D01*
X169022819Y-105975313D01*
X169029063Y-106022739D01*
X169012887Y-106050757D01*
X165527451Y-109536194D01*
X165483257Y-109554500D01*
X155535432Y-109554500D01*
X155459013Y-109574978D01*
X155459011Y-109574979D01*
X155401854Y-109607977D01*
X155401855Y-109607978D01*
X155390486Y-109614541D01*
X155390483Y-109614544D01*
X151341835Y-113663194D01*
X151297641Y-113681500D01*
X149219943Y-113681500D01*
X149175749Y-113663194D01*
X149158644Y-113631192D01*
X149153816Y-113606918D01*
X149103371Y-113485135D01*
X149089704Y-113452139D01*
X149089703Y-113452138D01*
X149089703Y-113452137D01*
X148996626Y-113312838D01*
X148878162Y-113194374D01*
X148738863Y-113101297D01*
X148738862Y-113101296D01*
X148738860Y-113101295D01*
X148584080Y-113037183D01*
X148419767Y-113004500D01*
X148252233Y-113004500D01*
X148087919Y-113037183D01*
X147933139Y-113101295D01*
X147933135Y-113101298D01*
X147793838Y-113194373D01*
X147675373Y-113312838D01*
X147582298Y-113452135D01*
X147582295Y-113452139D01*
X147518183Y-113606919D01*
X147485500Y-113771232D01*
X140500500Y-113771232D01*
X140500500Y-109368870D01*
X147485500Y-109368870D01*
X147485500Y-110341129D01*
X147500168Y-110433740D01*
X147500169Y-110433744D01*
X147557044Y-110545366D01*
X147645633Y-110633955D01*
X147757255Y-110690830D01*
X147757257Y-110690830D01*
X147757260Y-110690832D01*
X147849872Y-110705500D01*
X147849874Y-110705500D01*
X148822126Y-110705500D01*
X148822128Y-110705500D01*
X148914740Y-110690832D01*
X149026367Y-110633955D01*
X149114955Y-110545367D01*
X149171832Y-110433740D01*
X149186500Y-110341128D01*
X149186500Y-109368872D01*
X149171832Y-109276260D01*
X149171830Y-109276257D01*
X149171830Y-109276255D01*
X149114955Y-109164633D01*
X149026366Y-109076044D01*
X148914744Y-109019169D01*
X148914740Y-109019168D01*
X148822129Y-109004500D01*
X148822128Y-109004500D01*
X147849872Y-109004500D01*
X147849870Y-109004500D01*
X147757259Y-109019168D01*
X147757255Y-109019169D01*
X147645633Y-109076044D01*
X147557044Y-109164633D01*
X147500169Y-109276255D01*
X147500168Y-109276259D01*
X147485500Y-109368870D01*
X140500500Y-109368870D01*
X140500500Y-107058080D01*
X145485500Y-107058080D01*
X145485500Y-107205919D01*
X145514341Y-107350911D01*
X145514341Y-107350912D01*
X145570916Y-107487495D01*
X145570917Y-107487497D01*
X145653048Y-107610415D01*
X145741939Y-107699306D01*
X145760245Y-107743500D01*
X145741939Y-107787694D01*
X145653050Y-107876582D01*
X145653048Y-107876584D01*
X145570917Y-107999502D01*
X145570916Y-107999504D01*
X145514341Y-108136087D01*
X145514341Y-108136088D01*
X145485500Y-108281080D01*
X145485500Y-108428919D01*
X145514341Y-108573911D01*
X145514341Y-108573912D01*
X145570916Y-108710495D01*
X145570917Y-108710497D01*
X145608944Y-108767408D01*
X145653049Y-108833416D01*
X145757584Y-108937951D01*
X145880505Y-109020084D01*
X146017087Y-109076658D01*
X146162082Y-109105500D01*
X146309918Y-109105500D01*
X146454913Y-109076658D01*
X146591495Y-109020084D01*
X146714416Y-108937951D01*
X146752258Y-108900109D01*
X151137500Y-108900109D01*
X151137500Y-109031890D01*
X151137501Y-109031898D01*
X151171606Y-109159182D01*
X151171607Y-109159185D01*
X151183873Y-109180430D01*
X151210976Y-109227374D01*
X151237501Y-109273315D01*
X151237504Y-109273319D01*
X151330680Y-109366495D01*
X151330684Y-109366498D01*
X151330686Y-109366500D01*
X151444814Y-109432392D01*
X151444817Y-109432393D01*
X151522712Y-109453264D01*
X151572108Y-109466500D01*
X151572109Y-109466500D01*
X151703891Y-109466500D01*
X151703892Y-109466500D01*
X151831186Y-109432392D01*
X151945314Y-109366500D01*
X152038500Y-109273314D01*
X152104392Y-109159186D01*
X152138500Y-109031892D01*
X152138500Y-108900109D01*
X154185500Y-108900109D01*
X154185500Y-109031890D01*
X154185501Y-109031898D01*
X154219606Y-109159182D01*
X154219607Y-109159185D01*
X154231873Y-109180430D01*
X154258976Y-109227374D01*
X154285501Y-109273315D01*
X154285504Y-109273319D01*
X154378680Y-109366495D01*
X154378684Y-109366498D01*
X154378686Y-109366500D01*
X154492814Y-109432392D01*
X154492817Y-109432393D01*
X154570712Y-109453264D01*
X154620108Y-109466500D01*
X154620109Y-109466500D01*
X154751891Y-109466500D01*
X154751892Y-109466500D01*
X154879186Y-109432392D01*
X154993314Y-109366500D01*
X155086500Y-109273314D01*
X155152392Y-109159186D01*
X155186500Y-109031892D01*
X155186500Y-108916358D01*
X155204806Y-108872164D01*
X155427165Y-108649806D01*
X155471359Y-108631500D01*
X165012562Y-108631500D01*
X165012567Y-108631499D01*
X165035271Y-108625414D01*
X165088989Y-108611021D01*
X165157511Y-108571460D01*
X165213460Y-108515511D01*
X167165164Y-106563805D01*
X167209358Y-106545500D01*
X167324891Y-106545500D01*
X167324892Y-106545500D01*
X167452186Y-106511392D01*
X167566314Y-106445500D01*
X167659500Y-106352314D01*
X167725392Y-106238186D01*
X167759500Y-106110892D01*
X167759500Y-105979108D01*
X167725392Y-105851814D01*
X167659500Y-105737686D01*
X167659498Y-105737684D01*
X167659495Y-105737680D01*
X167566319Y-105644504D01*
X167566315Y-105644501D01*
X167566314Y-105644500D01*
X167499845Y-105606124D01*
X167452185Y-105578607D01*
X167452182Y-105578606D01*
X167324898Y-105544501D01*
X167324893Y-105544500D01*
X167324892Y-105544500D01*
X167193108Y-105544500D01*
X167193107Y-105544500D01*
X167193101Y-105544501D01*
X167065817Y-105578606D01*
X167065814Y-105578607D01*
X166951684Y-105644501D01*
X166951680Y-105644504D01*
X166858504Y-105737680D01*
X166858501Y-105737684D01*
X166792607Y-105851814D01*
X166792606Y-105851817D01*
X166758501Y-105979101D01*
X166758500Y-105979109D01*
X166758500Y-106094640D01*
X166740194Y-106138834D01*
X164866835Y-108012194D01*
X164822641Y-108030500D01*
X155360562Y-108030500D01*
X155281438Y-108030500D01*
X155281437Y-108030500D01*
X155281431Y-108030501D01*
X155205015Y-108050976D01*
X155205006Y-108050980D01*
X155136492Y-108090537D01*
X155136483Y-108090544D01*
X154779834Y-108447194D01*
X154735640Y-108465500D01*
X154620108Y-108465500D01*
X154620107Y-108465500D01*
X154620101Y-108465501D01*
X154492817Y-108499606D01*
X154492814Y-108499607D01*
X154378684Y-108565501D01*
X154378680Y-108565504D01*
X154285504Y-108658680D01*
X154285501Y-108658684D01*
X154219607Y-108772814D01*
X154219606Y-108772817D01*
X154185501Y-108900101D01*
X154185500Y-108900109D01*
X152138500Y-108900109D01*
X152138500Y-108900108D01*
X152104392Y-108772814D01*
X152038500Y-108658686D01*
X152038498Y-108658684D01*
X152038495Y-108658680D01*
X151945319Y-108565504D01*
X151945315Y-108565501D01*
X151945314Y-108565500D01*
X151858731Y-108515511D01*
X151831185Y-108499607D01*
X151831182Y-108499606D01*
X151703898Y-108465501D01*
X151703893Y-108465500D01*
X151703892Y-108465500D01*
X151572108Y-108465500D01*
X151572107Y-108465500D01*
X151572101Y-108465501D01*
X151444817Y-108499606D01*
X151444814Y-108499607D01*
X151330684Y-108565501D01*
X151330680Y-108565504D01*
X151237504Y-108658680D01*
X151237501Y-108658684D01*
X151171607Y-108772814D01*
X151171606Y-108772817D01*
X151137501Y-108900101D01*
X151137500Y-108900109D01*
X146752258Y-108900109D01*
X146818951Y-108833416D01*
X146901084Y-108710495D01*
X146957658Y-108573913D01*
X146986500Y-108428918D01*
X146986500Y-108281082D01*
X146957658Y-108136087D01*
X146901084Y-107999505D01*
X146818951Y-107876584D01*
X146730061Y-107787694D01*
X146711755Y-107743500D01*
X146730061Y-107699306D01*
X146763026Y-107666341D01*
X146818951Y-107610416D01*
X146901084Y-107487495D01*
X146957658Y-107350913D01*
X146986500Y-107205918D01*
X146986500Y-107058082D01*
X146957658Y-106913087D01*
X146901084Y-106776505D01*
X146818951Y-106653584D01*
X146714416Y-106549049D01*
X146681386Y-106526979D01*
X146591497Y-106466917D01*
X146591495Y-106466916D01*
X146454911Y-106410341D01*
X146309919Y-106381500D01*
X146309918Y-106381500D01*
X146162082Y-106381500D01*
X146162080Y-106381500D01*
X146017088Y-106410341D01*
X146017087Y-106410341D01*
X145880504Y-106466916D01*
X145880502Y-106466917D01*
X145757584Y-106549048D01*
X145653048Y-106653584D01*
X145570917Y-106776502D01*
X145570916Y-106776504D01*
X145514341Y-106913087D01*
X145514341Y-106913088D01*
X145485500Y-107058080D01*
X140500500Y-107058080D01*
X140500500Y-105548232D01*
X147485500Y-105548232D01*
X147485500Y-105715767D01*
X147518183Y-105880080D01*
X147582295Y-106034860D01*
X147582296Y-106034862D01*
X147582297Y-106034863D01*
X147675374Y-106174162D01*
X147793838Y-106292626D01*
X147933137Y-106385703D01*
X148087918Y-106449816D01*
X148252233Y-106482500D01*
X148419767Y-106482500D01*
X148584082Y-106449816D01*
X148738863Y-106385703D01*
X148878162Y-106292626D01*
X148996626Y-106174162D01*
X149089703Y-106034863D01*
X149153816Y-105880082D01*
X149159380Y-105852109D01*
X155074500Y-105852109D01*
X155074500Y-105983890D01*
X155074501Y-105983898D01*
X155108606Y-106111182D01*
X155108607Y-106111185D01*
X155141554Y-106168250D01*
X155154977Y-106191500D01*
X155174501Y-106225315D01*
X155174504Y-106225319D01*
X155267680Y-106318495D01*
X155267684Y-106318498D01*
X155267686Y-106318500D01*
X155339755Y-106360109D01*
X155381814Y-106384392D01*
X155381817Y-106384393D01*
X155386710Y-106385704D01*
X155509108Y-106418500D01*
X155509109Y-106418500D01*
X155640891Y-106418500D01*
X155640892Y-106418500D01*
X155768186Y-106384392D01*
X155882314Y-106318500D01*
X155975500Y-106225314D01*
X156041392Y-106111186D01*
X156075500Y-105983892D01*
X156075500Y-105852108D01*
X156044841Y-105737686D01*
X156041393Y-105724817D01*
X156041392Y-105724814D01*
X156013681Y-105676818D01*
X155975500Y-105610686D01*
X155975498Y-105610684D01*
X155975495Y-105610680D01*
X155882319Y-105517504D01*
X155882315Y-105517501D01*
X155882314Y-105517500D01*
X155801949Y-105471101D01*
X155768185Y-105451607D01*
X155768182Y-105451606D01*
X155640898Y-105417501D01*
X155640893Y-105417500D01*
X155640892Y-105417500D01*
X155509108Y-105417500D01*
X155509107Y-105417500D01*
X155509101Y-105417501D01*
X155381817Y-105451606D01*
X155381814Y-105451607D01*
X155267684Y-105517501D01*
X155267680Y-105517504D01*
X155174504Y-105610680D01*
X155174501Y-105610684D01*
X155108607Y-105724814D01*
X155108606Y-105724817D01*
X155074501Y-105852101D01*
X155074500Y-105852109D01*
X149159380Y-105852109D01*
X149186500Y-105715767D01*
X149186500Y-105548233D01*
X149153816Y-105383918D01*
X149102364Y-105259703D01*
X149089704Y-105229139D01*
X149089703Y-105229138D01*
X149089703Y-105229137D01*
X148996626Y-105089838D01*
X148878162Y-104971374D01*
X148738863Y-104878297D01*
X148738862Y-104878296D01*
X148738860Y-104878295D01*
X148584080Y-104814183D01*
X148419767Y-104781500D01*
X148252233Y-104781500D01*
X148087919Y-104814183D01*
X147933139Y-104878295D01*
X147933135Y-104878298D01*
X147793838Y-104971373D01*
X147675373Y-105089838D01*
X147582298Y-105229135D01*
X147582295Y-105229139D01*
X147518183Y-105383919D01*
X147485500Y-105548232D01*
X140500500Y-105548232D01*
X140500500Y-103145870D01*
X147485500Y-103145870D01*
X147485500Y-104118129D01*
X147500168Y-104210740D01*
X147500169Y-104210744D01*
X147557044Y-104322366D01*
X147645633Y-104410955D01*
X147757255Y-104467830D01*
X147757257Y-104467830D01*
X147757260Y-104467832D01*
X147849872Y-104482500D01*
X147849874Y-104482500D01*
X148822126Y-104482500D01*
X148822128Y-104482500D01*
X148914740Y-104467832D01*
X149026367Y-104410955D01*
X149114955Y-104322367D01*
X149171832Y-104210740D01*
X149186500Y-104118128D01*
X149186500Y-103145872D01*
X149171832Y-103053260D01*
X149171830Y-103053257D01*
X149171830Y-103053255D01*
X149114955Y-102941633D01*
X149026366Y-102853044D01*
X148914744Y-102796169D01*
X148914740Y-102796168D01*
X148822129Y-102781500D01*
X148822128Y-102781500D01*
X147849872Y-102781500D01*
X147849870Y-102781500D01*
X147757259Y-102796168D01*
X147757255Y-102796169D01*
X147645633Y-102853044D01*
X147557044Y-102941633D01*
X147500169Y-103053255D01*
X147500168Y-103053259D01*
X147485500Y-103145870D01*
X140500500Y-103145870D01*
X140500500Y-100708080D01*
X145485500Y-100708080D01*
X145485500Y-100855919D01*
X145514341Y-101000911D01*
X145514341Y-101000912D01*
X145570916Y-101137495D01*
X145570917Y-101137497D01*
X145653048Y-101260415D01*
X145757584Y-101364951D01*
X145817571Y-101405033D01*
X145844147Y-101444807D01*
X145834815Y-101491723D01*
X145817571Y-101508967D01*
X145757584Y-101549048D01*
X145653048Y-101653584D01*
X145570917Y-101776502D01*
X145570916Y-101776504D01*
X145514341Y-101913087D01*
X145514341Y-101913088D01*
X145485500Y-102058080D01*
X145485500Y-102205919D01*
X145514341Y-102350911D01*
X145514341Y-102350912D01*
X145570916Y-102487495D01*
X145570917Y-102487497D01*
X145653048Y-102610415D01*
X145653049Y-102610416D01*
X145757584Y-102714951D01*
X145880505Y-102797084D01*
X146017087Y-102853658D01*
X146162082Y-102882500D01*
X146309918Y-102882500D01*
X146454913Y-102853658D01*
X146591495Y-102797084D01*
X146714416Y-102714951D01*
X146818951Y-102610416D01*
X146824866Y-102601563D01*
X160190597Y-102601563D01*
X160190597Y-102733344D01*
X160190598Y-102733352D01*
X160224703Y-102860636D01*
X160224704Y-102860639D01*
X160224705Y-102860640D01*
X160271466Y-102941633D01*
X160290598Y-102974769D01*
X160290601Y-102974773D01*
X160372291Y-103056462D01*
X160390597Y-103100656D01*
X160390597Y-105705182D01*
X160382224Y-105736432D01*
X160315607Y-105851814D01*
X160315606Y-105851817D01*
X160281501Y-105979101D01*
X160281500Y-105979109D01*
X160281500Y-106110890D01*
X160281501Y-106110898D01*
X160315606Y-106238182D01*
X160315607Y-106238185D01*
X160326697Y-106257393D01*
X160374740Y-106340606D01*
X160381501Y-106352315D01*
X160381504Y-106352319D01*
X160474680Y-106445495D01*
X160474684Y-106445498D01*
X160474686Y-106445500D01*
X160568535Y-106499684D01*
X160588814Y-106511392D01*
X160588817Y-106511393D01*
X160646982Y-106526978D01*
X160716108Y-106545500D01*
X160716109Y-106545500D01*
X160847891Y-106545500D01*
X160847892Y-106545500D01*
X160975186Y-106511392D01*
X161089314Y-106445500D01*
X161182500Y-106352314D01*
X161248392Y-106238186D01*
X161282500Y-106110892D01*
X161282500Y-105979108D01*
X161248392Y-105851814D01*
X161182500Y-105737686D01*
X161182498Y-105737684D01*
X161182495Y-105737680D01*
X161089319Y-105644504D01*
X161089310Y-105644497D01*
X161022847Y-105606124D01*
X160993726Y-105568174D01*
X160991597Y-105551998D01*
X160991597Y-105217109D01*
X161424500Y-105217109D01*
X161424500Y-105348890D01*
X161424501Y-105348898D01*
X161458606Y-105476182D01*
X161458607Y-105476185D01*
X161462937Y-105483684D01*
X161523211Y-105588082D01*
X161524501Y-105590315D01*
X161524504Y-105590319D01*
X161617680Y-105683495D01*
X161617684Y-105683498D01*
X161617686Y-105683500D01*
X161711535Y-105737684D01*
X161731814Y-105749392D01*
X161731817Y-105749393D01*
X161809712Y-105770264D01*
X161859108Y-105783500D01*
X161859109Y-105783500D01*
X161990891Y-105783500D01*
X161990892Y-105783500D01*
X162118186Y-105749392D01*
X162232314Y-105683500D01*
X162325500Y-105590314D01*
X162391392Y-105476186D01*
X162425500Y-105348892D01*
X162425500Y-105217108D01*
X162406858Y-105147533D01*
X162391393Y-105089817D01*
X162391392Y-105089814D01*
X162367357Y-105048185D01*
X162325500Y-104975686D01*
X162325498Y-104975684D01*
X162325495Y-104975680D01*
X162232319Y-104882504D01*
X162232315Y-104882501D01*
X162232314Y-104882500D01*
X162175250Y-104849554D01*
X162118185Y-104816607D01*
X162118182Y-104816606D01*
X161990898Y-104782501D01*
X161990893Y-104782500D01*
X161990892Y-104782500D01*
X161859108Y-104782500D01*
X161859107Y-104782500D01*
X161859101Y-104782501D01*
X161731817Y-104816606D01*
X161731814Y-104816607D01*
X161617684Y-104882501D01*
X161617680Y-104882504D01*
X161524504Y-104975680D01*
X161524501Y-104975684D01*
X161458607Y-105089814D01*
X161458606Y-105089817D01*
X161424501Y-105217101D01*
X161424500Y-105217109D01*
X160991597Y-105217109D01*
X160991597Y-104457109D01*
X164218500Y-104457109D01*
X164218500Y-104588890D01*
X164218501Y-104588898D01*
X164252606Y-104716182D01*
X164252607Y-104716185D01*
X164252608Y-104716186D01*
X164310586Y-104816607D01*
X164318501Y-104830315D01*
X164318504Y-104830319D01*
X164411680Y-104923495D01*
X164411684Y-104923498D01*
X164411686Y-104923500D01*
X164494606Y-104971374D01*
X164525814Y-104989392D01*
X164525817Y-104989393D01*
X164580299Y-105003991D01*
X164653108Y-105023500D01*
X164653109Y-105023500D01*
X164784891Y-105023500D01*
X164784892Y-105023500D01*
X164912186Y-104989392D01*
X165026314Y-104923500D01*
X165119500Y-104830314D01*
X165185392Y-104716186D01*
X165219500Y-104588892D01*
X165219500Y-104457108D01*
X165185392Y-104329814D01*
X165119500Y-104215686D01*
X165119498Y-104215684D01*
X165119495Y-104215680D01*
X165026319Y-104122504D01*
X165026315Y-104122501D01*
X165026314Y-104122500D01*
X164969250Y-104089554D01*
X164912185Y-104056607D01*
X164912182Y-104056606D01*
X164784898Y-104022501D01*
X164784893Y-104022500D01*
X164784892Y-104022500D01*
X164653108Y-104022500D01*
X164653107Y-104022500D01*
X164653101Y-104022501D01*
X164525817Y-104056606D01*
X164525814Y-104056607D01*
X164411684Y-104122501D01*
X164411680Y-104122504D01*
X164318504Y-104215680D01*
X164318501Y-104215684D01*
X164252607Y-104329814D01*
X164252606Y-104329817D01*
X164218501Y-104457101D01*
X164218500Y-104457109D01*
X160991597Y-104457109D01*
X160991597Y-103100656D01*
X161009903Y-103056462D01*
X161091592Y-102974773D01*
X161091597Y-102974768D01*
X161157489Y-102860640D01*
X161191597Y-102733346D01*
X161191597Y-102601562D01*
X161157489Y-102474268D01*
X161091597Y-102360140D01*
X161091595Y-102360138D01*
X161091592Y-102360134D01*
X160998416Y-102266958D01*
X160998412Y-102266955D01*
X160998411Y-102266954D01*
X160892694Y-102205918D01*
X160884282Y-102201061D01*
X160884279Y-102201060D01*
X160756995Y-102166955D01*
X160756990Y-102166954D01*
X160756989Y-102166954D01*
X160625205Y-102166954D01*
X160625204Y-102166954D01*
X160625198Y-102166955D01*
X160497914Y-102201060D01*
X160497911Y-102201061D01*
X160383781Y-102266955D01*
X160383777Y-102266958D01*
X160290601Y-102360134D01*
X160290598Y-102360138D01*
X160224704Y-102474268D01*
X160224703Y-102474271D01*
X160190598Y-102601555D01*
X160190597Y-102601563D01*
X146824866Y-102601563D01*
X146901084Y-102487495D01*
X146957658Y-102350913D01*
X146986500Y-102205918D01*
X146986500Y-102058082D01*
X146969634Y-101973292D01*
X146959671Y-101923205D01*
X146958060Y-101915109D01*
X154820500Y-101915109D01*
X154820500Y-102046890D01*
X154820501Y-102046898D01*
X154854606Y-102174182D01*
X154854607Y-102174185D01*
X154872929Y-102205919D01*
X154908168Y-102266955D01*
X154920501Y-102288315D01*
X154920504Y-102288319D01*
X155013680Y-102381495D01*
X155013684Y-102381498D01*
X155013686Y-102381500D01*
X155127814Y-102447392D01*
X155127817Y-102447393D01*
X155205712Y-102468264D01*
X155255108Y-102481500D01*
X155255109Y-102481500D01*
X155386891Y-102481500D01*
X155386892Y-102481500D01*
X155514186Y-102447392D01*
X155628314Y-102381500D01*
X155721500Y-102288314D01*
X155787392Y-102174186D01*
X155821500Y-102046892D01*
X155821500Y-101915108D01*
X155791825Y-101804359D01*
X155787393Y-101787817D01*
X155787392Y-101787814D01*
X155760098Y-101740540D01*
X155721500Y-101673686D01*
X155721498Y-101673684D01*
X155721495Y-101673680D01*
X155628319Y-101580504D01*
X155628315Y-101580501D01*
X155628314Y-101580500D01*
X155546612Y-101533329D01*
X155514185Y-101514607D01*
X155514182Y-101514606D01*
X155386898Y-101480501D01*
X155386893Y-101480500D01*
X155386892Y-101480500D01*
X155255108Y-101480500D01*
X155255107Y-101480500D01*
X155255101Y-101480501D01*
X155127817Y-101514606D01*
X155127814Y-101514607D01*
X155013684Y-101580501D01*
X155013680Y-101580504D01*
X154920504Y-101673680D01*
X154920501Y-101673684D01*
X154854607Y-101787814D01*
X154854606Y-101787817D01*
X154820501Y-101915101D01*
X154820500Y-101915109D01*
X146958060Y-101915109D01*
X146957658Y-101913087D01*
X146941706Y-101874576D01*
X146901084Y-101776505D01*
X146818951Y-101653584D01*
X146714416Y-101549049D01*
X146654427Y-101508965D01*
X146627852Y-101469194D01*
X146637184Y-101422277D01*
X146654426Y-101405034D01*
X146714416Y-101364951D01*
X146818951Y-101260416D01*
X146901084Y-101137495D01*
X146957658Y-101000913D01*
X146986500Y-100855918D01*
X146986500Y-100708082D01*
X146957658Y-100563087D01*
X146901084Y-100426505D01*
X146818951Y-100303584D01*
X146714416Y-100199049D01*
X146714415Y-100199048D01*
X146591497Y-100116917D01*
X146591495Y-100116916D01*
X146454911Y-100060341D01*
X146309919Y-100031500D01*
X146309918Y-100031500D01*
X146162082Y-100031500D01*
X146162080Y-100031500D01*
X146017088Y-100060341D01*
X146017087Y-100060341D01*
X145880504Y-100116916D01*
X145880502Y-100116917D01*
X145757584Y-100199048D01*
X145653048Y-100303584D01*
X145570917Y-100426502D01*
X145570916Y-100426504D01*
X145514341Y-100563087D01*
X145514341Y-100563088D01*
X145485500Y-100708080D01*
X140500500Y-100708080D01*
X140500500Y-99757499D01*
X157909500Y-99757499D01*
X157909500Y-101410500D01*
X157925142Y-101489140D01*
X157943446Y-101533329D01*
X157943449Y-101533336D01*
X157943451Y-101533339D01*
X157943453Y-101533342D01*
X157980076Y-101591628D01*
X158014565Y-101616099D01*
X158054664Y-101644551D01*
X158098858Y-101662857D01*
X158177500Y-101678500D01*
X165545500Y-101678500D01*
X165624142Y-101662857D01*
X165668336Y-101644551D01*
X165726627Y-101607924D01*
X165779551Y-101533336D01*
X165797857Y-101489142D01*
X165813500Y-101410500D01*
X165813500Y-98614500D01*
X165797857Y-98535858D01*
X165779551Y-98491664D01*
X165749914Y-98444498D01*
X165742923Y-98433371D01*
X165668339Y-98380451D01*
X165668338Y-98380450D01*
X165668336Y-98380449D01*
X165624142Y-98362143D01*
X165624139Y-98362142D01*
X165624136Y-98362141D01*
X165545500Y-98346500D01*
X162368500Y-98346500D01*
X162289859Y-98362142D01*
X162245670Y-98380446D01*
X162245657Y-98380453D01*
X162187371Y-98417076D01*
X162134451Y-98491660D01*
X162134449Y-98491662D01*
X162134449Y-98491664D01*
X162116143Y-98535858D01*
X162116141Y-98535863D01*
X162100500Y-98614499D01*
X162100500Y-99427000D01*
X162082194Y-99471194D01*
X162038000Y-99489500D01*
X161736838Y-99489500D01*
X161727262Y-99489723D01*
X161721455Y-99489993D01*
X161711795Y-99490671D01*
X161700541Y-99491727D01*
X161694706Y-99492000D01*
X161139290Y-99492000D01*
X161133455Y-99491727D01*
X161127616Y-99491179D01*
X161122185Y-99490670D01*
X161113989Y-99490094D01*
X161112539Y-99489993D01*
X161106739Y-99489723D01*
X161097162Y-99489500D01*
X161097161Y-99489500D01*
X158177500Y-99489500D01*
X158098859Y-99505142D01*
X158054670Y-99523446D01*
X158054657Y-99523453D01*
X157996371Y-99560076D01*
X157943451Y-99634660D01*
X157925141Y-99678863D01*
X157909500Y-99757499D01*
X140500500Y-99757499D01*
X140500500Y-99314000D01*
X156845000Y-99314000D01*
X158877000Y-99314000D01*
X158877000Y-96774000D01*
X156845000Y-96774000D01*
X156845000Y-99314000D01*
X140500500Y-99314000D01*
X140500500Y-96795870D01*
X147485500Y-96795870D01*
X147485500Y-97768129D01*
X147500168Y-97860740D01*
X147500169Y-97860744D01*
X147557044Y-97972366D01*
X147645633Y-98060955D01*
X147757255Y-98117830D01*
X147757257Y-98117830D01*
X147757260Y-98117832D01*
X147849872Y-98132500D01*
X147849874Y-98132500D01*
X148822126Y-98132500D01*
X148822128Y-98132500D01*
X148914740Y-98117832D01*
X149026367Y-98060955D01*
X149114955Y-97972367D01*
X149171832Y-97860740D01*
X149186500Y-97768128D01*
X149186500Y-96795872D01*
X149179947Y-96754500D01*
X149171833Y-96703265D01*
X149171832Y-96703263D01*
X149171832Y-96703260D01*
X149171830Y-96703257D01*
X149171830Y-96703255D01*
X149114955Y-96591633D01*
X149026366Y-96503044D01*
X148914744Y-96446169D01*
X148914740Y-96446168D01*
X148822129Y-96431500D01*
X148822128Y-96431500D01*
X148699000Y-96431500D01*
X148654806Y-96413194D01*
X148636500Y-96369000D01*
X148636500Y-95882841D01*
X148654806Y-95838647D01*
X148678355Y-95823849D01*
X148780475Y-95788116D01*
X148886711Y-95709711D01*
X148965116Y-95603475D01*
X149008725Y-95478849D01*
X149011500Y-95449256D01*
X149011500Y-94843744D01*
X149008725Y-94814151D01*
X148965116Y-94689525D01*
X148959094Y-94681366D01*
X148939828Y-94655260D01*
X148886711Y-94583289D01*
X148800965Y-94520006D01*
X148780476Y-94504884D01*
X148718162Y-94483079D01*
X148655849Y-94461275D01*
X148655847Y-94461274D01*
X148655846Y-94461274D01*
X148634578Y-94459280D01*
X148626256Y-94458500D01*
X148045744Y-94458500D01*
X148038135Y-94459213D01*
X148016153Y-94461274D01*
X148016151Y-94461275D01*
X147891523Y-94504884D01*
X147785289Y-94583289D01*
X147706884Y-94689523D01*
X147663275Y-94814151D01*
X147663274Y-94814153D01*
X147660500Y-94843747D01*
X147660500Y-95449252D01*
X147663274Y-95478846D01*
X147663274Y-95478847D01*
X147663275Y-95478849D01*
X147685079Y-95541162D01*
X147706884Y-95603476D01*
X147736417Y-95643491D01*
X147785289Y-95709711D01*
X147857260Y-95762828D01*
X147891523Y-95788115D01*
X147891524Y-95788115D01*
X147891525Y-95788116D01*
X147993643Y-95823849D01*
X148029310Y-95855723D01*
X148035500Y-95882841D01*
X148035500Y-96369000D01*
X148017194Y-96413194D01*
X147973000Y-96431500D01*
X147849870Y-96431500D01*
X147757259Y-96446168D01*
X147757255Y-96446169D01*
X147645633Y-96503044D01*
X147557044Y-96591633D01*
X147500169Y-96703255D01*
X147500168Y-96703259D01*
X147485500Y-96795870D01*
X140500500Y-96795870D01*
X140500500Y-95708080D01*
X145485500Y-95708080D01*
X145485500Y-95855919D01*
X145514341Y-96000911D01*
X145514341Y-96000912D01*
X145570916Y-96137495D01*
X145570917Y-96137497D01*
X145643751Y-96246501D01*
X145653049Y-96260416D01*
X145757584Y-96364951D01*
X145880505Y-96447084D01*
X146017087Y-96503658D01*
X146162082Y-96532500D01*
X146309918Y-96532500D01*
X146454913Y-96503658D01*
X146591495Y-96447084D01*
X146714416Y-96364951D01*
X146818951Y-96260416D01*
X146901084Y-96137495D01*
X146957658Y-96000913D01*
X146986500Y-95855918D01*
X146986500Y-95708082D01*
X146957658Y-95563087D01*
X146901084Y-95426505D01*
X146818951Y-95303584D01*
X146714416Y-95199049D01*
X146650737Y-95156500D01*
X146591497Y-95116917D01*
X146591495Y-95116916D01*
X146454911Y-95060341D01*
X146309919Y-95031500D01*
X146309918Y-95031500D01*
X146162082Y-95031500D01*
X146162080Y-95031500D01*
X146017088Y-95060341D01*
X146017087Y-95060341D01*
X145880504Y-95116916D01*
X145880502Y-95116917D01*
X145757584Y-95199048D01*
X145653048Y-95303584D01*
X145570917Y-95426502D01*
X145570916Y-95426504D01*
X145514341Y-95563087D01*
X145514341Y-95563088D01*
X145485500Y-95708080D01*
X140500500Y-95708080D01*
X140500500Y-94002534D01*
X141453500Y-94002534D01*
X141453500Y-94209465D01*
X141493869Y-94412418D01*
X141573059Y-94603598D01*
X141573060Y-94603601D01*
X141688022Y-94775654D01*
X141834345Y-94921977D01*
X142006398Y-95036939D01*
X142006400Y-95036939D01*
X142006402Y-95036941D01*
X142197580Y-95116130D01*
X142400535Y-95156500D01*
X142607465Y-95156500D01*
X142810420Y-95116130D01*
X143001598Y-95036941D01*
X143173655Y-94921977D01*
X143319977Y-94775655D01*
X143434941Y-94603598D01*
X143514130Y-94412420D01*
X143554500Y-94209465D01*
X143554500Y-94030347D01*
X157095738Y-94030347D01*
X157095738Y-94162128D01*
X157095739Y-94162136D01*
X157129844Y-94289420D01*
X157129845Y-94289423D01*
X157195739Y-94403553D01*
X157195742Y-94403557D01*
X157288918Y-94496733D01*
X157288922Y-94496736D01*
X157288924Y-94496738D01*
X157403052Y-94562630D01*
X157403055Y-94562631D01*
X157480153Y-94583289D01*
X157530346Y-94596738D01*
X157530347Y-94596738D01*
X157662129Y-94596738D01*
X157662130Y-94596738D01*
X157789424Y-94562630D01*
X157903552Y-94496738D01*
X157996738Y-94403552D01*
X158062630Y-94289424D01*
X158096738Y-94162130D01*
X158096738Y-94030346D01*
X158073480Y-93943546D01*
X158062631Y-93903055D01*
X158062630Y-93903052D01*
X158052040Y-93884710D01*
X157996738Y-93788924D01*
X157996736Y-93788922D01*
X157996733Y-93788918D01*
X157903557Y-93695742D01*
X157903553Y-93695739D01*
X157903552Y-93695738D01*
X157846488Y-93662792D01*
X157789423Y-93629845D01*
X157789420Y-93629844D01*
X157662136Y-93595739D01*
X157662131Y-93595738D01*
X157662130Y-93595738D01*
X157530346Y-93595738D01*
X157530345Y-93595738D01*
X157530339Y-93595739D01*
X157403055Y-93629844D01*
X157403052Y-93629845D01*
X157288922Y-93695739D01*
X157288918Y-93695742D01*
X157195742Y-93788918D01*
X157195739Y-93788922D01*
X157129845Y-93903052D01*
X157129844Y-93903055D01*
X157095739Y-94030339D01*
X157095738Y-94030347D01*
X143554500Y-94030347D01*
X143554500Y-94002535D01*
X143514130Y-93799580D01*
X143434941Y-93608402D01*
X143434939Y-93608400D01*
X143434939Y-93608398D01*
X143319977Y-93436345D01*
X143173654Y-93290022D01*
X143001601Y-93175060D01*
X143001598Y-93175059D01*
X142810418Y-93095869D01*
X142607465Y-93055500D01*
X142400535Y-93055500D01*
X142197581Y-93095869D01*
X142006401Y-93175059D01*
X142006398Y-93175060D01*
X141834345Y-93290022D01*
X141688022Y-93436345D01*
X141573060Y-93608398D01*
X141573059Y-93608401D01*
X141493869Y-93799581D01*
X141453500Y-94002534D01*
X140500500Y-94002534D01*
X140500500Y-85551055D01*
X140518806Y-85506861D01*
X140563000Y-85488555D01*
X140597720Y-85499086D01*
X140672477Y-85549038D01*
X140980135Y-85713485D01*
X141302418Y-85846979D01*
X141302417Y-85846979D01*
X141302420Y-85846980D01*
X141302430Y-85846984D01*
X141636258Y-85948250D01*
X141636267Y-85948251D01*
X141636272Y-85948253D01*
X141662777Y-85953525D01*
X141978405Y-86016307D01*
X141978410Y-86016307D01*
X141978413Y-86016308D01*
X141978411Y-86016308D01*
X142047765Y-86023138D01*
X142140366Y-86032258D01*
X142182552Y-86054807D01*
X142196438Y-86100583D01*
X142173889Y-86142770D01*
X142158157Y-86152199D01*
X142006401Y-86215059D01*
X142006398Y-86215060D01*
X141834345Y-86330022D01*
X141688022Y-86476345D01*
X141573060Y-86648398D01*
X141573059Y-86648401D01*
X141493869Y-86839581D01*
X141453500Y-87042534D01*
X141453500Y-87249465D01*
X141493869Y-87452418D01*
X141573059Y-87643598D01*
X141573060Y-87643601D01*
X141688022Y-87815654D01*
X141834345Y-87961977D01*
X142006398Y-88076939D01*
X142006400Y-88076939D01*
X142006402Y-88076941D01*
X142197580Y-88156130D01*
X142400535Y-88196500D01*
X142607465Y-88196500D01*
X142810420Y-88156130D01*
X143001598Y-88076941D01*
X143173655Y-87961977D01*
X143319977Y-87815655D01*
X143434941Y-87643598D01*
X143514130Y-87452420D01*
X143554500Y-87249465D01*
X143554500Y-87042535D01*
X143514130Y-86839580D01*
X143434941Y-86648402D01*
X143434939Y-86648400D01*
X143434939Y-86648398D01*
X143319977Y-86476345D01*
X143173654Y-86330022D01*
X143001601Y-86215060D01*
X143001598Y-86215059D01*
X142848304Y-86151562D01*
X142814480Y-86117739D01*
X142814481Y-86069903D01*
X142848305Y-86036078D01*
X142866096Y-86031622D01*
X142915772Y-86026729D01*
X143021587Y-86016308D01*
X143021589Y-86016307D01*
X143021595Y-86016307D01*
X143363742Y-85948250D01*
X143697570Y-85846984D01*
X144019865Y-85713485D01*
X144327523Y-85549038D01*
X144617581Y-85355228D01*
X144887246Y-85133920D01*
X145133920Y-84887246D01*
X145355228Y-84617581D01*
X145549038Y-84327523D01*
X145680880Y-84080863D01*
X145717857Y-84050517D01*
X145765462Y-84055206D01*
X145795809Y-84092183D01*
X145798500Y-84110326D01*
X145798500Y-89919007D01*
X145810052Y-90026450D01*
X145821258Y-90077963D01*
X145855388Y-90180506D01*
X145862024Y-90190831D01*
X145933175Y-90301543D01*
X145978930Y-90354347D01*
X146087664Y-90448567D01*
X146218541Y-90508338D01*
X146285580Y-90528023D01*
X146285584Y-90528024D01*
X146357583Y-90538375D01*
X146427998Y-90548500D01*
X146428000Y-90548500D01*
X150533141Y-90548500D01*
X150577335Y-90566806D01*
X150595641Y-90611000D01*
X150577335Y-90655194D01*
X148617335Y-92615194D01*
X148573141Y-92633500D01*
X148045744Y-92633500D01*
X148038135Y-92634213D01*
X148016153Y-92636274D01*
X148016151Y-92636275D01*
X147891523Y-92679884D01*
X147785289Y-92758289D01*
X147706884Y-92864523D01*
X147663275Y-92989151D01*
X147663274Y-92989153D01*
X147660500Y-93018747D01*
X147660500Y-93624252D01*
X147663274Y-93653846D01*
X147663274Y-93653847D01*
X147663275Y-93653849D01*
X147681234Y-93705171D01*
X147706884Y-93778476D01*
X147746086Y-93831593D01*
X147785289Y-93884711D01*
X147857260Y-93937828D01*
X147891523Y-93963115D01*
X147891524Y-93963115D01*
X147891525Y-93963116D01*
X148016151Y-94006725D01*
X148045744Y-94009500D01*
X148045747Y-94009500D01*
X148626253Y-94009500D01*
X148626256Y-94009500D01*
X148655849Y-94006725D01*
X148780475Y-93963116D01*
X148886711Y-93884711D01*
X148965116Y-93778475D01*
X149008725Y-93653849D01*
X149011500Y-93624256D01*
X149011500Y-93096859D01*
X149029806Y-93052665D01*
X151085665Y-90996806D01*
X151129859Y-90978500D01*
X154090562Y-90978500D01*
X154090567Y-90978499D01*
X154117671Y-90971236D01*
X154166989Y-90958021D01*
X154235511Y-90918460D01*
X154291460Y-90862511D01*
X154799460Y-90354511D01*
X154814186Y-90329004D01*
X154823376Y-90313085D01*
X154861327Y-90283969D01*
X154908753Y-90290215D01*
X154937871Y-90328167D01*
X154940000Y-90344340D01*
X154940000Y-92710000D01*
X160006000Y-92710000D01*
X160050194Y-92728306D01*
X160068500Y-92772500D01*
X160068500Y-93741992D01*
X160050194Y-93786186D01*
X159064186Y-94772194D01*
X159019992Y-94790500D01*
X158177500Y-94790500D01*
X158098859Y-94806142D01*
X158054670Y-94824446D01*
X158054657Y-94824453D01*
X157996371Y-94861076D01*
X157943451Y-94935660D01*
X157943449Y-94935662D01*
X157943449Y-94935664D01*
X157925143Y-94979858D01*
X157925141Y-94979863D01*
X157909500Y-95058499D01*
X157909500Y-96330500D01*
X157925142Y-96409140D01*
X157925143Y-96409142D01*
X157943449Y-96453336D01*
X157943751Y-96453817D01*
X157980076Y-96511628D01*
X158021234Y-96540831D01*
X158054664Y-96564551D01*
X158098858Y-96582857D01*
X158177500Y-96598500D01*
X162038000Y-96598500D01*
X162082194Y-96616806D01*
X162100500Y-96661000D01*
X162100500Y-96965500D01*
X162116142Y-97044140D01*
X162116143Y-97044142D01*
X162134449Y-97088336D01*
X162134451Y-97088339D01*
X162134453Y-97088342D01*
X162171076Y-97146628D01*
X162235273Y-97192178D01*
X162245664Y-97199551D01*
X162289858Y-97217857D01*
X162368500Y-97233500D01*
X163894500Y-97233500D01*
X163973142Y-97217857D01*
X164017336Y-97199551D01*
X164075627Y-97162924D01*
X164128551Y-97088336D01*
X164146857Y-97044142D01*
X164162500Y-96965500D01*
X164162500Y-95819109D01*
X168028500Y-95819109D01*
X168028500Y-95950890D01*
X168028501Y-95950898D01*
X168062606Y-96078182D01*
X168062607Y-96078185D01*
X168095554Y-96135250D01*
X168126708Y-96189211D01*
X168128501Y-96192315D01*
X168128504Y-96192319D01*
X168221680Y-96285495D01*
X168221684Y-96285498D01*
X168221686Y-96285500D01*
X168315532Y-96339682D01*
X168335814Y-96351392D01*
X168335817Y-96351393D01*
X168413712Y-96372264D01*
X168463108Y-96385500D01*
X168463109Y-96385500D01*
X168594891Y-96385500D01*
X168594892Y-96385500D01*
X168722186Y-96351392D01*
X168836314Y-96285500D01*
X168918008Y-96203806D01*
X168962202Y-96185500D01*
X169013641Y-96185500D01*
X169057835Y-96203806D01*
X171396582Y-98542553D01*
X171414888Y-98586747D01*
X171396582Y-98630941D01*
X171368565Y-98647117D01*
X171354551Y-98650872D01*
X171354549Y-98650872D01*
X171240419Y-98716766D01*
X171240415Y-98716769D01*
X171147239Y-98809945D01*
X171147236Y-98809949D01*
X171081342Y-98924079D01*
X171081341Y-98924082D01*
X171047236Y-99051366D01*
X171047235Y-99051374D01*
X171047235Y-99183155D01*
X171047236Y-99183163D01*
X171081341Y-99310447D01*
X171081342Y-99310450D01*
X171114289Y-99367515D01*
X171143725Y-99418500D01*
X171147236Y-99424580D01*
X171147239Y-99424584D01*
X171240415Y-99517760D01*
X171240419Y-99517763D01*
X171240421Y-99517765D01*
X171313706Y-99560076D01*
X171354549Y-99583657D01*
X171354552Y-99583658D01*
X171411239Y-99598847D01*
X171481843Y-99617765D01*
X171481844Y-99617765D01*
X171613626Y-99617765D01*
X171613627Y-99617765D01*
X171740921Y-99583657D01*
X171855049Y-99517765D01*
X171948235Y-99424579D01*
X172014127Y-99310451D01*
X172017882Y-99296435D01*
X172047000Y-99258486D01*
X172094426Y-99252240D01*
X172122446Y-99268417D01*
X174614194Y-101760165D01*
X174632500Y-101804359D01*
X174632500Y-101919890D01*
X174632501Y-101919898D01*
X174666606Y-102047182D01*
X174666607Y-102047185D01*
X174684687Y-102078500D01*
X174715205Y-102131359D01*
X174732501Y-102161315D01*
X174732504Y-102161319D01*
X174825680Y-102254495D01*
X174825684Y-102254498D01*
X174825686Y-102254500D01*
X174939814Y-102320392D01*
X174939817Y-102320393D01*
X175017712Y-102341264D01*
X175067108Y-102354500D01*
X175067109Y-102354500D01*
X175198891Y-102354500D01*
X175198892Y-102354500D01*
X175326186Y-102320392D01*
X175440314Y-102254500D01*
X175533500Y-102161314D01*
X175542973Y-102144906D01*
X184522500Y-102144906D01*
X184522500Y-102381093D01*
X184533001Y-102447392D01*
X184551270Y-102562743D01*
X184559448Y-102614372D01*
X184632431Y-102838990D01*
X184632435Y-102838998D01*
X184739658Y-103049435D01*
X184878482Y-103240509D01*
X184878489Y-103240517D01*
X185045482Y-103407510D01*
X185045490Y-103407517D01*
X185236567Y-103546343D01*
X185447008Y-103653568D01*
X185671632Y-103726553D01*
X185904908Y-103763500D01*
X185904910Y-103763500D01*
X186141090Y-103763500D01*
X186141092Y-103763500D01*
X186374368Y-103726553D01*
X186598992Y-103653568D01*
X186809433Y-103546343D01*
X187000510Y-103407517D01*
X187167517Y-103240510D01*
X187306343Y-103049433D01*
X187413568Y-102838992D01*
X187486553Y-102614368D01*
X187523500Y-102381092D01*
X187523500Y-102144908D01*
X187486553Y-101911632D01*
X187413568Y-101687008D01*
X187306343Y-101476567D01*
X187167517Y-101285490D01*
X187167510Y-101285482D01*
X187000517Y-101118489D01*
X187000509Y-101118482D01*
X186809435Y-100979658D01*
X186598998Y-100872435D01*
X186598990Y-100872431D01*
X186374372Y-100799448D01*
X186374370Y-100799447D01*
X186374368Y-100799447D01*
X186192120Y-100770582D01*
X186141093Y-100762500D01*
X186141092Y-100762500D01*
X185904908Y-100762500D01*
X185904906Y-100762500D01*
X185764113Y-100784799D01*
X185671632Y-100799447D01*
X185671630Y-100799447D01*
X185671627Y-100799448D01*
X185447009Y-100872431D01*
X185447001Y-100872435D01*
X185236564Y-100979658D01*
X185045490Y-101118482D01*
X185045482Y-101118489D01*
X184878489Y-101285482D01*
X184878482Y-101285490D01*
X184739658Y-101476564D01*
X184632435Y-101687001D01*
X184632431Y-101687009D01*
X184559448Y-101911627D01*
X184559447Y-101911630D01*
X184559447Y-101911632D01*
X184558139Y-101919890D01*
X184522500Y-102144906D01*
X175542973Y-102144906D01*
X175599392Y-102047186D01*
X175633500Y-101919892D01*
X175633500Y-101788108D01*
X175606338Y-101686738D01*
X175599393Y-101660817D01*
X175599392Y-101660814D01*
X175590004Y-101644553D01*
X175533500Y-101546686D01*
X175533498Y-101546684D01*
X175533495Y-101546680D01*
X175440319Y-101453504D01*
X175440313Y-101453499D01*
X175374548Y-101415529D01*
X175345428Y-101377578D01*
X175351673Y-101330152D01*
X175361605Y-101317209D01*
X175449760Y-101229054D01*
X175449765Y-101229049D01*
X175515657Y-101114921D01*
X175549765Y-100987627D01*
X175549765Y-100855843D01*
X175515657Y-100728549D01*
X175449765Y-100614421D01*
X175449763Y-100614419D01*
X175449760Y-100614415D01*
X175356584Y-100521239D01*
X175356580Y-100521236D01*
X175356579Y-100521235D01*
X175299515Y-100488289D01*
X175242450Y-100455342D01*
X175242447Y-100455341D01*
X175115163Y-100421236D01*
X175115158Y-100421235D01*
X175115157Y-100421235D01*
X174983373Y-100421235D01*
X174983372Y-100421235D01*
X174983366Y-100421236D01*
X174856082Y-100455341D01*
X174856079Y-100455342D01*
X174741949Y-100521236D01*
X174741945Y-100521239D01*
X174648769Y-100614415D01*
X174648766Y-100614419D01*
X174582872Y-100728549D01*
X174582872Y-100728551D01*
X174579117Y-100742565D01*
X174549996Y-100780515D01*
X174502570Y-100786758D01*
X174474553Y-100770582D01*
X171682080Y-97978109D01*
X174505500Y-97978109D01*
X174505500Y-98109890D01*
X174505501Y-98109898D01*
X174539606Y-98237182D01*
X174539607Y-98237185D01*
X174605501Y-98351315D01*
X174605504Y-98351319D01*
X174698680Y-98444495D01*
X174698684Y-98444498D01*
X174698686Y-98444500D01*
X174780387Y-98491670D01*
X174812814Y-98510392D01*
X174812817Y-98510393D01*
X174890712Y-98531264D01*
X174940108Y-98544500D01*
X174940109Y-98544500D01*
X175071891Y-98544500D01*
X175071892Y-98544500D01*
X175199186Y-98510392D01*
X175313314Y-98444500D01*
X175406500Y-98351314D01*
X175472392Y-98237186D01*
X175506500Y-98109892D01*
X175506500Y-97978108D01*
X175472392Y-97850814D01*
X175406500Y-97736686D01*
X175406498Y-97736684D01*
X175406495Y-97736680D01*
X175313319Y-97643504D01*
X175313310Y-97643497D01*
X175279758Y-97624125D01*
X175279756Y-97624125D01*
X175243416Y-97603144D01*
X175199185Y-97577607D01*
X175199182Y-97577606D01*
X175179962Y-97572456D01*
X179042500Y-97572456D01*
X179042500Y-97753543D01*
X179042501Y-97753559D01*
X179070828Y-97932403D01*
X179070831Y-97932416D01*
X179126787Y-98104633D01*
X179126789Y-98104640D01*
X179133511Y-98117832D01*
X179209004Y-98265994D01*
X179315447Y-98412501D01*
X179315450Y-98412504D01*
X179315453Y-98412508D01*
X179443491Y-98540546D01*
X179443494Y-98540548D01*
X179443499Y-98540553D01*
X179590006Y-98646996D01*
X179751361Y-98729211D01*
X179923591Y-98785171D01*
X180063922Y-98807397D01*
X180102440Y-98813498D01*
X180102446Y-98813498D01*
X180102454Y-98813500D01*
X180102456Y-98813500D01*
X180283544Y-98813500D01*
X180283546Y-98813500D01*
X180462409Y-98785171D01*
X180634639Y-98729211D01*
X180795994Y-98646996D01*
X180942501Y-98540553D01*
X181070553Y-98412501D01*
X181176996Y-98265994D01*
X181259211Y-98104639D01*
X181291663Y-98004761D01*
X181305150Y-97963251D01*
X181582500Y-97963251D01*
X181582500Y-99902748D01*
X181594132Y-99961230D01*
X181594133Y-99961232D01*
X181638447Y-100027552D01*
X181704767Y-100071866D01*
X181704769Y-100071867D01*
X181763252Y-100083500D01*
X183702748Y-100083500D01*
X183720002Y-100080068D01*
X187197500Y-100080068D01*
X187197500Y-100325931D01*
X187229590Y-100569670D01*
X187229593Y-100569689D01*
X187285191Y-100777182D01*
X187293222Y-100807153D01*
X187332992Y-100903166D01*
X187387303Y-101034286D01*
X187387309Y-101034298D01*
X187435917Y-101118489D01*
X187510233Y-101247208D01*
X187659899Y-101442256D01*
X187833744Y-101616101D01*
X188028792Y-101765767D01*
X188241708Y-101888694D01*
X188468847Y-101982778D01*
X188468851Y-101982779D01*
X188706310Y-102046406D01*
X188706314Y-102046406D01*
X188706323Y-102046409D01*
X188950073Y-102078500D01*
X188950079Y-102078500D01*
X189195921Y-102078500D01*
X189195927Y-102078500D01*
X189439677Y-102046409D01*
X189439687Y-102046406D01*
X189439689Y-102046406D01*
X189501824Y-102029756D01*
X189677153Y-101982778D01*
X189904292Y-101888694D01*
X190117208Y-101765767D01*
X190312256Y-101616101D01*
X190486101Y-101442256D01*
X190635767Y-101247208D01*
X190758694Y-101034292D01*
X190852778Y-100807153D01*
X190875367Y-100722849D01*
X192827500Y-100722849D01*
X192827500Y-100903150D01*
X192827501Y-100903166D01*
X192855705Y-101081236D01*
X192855705Y-101081237D01*
X192911423Y-101252717D01*
X192911427Y-101252725D01*
X192993282Y-101413375D01*
X193099261Y-101559242D01*
X193099268Y-101559250D01*
X193226749Y-101686731D01*
X193226757Y-101686738D01*
X193366280Y-101788108D01*
X193372627Y-101792719D01*
X193533281Y-101874576D01*
X193704761Y-101930294D01*
X193775084Y-101941432D01*
X193882833Y-101958498D01*
X193882839Y-101958498D01*
X193882847Y-101958500D01*
X193882849Y-101958500D01*
X194063151Y-101958500D01*
X194063153Y-101958500D01*
X194241239Y-101930294D01*
X194412719Y-101874576D01*
X194573373Y-101792719D01*
X194719243Y-101686738D01*
X194846738Y-101559243D01*
X194952719Y-101413373D01*
X195034576Y-101252719D01*
X195090294Y-101081239D01*
X195118500Y-100903153D01*
X195118500Y-100722847D01*
X195116161Y-100708082D01*
X195094239Y-100569670D01*
X195090294Y-100544761D01*
X195034576Y-100373281D01*
X194952719Y-100212627D01*
X194883683Y-100117608D01*
X194846738Y-100066757D01*
X194846731Y-100066749D01*
X194719250Y-99939268D01*
X194719242Y-99939261D01*
X194573375Y-99833282D01*
X194412725Y-99751427D01*
X194412717Y-99751423D01*
X194241237Y-99695705D01*
X194063166Y-99667501D01*
X194063154Y-99667500D01*
X194063153Y-99667500D01*
X193882847Y-99667500D01*
X193882845Y-99667500D01*
X193882833Y-99667501D01*
X193704763Y-99695705D01*
X193704762Y-99695705D01*
X193533282Y-99751423D01*
X193533274Y-99751427D01*
X193372624Y-99833282D01*
X193226757Y-99939261D01*
X193226749Y-99939268D01*
X193099268Y-100066749D01*
X193099261Y-100066757D01*
X192993282Y-100212624D01*
X192911427Y-100373274D01*
X192911423Y-100373282D01*
X192855705Y-100544762D01*
X192855705Y-100544763D01*
X192827501Y-100722833D01*
X192827500Y-100722849D01*
X190875367Y-100722849D01*
X190916409Y-100569677D01*
X190948500Y-100325927D01*
X190948500Y-100080073D01*
X190916409Y-99836323D01*
X190915594Y-99833282D01*
X190852779Y-99598852D01*
X190852778Y-99598847D01*
X190758694Y-99371708D01*
X190635767Y-99158792D01*
X190486101Y-98963744D01*
X190312256Y-98789899D01*
X190117208Y-98640233D01*
X190072635Y-98614499D01*
X189904298Y-98517309D01*
X189904286Y-98517303D01*
X189787373Y-98468876D01*
X189677153Y-98423222D01*
X189677149Y-98423221D01*
X189677147Y-98423220D01*
X189677148Y-98423220D01*
X189439689Y-98359593D01*
X189439677Y-98359591D01*
X189439672Y-98359590D01*
X189439670Y-98359590D01*
X189195931Y-98327500D01*
X189195927Y-98327500D01*
X188950073Y-98327500D01*
X188950068Y-98327500D01*
X188706329Y-98359590D01*
X188706310Y-98359593D01*
X188468852Y-98423220D01*
X188241713Y-98517303D01*
X188241701Y-98517309D01*
X188028798Y-98640229D01*
X188028795Y-98640231D01*
X188028792Y-98640233D01*
X188014926Y-98650873D01*
X187833742Y-98789900D01*
X187659900Y-98963742D01*
X187592664Y-99051366D01*
X187510233Y-99158792D01*
X187510231Y-99158795D01*
X187510229Y-99158798D01*
X187387309Y-99371701D01*
X187387303Y-99371713D01*
X187293220Y-99598852D01*
X187229593Y-99836310D01*
X187229590Y-99836329D01*
X187197500Y-100080068D01*
X183720002Y-100080068D01*
X183761231Y-100071867D01*
X183827552Y-100027552D01*
X183871867Y-99961231D01*
X183883500Y-99902748D01*
X183883500Y-98182849D01*
X191307500Y-98182849D01*
X191307500Y-98363150D01*
X191307501Y-98363166D01*
X191335705Y-98541236D01*
X191335705Y-98541237D01*
X191391423Y-98712717D01*
X191391427Y-98712725D01*
X191473282Y-98873375D01*
X191579261Y-99019242D01*
X191579268Y-99019250D01*
X191706749Y-99146731D01*
X191706757Y-99146738D01*
X191851967Y-99252240D01*
X191852627Y-99252719D01*
X192013281Y-99334576D01*
X192184761Y-99390294D01*
X192259819Y-99402182D01*
X192362833Y-99418498D01*
X192362839Y-99418498D01*
X192362847Y-99418500D01*
X192362849Y-99418500D01*
X192543151Y-99418500D01*
X192543153Y-99418500D01*
X192721239Y-99390294D01*
X192892719Y-99334576D01*
X193053373Y-99252719D01*
X193199243Y-99146738D01*
X193326738Y-99019243D01*
X193432719Y-98873373D01*
X193514576Y-98712719D01*
X193570294Y-98541239D01*
X193598500Y-98363153D01*
X193598500Y-98182847D01*
X193588202Y-98117831D01*
X193570294Y-98004763D01*
X193570294Y-98004762D01*
X193561634Y-97978108D01*
X193514576Y-97833281D01*
X193432719Y-97672627D01*
X193420275Y-97655500D01*
X193326738Y-97526757D01*
X193326731Y-97526749D01*
X193199250Y-97399268D01*
X193199242Y-97399261D01*
X193053375Y-97293282D01*
X192892725Y-97211427D01*
X192892717Y-97211423D01*
X192721237Y-97155705D01*
X192543166Y-97127501D01*
X192543154Y-97127500D01*
X192543153Y-97127500D01*
X192362847Y-97127500D01*
X192362845Y-97127500D01*
X192362833Y-97127501D01*
X192184763Y-97155705D01*
X192184762Y-97155705D01*
X192013282Y-97211423D01*
X192013274Y-97211427D01*
X191852624Y-97293282D01*
X191706757Y-97399261D01*
X191706749Y-97399268D01*
X191579268Y-97526749D01*
X191579261Y-97526757D01*
X191473282Y-97672624D01*
X191391427Y-97833274D01*
X191391423Y-97833282D01*
X191335705Y-98004762D01*
X191335705Y-98004763D01*
X191307501Y-98182833D01*
X191307500Y-98182849D01*
X183883500Y-98182849D01*
X183883500Y-97963252D01*
X183871867Y-97904769D01*
X183871866Y-97904767D01*
X183827552Y-97838447D01*
X183761232Y-97794133D01*
X183761230Y-97794132D01*
X183702748Y-97782500D01*
X181763252Y-97782500D01*
X181704769Y-97794132D01*
X181704767Y-97794133D01*
X181638447Y-97838447D01*
X181594133Y-97904767D01*
X181594132Y-97904769D01*
X181582500Y-97963251D01*
X181305150Y-97963251D01*
X181312423Y-97940868D01*
X181313498Y-97937558D01*
X181315171Y-97932409D01*
X181343500Y-97753546D01*
X181343500Y-97572454D01*
X181340814Y-97555498D01*
X181326056Y-97462319D01*
X181315171Y-97393591D01*
X181259211Y-97221361D01*
X181176996Y-97060006D01*
X181070553Y-96913499D01*
X181070548Y-96913494D01*
X181070546Y-96913491D01*
X180942508Y-96785453D01*
X180942504Y-96785450D01*
X180942501Y-96785447D01*
X180795994Y-96679004D01*
X180634640Y-96596789D01*
X180634633Y-96596787D01*
X180462416Y-96540831D01*
X180462413Y-96540830D01*
X180462409Y-96540829D01*
X180462403Y-96540828D01*
X180283559Y-96512501D01*
X180283547Y-96512500D01*
X180283546Y-96512500D01*
X180102454Y-96512500D01*
X180102452Y-96512500D01*
X180102440Y-96512501D01*
X179923596Y-96540828D01*
X179923593Y-96540828D01*
X179923591Y-96540829D01*
X179923589Y-96540829D01*
X179923583Y-96540831D01*
X179751366Y-96596787D01*
X179751359Y-96596789D01*
X179590005Y-96679004D01*
X179443491Y-96785453D01*
X179315453Y-96913491D01*
X179209004Y-97060005D01*
X179126789Y-97221359D01*
X179126787Y-97221366D01*
X179070831Y-97393583D01*
X179070828Y-97393596D01*
X179042501Y-97572440D01*
X179042500Y-97572456D01*
X175179962Y-97572456D01*
X175071898Y-97543501D01*
X175071893Y-97543500D01*
X175071892Y-97543500D01*
X174940108Y-97543500D01*
X174940107Y-97543500D01*
X174940101Y-97543501D01*
X174812817Y-97577606D01*
X174812814Y-97577607D01*
X174698684Y-97643501D01*
X174698680Y-97643504D01*
X174605504Y-97736680D01*
X174605501Y-97736684D01*
X174539607Y-97850814D01*
X174539606Y-97850817D01*
X174505501Y-97978101D01*
X174505500Y-97978109D01*
X171682080Y-97978109D01*
X171458654Y-97754683D01*
X171440348Y-97710489D01*
X171458654Y-97666295D01*
X171502848Y-97647989D01*
X171519025Y-97650119D01*
X171539103Y-97655499D01*
X171539106Y-97655499D01*
X171539108Y-97655500D01*
X171539109Y-97655500D01*
X171670891Y-97655500D01*
X171670892Y-97655500D01*
X171798186Y-97621392D01*
X171912314Y-97555500D01*
X172005500Y-97462314D01*
X172071392Y-97348186D01*
X172105500Y-97220892D01*
X172105500Y-97089108D01*
X172092264Y-97039712D01*
X172071393Y-96961817D01*
X172071392Y-96961814D01*
X172043497Y-96913499D01*
X172005500Y-96847686D01*
X172005498Y-96847684D01*
X172005495Y-96847680D01*
X171912319Y-96754504D01*
X171912315Y-96754501D01*
X171912314Y-96754500D01*
X171855250Y-96721554D01*
X171798185Y-96688607D01*
X171798182Y-96688606D01*
X171670898Y-96654501D01*
X171670893Y-96654500D01*
X171670892Y-96654500D01*
X171539108Y-96654500D01*
X171539107Y-96654500D01*
X171539101Y-96654501D01*
X171411817Y-96688606D01*
X171411814Y-96688607D01*
X171297684Y-96754501D01*
X171297680Y-96754504D01*
X171204504Y-96847680D01*
X171204501Y-96847684D01*
X171138607Y-96961814D01*
X171138606Y-96961817D01*
X171104501Y-97089101D01*
X171104500Y-97089109D01*
X171104500Y-97220893D01*
X171109881Y-97240976D01*
X171103636Y-97288402D01*
X171065685Y-97317522D01*
X171018259Y-97311277D01*
X171005316Y-97301345D01*
X170285080Y-96581109D01*
X176412500Y-96581109D01*
X176412500Y-96712890D01*
X176412501Y-96712898D01*
X176446606Y-96840182D01*
X176446607Y-96840185D01*
X176450937Y-96847684D01*
X176488935Y-96913499D01*
X176512501Y-96954315D01*
X176512504Y-96954319D01*
X176605680Y-97047495D01*
X176605684Y-97047498D01*
X176605686Y-97047500D01*
X176677755Y-97089109D01*
X176719814Y-97113392D01*
X176719817Y-97113393D01*
X176772466Y-97127500D01*
X176847108Y-97147500D01*
X176847109Y-97147500D01*
X176978891Y-97147500D01*
X176978892Y-97147500D01*
X177106186Y-97113392D01*
X177220314Y-97047500D01*
X177313500Y-96954314D01*
X177379392Y-96840186D01*
X177413500Y-96712892D01*
X177413500Y-96581108D01*
X177379392Y-96453814D01*
X177313500Y-96339686D01*
X177313498Y-96339684D01*
X177313497Y-96339682D01*
X177276271Y-96302456D01*
X181582500Y-96302456D01*
X181582500Y-96483543D01*
X181582501Y-96483559D01*
X181610828Y-96662403D01*
X181610831Y-96662416D01*
X181666787Y-96834633D01*
X181666789Y-96834640D01*
X181706966Y-96913491D01*
X181749004Y-96995994D01*
X181855447Y-97142501D01*
X181855450Y-97142504D01*
X181855453Y-97142508D01*
X181983491Y-97270546D01*
X181983494Y-97270548D01*
X181983499Y-97270553D01*
X182130006Y-97376996D01*
X182291361Y-97459211D01*
X182463591Y-97515171D01*
X182603922Y-97537397D01*
X182642440Y-97543498D01*
X182642446Y-97543498D01*
X182642454Y-97543500D01*
X182642456Y-97543500D01*
X182823544Y-97543500D01*
X182823546Y-97543500D01*
X183002409Y-97515171D01*
X183174639Y-97459211D01*
X183335994Y-97376996D01*
X183482501Y-97270553D01*
X183610553Y-97142501D01*
X183716996Y-96995994D01*
X183799211Y-96834639D01*
X183855171Y-96662409D01*
X183883500Y-96483546D01*
X183883500Y-96302454D01*
X183883499Y-96302452D01*
X183883499Y-96302439D01*
X183864976Y-96185500D01*
X183855171Y-96123591D01*
X183799211Y-95951361D01*
X183716996Y-95790006D01*
X183610553Y-95643499D01*
X183610548Y-95643494D01*
X183610546Y-95643491D01*
X183482508Y-95515453D01*
X183482504Y-95515450D01*
X183482501Y-95515447D01*
X183335994Y-95409004D01*
X183174640Y-95326789D01*
X183174633Y-95326787D01*
X183002416Y-95270831D01*
X183002413Y-95270830D01*
X183002409Y-95270829D01*
X183002403Y-95270828D01*
X182823559Y-95242501D01*
X182823547Y-95242500D01*
X182823546Y-95242500D01*
X182642454Y-95242500D01*
X182642452Y-95242500D01*
X182642440Y-95242501D01*
X182463596Y-95270828D01*
X182463593Y-95270828D01*
X182463591Y-95270829D01*
X182463589Y-95270829D01*
X182463583Y-95270831D01*
X182291366Y-95326787D01*
X182291359Y-95326789D01*
X182130005Y-95409004D01*
X181983491Y-95515453D01*
X181855453Y-95643491D01*
X181749004Y-95790005D01*
X181666789Y-95951359D01*
X181666787Y-95951366D01*
X181610831Y-96123583D01*
X181610828Y-96123596D01*
X181582501Y-96302439D01*
X181582500Y-96302456D01*
X177276271Y-96302456D01*
X177220319Y-96246504D01*
X177220315Y-96246501D01*
X177220314Y-96246500D01*
X177126470Y-96192319D01*
X177106185Y-96180607D01*
X177106182Y-96180606D01*
X176978898Y-96146501D01*
X176978893Y-96146500D01*
X176978892Y-96146500D01*
X176847108Y-96146500D01*
X176847107Y-96146500D01*
X176847101Y-96146501D01*
X176719817Y-96180606D01*
X176719814Y-96180607D01*
X176605684Y-96246501D01*
X176605680Y-96246504D01*
X176512504Y-96339680D01*
X176512503Y-96339682D01*
X176512501Y-96339684D01*
X176512500Y-96339686D01*
X176495576Y-96369000D01*
X176446607Y-96453814D01*
X176446606Y-96453817D01*
X176412501Y-96581101D01*
X176412500Y-96581109D01*
X170285080Y-96581109D01*
X169348508Y-95644537D01*
X169339066Y-95639086D01*
X169339066Y-95639087D01*
X169279989Y-95604979D01*
X169279986Y-95604978D01*
X169203567Y-95584500D01*
X169203562Y-95584500D01*
X168962202Y-95584500D01*
X168918008Y-95566194D01*
X168836319Y-95484504D01*
X168836315Y-95484501D01*
X168836314Y-95484500D01*
X168775263Y-95449252D01*
X168722185Y-95418607D01*
X168722182Y-95418606D01*
X168594898Y-95384501D01*
X168594893Y-95384500D01*
X168594892Y-95384500D01*
X168463108Y-95384500D01*
X168463107Y-95384500D01*
X168463101Y-95384501D01*
X168335817Y-95418606D01*
X168335814Y-95418607D01*
X168221684Y-95484501D01*
X168221680Y-95484504D01*
X168128504Y-95577680D01*
X168128501Y-95577684D01*
X168062607Y-95691814D01*
X168062606Y-95691817D01*
X168028501Y-95819101D01*
X168028500Y-95819109D01*
X164162500Y-95819109D01*
X164162500Y-95058500D01*
X164157319Y-95032456D01*
X179042500Y-95032456D01*
X179042500Y-95213543D01*
X179042501Y-95213559D01*
X179070828Y-95392403D01*
X179070831Y-95392416D01*
X179126787Y-95564633D01*
X179126789Y-95564640D01*
X179147343Y-95604979D01*
X179209004Y-95725994D01*
X179315447Y-95872501D01*
X179315450Y-95872504D01*
X179315453Y-95872508D01*
X179443491Y-96000546D01*
X179443494Y-96000548D01*
X179443499Y-96000553D01*
X179590006Y-96106996D01*
X179751361Y-96189211D01*
X179923591Y-96245171D01*
X180063922Y-96267397D01*
X180102440Y-96273498D01*
X180102446Y-96273498D01*
X180102454Y-96273500D01*
X180102456Y-96273500D01*
X180283544Y-96273500D01*
X180283546Y-96273500D01*
X180462409Y-96245171D01*
X180471300Y-96242282D01*
X180476611Y-96240557D01*
X180526160Y-96224457D01*
X180634639Y-96189211D01*
X180795994Y-96106996D01*
X180942501Y-96000553D01*
X181070553Y-95872501D01*
X181176996Y-95725994D01*
X181259211Y-95564639D01*
X181315171Y-95392409D01*
X181343500Y-95213546D01*
X181343500Y-95032454D01*
X181315171Y-94853591D01*
X181259211Y-94681361D01*
X181176996Y-94520006D01*
X181070553Y-94373499D01*
X181070548Y-94373494D01*
X181070546Y-94373491D01*
X180942508Y-94245453D01*
X180942504Y-94245450D01*
X180942501Y-94245447D01*
X180795994Y-94139004D01*
X180634640Y-94056789D01*
X180634633Y-94056787D01*
X180462416Y-94000831D01*
X180462413Y-94000830D01*
X180462409Y-94000829D01*
X180462403Y-94000828D01*
X180283559Y-93972501D01*
X180283547Y-93972500D01*
X180283546Y-93972500D01*
X180102454Y-93972500D01*
X180102452Y-93972500D01*
X180102440Y-93972501D01*
X179923596Y-94000828D01*
X179923593Y-94000828D01*
X179923591Y-94000829D01*
X179923589Y-94000829D01*
X179923583Y-94000831D01*
X179751366Y-94056787D01*
X179751359Y-94056789D01*
X179590005Y-94139004D01*
X179443491Y-94245453D01*
X179315453Y-94373491D01*
X179209004Y-94520005D01*
X179126789Y-94681359D01*
X179126787Y-94681366D01*
X179070831Y-94853583D01*
X179070828Y-94853596D01*
X179042501Y-95032440D01*
X179042500Y-95032456D01*
X164157319Y-95032456D01*
X164146857Y-94979859D01*
X164146857Y-94979858D01*
X164128551Y-94935664D01*
X164091924Y-94877373D01*
X164091923Y-94877371D01*
X164017339Y-94824451D01*
X164017338Y-94824450D01*
X164017336Y-94824449D01*
X163973142Y-94806143D01*
X163973139Y-94806142D01*
X163973136Y-94806141D01*
X163894500Y-94790500D01*
X163433008Y-94790500D01*
X163388814Y-94772194D01*
X162402806Y-93786186D01*
X162384500Y-93741992D01*
X162384500Y-93533109D01*
X170797000Y-93533109D01*
X170797000Y-93664890D01*
X170797001Y-93664898D01*
X170831106Y-93792182D01*
X170831107Y-93792185D01*
X170864054Y-93849250D01*
X170895118Y-93903055D01*
X170897001Y-93906315D01*
X170897004Y-93906319D01*
X170990180Y-93999495D01*
X170990184Y-93999498D01*
X170990186Y-93999500D01*
X171089410Y-94056787D01*
X171104314Y-94065392D01*
X171104317Y-94065393D01*
X171182212Y-94086264D01*
X171231608Y-94099500D01*
X171231609Y-94099500D01*
X171363391Y-94099500D01*
X171363392Y-94099500D01*
X171490686Y-94065392D01*
X171604814Y-93999500D01*
X171698000Y-93906314D01*
X171763892Y-93792186D01*
X171771858Y-93762456D01*
X181582500Y-93762456D01*
X181582500Y-93943543D01*
X181582501Y-93943559D01*
X181610828Y-94122403D01*
X181610831Y-94122416D01*
X181666787Y-94294633D01*
X181666789Y-94294640D01*
X181706966Y-94373491D01*
X181749004Y-94455994D01*
X181855447Y-94602501D01*
X181855450Y-94602504D01*
X181855453Y-94602508D01*
X181983491Y-94730546D01*
X181983494Y-94730548D01*
X181983499Y-94730553D01*
X182130006Y-94836996D01*
X182291361Y-94919211D01*
X182463591Y-94975171D01*
X182603922Y-94997397D01*
X182642440Y-95003498D01*
X182642446Y-95003498D01*
X182642454Y-95003500D01*
X182642456Y-95003500D01*
X182823544Y-95003500D01*
X182823546Y-95003500D01*
X183002409Y-94975171D01*
X183174639Y-94919211D01*
X183335994Y-94836996D01*
X183482501Y-94730553D01*
X183610553Y-94602501D01*
X183716996Y-94455994D01*
X183799211Y-94294639D01*
X183855171Y-94122409D01*
X183883500Y-93943546D01*
X183883500Y-93762454D01*
X183855171Y-93583591D01*
X183799211Y-93411361D01*
X183716996Y-93250006D01*
X183610553Y-93103499D01*
X183610548Y-93103494D01*
X183610546Y-93103491D01*
X183482508Y-92975453D01*
X183482504Y-92975450D01*
X183482501Y-92975447D01*
X183335994Y-92869004D01*
X183327200Y-92864523D01*
X183174640Y-92786789D01*
X183174633Y-92786787D01*
X183002416Y-92730831D01*
X183002413Y-92730830D01*
X183002409Y-92730829D01*
X183002403Y-92730828D01*
X182823559Y-92702501D01*
X182823547Y-92702500D01*
X182823546Y-92702500D01*
X182642454Y-92702500D01*
X182642452Y-92702500D01*
X182642440Y-92702501D01*
X182463596Y-92730828D01*
X182463593Y-92730828D01*
X182463591Y-92730829D01*
X182463589Y-92730829D01*
X182463583Y-92730831D01*
X182291366Y-92786787D01*
X182291359Y-92786789D01*
X182130005Y-92869004D01*
X181983491Y-92975453D01*
X181855453Y-93103491D01*
X181749004Y-93250005D01*
X181666789Y-93411359D01*
X181666787Y-93411366D01*
X181610831Y-93583583D01*
X181610828Y-93583596D01*
X181582501Y-93762440D01*
X181582500Y-93762456D01*
X171771858Y-93762456D01*
X171798000Y-93664892D01*
X171798000Y-93533108D01*
X171763892Y-93405814D01*
X171698000Y-93291686D01*
X171697998Y-93291684D01*
X171697995Y-93291680D01*
X171604819Y-93198504D01*
X171604815Y-93198501D01*
X171604814Y-93198500D01*
X171547750Y-93165554D01*
X171490685Y-93132607D01*
X171490682Y-93132606D01*
X171363398Y-93098501D01*
X171363393Y-93098500D01*
X171363392Y-93098500D01*
X171231608Y-93098500D01*
X171231607Y-93098500D01*
X171231601Y-93098501D01*
X171104317Y-93132606D01*
X171104314Y-93132607D01*
X170990184Y-93198501D01*
X170990180Y-93198504D01*
X170897004Y-93291680D01*
X170897001Y-93291684D01*
X170831107Y-93405814D01*
X170831106Y-93405817D01*
X170797001Y-93533101D01*
X170797000Y-93533109D01*
X162384500Y-93533109D01*
X162384500Y-92677870D01*
X162387222Y-92659625D01*
X162389304Y-92652801D01*
X162391392Y-92649186D01*
X162392752Y-92644109D01*
X173235500Y-92644109D01*
X173235500Y-92775890D01*
X173235501Y-92775898D01*
X173269606Y-92903182D01*
X173269607Y-92903185D01*
X173269608Y-92903186D01*
X173335499Y-93017313D01*
X173335501Y-93017315D01*
X173335504Y-93017319D01*
X173428680Y-93110495D01*
X173428684Y-93110498D01*
X173428686Y-93110500D01*
X173540505Y-93175059D01*
X173542814Y-93176392D01*
X173542817Y-93176393D01*
X173578649Y-93185994D01*
X173670108Y-93210500D01*
X173670109Y-93210500D01*
X173801891Y-93210500D01*
X173801892Y-93210500D01*
X173929186Y-93176392D01*
X174043314Y-93110500D01*
X174128705Y-93025109D01*
X176412500Y-93025109D01*
X176412500Y-93156890D01*
X176412501Y-93156898D01*
X176446606Y-93284182D01*
X176446607Y-93284185D01*
X176512501Y-93398315D01*
X176512504Y-93398319D01*
X176605680Y-93491495D01*
X176605684Y-93491498D01*
X176605686Y-93491500D01*
X176677755Y-93533109D01*
X176719814Y-93557392D01*
X176719817Y-93557393D01*
X176755653Y-93566995D01*
X176847108Y-93591500D01*
X176847109Y-93591500D01*
X176978891Y-93591500D01*
X176978892Y-93591500D01*
X177106186Y-93557392D01*
X177220314Y-93491500D01*
X177313500Y-93398314D01*
X177379392Y-93284186D01*
X177413500Y-93156892D01*
X177413500Y-93025108D01*
X177400194Y-92975447D01*
X177379393Y-92897817D01*
X177379392Y-92897814D01*
X177362758Y-92869004D01*
X177313500Y-92783686D01*
X177313498Y-92783684D01*
X177313495Y-92783680D01*
X177220319Y-92690504D01*
X177220315Y-92690501D01*
X177220314Y-92690500D01*
X177126394Y-92636275D01*
X177106185Y-92624607D01*
X177106182Y-92624606D01*
X176978898Y-92590501D01*
X176978893Y-92590500D01*
X176978892Y-92590500D01*
X176847108Y-92590500D01*
X176847107Y-92590500D01*
X176847101Y-92590501D01*
X176719817Y-92624606D01*
X176719814Y-92624607D01*
X176605684Y-92690501D01*
X176605680Y-92690504D01*
X176512504Y-92783680D01*
X176512501Y-92783684D01*
X176446607Y-92897814D01*
X176446606Y-92897817D01*
X176412501Y-93025101D01*
X176412500Y-93025109D01*
X174128705Y-93025109D01*
X174136500Y-93017314D01*
X174202392Y-92903186D01*
X174236500Y-92775892D01*
X174236500Y-92644108D01*
X174202392Y-92516814D01*
X174188329Y-92492456D01*
X179042500Y-92492456D01*
X179042500Y-92673543D01*
X179042501Y-92673559D01*
X179070828Y-92852403D01*
X179070831Y-92852416D01*
X179126787Y-93024633D01*
X179126789Y-93024640D01*
X179204112Y-93176393D01*
X179209004Y-93185994D01*
X179315447Y-93332501D01*
X179315450Y-93332504D01*
X179315453Y-93332508D01*
X179443491Y-93460546D01*
X179443494Y-93460548D01*
X179443499Y-93460553D01*
X179590006Y-93566996D01*
X179751361Y-93649211D01*
X179923591Y-93705171D01*
X180063922Y-93727397D01*
X180102440Y-93733498D01*
X180102446Y-93733498D01*
X180102454Y-93733500D01*
X180102456Y-93733500D01*
X180283544Y-93733500D01*
X180283546Y-93733500D01*
X180462409Y-93705171D01*
X180471300Y-93702282D01*
X180476611Y-93700557D01*
X180526160Y-93684457D01*
X180634639Y-93649211D01*
X180795994Y-93566996D01*
X180942501Y-93460553D01*
X181070553Y-93332501D01*
X181176996Y-93185994D01*
X181259211Y-93024639D01*
X181315171Y-92852409D01*
X181343500Y-92673546D01*
X181343500Y-92492454D01*
X181315171Y-92313591D01*
X181259211Y-92141361D01*
X181176996Y-91980006D01*
X181070553Y-91833499D01*
X181070548Y-91833494D01*
X181070546Y-91833491D01*
X180942508Y-91705453D01*
X180942504Y-91705450D01*
X180942501Y-91705447D01*
X180795994Y-91599004D01*
X180778346Y-91590012D01*
X180634640Y-91516789D01*
X180634633Y-91516787D01*
X180462416Y-91460831D01*
X180462413Y-91460830D01*
X180462409Y-91460829D01*
X180462403Y-91460828D01*
X180283559Y-91432501D01*
X180283547Y-91432500D01*
X180283546Y-91432500D01*
X180102454Y-91432500D01*
X180102452Y-91432500D01*
X180102440Y-91432501D01*
X179923596Y-91460828D01*
X179923593Y-91460828D01*
X179923591Y-91460829D01*
X179923589Y-91460829D01*
X179923583Y-91460831D01*
X179751366Y-91516787D01*
X179751359Y-91516789D01*
X179590005Y-91599004D01*
X179443491Y-91705453D01*
X179315453Y-91833491D01*
X179209004Y-91980005D01*
X179126789Y-92141359D01*
X179126787Y-92141366D01*
X179070831Y-92313583D01*
X179070828Y-92313596D01*
X179042501Y-92492440D01*
X179042500Y-92492456D01*
X174188329Y-92492456D01*
X174136500Y-92402686D01*
X174136498Y-92402684D01*
X174136495Y-92402680D01*
X174043319Y-92309504D01*
X174043315Y-92309501D01*
X174043314Y-92309500D01*
X173955901Y-92259032D01*
X173929185Y-92243607D01*
X173929182Y-92243606D01*
X173801898Y-92209501D01*
X173801893Y-92209500D01*
X173801892Y-92209500D01*
X173670108Y-92209500D01*
X173670107Y-92209500D01*
X173670101Y-92209501D01*
X173542817Y-92243606D01*
X173542814Y-92243607D01*
X173428684Y-92309501D01*
X173428680Y-92309504D01*
X173335504Y-92402680D01*
X173335501Y-92402684D01*
X173269607Y-92516814D01*
X173269606Y-92516817D01*
X173235501Y-92644101D01*
X173235500Y-92644109D01*
X162392752Y-92644109D01*
X162425500Y-92521892D01*
X162425500Y-92390108D01*
X162391392Y-92262814D01*
X162391389Y-92262809D01*
X162389825Y-92259032D01*
X162391033Y-92258531D01*
X162384500Y-92234130D01*
X162384500Y-92042870D01*
X162391041Y-92018479D01*
X162389823Y-92017975D01*
X162391392Y-92014185D01*
X162399966Y-91982186D01*
X162425500Y-91886892D01*
X162425500Y-91755108D01*
X162415371Y-91717307D01*
X164268773Y-91717307D01*
X164268773Y-91849088D01*
X164268774Y-91849096D01*
X164302879Y-91976380D01*
X164302880Y-91976383D01*
X164368774Y-92090513D01*
X164368777Y-92090517D01*
X164461953Y-92183693D01*
X164461957Y-92183696D01*
X164461959Y-92183698D01*
X164565724Y-92243607D01*
X164576087Y-92249590D01*
X164576090Y-92249591D01*
X164611325Y-92259032D01*
X164703381Y-92283698D01*
X164703382Y-92283698D01*
X164835164Y-92283698D01*
X164835165Y-92283698D01*
X164962459Y-92249590D01*
X165076587Y-92183698D01*
X165169773Y-92090512D01*
X165235665Y-91976384D01*
X165269773Y-91849090D01*
X165269773Y-91723109D01*
X168028500Y-91723109D01*
X168028500Y-91854890D01*
X168028501Y-91854898D01*
X168062606Y-91982182D01*
X168062607Y-91982185D01*
X168081083Y-92014186D01*
X168125150Y-92090512D01*
X168128501Y-92096315D01*
X168128504Y-92096319D01*
X168221680Y-92189495D01*
X168221684Y-92189498D01*
X168221686Y-92189500D01*
X168327992Y-92250876D01*
X168335814Y-92255392D01*
X168335817Y-92255393D01*
X168363528Y-92262818D01*
X168463108Y-92289500D01*
X168463109Y-92289500D01*
X168594891Y-92289500D01*
X168594892Y-92289500D01*
X168722186Y-92255392D01*
X168836314Y-92189500D01*
X168929500Y-92096314D01*
X168995392Y-91982186D01*
X169029500Y-91854892D01*
X169029500Y-91723108D01*
X168995392Y-91595814D01*
X168929500Y-91481686D01*
X168929498Y-91481684D01*
X168929495Y-91481680D01*
X168836319Y-91388504D01*
X168836315Y-91388501D01*
X168836314Y-91388500D01*
X168779250Y-91355554D01*
X168722185Y-91322607D01*
X168722182Y-91322606D01*
X168594898Y-91288501D01*
X168594893Y-91288500D01*
X168594892Y-91288500D01*
X168463108Y-91288500D01*
X168463107Y-91288500D01*
X168463101Y-91288501D01*
X168335817Y-91322606D01*
X168335814Y-91322607D01*
X168221684Y-91388501D01*
X168221680Y-91388504D01*
X168128504Y-91481680D01*
X168128501Y-91481684D01*
X168062607Y-91595814D01*
X168062606Y-91595817D01*
X168028501Y-91723101D01*
X168028500Y-91723109D01*
X165269773Y-91723109D01*
X165269773Y-91717306D01*
X165245794Y-91627814D01*
X165235666Y-91590015D01*
X165235665Y-91590012D01*
X165227997Y-91576731D01*
X165169773Y-91475884D01*
X165169771Y-91475882D01*
X165169768Y-91475878D01*
X165076592Y-91382702D01*
X165076588Y-91382699D01*
X165076587Y-91382698D01*
X165019523Y-91349752D01*
X164962458Y-91316805D01*
X164962455Y-91316804D01*
X164835171Y-91282699D01*
X164835166Y-91282698D01*
X164835165Y-91282698D01*
X164703381Y-91282698D01*
X164703380Y-91282698D01*
X164703374Y-91282699D01*
X164576090Y-91316804D01*
X164576087Y-91316805D01*
X164461957Y-91382699D01*
X164461953Y-91382702D01*
X164368777Y-91475878D01*
X164368774Y-91475882D01*
X164302880Y-91590012D01*
X164302879Y-91590015D01*
X164268774Y-91717299D01*
X164268773Y-91717307D01*
X162415371Y-91717307D01*
X162391392Y-91627814D01*
X162388942Y-91623570D01*
X162386820Y-91616000D01*
X162387499Y-91610333D01*
X162384500Y-91599130D01*
X162384500Y-91407870D01*
X162391041Y-91383479D01*
X162389823Y-91382975D01*
X162391392Y-91379185D01*
X162406552Y-91322606D01*
X162425500Y-91251892D01*
X162425500Y-91222456D01*
X181582500Y-91222456D01*
X181582500Y-91403543D01*
X181582501Y-91403559D01*
X181610828Y-91582403D01*
X181610831Y-91582416D01*
X181666787Y-91754633D01*
X181666789Y-91754640D01*
X181717870Y-91854890D01*
X181749004Y-91915994D01*
X181855447Y-92062501D01*
X181855450Y-92062504D01*
X181855453Y-92062508D01*
X181983491Y-92190546D01*
X181983494Y-92190548D01*
X181983499Y-92190553D01*
X182130006Y-92296996D01*
X182291361Y-92379211D01*
X182463591Y-92435171D01*
X182603922Y-92457397D01*
X182642440Y-92463498D01*
X182642446Y-92463498D01*
X182642454Y-92463500D01*
X182642456Y-92463500D01*
X182823544Y-92463500D01*
X182823546Y-92463500D01*
X183002409Y-92435171D01*
X183174639Y-92379211D01*
X183335994Y-92296996D01*
X183482501Y-92190553D01*
X183610553Y-92062501D01*
X183716996Y-91915994D01*
X183799211Y-91754639D01*
X183855171Y-91582409D01*
X183883500Y-91403546D01*
X183883500Y-91222454D01*
X183855171Y-91043591D01*
X183799211Y-90871361D01*
X183716996Y-90710006D01*
X183610553Y-90563499D01*
X183610548Y-90563494D01*
X183610546Y-90563491D01*
X183482508Y-90435453D01*
X183482504Y-90435450D01*
X183482501Y-90435447D01*
X183335994Y-90329004D01*
X183334351Y-90328167D01*
X183174640Y-90246789D01*
X183174633Y-90246787D01*
X183002416Y-90190831D01*
X183002413Y-90190830D01*
X183002409Y-90190829D01*
X183002403Y-90190828D01*
X182823559Y-90162501D01*
X182823547Y-90162500D01*
X182823546Y-90162500D01*
X182642454Y-90162500D01*
X182642452Y-90162500D01*
X182642440Y-90162501D01*
X182463596Y-90190828D01*
X182463593Y-90190828D01*
X182463591Y-90190829D01*
X182463589Y-90190829D01*
X182463583Y-90190831D01*
X182291366Y-90246787D01*
X182291359Y-90246789D01*
X182130005Y-90329004D01*
X182094898Y-90354511D01*
X181984441Y-90434763D01*
X181983491Y-90435453D01*
X181855453Y-90563491D01*
X181855447Y-90563498D01*
X181855447Y-90563499D01*
X181833599Y-90593570D01*
X181749004Y-90710005D01*
X181666789Y-90871359D01*
X181666787Y-90871366D01*
X181610831Y-91043583D01*
X181610828Y-91043596D01*
X181582501Y-91222440D01*
X181582500Y-91222456D01*
X162425500Y-91222456D01*
X162425500Y-91120108D01*
X162391392Y-90992814D01*
X162391389Y-90992809D01*
X162389825Y-90989032D01*
X162391033Y-90988531D01*
X162384500Y-90964130D01*
X162384500Y-90867500D01*
X162368857Y-90788858D01*
X162350551Y-90744664D01*
X162313924Y-90686373D01*
X162313923Y-90686371D01*
X162239339Y-90633451D01*
X162239338Y-90633450D01*
X162239336Y-90633449D01*
X162195142Y-90615143D01*
X162195139Y-90615142D01*
X162195136Y-90615141D01*
X162116500Y-90599500D01*
X160336500Y-90599500D01*
X160257859Y-90615142D01*
X160213670Y-90633446D01*
X160213657Y-90633453D01*
X160155371Y-90670076D01*
X160133472Y-90700941D01*
X160092969Y-90726391D01*
X160046333Y-90715746D01*
X160020883Y-90675243D01*
X160020000Y-90664774D01*
X160020000Y-89952456D01*
X179042500Y-89952456D01*
X179042500Y-90133543D01*
X179042501Y-90133559D01*
X179070828Y-90312403D01*
X179070831Y-90312416D01*
X179126787Y-90484633D01*
X179126789Y-90484640D01*
X179193928Y-90616406D01*
X179209004Y-90645994D01*
X179315447Y-90792501D01*
X179315450Y-90792504D01*
X179315453Y-90792508D01*
X179443491Y-90920546D01*
X179443494Y-90920548D01*
X179443499Y-90920553D01*
X179590006Y-91026996D01*
X179751361Y-91109211D01*
X179923591Y-91165171D01*
X180063922Y-91187397D01*
X180102440Y-91193498D01*
X180102446Y-91193498D01*
X180102454Y-91193500D01*
X180102456Y-91193500D01*
X180283544Y-91193500D01*
X180283546Y-91193500D01*
X180462409Y-91165171D01*
X180471300Y-91162282D01*
X180476611Y-91160557D01*
X180531516Y-91142717D01*
X180634639Y-91109211D01*
X180795994Y-91026996D01*
X180942501Y-90920553D01*
X181070553Y-90792501D01*
X181176996Y-90645994D01*
X181259211Y-90484639D01*
X181315171Y-90312409D01*
X181343500Y-90133546D01*
X181343500Y-89952454D01*
X181315171Y-89773591D01*
X181259211Y-89601361D01*
X181176996Y-89440006D01*
X181070553Y-89293499D01*
X181070548Y-89293494D01*
X181070546Y-89293491D01*
X180942508Y-89165453D01*
X180942504Y-89165450D01*
X180942501Y-89165447D01*
X180795994Y-89059004D01*
X180752281Y-89036731D01*
X180634640Y-88976789D01*
X180634633Y-88976787D01*
X180462416Y-88920831D01*
X180462413Y-88920830D01*
X180462409Y-88920829D01*
X180462403Y-88920828D01*
X180283559Y-88892501D01*
X180283547Y-88892500D01*
X180283546Y-88892500D01*
X180102454Y-88892500D01*
X180102452Y-88892500D01*
X180102440Y-88892501D01*
X179923596Y-88920828D01*
X179923593Y-88920828D01*
X179923591Y-88920829D01*
X179923589Y-88920829D01*
X179923583Y-88920831D01*
X179751366Y-88976787D01*
X179751359Y-88976789D01*
X179590005Y-89059004D01*
X179443491Y-89165453D01*
X179315453Y-89293491D01*
X179209004Y-89440005D01*
X179126789Y-89601359D01*
X179126787Y-89601366D01*
X179070831Y-89773583D01*
X179070828Y-89773596D01*
X179042501Y-89952440D01*
X179042500Y-89952456D01*
X160020000Y-89952456D01*
X160020000Y-88650068D01*
X187197500Y-88650068D01*
X187197500Y-88895931D01*
X187229590Y-89139670D01*
X187229593Y-89139689D01*
X187293220Y-89377147D01*
X187387303Y-89604286D01*
X187387309Y-89604298D01*
X187408744Y-89641424D01*
X187510233Y-89817208D01*
X187659899Y-90012256D01*
X187833744Y-90186101D01*
X188028792Y-90335767D01*
X188241708Y-90458694D01*
X188468847Y-90552778D01*
X188468851Y-90552779D01*
X188706310Y-90616406D01*
X188706314Y-90616406D01*
X188706323Y-90616409D01*
X188950073Y-90648500D01*
X188950079Y-90648500D01*
X189195921Y-90648500D01*
X189195927Y-90648500D01*
X189439677Y-90616409D01*
X189439687Y-90616406D01*
X189439689Y-90616406D01*
X189452964Y-90612849D01*
X192827500Y-90612849D01*
X192827500Y-90793150D01*
X192827501Y-90793166D01*
X192855705Y-90971236D01*
X192855705Y-90971237D01*
X192911423Y-91142717D01*
X192911427Y-91142725D01*
X192993282Y-91303375D01*
X193099261Y-91449242D01*
X193099268Y-91449250D01*
X193226749Y-91576731D01*
X193226757Y-91576738D01*
X193372627Y-91682719D01*
X193533281Y-91764576D01*
X193704761Y-91820294D01*
X193779819Y-91832182D01*
X193882833Y-91848498D01*
X193882839Y-91848498D01*
X193882847Y-91848500D01*
X193882849Y-91848500D01*
X194063151Y-91848500D01*
X194063153Y-91848500D01*
X194241239Y-91820294D01*
X194412719Y-91764576D01*
X194573373Y-91682719D01*
X194719243Y-91576738D01*
X194846738Y-91449243D01*
X194952719Y-91303373D01*
X195034576Y-91142719D01*
X195090294Y-90971239D01*
X195118500Y-90793153D01*
X195118500Y-90612847D01*
X195118207Y-90611000D01*
X195094085Y-90458696D01*
X195090294Y-90434761D01*
X195034576Y-90263281D01*
X194952719Y-90102627D01*
X194934802Y-90077967D01*
X194846738Y-89956757D01*
X194846731Y-89956749D01*
X194719250Y-89829268D01*
X194719242Y-89829261D01*
X194573375Y-89723282D01*
X194412725Y-89641427D01*
X194412717Y-89641423D01*
X194241237Y-89585705D01*
X194063166Y-89557501D01*
X194063154Y-89557500D01*
X194063153Y-89557500D01*
X193882847Y-89557500D01*
X193882845Y-89557500D01*
X193882833Y-89557501D01*
X193704763Y-89585705D01*
X193704762Y-89585705D01*
X193533282Y-89641423D01*
X193533274Y-89641427D01*
X193372624Y-89723282D01*
X193226757Y-89829261D01*
X193226749Y-89829268D01*
X193099268Y-89956749D01*
X193099261Y-89956757D01*
X192993282Y-90102624D01*
X192911427Y-90263274D01*
X192911423Y-90263282D01*
X192855705Y-90434762D01*
X192855705Y-90434763D01*
X192827501Y-90612833D01*
X192827500Y-90612849D01*
X189452964Y-90612849D01*
X189502783Y-90599500D01*
X189677153Y-90552778D01*
X189904292Y-90458694D01*
X190117208Y-90335767D01*
X190312256Y-90186101D01*
X190486101Y-90012256D01*
X190635767Y-89817208D01*
X190758694Y-89604292D01*
X190852778Y-89377153D01*
X190899756Y-89201824D01*
X190916406Y-89139689D01*
X190916406Y-89139687D01*
X190916409Y-89139677D01*
X190948500Y-88895927D01*
X190948500Y-88650073D01*
X190916409Y-88406323D01*
X190852778Y-88168847D01*
X190813014Y-88072849D01*
X191307500Y-88072849D01*
X191307500Y-88253150D01*
X191307501Y-88253166D01*
X191335705Y-88431236D01*
X191335705Y-88431237D01*
X191391423Y-88602717D01*
X191391427Y-88602725D01*
X191473282Y-88763375D01*
X191579261Y-88909242D01*
X191579268Y-88909250D01*
X191706749Y-89036731D01*
X191706757Y-89036738D01*
X191848456Y-89139689D01*
X191852627Y-89142719D01*
X192013281Y-89224576D01*
X192184761Y-89280294D01*
X192259819Y-89292182D01*
X192362833Y-89308498D01*
X192362839Y-89308498D01*
X192362847Y-89308500D01*
X192362849Y-89308500D01*
X192543151Y-89308500D01*
X192543153Y-89308500D01*
X192721239Y-89280294D01*
X192892719Y-89224576D01*
X193053373Y-89142719D01*
X193199243Y-89036738D01*
X193326738Y-88909243D01*
X193432719Y-88763373D01*
X193514576Y-88602719D01*
X193570294Y-88431239D01*
X193598500Y-88253153D01*
X193598500Y-88072847D01*
X193570294Y-87894761D01*
X193514576Y-87723281D01*
X193432719Y-87562627D01*
X193326738Y-87416757D01*
X193326731Y-87416749D01*
X193199250Y-87289268D01*
X193199242Y-87289261D01*
X193053375Y-87183282D01*
X192892725Y-87101427D01*
X192892717Y-87101423D01*
X192721237Y-87045705D01*
X192543166Y-87017501D01*
X192543154Y-87017500D01*
X192543153Y-87017500D01*
X192362847Y-87017500D01*
X192362845Y-87017500D01*
X192362833Y-87017501D01*
X192184763Y-87045705D01*
X192184762Y-87045705D01*
X192013282Y-87101423D01*
X192013274Y-87101427D01*
X191852624Y-87183282D01*
X191706757Y-87289261D01*
X191706749Y-87289268D01*
X191579268Y-87416749D01*
X191579261Y-87416757D01*
X191473282Y-87562624D01*
X191391427Y-87723274D01*
X191391423Y-87723282D01*
X191335705Y-87894762D01*
X191335705Y-87894763D01*
X191307501Y-88072833D01*
X191307500Y-88072849D01*
X190813014Y-88072849D01*
X190758694Y-87941708D01*
X190635767Y-87728792D01*
X190486101Y-87533744D01*
X190312256Y-87359899D01*
X190117208Y-87210233D01*
X190092078Y-87195724D01*
X189904298Y-87087309D01*
X189904286Y-87087303D01*
X189787373Y-87038876D01*
X189677153Y-86993222D01*
X189677149Y-86993221D01*
X189677147Y-86993220D01*
X189677148Y-86993220D01*
X189439689Y-86929593D01*
X189439677Y-86929591D01*
X189439672Y-86929590D01*
X189439670Y-86929590D01*
X189195931Y-86897500D01*
X189195927Y-86897500D01*
X188950073Y-86897500D01*
X188950068Y-86897500D01*
X188706329Y-86929590D01*
X188706310Y-86929593D01*
X188468852Y-86993220D01*
X188241713Y-87087303D01*
X188241701Y-87087309D01*
X188028798Y-87210229D01*
X188028795Y-87210231D01*
X188028792Y-87210233D01*
X187944359Y-87275021D01*
X187833742Y-87359900D01*
X187659900Y-87533742D01*
X187637736Y-87562627D01*
X187510233Y-87728792D01*
X187510231Y-87728795D01*
X187510229Y-87728798D01*
X187387309Y-87941701D01*
X187387303Y-87941713D01*
X187293220Y-88168852D01*
X187229593Y-88406310D01*
X187229590Y-88406329D01*
X187197500Y-88650068D01*
X160020000Y-88650068D01*
X160020000Y-87227763D01*
X160016711Y-87219823D01*
X160035017Y-87175629D01*
X160058567Y-87160831D01*
X160083475Y-87152116D01*
X160189711Y-87073711D01*
X160268116Y-86967475D01*
X160311725Y-86842849D01*
X160311725Y-86842839D01*
X160312536Y-86839135D01*
X160314080Y-86839472D01*
X160333960Y-86801868D01*
X160373829Y-86787500D01*
X161181562Y-86787500D01*
X161181567Y-86787499D01*
X161204271Y-86781414D01*
X161257989Y-86767021D01*
X161326511Y-86727460D01*
X161382460Y-86671511D01*
X161395165Y-86658806D01*
X161439359Y-86640500D01*
X162693262Y-86640500D01*
X162693266Y-86640500D01*
X162723699Y-86637646D01*
X162851882Y-86592793D01*
X162961150Y-86512150D01*
X163041793Y-86402882D01*
X163086646Y-86274699D01*
X163089500Y-86244266D01*
X163089500Y-85435734D01*
X163086646Y-85405301D01*
X163041793Y-85277118D01*
X162961150Y-85167850D01*
X162961149Y-85167849D01*
X162961148Y-85167848D01*
X162959736Y-85166806D01*
X162959175Y-85165875D01*
X162957838Y-85164538D01*
X162958169Y-85164206D01*
X162935049Y-85125833D01*
X162946565Y-85079405D01*
X162965921Y-85062210D01*
X163038448Y-85020911D01*
X163091252Y-84975156D01*
X163123371Y-84941869D01*
X163170303Y-84852151D01*
X163189988Y-84785112D01*
X163200500Y-84712000D01*
X163200500Y-80642000D01*
X163194569Y-80586837D01*
X163192273Y-80576283D01*
X163200767Y-80529209D01*
X163240060Y-80501928D01*
X163253345Y-80500500D01*
X164661716Y-80500500D01*
X164666057Y-80502298D01*
G37*
%TD.AperFunction*%
%TA.AperFunction,Conductor*%
G36*
X157849110Y-80518806D02*
G01*
X157867416Y-80563000D01*
X157867167Y-80568568D01*
X157860085Y-80647735D01*
X157868777Y-80728537D01*
X157870011Y-80730796D01*
X157870236Y-80733397D01*
X157870927Y-80743940D01*
X157870950Y-80744282D01*
X157870951Y-80744290D01*
X157882979Y-80789176D01*
X157898017Y-80845301D01*
X157899870Y-80852213D01*
X157902000Y-80868390D01*
X157902000Y-80929610D01*
X157899870Y-80945787D01*
X157884026Y-81004915D01*
X157877783Y-81019988D01*
X157847170Y-81073011D01*
X157837237Y-81085955D01*
X157793955Y-81129237D01*
X157781011Y-81139170D01*
X157727988Y-81169783D01*
X157712915Y-81176026D01*
X157683351Y-81183948D01*
X157653785Y-81191870D01*
X157637610Y-81194000D01*
X157574319Y-81194000D01*
X157561763Y-81192726D01*
X157546783Y-81189654D01*
X157546782Y-81189653D01*
X157546778Y-81189653D01*
X157546776Y-81189652D01*
X157546770Y-81189652D01*
X157457718Y-81187004D01*
X157388548Y-81196950D01*
X157343529Y-81207589D01*
X157341875Y-81208240D01*
X157340853Y-81208221D01*
X157339189Y-81208615D01*
X157339088Y-81208189D01*
X157294048Y-81207380D01*
X157260837Y-81172952D01*
X157256500Y-81150077D01*
X157256500Y-80875737D01*
X157253646Y-80845303D01*
X157253645Y-80845298D01*
X157228006Y-80772027D01*
X157208793Y-80717118D01*
X157199247Y-80704184D01*
X157128149Y-80607849D01*
X157127494Y-80607194D01*
X157127274Y-80606663D01*
X157125369Y-80604082D01*
X157126009Y-80603609D01*
X157109188Y-80563000D01*
X157127494Y-80518806D01*
X157171688Y-80500500D01*
X157804916Y-80500500D01*
X157849110Y-80518806D01*
G37*
%TD.AperFunction*%
%TD*%
M02*
