%TF.GenerationSoftware,KiCad,Pcbnew,9.0.2*%
%TF.CreationDate,2025-10-15T23:03:26+09:00*%
%TF.ProjectId,Mother_v1_0_0,4d6f7468-6572-45f7-9631-5f305f302e6b,rev?*%
%TF.SameCoordinates,Original*%
%TF.FileFunction,Legend,Bot*%
%TF.FilePolarity,Positive*%
%FSLAX46Y46*%
G04 Gerber Fmt 4.6, Leading zero omitted, Abs format (unit mm)*
G04 Created by KiCad (PCBNEW 9.0.2) date 2025-10-15 23:03:26*
%MOMM*%
%LPD*%
G01*
G04 APERTURE LIST*
G04 Aperture macros list*
%AMRoundRect*
0 Rectangle with rounded corners*
0 $1 Rounding radius*
0 $2 $3 $4 $5 $6 $7 $8 $9 X,Y pos of 4 corners*
0 Add a 4 corners polygon primitive as box body*
4,1,4,$2,$3,$4,$5,$6,$7,$8,$9,$2,$3,0*
0 Add four circle primitives for the rounded corners*
1,1,$1+$1,$2,$3*
1,1,$1+$1,$4,$5*
1,1,$1+$1,$6,$7*
1,1,$1+$1,$8,$9*
0 Add four rect primitives between the rounded corners*
20,1,$1+$1,$2,$3,$4,$5,0*
20,1,$1+$1,$4,$5,$6,$7,0*
20,1,$1+$1,$6,$7,$8,$9,0*
20,1,$1+$1,$8,$9,$2,$3,0*%
G04 Aperture macros list end*
%ADD10C,0.100000*%
%ADD11C,0.150000*%
%ADD12C,0.200000*%
%ADD13C,0.120000*%
%ADD14C,0.100000*%
%ADD15C,0.900000*%
%ADD16RoundRect,0.195000X0.455000X-0.455000X0.455000X0.455000X-0.455000X0.455000X-0.455000X-0.455000X0*%
%ADD17C,1.300000*%
%ADD18C,3.200000*%
%ADD19RoundRect,0.195000X-0.455000X0.455000X-0.455000X-0.455000X0.455000X-0.455000X0.455000X0.455000X0*%
%ADD20C,3.250000*%
%ADD21C,1.890000*%
%ADD22R,1.900000X1.900000*%
%ADD23C,1.900000*%
%ADD24C,2.600000*%
%ADD25RoundRect,0.195000X0.455000X0.455000X-0.455000X0.455000X-0.455000X-0.455000X0.455000X-0.455000X0*%
%ADD26RoundRect,0.250000X-0.550000X0.550000X-0.550000X-0.550000X0.550000X-0.550000X0.550000X0.550000X0*%
%ADD27C,1.600000*%
%ADD28C,1.000000*%
%ADD29RoundRect,0.304348X1.095652X-1.095652X1.095652X1.095652X-1.095652X1.095652X-1.095652X-1.095652X0*%
%ADD30C,2.800000*%
%ADD31RoundRect,0.250000X0.850000X0.350000X-0.850000X0.350000X-0.850000X-0.350000X0.850000X-0.350000X0*%
%ADD32RoundRect,0.249997X2.950003X2.650003X-2.950003X2.650003X-2.950003X-2.650003X2.950003X-2.650003X0*%
%ADD33R,1.200000X1.200000*%
%ADD34RoundRect,0.237500X-0.237500X0.250000X-0.237500X-0.250000X0.237500X-0.250000X0.237500X0.250000X0*%
%ADD35RoundRect,0.237500X0.237500X-0.300000X0.237500X0.300000X-0.237500X0.300000X-0.237500X-0.300000X0*%
%ADD36RoundRect,0.250000X-0.850000X-0.350000X0.850000X-0.350000X0.850000X0.350000X-0.850000X0.350000X0*%
%ADD37RoundRect,0.249997X-2.950003X-2.650003X2.950003X-2.650003X2.950003X2.650003X-2.950003X2.650003X0*%
%ADD38RoundRect,0.237500X-0.237500X0.300000X-0.237500X-0.300000X0.237500X-0.300000X0.237500X0.300000X0*%
G04 APERTURE END LIST*
D10*
X164846000Y-102870000D02*
X168021000Y-102870000D01*
X168021000Y-105156000D01*
X164846000Y-105156000D01*
X164846000Y-102870000D01*
X176784000Y-113030000D02*
X179070000Y-113030000D01*
X179070000Y-115443000D01*
X176784000Y-115443000D01*
X176784000Y-113030000D01*
X170942000Y-93472000D02*
X173228000Y-93472000D01*
X173228000Y-97663000D01*
X170942000Y-97663000D01*
X170942000Y-93472000D01*
X162687000Y-90170000D02*
X168275000Y-90170000D01*
X168275000Y-92456000D01*
X162687000Y-92456000D01*
X162687000Y-90170000D01*
X175260000Y-91440000D02*
X177546000Y-91440000D01*
X177546000Y-99822000D01*
X175260000Y-99822000D01*
X175260000Y-91440000D01*
X168656000Y-104902000D02*
X171323000Y-104902000D01*
X171323000Y-107188000D01*
X168656000Y-107188000D01*
X168656000Y-104902000D01*
X165989000Y-111125000D02*
X168275000Y-111125000D01*
X168275000Y-115824000D01*
X165989000Y-115824000D01*
X165989000Y-111125000D01*
X153035000Y-119126000D02*
X154305000Y-119126000D01*
X154305000Y-124079000D01*
X153035000Y-124079000D01*
X153035000Y-119126000D01*
X173736000Y-115697000D02*
X177546000Y-115697000D01*
X177546000Y-117983000D01*
X173736000Y-117983000D01*
X173736000Y-115697000D01*
D11*
G36*
X161696315Y-89501631D02*
G01*
X161770541Y-89496688D01*
X161835290Y-89482590D01*
X161892000Y-89460070D01*
X161941848Y-89429346D01*
X161985694Y-89390110D01*
X162021787Y-89344253D01*
X162050556Y-89291123D01*
X162071969Y-89229624D01*
X162085534Y-89158366D01*
X162090328Y-89075720D01*
X162085535Y-88995027D01*
X162071904Y-88924703D01*
X162050253Y-88863283D01*
X162020978Y-88809524D01*
X161984034Y-88762454D01*
X161939363Y-88721967D01*
X161889132Y-88690438D01*
X161832554Y-88667458D01*
X161768536Y-88653147D01*
X161695729Y-88648149D01*
X161632040Y-88652457D01*
X161565863Y-88665699D01*
X161496581Y-88688575D01*
X161423594Y-88722057D01*
X161423594Y-88841980D01*
X161431263Y-88841980D01*
X161485368Y-88802316D01*
X161539095Y-88772619D01*
X161592828Y-88751969D01*
X161647040Y-88739752D01*
X161702275Y-88735685D01*
X161753856Y-88739554D01*
X161799366Y-88750672D01*
X161839802Y-88768638D01*
X161875947Y-88793513D01*
X161908318Y-88825811D01*
X161940068Y-88872460D01*
X161963740Y-88928417D01*
X161978867Y-88995503D01*
X161984278Y-89075965D01*
X161978790Y-89155757D01*
X161963428Y-89222374D01*
X161939343Y-89278042D01*
X161906950Y-89324555D01*
X161874048Y-89356730D01*
X161837628Y-89381466D01*
X161797201Y-89399287D01*
X161752036Y-89410280D01*
X161701200Y-89414094D01*
X161633086Y-89408627D01*
X161568967Y-89392454D01*
X161528687Y-89374983D01*
X161483095Y-89347467D01*
X161431263Y-89307800D01*
X161423594Y-89307800D01*
X161423594Y-89427235D01*
X161523667Y-89469978D01*
X161586748Y-89489126D01*
X161644254Y-89498621D01*
X161696315Y-89501631D01*
G37*
G36*
X161111710Y-88653334D02*
G01*
X161164056Y-88668361D01*
X161211204Y-88693009D01*
X161254040Y-88727821D01*
X161289247Y-88770112D01*
X161314275Y-88817324D01*
X161329613Y-88870442D01*
X161334934Y-88930836D01*
X161329984Y-88990140D01*
X161315962Y-89040402D01*
X161293530Y-89083276D01*
X161262540Y-89119977D01*
X161224476Y-89149309D01*
X161179857Y-89170745D01*
X161127411Y-89184228D01*
X161065485Y-89189000D01*
X161021262Y-89185459D01*
X160973494Y-89174352D01*
X160921445Y-89154697D01*
X160864375Y-89125204D01*
X160875656Y-89199476D01*
X160894184Y-89259298D01*
X160918924Y-89307146D01*
X160949438Y-89345015D01*
X160985923Y-89374315D01*
X161029196Y-89395754D01*
X161080618Y-89409285D01*
X161141982Y-89414094D01*
X161182314Y-89411501D01*
X161217784Y-89404083D01*
X161249107Y-89392210D01*
X161255652Y-89392210D01*
X161255652Y-89489028D01*
X161212981Y-89498233D01*
X161158395Y-89501631D01*
X161081159Y-89496101D01*
X161014443Y-89480374D01*
X160956546Y-89455266D01*
X160906116Y-89420925D01*
X160862226Y-89376823D01*
X160827023Y-89326279D01*
X160798635Y-89267280D01*
X160777317Y-89198533D01*
X160763730Y-89118473D01*
X160758911Y-89025309D01*
X160759781Y-89007332D01*
X160862763Y-89007332D01*
X160864375Y-89056327D01*
X160927143Y-89085814D01*
X160985252Y-89102415D01*
X161039791Y-89107716D01*
X161091443Y-89103902D01*
X161131599Y-89093537D01*
X161162613Y-89077736D01*
X161186288Y-89056865D01*
X161210426Y-89020725D01*
X161225305Y-88977968D01*
X161230544Y-88926830D01*
X161227205Y-88880660D01*
X161217826Y-88841928D01*
X161203040Y-88809358D01*
X161183015Y-88781945D01*
X161157558Y-88759285D01*
X161128152Y-88743041D01*
X161094017Y-88732969D01*
X161054054Y-88729433D01*
X161009175Y-88734178D01*
X160971450Y-88747702D01*
X160939347Y-88769766D01*
X160911954Y-88801240D01*
X160891917Y-88837603D01*
X160876509Y-88882820D01*
X160866426Y-88938696D01*
X160862763Y-89007332D01*
X160759781Y-89007332D01*
X160762721Y-88946569D01*
X160773329Y-88880628D01*
X160789716Y-88825630D01*
X160811179Y-88779938D01*
X160837362Y-88742182D01*
X160870783Y-88708573D01*
X160908343Y-88682638D01*
X160950612Y-88663861D01*
X160998445Y-88652212D01*
X161052931Y-88648149D01*
X161111710Y-88653334D01*
G37*
D12*
G36*
X165813000Y-103137976D02*
G01*
X165481611Y-103137976D01*
X165481611Y-103305722D01*
X165813000Y-103576783D01*
X165813000Y-103709602D01*
X165452741Y-103409037D01*
X165425494Y-103462215D01*
X165393713Y-103503530D01*
X165357426Y-103534786D01*
X165316125Y-103557115D01*
X165268820Y-103570894D01*
X165214116Y-103575708D01*
X165165305Y-103571064D01*
X165122847Y-103557703D01*
X165085474Y-103535857D01*
X165052330Y-103504926D01*
X165027840Y-103468508D01*
X165008578Y-103419465D01*
X164995615Y-103354505D01*
X164991153Y-103276217D01*
X165078317Y-103276217D01*
X165083445Y-103343063D01*
X165096980Y-103391474D01*
X165117023Y-103425862D01*
X165143039Y-103449461D01*
X165175953Y-103463940D01*
X165217975Y-103469120D01*
X165260812Y-103465656D01*
X165296061Y-103455975D01*
X165325148Y-103440720D01*
X165349133Y-103419930D01*
X165367140Y-103394453D01*
X165381186Y-103360450D01*
X165390582Y-103315735D01*
X165394074Y-103257655D01*
X165394074Y-103137976D01*
X165078317Y-103137976D01*
X165078317Y-103276217D01*
X164991153Y-103276217D01*
X164990780Y-103269672D01*
X164990780Y-103036322D01*
X165813000Y-103036322D01*
X165813000Y-103137976D01*
G37*
G36*
X165776852Y-103782679D02*
G01*
X165666063Y-103782679D01*
X165666063Y-103791423D01*
X165699683Y-103848966D01*
X165722906Y-103906019D01*
X165736566Y-103963125D01*
X165741094Y-104020914D01*
X165737812Y-104064364D01*
X165728505Y-104101534D01*
X165713661Y-104133490D01*
X165693321Y-104161060D01*
X165667755Y-104183671D01*
X165637730Y-104200003D01*
X165602357Y-104210210D01*
X165560404Y-104213817D01*
X165521034Y-104210527D01*
X165489471Y-104201426D01*
X165464152Y-104187207D01*
X165443949Y-104167899D01*
X165424781Y-104134994D01*
X165411632Y-104087140D01*
X165406579Y-104019253D01*
X165406579Y-103971186D01*
X165325295Y-103971186D01*
X165325295Y-104008360D01*
X165320589Y-104066333D01*
X165307721Y-104111717D01*
X165287877Y-104147139D01*
X165267282Y-104169123D01*
X165243372Y-104184612D01*
X165215495Y-104194121D01*
X165182609Y-104197453D01*
X165146519Y-104192362D01*
X165117532Y-104177836D01*
X165093900Y-104153440D01*
X165077380Y-104122579D01*
X165066626Y-104082986D01*
X165062685Y-104032393D01*
X165066951Y-103978451D01*
X165079923Y-103924160D01*
X165102158Y-103868919D01*
X165134591Y-103812184D01*
X165134591Y-103806175D01*
X165027026Y-103806175D01*
X164998061Y-103881160D01*
X164980880Y-103957238D01*
X164975149Y-104035178D01*
X164979002Y-104099749D01*
X164989684Y-104152888D01*
X165006186Y-104196488D01*
X165027954Y-104232135D01*
X165056929Y-104262843D01*
X165089775Y-104284285D01*
X165127273Y-104297317D01*
X165170690Y-104301842D01*
X165213015Y-104296724D01*
X165252028Y-104281484D01*
X165288806Y-104255387D01*
X165319241Y-104221810D01*
X165341121Y-104183321D01*
X165354849Y-104138981D01*
X165363300Y-104138981D01*
X165379162Y-104196943D01*
X165402210Y-104241184D01*
X165431875Y-104274407D01*
X165468652Y-104298302D01*
X165514032Y-104313347D01*
X165570320Y-104318744D01*
X165625179Y-104313412D01*
X165673595Y-104297966D01*
X165716902Y-104272519D01*
X165755993Y-104236238D01*
X165787115Y-104193145D01*
X165809677Y-104144133D01*
X165823716Y-104088106D01*
X165828631Y-104023649D01*
X165822917Y-103942029D01*
X165805768Y-103861948D01*
X165776852Y-103782679D01*
G37*
G36*
X165780857Y-104489176D02*
G01*
X165672316Y-104489176D01*
X165672316Y-104497920D01*
X165702994Y-104553002D01*
X165724307Y-104608005D01*
X165736905Y-104663414D01*
X165741094Y-104719790D01*
X165737660Y-104763659D01*
X165727905Y-104801231D01*
X165712301Y-104833600D01*
X165690829Y-104861598D01*
X165664068Y-104884384D01*
X165632661Y-104900898D01*
X165595691Y-104911236D01*
X165551904Y-104914891D01*
X165509654Y-104910467D01*
X165475449Y-104898059D01*
X165447508Y-104878102D01*
X165424793Y-104849848D01*
X165407153Y-104811483D01*
X165395348Y-104760324D01*
X165390948Y-104693021D01*
X165395705Y-104624868D01*
X165412832Y-104524689D01*
X164990780Y-104524689D01*
X164990780Y-105013810D01*
X165078317Y-105013810D01*
X165078317Y-104623070D01*
X165310543Y-104623070D01*
X165303411Y-104720328D01*
X165308082Y-104794929D01*
X165320951Y-104855378D01*
X165340732Y-104904158D01*
X165366768Y-104943321D01*
X165400962Y-104975758D01*
X165442067Y-104999252D01*
X165491499Y-105014022D01*
X165551269Y-105019281D01*
X165611057Y-105013871D01*
X165663411Y-104998291D01*
X165709760Y-104972861D01*
X165751108Y-104937020D01*
X165784380Y-104893796D01*
X165808433Y-104844395D01*
X165823389Y-104787643D01*
X165828631Y-104721988D01*
X165823092Y-104637074D01*
X165807012Y-104559846D01*
X165780857Y-104489176D01*
G37*
G36*
X177379677Y-98503000D02*
G01*
X177278023Y-98503000D01*
X177278023Y-98171611D01*
X177110277Y-98171611D01*
X176839216Y-98503000D01*
X176706397Y-98503000D01*
X177006962Y-98142741D01*
X176953784Y-98115494D01*
X176912469Y-98083713D01*
X176881213Y-98047426D01*
X176858884Y-98006125D01*
X176845105Y-97958820D01*
X176840631Y-97907975D01*
X176946879Y-97907975D01*
X176950343Y-97950812D01*
X176960024Y-97986061D01*
X176975279Y-98015148D01*
X176996069Y-98039133D01*
X177021546Y-98057140D01*
X177055549Y-98071186D01*
X177100264Y-98080582D01*
X177158344Y-98084074D01*
X177278023Y-98084074D01*
X177278023Y-97768317D01*
X177139782Y-97768317D01*
X177072936Y-97773445D01*
X177024525Y-97786980D01*
X176990137Y-97807023D01*
X176966538Y-97833039D01*
X176952059Y-97865953D01*
X176946879Y-97907975D01*
X176840631Y-97907975D01*
X176840291Y-97904116D01*
X176844935Y-97855305D01*
X176858296Y-97812847D01*
X176880142Y-97775474D01*
X176911073Y-97742330D01*
X176947491Y-97717840D01*
X176996534Y-97698578D01*
X177061494Y-97685615D01*
X177146327Y-97680780D01*
X177379677Y-97680780D01*
X177379677Y-98503000D01*
G37*
G36*
X176682510Y-98150362D02*
G01*
X176682510Y-98265400D01*
X176286299Y-98265400D01*
X176286299Y-98503000D01*
X176187967Y-98503000D01*
X176187967Y-98265400D01*
X176067165Y-98265400D01*
X176067165Y-98184116D01*
X176187967Y-98184116D01*
X176286299Y-98184116D01*
X176613683Y-98184116D01*
X176286299Y-97800508D01*
X176286299Y-98184116D01*
X176187967Y-98184116D01*
X176187967Y-97680780D01*
X176281952Y-97680780D01*
X176682510Y-98150362D01*
G37*
G36*
X175390172Y-98503000D02*
G01*
X175941038Y-98503000D01*
X175941038Y-98396852D01*
X175744569Y-98221974D01*
X175673213Y-98153151D01*
X175620265Y-98095150D01*
X175582538Y-98046510D01*
X175552193Y-97994119D01*
X175535031Y-97943980D01*
X175529489Y-97895030D01*
X175534758Y-97852383D01*
X175549634Y-97818148D01*
X175574038Y-97790348D01*
X175605746Y-97770136D01*
X175645386Y-97757312D01*
X175695085Y-97752685D01*
X175749629Y-97756980D01*
X175804131Y-97770000D01*
X175859192Y-97792243D01*
X175915343Y-97824591D01*
X175920814Y-97824591D01*
X175920814Y-97717759D01*
X175845800Y-97688356D01*
X175769905Y-97670948D01*
X175692350Y-97665149D01*
X175629833Y-97669407D01*
X175577358Y-97681351D01*
X175533255Y-97700115D01*
X175496174Y-97725379D01*
X175465079Y-97757901D01*
X175442971Y-97795377D01*
X175429338Y-97838794D01*
X175424562Y-97889608D01*
X175429175Y-97944173D01*
X175442880Y-97995903D01*
X175465836Y-98045057D01*
X175499984Y-98094528D01*
X175541299Y-98142529D01*
X175592894Y-98196426D01*
X175664936Y-98262971D01*
X175841533Y-98415463D01*
X175390172Y-98415463D01*
X175390172Y-98503000D01*
G37*
G36*
X177243000Y-115964976D02*
G01*
X176911611Y-115964976D01*
X176911611Y-116132722D01*
X177243000Y-116403783D01*
X177243000Y-116536602D01*
X176882741Y-116236037D01*
X176855494Y-116289215D01*
X176823713Y-116330530D01*
X176787426Y-116361786D01*
X176746125Y-116384115D01*
X176698820Y-116397894D01*
X176644116Y-116402708D01*
X176595305Y-116398064D01*
X176552847Y-116384703D01*
X176515474Y-116362857D01*
X176482330Y-116331926D01*
X176457840Y-116295508D01*
X176438578Y-116246465D01*
X176425615Y-116181505D01*
X176421153Y-116103217D01*
X176508317Y-116103217D01*
X176513445Y-116170063D01*
X176526980Y-116218474D01*
X176547023Y-116252862D01*
X176573039Y-116276461D01*
X176605953Y-116290940D01*
X176647975Y-116296120D01*
X176690812Y-116292656D01*
X176726061Y-116282975D01*
X176755148Y-116267720D01*
X176779133Y-116246930D01*
X176797140Y-116221453D01*
X176811186Y-116187450D01*
X176820582Y-116142735D01*
X176824074Y-116084655D01*
X176824074Y-115964976D01*
X176508317Y-115964976D01*
X176508317Y-116103217D01*
X176421153Y-116103217D01*
X176420780Y-116096672D01*
X176420780Y-115863322D01*
X177243000Y-115863322D01*
X177243000Y-115964976D01*
G37*
G36*
X177210857Y-116620573D02*
G01*
X177102316Y-116620573D01*
X177102316Y-116629316D01*
X177132994Y-116684399D01*
X177154307Y-116739401D01*
X177166905Y-116794810D01*
X177171094Y-116851187D01*
X177167660Y-116895055D01*
X177157905Y-116932627D01*
X177142301Y-116964996D01*
X177120829Y-116992994D01*
X177094068Y-117015780D01*
X177062661Y-117032294D01*
X177025691Y-117042632D01*
X176981904Y-117046288D01*
X176939654Y-117041863D01*
X176905449Y-117029456D01*
X176877508Y-117009498D01*
X176854793Y-116981244D01*
X176837153Y-116942879D01*
X176825348Y-116891720D01*
X176820948Y-116824418D01*
X176825705Y-116756264D01*
X176842832Y-116656085D01*
X176420780Y-116656085D01*
X176420780Y-117145206D01*
X176508317Y-117145206D01*
X176508317Y-116754466D01*
X176740543Y-116754466D01*
X176733411Y-116851724D01*
X176738082Y-116926326D01*
X176750951Y-116986774D01*
X176770732Y-117035555D01*
X176796768Y-117074718D01*
X176830962Y-117107155D01*
X176872067Y-117130648D01*
X176921499Y-117145418D01*
X176981269Y-117150677D01*
X177041057Y-117145268D01*
X177093411Y-117129688D01*
X177139760Y-117104257D01*
X177181108Y-117068416D01*
X177214380Y-117025193D01*
X177238433Y-116975792D01*
X177253389Y-116919040D01*
X177258631Y-116853385D01*
X177253092Y-116768471D01*
X177237012Y-116691242D01*
X177210857Y-116620573D01*
G37*
G36*
X177206852Y-117305283D02*
G01*
X177096063Y-117305283D01*
X177096063Y-117314027D01*
X177129683Y-117371570D01*
X177152906Y-117428622D01*
X177166566Y-117485728D01*
X177171094Y-117543517D01*
X177167812Y-117586968D01*
X177158505Y-117624138D01*
X177143661Y-117656094D01*
X177123321Y-117683664D01*
X177097755Y-117706274D01*
X177067730Y-117722607D01*
X177032357Y-117732813D01*
X176990404Y-117736420D01*
X176951034Y-117733130D01*
X176919471Y-117724029D01*
X176894152Y-117709811D01*
X176873949Y-117690503D01*
X176854781Y-117657597D01*
X176841632Y-117609743D01*
X176836579Y-117541857D01*
X176836579Y-117493790D01*
X176755295Y-117493790D01*
X176755295Y-117530963D01*
X176750589Y-117588937D01*
X176737721Y-117634320D01*
X176717877Y-117669742D01*
X176697282Y-117691726D01*
X176673372Y-117707215D01*
X176645495Y-117716724D01*
X176612609Y-117720056D01*
X176576519Y-117714965D01*
X176547532Y-117700440D01*
X176523900Y-117676044D01*
X176507380Y-117645183D01*
X176496626Y-117605589D01*
X176492685Y-117554997D01*
X176496951Y-117501054D01*
X176509923Y-117446764D01*
X176532158Y-117391522D01*
X176564591Y-117334787D01*
X176564591Y-117328779D01*
X176457026Y-117328779D01*
X176428061Y-117403763D01*
X176410880Y-117479842D01*
X176405149Y-117557781D01*
X176409002Y-117622353D01*
X176419684Y-117675492D01*
X176436186Y-117719091D01*
X176457954Y-117754739D01*
X176486929Y-117785447D01*
X176519775Y-117806889D01*
X176557273Y-117819920D01*
X176600690Y-117824446D01*
X176643015Y-117819327D01*
X176682028Y-117804088D01*
X176718806Y-117777991D01*
X176749241Y-117744414D01*
X176771121Y-117705925D01*
X176784849Y-117661584D01*
X176793300Y-117661584D01*
X176809162Y-117719546D01*
X176832210Y-117763788D01*
X176861875Y-117797011D01*
X176898652Y-117820906D01*
X176944032Y-117835950D01*
X177000320Y-117841347D01*
X177055179Y-117836015D01*
X177103595Y-117820570D01*
X177146902Y-117795123D01*
X177185993Y-117758842D01*
X177217115Y-117715749D01*
X177239677Y-117666737D01*
X177253716Y-117610710D01*
X177258631Y-117546253D01*
X177252917Y-117464633D01*
X177235768Y-117384551D01*
X177206852Y-117305283D01*
G37*
G36*
X177030117Y-94454631D02*
G01*
X177104343Y-94449688D01*
X177169092Y-94435590D01*
X177225802Y-94413070D01*
X177275650Y-94382346D01*
X177319496Y-94343110D01*
X177355589Y-94297253D01*
X177384358Y-94244123D01*
X177405771Y-94182624D01*
X177419336Y-94111366D01*
X177424130Y-94028720D01*
X177419337Y-93948027D01*
X177405706Y-93877703D01*
X177384055Y-93816283D01*
X177354780Y-93762524D01*
X177317836Y-93715454D01*
X177273165Y-93674967D01*
X177222934Y-93643438D01*
X177166356Y-93620458D01*
X177102338Y-93606147D01*
X177029531Y-93601149D01*
X176965842Y-93605457D01*
X176899665Y-93618699D01*
X176830383Y-93641575D01*
X176757396Y-93675057D01*
X176757396Y-93794980D01*
X176765065Y-93794980D01*
X176819170Y-93755316D01*
X176872897Y-93725619D01*
X176926630Y-93704969D01*
X176980842Y-93692752D01*
X177036077Y-93688685D01*
X177087658Y-93692554D01*
X177133168Y-93703672D01*
X177173604Y-93721638D01*
X177209749Y-93746513D01*
X177242120Y-93778811D01*
X177273870Y-93825460D01*
X177297542Y-93881417D01*
X177312669Y-93948503D01*
X177318080Y-94028965D01*
X177312592Y-94108757D01*
X177297230Y-94175374D01*
X177273145Y-94231042D01*
X177240752Y-94277555D01*
X177207850Y-94309730D01*
X177171430Y-94334466D01*
X177131003Y-94352287D01*
X177085838Y-94363280D01*
X177035002Y-94367094D01*
X176966888Y-94361627D01*
X176902769Y-94345454D01*
X176862489Y-94327983D01*
X176816897Y-94300467D01*
X176765065Y-94260800D01*
X176757396Y-94260800D01*
X176757396Y-94380235D01*
X176857469Y-94422978D01*
X176920550Y-94442126D01*
X176978056Y-94451621D01*
X177030117Y-94454631D01*
G37*
G36*
X176091639Y-94439000D02*
G01*
X176642504Y-94439000D01*
X176642504Y-94332852D01*
X176446035Y-94157974D01*
X176374680Y-94089151D01*
X176321731Y-94031150D01*
X176284004Y-93982510D01*
X176253660Y-93930119D01*
X176236497Y-93879980D01*
X176230955Y-93831030D01*
X176236224Y-93788383D01*
X176251100Y-93754148D01*
X176275505Y-93726348D01*
X176307212Y-93706136D01*
X176346852Y-93693312D01*
X176396551Y-93688685D01*
X176451095Y-93692980D01*
X176505597Y-93706000D01*
X176560659Y-93728243D01*
X176616810Y-93760591D01*
X176622281Y-93760591D01*
X176622281Y-93653759D01*
X176547266Y-93624356D01*
X176471372Y-93606948D01*
X176393816Y-93601149D01*
X176331300Y-93605407D01*
X176278825Y-93617351D01*
X176234721Y-93636115D01*
X176197640Y-93661379D01*
X176166545Y-93693901D01*
X176144437Y-93731377D01*
X176130804Y-93774794D01*
X176126028Y-93825608D01*
X176130642Y-93880173D01*
X176144346Y-93931903D01*
X176167303Y-93981057D01*
X176201450Y-94030528D01*
X176242765Y-94078529D01*
X176294360Y-94132426D01*
X176366402Y-94198971D01*
X176542999Y-94351463D01*
X176091639Y-94351463D01*
X176091639Y-94439000D01*
G37*
G36*
X175749908Y-93606334D02*
G01*
X175802255Y-93621361D01*
X175849402Y-93646009D01*
X175892239Y-93680821D01*
X175927445Y-93723112D01*
X175952473Y-93770324D01*
X175967811Y-93823442D01*
X175973132Y-93883836D01*
X175968182Y-93943140D01*
X175954161Y-93993402D01*
X175931728Y-94036276D01*
X175900739Y-94072977D01*
X175862675Y-94102309D01*
X175818055Y-94123745D01*
X175765609Y-94137228D01*
X175703683Y-94142000D01*
X175659460Y-94138459D01*
X175611692Y-94127352D01*
X175559644Y-94107697D01*
X175502574Y-94078204D01*
X175513855Y-94152476D01*
X175532382Y-94212298D01*
X175557122Y-94260146D01*
X175587636Y-94298015D01*
X175624121Y-94327315D01*
X175667395Y-94348754D01*
X175718816Y-94362285D01*
X175780180Y-94367094D01*
X175820512Y-94364501D01*
X175855982Y-94357083D01*
X175887305Y-94345210D01*
X175893851Y-94345210D01*
X175893851Y-94442028D01*
X175851179Y-94451233D01*
X175796593Y-94454631D01*
X175719358Y-94449101D01*
X175652641Y-94433374D01*
X175594744Y-94408266D01*
X175544314Y-94373925D01*
X175500424Y-94329823D01*
X175465221Y-94279279D01*
X175436834Y-94220280D01*
X175415516Y-94151533D01*
X175401928Y-94071473D01*
X175397110Y-93978309D01*
X175397980Y-93960332D01*
X175500962Y-93960332D01*
X175502574Y-94009327D01*
X175565341Y-94038814D01*
X175623450Y-94055415D01*
X175677989Y-94060716D01*
X175729641Y-94056902D01*
X175769797Y-94046537D01*
X175800811Y-94030736D01*
X175824486Y-94009865D01*
X175848625Y-93973725D01*
X175863503Y-93930968D01*
X175868743Y-93879830D01*
X175865403Y-93833660D01*
X175856024Y-93794928D01*
X175841238Y-93762358D01*
X175821213Y-93734945D01*
X175795756Y-93712285D01*
X175766350Y-93696041D01*
X175732216Y-93685969D01*
X175692253Y-93682433D01*
X175647374Y-93687178D01*
X175609648Y-93700702D01*
X175577545Y-93722766D01*
X175550152Y-93754240D01*
X175530115Y-93790603D01*
X175514707Y-93835820D01*
X175504625Y-93891696D01*
X175500962Y-93960332D01*
X175397980Y-93960332D01*
X175400919Y-93899569D01*
X175411527Y-93833628D01*
X175427915Y-93778630D01*
X175449377Y-93732938D01*
X175475561Y-93695182D01*
X175508981Y-93661573D01*
X175546542Y-93635638D01*
X175588811Y-93616861D01*
X175636643Y-93605212D01*
X175691129Y-93601149D01*
X175749908Y-93606334D01*
G37*
G36*
X167803117Y-113315631D02*
G01*
X167877343Y-113310688D01*
X167942092Y-113296590D01*
X167998802Y-113274070D01*
X168048650Y-113243346D01*
X168092496Y-113204110D01*
X168128589Y-113158253D01*
X168157358Y-113105123D01*
X168178771Y-113043624D01*
X168192336Y-112972366D01*
X168197130Y-112889720D01*
X168192337Y-112809027D01*
X168178706Y-112738703D01*
X168157055Y-112677283D01*
X168127780Y-112623524D01*
X168090836Y-112576454D01*
X168046165Y-112535967D01*
X167995934Y-112504438D01*
X167939356Y-112481458D01*
X167875338Y-112467147D01*
X167802531Y-112462149D01*
X167738842Y-112466457D01*
X167672665Y-112479699D01*
X167603383Y-112502575D01*
X167530396Y-112536057D01*
X167530396Y-112655980D01*
X167538065Y-112655980D01*
X167592170Y-112616316D01*
X167645897Y-112586619D01*
X167699630Y-112565969D01*
X167753842Y-112553752D01*
X167809077Y-112549685D01*
X167860658Y-112553554D01*
X167906168Y-112564672D01*
X167946604Y-112582638D01*
X167982749Y-112607513D01*
X168015120Y-112639811D01*
X168046870Y-112686460D01*
X168070542Y-112742417D01*
X168085669Y-112809503D01*
X168091080Y-112889965D01*
X168085592Y-112969757D01*
X168070230Y-113036374D01*
X168046145Y-113092042D01*
X168013752Y-113138555D01*
X167980850Y-113170730D01*
X167944430Y-113195466D01*
X167904003Y-113213287D01*
X167858838Y-113224280D01*
X167808002Y-113228094D01*
X167739888Y-113222627D01*
X167675769Y-113206454D01*
X167635489Y-113188983D01*
X167589897Y-113161467D01*
X167538065Y-113121800D01*
X167530396Y-113121800D01*
X167530396Y-113241235D01*
X167630469Y-113283978D01*
X167693550Y-113303126D01*
X167751056Y-113312621D01*
X167803117Y-113315631D01*
G37*
G36*
X167412182Y-113263852D02*
G01*
X167412182Y-113153063D01*
X167403438Y-113153063D01*
X167345895Y-113186683D01*
X167288843Y-113209906D01*
X167231737Y-113223566D01*
X167173948Y-113228094D01*
X167130497Y-113224812D01*
X167093328Y-113215505D01*
X167061372Y-113200661D01*
X167033801Y-113180321D01*
X167011191Y-113154755D01*
X166994858Y-113124730D01*
X166984652Y-113089357D01*
X166981045Y-113047404D01*
X166984335Y-113008034D01*
X166993436Y-112976471D01*
X167007655Y-112951152D01*
X167026963Y-112930949D01*
X167059868Y-112911781D01*
X167107722Y-112898632D01*
X167175609Y-112893579D01*
X167223676Y-112893579D01*
X167223676Y-112812295D01*
X167186502Y-112812295D01*
X167128529Y-112807589D01*
X167083145Y-112794721D01*
X167047723Y-112774877D01*
X167025739Y-112754282D01*
X167010250Y-112730372D01*
X167000741Y-112702495D01*
X166997409Y-112669609D01*
X167002500Y-112633519D01*
X167017026Y-112604532D01*
X167041422Y-112580900D01*
X167072283Y-112564380D01*
X167111876Y-112553626D01*
X167162468Y-112549685D01*
X167216411Y-112553951D01*
X167270701Y-112566923D01*
X167325943Y-112589158D01*
X167382678Y-112621591D01*
X167388686Y-112621591D01*
X167388686Y-112514026D01*
X167313702Y-112485061D01*
X167237624Y-112467880D01*
X167159684Y-112462149D01*
X167095113Y-112466002D01*
X167041973Y-112476684D01*
X166998374Y-112493186D01*
X166962727Y-112514954D01*
X166932018Y-112543929D01*
X166910576Y-112576775D01*
X166897545Y-112614273D01*
X166893020Y-112657690D01*
X166898138Y-112700015D01*
X166913377Y-112739028D01*
X166939475Y-112775806D01*
X166973051Y-112806241D01*
X167011540Y-112828121D01*
X167055881Y-112841849D01*
X167055881Y-112850300D01*
X166997919Y-112866162D01*
X166953678Y-112889210D01*
X166920454Y-112918875D01*
X166896560Y-112955652D01*
X166881515Y-113001032D01*
X166876118Y-113057320D01*
X166881450Y-113112179D01*
X166896895Y-113160595D01*
X166922343Y-113203902D01*
X166958623Y-113242993D01*
X167001717Y-113274115D01*
X167050728Y-113296677D01*
X167106755Y-113310716D01*
X167171212Y-113315631D01*
X167252832Y-113309917D01*
X167332914Y-113292768D01*
X167412182Y-113263852D01*
G37*
G36*
X166410475Y-112467679D02*
G01*
X166477051Y-112483420D01*
X166534916Y-112508570D01*
X166585406Y-112543000D01*
X166629433Y-112587250D01*
X166664752Y-112637915D01*
X166693212Y-112696962D01*
X166714568Y-112765670D01*
X166728171Y-112845583D01*
X166732992Y-112938471D01*
X166729303Y-113014554D01*
X166718969Y-113079144D01*
X166702890Y-113133834D01*
X166681687Y-113180029D01*
X166655665Y-113218911D01*
X166622551Y-113253472D01*
X166585071Y-113280129D01*
X166542633Y-113299438D01*
X166494324Y-113311437D01*
X166438972Y-113315631D01*
X166380180Y-113310459D01*
X166327827Y-113295473D01*
X166280685Y-113270899D01*
X166237863Y-113236203D01*
X166202646Y-113194004D01*
X166177620Y-113146909D01*
X166162287Y-113093939D01*
X166157297Y-113037438D01*
X166261359Y-113037438D01*
X166264688Y-113084148D01*
X166274006Y-113123043D01*
X166288630Y-113155477D01*
X166308351Y-113182519D01*
X166333479Y-113204782D01*
X166362825Y-113220823D01*
X166397226Y-113230821D01*
X166437849Y-113234347D01*
X166481027Y-113229732D01*
X166518032Y-113216467D01*
X166550204Y-113194644D01*
X166578337Y-113163321D01*
X166599165Y-113127160D01*
X166615060Y-113082653D01*
X166625399Y-113028129D01*
X166629140Y-112961625D01*
X166626942Y-112907306D01*
X166568653Y-112880192D01*
X166510823Y-112864396D01*
X166452650Y-112859190D01*
X166400663Y-112862988D01*
X166360330Y-112873295D01*
X166329260Y-112888980D01*
X166305616Y-112909651D01*
X166281410Y-112945513D01*
X166266565Y-112987554D01*
X166261359Y-113037438D01*
X166157297Y-113037438D01*
X166156969Y-113033726D01*
X166162146Y-112972601D01*
X166176692Y-112921830D01*
X166199792Y-112879452D01*
X166231561Y-112844047D01*
X166270528Y-112815779D01*
X166315152Y-112795230D01*
X166366484Y-112782407D01*
X166425881Y-112777906D01*
X166473487Y-112781380D01*
X166522545Y-112792035D01*
X166573554Y-112810423D01*
X166626990Y-112837355D01*
X166616436Y-112769892D01*
X166598512Y-112713203D01*
X166573910Y-112665613D01*
X166542824Y-112625792D01*
X166504424Y-112592979D01*
X166460293Y-112569418D01*
X166409311Y-112554809D01*
X166349921Y-112549685D01*
X166309589Y-112552279D01*
X166274120Y-112559697D01*
X166242796Y-112571570D01*
X166236251Y-112571570D01*
X166236251Y-112475191D01*
X166278086Y-112465704D01*
X166333508Y-112462149D01*
X166410475Y-112467679D01*
G37*
G36*
X178903677Y-113997000D02*
G01*
X178802023Y-113997000D01*
X178802023Y-113665611D01*
X178634277Y-113665611D01*
X178363216Y-113997000D01*
X178230397Y-113997000D01*
X178530962Y-113636741D01*
X178477784Y-113609494D01*
X178436469Y-113577713D01*
X178405213Y-113541426D01*
X178382884Y-113500125D01*
X178369105Y-113452820D01*
X178364631Y-113401975D01*
X178470879Y-113401975D01*
X178474343Y-113444812D01*
X178484024Y-113480061D01*
X178499279Y-113509148D01*
X178520069Y-113533133D01*
X178545546Y-113551140D01*
X178579549Y-113565186D01*
X178624264Y-113574582D01*
X178682344Y-113578074D01*
X178802023Y-113578074D01*
X178802023Y-113262317D01*
X178663782Y-113262317D01*
X178596936Y-113267445D01*
X178548525Y-113280980D01*
X178514137Y-113301023D01*
X178490538Y-113327039D01*
X178476059Y-113359953D01*
X178470879Y-113401975D01*
X178364631Y-113401975D01*
X178364291Y-113398116D01*
X178368935Y-113349305D01*
X178382296Y-113306847D01*
X178404142Y-113269474D01*
X178435073Y-113236330D01*
X178471491Y-113211840D01*
X178520534Y-113192578D01*
X178585494Y-113179615D01*
X178670327Y-113174780D01*
X178903677Y-113174780D01*
X178903677Y-113997000D01*
G37*
G36*
X177609776Y-113997000D02*
G01*
X178160641Y-113997000D01*
X178160641Y-113890852D01*
X177964172Y-113715974D01*
X177892817Y-113647151D01*
X177839869Y-113589150D01*
X177802142Y-113540510D01*
X177771797Y-113488119D01*
X177754634Y-113437980D01*
X177749092Y-113389030D01*
X177754361Y-113346383D01*
X177769237Y-113312148D01*
X177793642Y-113284348D01*
X177825350Y-113264136D01*
X177864989Y-113251312D01*
X177914689Y-113246685D01*
X177969232Y-113250980D01*
X178023735Y-113264000D01*
X178078796Y-113286243D01*
X178134947Y-113318591D01*
X178140418Y-113318591D01*
X178140418Y-113211759D01*
X178065404Y-113182356D01*
X177989509Y-113164948D01*
X177911953Y-113159149D01*
X177849437Y-113163407D01*
X177796962Y-113175351D01*
X177752858Y-113194115D01*
X177715777Y-113219379D01*
X177684682Y-113251901D01*
X177662574Y-113289377D01*
X177648941Y-113332794D01*
X177644165Y-113383608D01*
X177648779Y-113438173D01*
X177662484Y-113489903D01*
X177685440Y-113539057D01*
X177719588Y-113588528D01*
X177760903Y-113636529D01*
X177812498Y-113690426D01*
X177884539Y-113756971D01*
X178061137Y-113909463D01*
X177609776Y-113909463D01*
X177609776Y-113997000D01*
G37*
G36*
X176914172Y-113997000D02*
G01*
X177465038Y-113997000D01*
X177465038Y-113890852D01*
X177268569Y-113715974D01*
X177197213Y-113647151D01*
X177144265Y-113589150D01*
X177106538Y-113540510D01*
X177076193Y-113488119D01*
X177059031Y-113437980D01*
X177053489Y-113389030D01*
X177058758Y-113346383D01*
X177073634Y-113312148D01*
X177098038Y-113284348D01*
X177129746Y-113264136D01*
X177169386Y-113251312D01*
X177219085Y-113246685D01*
X177273629Y-113250980D01*
X177328131Y-113264000D01*
X177383192Y-113286243D01*
X177439343Y-113318591D01*
X177444814Y-113318591D01*
X177444814Y-113211759D01*
X177369800Y-113182356D01*
X177293905Y-113164948D01*
X177216350Y-113159149D01*
X177153833Y-113163407D01*
X177101358Y-113175351D01*
X177057255Y-113194115D01*
X177020174Y-113219379D01*
X176989079Y-113251901D01*
X176966971Y-113289377D01*
X176953338Y-113332794D01*
X176948562Y-113383608D01*
X176953175Y-113438173D01*
X176966880Y-113489903D01*
X176989836Y-113539057D01*
X177023984Y-113588528D01*
X177065299Y-113636529D01*
X177116894Y-113690426D01*
X177188936Y-113756971D01*
X177365533Y-113909463D01*
X176914172Y-113909463D01*
X176914172Y-113997000D01*
G37*
G36*
X167803117Y-114458631D02*
G01*
X167877343Y-114453688D01*
X167942092Y-114439590D01*
X167998802Y-114417070D01*
X168048650Y-114386346D01*
X168092496Y-114347110D01*
X168128589Y-114301253D01*
X168157358Y-114248123D01*
X168178771Y-114186624D01*
X168192336Y-114115366D01*
X168197130Y-114032720D01*
X168192337Y-113952027D01*
X168178706Y-113881703D01*
X168157055Y-113820283D01*
X168127780Y-113766524D01*
X168090836Y-113719454D01*
X168046165Y-113678967D01*
X167995934Y-113647438D01*
X167939356Y-113624458D01*
X167875338Y-113610147D01*
X167802531Y-113605149D01*
X167738842Y-113609457D01*
X167672665Y-113622699D01*
X167603383Y-113645575D01*
X167530396Y-113679057D01*
X167530396Y-113798980D01*
X167538065Y-113798980D01*
X167592170Y-113759316D01*
X167645897Y-113729619D01*
X167699630Y-113708969D01*
X167753842Y-113696752D01*
X167809077Y-113692685D01*
X167860658Y-113696554D01*
X167906168Y-113707672D01*
X167946604Y-113725638D01*
X167982749Y-113750513D01*
X168015120Y-113782811D01*
X168046870Y-113829460D01*
X168070542Y-113885417D01*
X168085669Y-113952503D01*
X168091080Y-114032965D01*
X168085592Y-114112757D01*
X168070230Y-114179374D01*
X168046145Y-114235042D01*
X168013752Y-114281555D01*
X167980850Y-114313730D01*
X167944430Y-114338466D01*
X167904003Y-114356287D01*
X167858838Y-114367280D01*
X167808002Y-114371094D01*
X167739888Y-114365627D01*
X167675769Y-114349454D01*
X167635489Y-114331983D01*
X167589897Y-114304467D01*
X167538065Y-114264800D01*
X167530396Y-114264800D01*
X167530396Y-114384235D01*
X167630469Y-114426978D01*
X167693550Y-114446126D01*
X167751056Y-114455621D01*
X167803117Y-114458631D01*
G37*
G36*
X167412182Y-114406852D02*
G01*
X167412182Y-114296063D01*
X167403438Y-114296063D01*
X167345895Y-114329683D01*
X167288843Y-114352906D01*
X167231737Y-114366566D01*
X167173948Y-114371094D01*
X167130497Y-114367812D01*
X167093328Y-114358505D01*
X167061372Y-114343661D01*
X167033801Y-114323321D01*
X167011191Y-114297755D01*
X166994858Y-114267730D01*
X166984652Y-114232357D01*
X166981045Y-114190404D01*
X166984335Y-114151034D01*
X166993436Y-114119471D01*
X167007655Y-114094152D01*
X167026963Y-114073949D01*
X167059868Y-114054781D01*
X167107722Y-114041632D01*
X167175609Y-114036579D01*
X167223676Y-114036579D01*
X167223676Y-113955295D01*
X167186502Y-113955295D01*
X167128529Y-113950589D01*
X167083145Y-113937721D01*
X167047723Y-113917877D01*
X167025739Y-113897282D01*
X167010250Y-113873372D01*
X167000741Y-113845495D01*
X166997409Y-113812609D01*
X167002500Y-113776519D01*
X167017026Y-113747532D01*
X167041422Y-113723900D01*
X167072283Y-113707380D01*
X167111876Y-113696626D01*
X167162468Y-113692685D01*
X167216411Y-113696951D01*
X167270701Y-113709923D01*
X167325943Y-113732158D01*
X167382678Y-113764591D01*
X167388686Y-113764591D01*
X167388686Y-113657026D01*
X167313702Y-113628061D01*
X167237624Y-113610880D01*
X167159684Y-113605149D01*
X167095113Y-113609002D01*
X167041973Y-113619684D01*
X166998374Y-113636186D01*
X166962727Y-113657954D01*
X166932018Y-113686929D01*
X166910576Y-113719775D01*
X166897545Y-113757273D01*
X166893020Y-113800690D01*
X166898138Y-113843015D01*
X166913377Y-113882028D01*
X166939475Y-113918806D01*
X166973051Y-113949241D01*
X167011540Y-113971121D01*
X167055881Y-113984849D01*
X167055881Y-113993300D01*
X166997919Y-114009162D01*
X166953678Y-114032210D01*
X166920454Y-114061875D01*
X166896560Y-114098652D01*
X166881515Y-114144032D01*
X166876118Y-114200320D01*
X166881450Y-114255179D01*
X166896895Y-114303595D01*
X166922343Y-114346902D01*
X166958623Y-114385993D01*
X167001717Y-114417115D01*
X167050728Y-114439677D01*
X167106755Y-114453716D01*
X167171212Y-114458631D01*
X167252832Y-114452917D01*
X167332914Y-114435768D01*
X167412182Y-114406852D01*
G37*
G36*
X166705685Y-114410857D02*
G01*
X166705685Y-114302316D01*
X166696942Y-114302316D01*
X166641859Y-114332994D01*
X166586857Y-114354307D01*
X166531448Y-114366905D01*
X166475071Y-114371094D01*
X166431203Y-114367660D01*
X166393631Y-114357905D01*
X166361262Y-114342301D01*
X166333264Y-114320829D01*
X166310478Y-114294068D01*
X166293964Y-114262661D01*
X166283626Y-114225691D01*
X166279970Y-114181904D01*
X166284395Y-114139654D01*
X166296802Y-114105449D01*
X166316760Y-114077508D01*
X166345014Y-114054793D01*
X166383379Y-114037153D01*
X166434538Y-114025348D01*
X166501840Y-114020948D01*
X166569994Y-114025705D01*
X166670173Y-114042832D01*
X166670173Y-113620780D01*
X166181052Y-113620780D01*
X166181052Y-113708317D01*
X166571792Y-113708317D01*
X166571792Y-113940543D01*
X166474534Y-113933411D01*
X166399932Y-113938082D01*
X166339484Y-113950951D01*
X166290703Y-113970732D01*
X166251540Y-113996768D01*
X166219103Y-114030962D01*
X166195610Y-114072067D01*
X166180840Y-114121499D01*
X166175581Y-114181269D01*
X166180990Y-114241057D01*
X166196570Y-114293411D01*
X166222001Y-114339760D01*
X166257842Y-114381108D01*
X166301065Y-114414380D01*
X166350466Y-114438433D01*
X166407219Y-114453389D01*
X166472873Y-114458631D01*
X166557787Y-114453092D01*
X166635016Y-114437012D01*
X166705685Y-114410857D01*
G37*
G36*
X168016131Y-90681882D02*
G01*
X168011188Y-90607656D01*
X167997090Y-90542907D01*
X167974570Y-90486197D01*
X167943846Y-90436349D01*
X167904610Y-90392503D01*
X167858753Y-90356410D01*
X167805623Y-90327641D01*
X167744124Y-90306228D01*
X167672866Y-90292663D01*
X167590220Y-90287869D01*
X167509527Y-90292662D01*
X167439203Y-90306293D01*
X167377783Y-90327944D01*
X167324024Y-90357219D01*
X167276954Y-90394163D01*
X167236467Y-90438834D01*
X167204938Y-90489065D01*
X167181958Y-90545643D01*
X167167647Y-90609661D01*
X167162649Y-90682468D01*
X167166957Y-90746157D01*
X167180199Y-90812334D01*
X167203075Y-90881616D01*
X167236557Y-90954603D01*
X167356480Y-90954603D01*
X167356480Y-90946934D01*
X167316816Y-90892829D01*
X167287119Y-90839102D01*
X167266469Y-90785369D01*
X167254252Y-90731157D01*
X167250185Y-90675922D01*
X167254054Y-90624341D01*
X167265172Y-90578831D01*
X167283138Y-90538395D01*
X167308013Y-90502250D01*
X167340311Y-90469879D01*
X167386960Y-90438129D01*
X167442917Y-90414457D01*
X167510003Y-90399330D01*
X167590465Y-90393919D01*
X167670257Y-90399407D01*
X167736874Y-90414769D01*
X167792542Y-90438854D01*
X167839055Y-90471247D01*
X167871230Y-90504149D01*
X167895966Y-90540569D01*
X167913787Y-90580996D01*
X167924780Y-90626161D01*
X167928594Y-90676997D01*
X167923127Y-90745111D01*
X167906954Y-90809230D01*
X167889483Y-90849510D01*
X167861967Y-90895102D01*
X167822300Y-90946934D01*
X167822300Y-90954603D01*
X167941735Y-90954603D01*
X167984478Y-90854530D01*
X168003626Y-90791449D01*
X168013121Y-90733943D01*
X168016131Y-90681882D01*
G37*
G36*
X168000500Y-91620360D02*
G01*
X168000500Y-91069495D01*
X167894352Y-91069495D01*
X167719474Y-91265964D01*
X167650651Y-91337319D01*
X167592650Y-91390268D01*
X167544010Y-91427995D01*
X167491619Y-91458339D01*
X167441480Y-91475502D01*
X167392530Y-91481044D01*
X167349883Y-91475775D01*
X167315648Y-91460899D01*
X167287848Y-91436494D01*
X167267636Y-91404787D01*
X167254812Y-91365147D01*
X167250185Y-91315448D01*
X167254480Y-91260904D01*
X167267500Y-91206402D01*
X167289743Y-91151340D01*
X167322091Y-91095189D01*
X167322091Y-91089718D01*
X167215259Y-91089718D01*
X167185856Y-91164733D01*
X167168448Y-91240627D01*
X167162649Y-91318183D01*
X167166907Y-91380699D01*
X167178851Y-91433174D01*
X167197615Y-91477278D01*
X167222879Y-91514359D01*
X167255401Y-91545454D01*
X167292877Y-91567562D01*
X167336294Y-91581195D01*
X167387108Y-91585971D01*
X167441673Y-91581357D01*
X167493403Y-91567653D01*
X167542557Y-91544696D01*
X167592028Y-91510549D01*
X167640029Y-91469234D01*
X167693926Y-91417639D01*
X167760471Y-91345597D01*
X167912963Y-91169000D01*
X167912963Y-91620360D01*
X168000500Y-91620360D01*
G37*
G36*
X168000500Y-92268972D02*
G01*
X168000500Y-91830702D01*
X167925468Y-91830702D01*
X167925468Y-92002307D01*
X167359606Y-92002307D01*
X167359606Y-91830702D01*
X167293954Y-91830702D01*
X167289663Y-91897908D01*
X167279374Y-91943990D01*
X167265084Y-91974415D01*
X167243131Y-91998519D01*
X167213852Y-92014747D01*
X167175154Y-92023068D01*
X167175154Y-92100688D01*
X167925468Y-92100688D01*
X167925468Y-92268972D01*
X168000500Y-92268972D01*
G37*
G36*
X172712117Y-95466631D02*
G01*
X172786343Y-95461688D01*
X172851092Y-95447590D01*
X172907802Y-95425070D01*
X172957650Y-95394346D01*
X173001496Y-95355110D01*
X173037589Y-95309253D01*
X173066358Y-95256123D01*
X173087771Y-95194624D01*
X173101336Y-95123366D01*
X173106130Y-95040720D01*
X173101337Y-94960027D01*
X173087706Y-94889703D01*
X173066055Y-94828283D01*
X173036780Y-94774524D01*
X172999836Y-94727454D01*
X172955165Y-94686967D01*
X172904934Y-94655438D01*
X172848356Y-94632458D01*
X172784338Y-94618147D01*
X172711531Y-94613149D01*
X172647842Y-94617457D01*
X172581665Y-94630699D01*
X172512383Y-94653575D01*
X172439396Y-94687057D01*
X172439396Y-94806980D01*
X172447065Y-94806980D01*
X172501170Y-94767316D01*
X172554897Y-94737619D01*
X172608630Y-94716969D01*
X172662842Y-94704752D01*
X172718077Y-94700685D01*
X172769658Y-94704554D01*
X172815168Y-94715672D01*
X172855604Y-94733638D01*
X172891749Y-94758513D01*
X172924120Y-94790811D01*
X172955870Y-94837460D01*
X172979542Y-94893417D01*
X172994669Y-94960503D01*
X173000080Y-95040965D01*
X172994592Y-95120757D01*
X172979230Y-95187374D01*
X172955145Y-95243042D01*
X172922752Y-95289555D01*
X172889850Y-95321730D01*
X172853430Y-95346466D01*
X172813003Y-95364287D01*
X172767838Y-95375280D01*
X172717002Y-95379094D01*
X172648888Y-95373627D01*
X172584769Y-95357454D01*
X172544489Y-95339983D01*
X172498897Y-95312467D01*
X172447065Y-95272800D01*
X172439396Y-95272800D01*
X172439396Y-95392235D01*
X172539469Y-95434978D01*
X172602550Y-95454126D01*
X172660056Y-95463621D01*
X172712117Y-95466631D01*
G37*
G36*
X171820631Y-95451000D02*
G01*
X172258900Y-95451000D01*
X172258900Y-95375968D01*
X172087295Y-95375968D01*
X172087295Y-94810106D01*
X172258900Y-94810106D01*
X172258900Y-94744454D01*
X172191695Y-94740163D01*
X172145613Y-94729874D01*
X172115188Y-94715584D01*
X172091084Y-94693631D01*
X172074856Y-94664352D01*
X172066535Y-94625654D01*
X171988914Y-94625654D01*
X171988914Y-95375968D01*
X171820631Y-95375968D01*
X171820631Y-95451000D01*
G37*
G36*
X171431908Y-94618334D02*
G01*
X171484255Y-94633361D01*
X171531402Y-94658009D01*
X171574239Y-94692821D01*
X171609445Y-94735112D01*
X171634473Y-94782324D01*
X171649811Y-94835442D01*
X171655132Y-94895836D01*
X171650182Y-94955140D01*
X171636161Y-95005402D01*
X171613728Y-95048276D01*
X171582739Y-95084977D01*
X171544675Y-95114309D01*
X171500055Y-95135745D01*
X171447609Y-95149228D01*
X171385683Y-95154000D01*
X171341460Y-95150459D01*
X171293692Y-95139352D01*
X171241644Y-95119697D01*
X171184574Y-95090204D01*
X171195855Y-95164476D01*
X171214382Y-95224298D01*
X171239122Y-95272146D01*
X171269636Y-95310015D01*
X171306121Y-95339315D01*
X171349395Y-95360754D01*
X171400816Y-95374285D01*
X171462180Y-95379094D01*
X171502512Y-95376501D01*
X171537982Y-95369083D01*
X171569305Y-95357210D01*
X171575851Y-95357210D01*
X171575851Y-95454028D01*
X171533179Y-95463233D01*
X171478593Y-95466631D01*
X171401358Y-95461101D01*
X171334641Y-95445374D01*
X171276744Y-95420266D01*
X171226314Y-95385925D01*
X171182424Y-95341823D01*
X171147221Y-95291279D01*
X171118834Y-95232280D01*
X171097516Y-95163533D01*
X171083928Y-95083473D01*
X171079110Y-94990309D01*
X171079980Y-94972332D01*
X171182962Y-94972332D01*
X171184574Y-95021327D01*
X171247341Y-95050814D01*
X171305450Y-95067415D01*
X171359989Y-95072716D01*
X171411641Y-95068902D01*
X171451797Y-95058537D01*
X171482811Y-95042736D01*
X171506486Y-95021865D01*
X171530625Y-94985725D01*
X171545503Y-94942968D01*
X171550743Y-94891830D01*
X171547403Y-94845660D01*
X171538024Y-94806928D01*
X171523238Y-94774358D01*
X171503213Y-94746945D01*
X171477756Y-94724285D01*
X171448350Y-94708041D01*
X171414216Y-94697969D01*
X171374253Y-94694433D01*
X171329374Y-94699178D01*
X171291648Y-94712702D01*
X171259545Y-94734766D01*
X171232152Y-94766240D01*
X171212115Y-94802603D01*
X171196707Y-94847820D01*
X171186625Y-94903696D01*
X171182962Y-94972332D01*
X171079980Y-94972332D01*
X171082919Y-94911569D01*
X171093527Y-94845628D01*
X171109915Y-94790630D01*
X171131377Y-94744938D01*
X171157561Y-94707182D01*
X171190981Y-94673573D01*
X171228542Y-94647638D01*
X171270811Y-94628861D01*
X171318643Y-94617212D01*
X171373129Y-94613149D01*
X171431908Y-94618334D01*
G37*
G36*
X177379677Y-93423000D02*
G01*
X177278023Y-93423000D01*
X177278023Y-93091611D01*
X177110277Y-93091611D01*
X176839216Y-93423000D01*
X176706397Y-93423000D01*
X177006962Y-93062741D01*
X176953784Y-93035494D01*
X176912469Y-93003713D01*
X176881213Y-92967426D01*
X176858884Y-92926125D01*
X176845105Y-92878820D01*
X176840631Y-92827975D01*
X176946879Y-92827975D01*
X176950343Y-92870812D01*
X176960024Y-92906061D01*
X176975279Y-92935148D01*
X176996069Y-92959133D01*
X177021546Y-92977140D01*
X177055549Y-92991186D01*
X177100264Y-93000582D01*
X177158344Y-93004074D01*
X177278023Y-93004074D01*
X177278023Y-92688317D01*
X177139782Y-92688317D01*
X177072936Y-92693445D01*
X177024525Y-92706980D01*
X176990137Y-92727023D01*
X176966538Y-92753039D01*
X176952059Y-92785953D01*
X176946879Y-92827975D01*
X176840631Y-92827975D01*
X176840291Y-92824116D01*
X176844935Y-92775305D01*
X176858296Y-92732847D01*
X176880142Y-92695474D01*
X176911073Y-92662330D01*
X176947491Y-92637840D01*
X176996534Y-92618578D01*
X177061494Y-92605615D01*
X177146327Y-92600780D01*
X177379677Y-92600780D01*
X177379677Y-93423000D01*
G37*
G36*
X176682510Y-93070362D02*
G01*
X176682510Y-93185400D01*
X176286299Y-93185400D01*
X176286299Y-93423000D01*
X176187967Y-93423000D01*
X176187967Y-93185400D01*
X176067165Y-93185400D01*
X176067165Y-93104116D01*
X176187967Y-93104116D01*
X176286299Y-93104116D01*
X176613683Y-93104116D01*
X176286299Y-92720508D01*
X176286299Y-93104116D01*
X176187967Y-93104116D01*
X176187967Y-92600780D01*
X176281952Y-92600780D01*
X176682510Y-93070362D01*
G37*
G36*
X175730260Y-92589757D02*
G01*
X175779030Y-92602789D01*
X175820549Y-92623563D01*
X175856000Y-92652106D01*
X175886083Y-92689147D01*
X175913285Y-92741306D01*
X175934830Y-92809888D01*
X175949302Y-92898774D01*
X175954666Y-93012427D01*
X175949315Y-93126161D01*
X175934889Y-93214960D01*
X175913434Y-93283339D01*
X175886376Y-93335219D01*
X175856422Y-93371988D01*
X175821026Y-93400362D01*
X175779469Y-93421042D01*
X175730546Y-93434033D01*
X175672664Y-93438631D01*
X175615062Y-93434032D01*
X175566330Y-93421031D01*
X175524886Y-93400317D01*
X175489541Y-93371872D01*
X175459586Y-93334974D01*
X175432511Y-93282956D01*
X175411040Y-93214398D01*
X175396602Y-93125371D01*
X175391247Y-93011353D01*
X175495636Y-93011353D01*
X175499210Y-93116108D01*
X175508528Y-93192422D01*
X175521751Y-93246280D01*
X175537451Y-93282902D01*
X175561585Y-93315474D01*
X175591325Y-93338272D01*
X175627712Y-93352346D01*
X175672664Y-93357347D01*
X175717642Y-93352349D01*
X175754102Y-93338278D01*
X175783950Y-93315478D01*
X175808218Y-93282902D01*
X175824032Y-93246263D01*
X175837329Y-93192530D01*
X175846690Y-93116553D01*
X175850277Y-93012427D01*
X175846677Y-92907353D01*
X175837296Y-92830941D01*
X175823997Y-92777129D01*
X175808218Y-92740634D01*
X175783965Y-92708180D01*
X175754125Y-92685452D01*
X175717660Y-92671419D01*
X175672664Y-92666433D01*
X175627502Y-92671521D01*
X175591016Y-92685838D01*
X175561246Y-92709054D01*
X175537158Y-92742295D01*
X175521469Y-92779562D01*
X175508343Y-92833484D01*
X175499147Y-92908904D01*
X175495636Y-93011353D01*
X175391247Y-93011353D01*
X175396613Y-92898653D01*
X175411114Y-92810226D01*
X175432747Y-92741728D01*
X175460124Y-92689392D01*
X175490325Y-92652189D01*
X175525773Y-92623566D01*
X175567147Y-92602771D01*
X175615598Y-92589748D01*
X175672664Y-92585149D01*
X175730260Y-92589757D01*
G37*
G36*
X177379677Y-96471000D02*
G01*
X177278023Y-96471000D01*
X177278023Y-96139611D01*
X177110277Y-96139611D01*
X176839216Y-96471000D01*
X176706397Y-96471000D01*
X177006962Y-96110741D01*
X176953784Y-96083494D01*
X176912469Y-96051713D01*
X176881213Y-96015426D01*
X176858884Y-95974125D01*
X176845105Y-95926820D01*
X176840631Y-95875975D01*
X176946879Y-95875975D01*
X176950343Y-95918812D01*
X176960024Y-95954061D01*
X176975279Y-95983148D01*
X176996069Y-96007133D01*
X177021546Y-96025140D01*
X177055549Y-96039186D01*
X177100264Y-96048582D01*
X177158344Y-96052074D01*
X177278023Y-96052074D01*
X177278023Y-95736317D01*
X177139782Y-95736317D01*
X177072936Y-95741445D01*
X177024525Y-95754980D01*
X176990137Y-95775023D01*
X176966538Y-95801039D01*
X176952059Y-95833953D01*
X176946879Y-95875975D01*
X176840631Y-95875975D01*
X176840291Y-95872116D01*
X176844935Y-95823305D01*
X176858296Y-95780847D01*
X176880142Y-95743474D01*
X176911073Y-95710330D01*
X176947491Y-95685840D01*
X176996534Y-95666578D01*
X177061494Y-95653615D01*
X177146327Y-95648780D01*
X177379677Y-95648780D01*
X177379677Y-96471000D01*
G37*
G36*
X176682510Y-96118362D02*
G01*
X176682510Y-96233400D01*
X176286299Y-96233400D01*
X176286299Y-96471000D01*
X176187967Y-96471000D01*
X176187967Y-96233400D01*
X176067165Y-96233400D01*
X176067165Y-96152116D01*
X176187967Y-96152116D01*
X176286299Y-96152116D01*
X176613683Y-96152116D01*
X176286299Y-95768508D01*
X176286299Y-96152116D01*
X176187967Y-96152116D01*
X176187967Y-95648780D01*
X176281952Y-95648780D01*
X176682510Y-96118362D01*
G37*
G36*
X175437165Y-96471000D02*
G01*
X175875434Y-96471000D01*
X175875434Y-96395968D01*
X175703829Y-96395968D01*
X175703829Y-95830106D01*
X175875434Y-95830106D01*
X175875434Y-95764454D01*
X175808229Y-95760163D01*
X175762146Y-95749874D01*
X175731722Y-95735584D01*
X175707618Y-95713631D01*
X175691389Y-95684352D01*
X175683068Y-95645654D01*
X175605448Y-95645654D01*
X175605448Y-96395968D01*
X175437165Y-96395968D01*
X175437165Y-96471000D01*
G37*
G36*
X163669631Y-90685882D02*
G01*
X163664688Y-90611656D01*
X163650590Y-90546907D01*
X163628070Y-90490197D01*
X163597346Y-90440349D01*
X163558110Y-90396503D01*
X163512253Y-90360410D01*
X163459123Y-90331641D01*
X163397624Y-90310228D01*
X163326366Y-90296663D01*
X163243720Y-90291869D01*
X163163027Y-90296662D01*
X163092703Y-90310293D01*
X163031283Y-90331944D01*
X162977524Y-90361219D01*
X162930454Y-90398163D01*
X162889967Y-90442834D01*
X162858438Y-90493065D01*
X162835458Y-90549643D01*
X162821147Y-90613661D01*
X162816149Y-90686468D01*
X162820457Y-90750157D01*
X162833699Y-90816334D01*
X162856575Y-90885616D01*
X162890057Y-90958603D01*
X163009980Y-90958603D01*
X163009980Y-90950934D01*
X162970316Y-90896829D01*
X162940619Y-90843102D01*
X162919969Y-90789369D01*
X162907752Y-90735157D01*
X162903685Y-90679922D01*
X162907554Y-90628341D01*
X162918672Y-90582831D01*
X162936638Y-90542395D01*
X162961513Y-90506250D01*
X162993811Y-90473879D01*
X163040460Y-90442129D01*
X163096417Y-90418457D01*
X163163503Y-90403330D01*
X163243965Y-90397919D01*
X163323757Y-90403407D01*
X163390374Y-90418769D01*
X163446042Y-90442854D01*
X163492555Y-90475247D01*
X163524730Y-90508149D01*
X163549466Y-90544569D01*
X163567287Y-90584996D01*
X163578280Y-90630161D01*
X163582094Y-90680997D01*
X163576627Y-90749111D01*
X163560454Y-90813230D01*
X163542983Y-90853510D01*
X163515467Y-90899102D01*
X163475800Y-90950934D01*
X163475800Y-90958603D01*
X163595235Y-90958603D01*
X163637978Y-90858530D01*
X163657126Y-90795449D01*
X163666621Y-90737943D01*
X163669631Y-90685882D01*
G37*
G36*
X163654000Y-91577368D02*
G01*
X163654000Y-91139099D01*
X163578968Y-91139099D01*
X163578968Y-91310704D01*
X163013106Y-91310704D01*
X163013106Y-91139099D01*
X162947454Y-91139099D01*
X162943163Y-91206304D01*
X162932874Y-91252386D01*
X162918584Y-91282811D01*
X162896631Y-91306915D01*
X162867352Y-91323143D01*
X162828654Y-91331464D01*
X162828654Y-91409085D01*
X163578968Y-91409085D01*
X163578968Y-91577368D01*
X163654000Y-91577368D01*
G37*
G36*
X163416400Y-92119441D02*
G01*
X163654000Y-92119441D01*
X163654000Y-92217773D01*
X163416400Y-92217773D01*
X163416400Y-92338575D01*
X163335116Y-92338575D01*
X163335116Y-92217773D01*
X162831780Y-92217773D01*
X162831780Y-92123788D01*
X162836876Y-92119441D01*
X162951508Y-92119441D01*
X163335116Y-92119441D01*
X163335116Y-91792057D01*
X162951508Y-92119441D01*
X162836876Y-92119441D01*
X163301362Y-91723230D01*
X163416400Y-91723230D01*
X163416400Y-92119441D01*
G37*
G36*
X154002000Y-119393976D02*
G01*
X153670611Y-119393976D01*
X153670611Y-119561722D01*
X154002000Y-119832783D01*
X154002000Y-119965602D01*
X153641741Y-119665037D01*
X153614494Y-119718215D01*
X153582713Y-119759530D01*
X153546426Y-119790786D01*
X153505125Y-119813115D01*
X153457820Y-119826894D01*
X153403116Y-119831708D01*
X153354305Y-119827064D01*
X153311847Y-119813703D01*
X153274474Y-119791857D01*
X153241330Y-119760926D01*
X153216840Y-119724508D01*
X153197578Y-119675465D01*
X153184615Y-119610505D01*
X153180153Y-119532217D01*
X153267317Y-119532217D01*
X153272445Y-119599063D01*
X153285980Y-119647474D01*
X153306023Y-119681862D01*
X153332039Y-119705461D01*
X153364953Y-119719940D01*
X153406975Y-119725120D01*
X153449812Y-119721656D01*
X153485061Y-119711975D01*
X153514148Y-119696720D01*
X153538133Y-119675930D01*
X153556140Y-119650453D01*
X153570186Y-119616450D01*
X153579582Y-119571735D01*
X153583074Y-119513655D01*
X153583074Y-119393976D01*
X153267317Y-119393976D01*
X153267317Y-119532217D01*
X153180153Y-119532217D01*
X153179780Y-119525672D01*
X153179780Y-119292322D01*
X154002000Y-119292322D01*
X154002000Y-119393976D01*
G37*
G36*
X153764400Y-120385700D02*
G01*
X154002000Y-120385700D01*
X154002000Y-120484032D01*
X153764400Y-120484032D01*
X153764400Y-120604834D01*
X153683116Y-120604834D01*
X153683116Y-120484032D01*
X153179780Y-120484032D01*
X153179780Y-120390047D01*
X153184876Y-120385700D01*
X153299508Y-120385700D01*
X153683116Y-120385700D01*
X153683116Y-120058316D01*
X153299508Y-120385700D01*
X153184876Y-120385700D01*
X153649362Y-119989489D01*
X153764400Y-119989489D01*
X153764400Y-120385700D01*
G37*
G36*
X153506140Y-120709679D02*
G01*
X153556402Y-120723701D01*
X153599276Y-120746134D01*
X153635977Y-120777123D01*
X153665309Y-120815187D01*
X153686745Y-120859807D01*
X153700228Y-120912252D01*
X153705000Y-120974178D01*
X153701459Y-121018401D01*
X153690352Y-121066170D01*
X153670697Y-121118218D01*
X153641204Y-121175288D01*
X153715476Y-121164007D01*
X153775298Y-121145479D01*
X153823146Y-121120740D01*
X153861015Y-121090226D01*
X153890315Y-121053740D01*
X153911754Y-121010467D01*
X153925285Y-120959046D01*
X153930094Y-120897681D01*
X153927501Y-120857349D01*
X153920083Y-120821880D01*
X153908210Y-120790557D01*
X153908210Y-120784011D01*
X154005028Y-120784011D01*
X154014233Y-120826682D01*
X154017631Y-120881268D01*
X154012101Y-120958504D01*
X153996374Y-121025221D01*
X153971266Y-121083117D01*
X153936925Y-121133547D01*
X153892823Y-121177437D01*
X153842279Y-121212641D01*
X153783280Y-121241028D01*
X153714533Y-121262346D01*
X153634473Y-121275934D01*
X153541309Y-121280752D01*
X153462569Y-121276942D01*
X153396628Y-121266334D01*
X153341630Y-121249947D01*
X153295938Y-121228485D01*
X153258182Y-121202301D01*
X153224573Y-121168880D01*
X153198638Y-121131320D01*
X153179861Y-121089051D01*
X153168212Y-121041218D01*
X153164149Y-120986732D01*
X153164248Y-120985609D01*
X153245433Y-120985609D01*
X153250178Y-121030488D01*
X153263702Y-121068213D01*
X153285766Y-121100317D01*
X153317240Y-121127709D01*
X153353603Y-121147747D01*
X153398820Y-121163154D01*
X153454696Y-121173237D01*
X153523332Y-121176900D01*
X153572327Y-121175288D01*
X153601814Y-121112521D01*
X153618415Y-121054411D01*
X153623716Y-120999873D01*
X153619902Y-120948221D01*
X153609537Y-120908064D01*
X153593736Y-120877051D01*
X153572865Y-120853376D01*
X153536725Y-120829237D01*
X153493968Y-120814359D01*
X153442830Y-120809119D01*
X153396660Y-120812459D01*
X153357928Y-120821838D01*
X153325358Y-120836624D01*
X153297945Y-120856649D01*
X153275285Y-120882106D01*
X153259041Y-120911512D01*
X153248969Y-120945646D01*
X153245433Y-120985609D01*
X153164248Y-120985609D01*
X153169334Y-120927954D01*
X153184361Y-120875607D01*
X153209009Y-120828460D01*
X153243821Y-120785623D01*
X153286112Y-120750416D01*
X153333324Y-120725389D01*
X153386442Y-120710050D01*
X153446836Y-120704730D01*
X153506140Y-120709679D01*
G37*
G36*
X174694500Y-116312777D02*
G01*
X174363111Y-116312777D01*
X174363111Y-116480523D01*
X174694500Y-116751584D01*
X174694500Y-116884403D01*
X174334241Y-116583838D01*
X174306994Y-116637016D01*
X174275213Y-116678331D01*
X174238926Y-116709587D01*
X174197625Y-116731916D01*
X174150320Y-116745695D01*
X174095616Y-116750509D01*
X174046805Y-116745865D01*
X174004347Y-116732504D01*
X173966974Y-116710658D01*
X173933830Y-116679727D01*
X173909340Y-116643309D01*
X173890078Y-116594266D01*
X173877115Y-116529306D01*
X173872653Y-116451018D01*
X173959817Y-116451018D01*
X173964945Y-116517864D01*
X173978480Y-116566275D01*
X173998523Y-116600663D01*
X174024539Y-116624262D01*
X174057453Y-116638741D01*
X174099475Y-116643921D01*
X174142312Y-116640457D01*
X174177561Y-116630776D01*
X174206648Y-116615521D01*
X174230633Y-116594731D01*
X174248640Y-116569254D01*
X174262686Y-116535251D01*
X174272082Y-116490536D01*
X174275574Y-116432456D01*
X174275574Y-116312777D01*
X173959817Y-116312777D01*
X173959817Y-116451018D01*
X173872653Y-116451018D01*
X173872280Y-116444473D01*
X173872280Y-116211123D01*
X174694500Y-116211123D01*
X174694500Y-116312777D01*
G37*
G36*
X174456900Y-117304501D02*
G01*
X174694500Y-117304501D01*
X174694500Y-117402833D01*
X174456900Y-117402833D01*
X174456900Y-117523635D01*
X174375616Y-117523635D01*
X174375616Y-117402833D01*
X173872280Y-117402833D01*
X173872280Y-117308848D01*
X173877376Y-117304501D01*
X173992008Y-117304501D01*
X174375616Y-117304501D01*
X174375616Y-116977117D01*
X173992008Y-117304501D01*
X173877376Y-117304501D01*
X174341862Y-116908290D01*
X174456900Y-116908290D01*
X174456900Y-117304501D01*
G37*
G36*
X177030117Y-95470631D02*
G01*
X177104343Y-95465688D01*
X177169092Y-95451590D01*
X177225802Y-95429070D01*
X177275650Y-95398346D01*
X177319496Y-95359110D01*
X177355589Y-95313253D01*
X177384358Y-95260123D01*
X177405771Y-95198624D01*
X177419336Y-95127366D01*
X177424130Y-95044720D01*
X177419337Y-94964027D01*
X177405706Y-94893703D01*
X177384055Y-94832283D01*
X177354780Y-94778524D01*
X177317836Y-94731454D01*
X177273165Y-94690967D01*
X177222934Y-94659438D01*
X177166356Y-94636458D01*
X177102338Y-94622147D01*
X177029531Y-94617149D01*
X176965842Y-94621457D01*
X176899665Y-94634699D01*
X176830383Y-94657575D01*
X176757396Y-94691057D01*
X176757396Y-94810980D01*
X176765065Y-94810980D01*
X176819170Y-94771316D01*
X176872897Y-94741619D01*
X176926630Y-94720969D01*
X176980842Y-94708752D01*
X177036077Y-94704685D01*
X177087658Y-94708554D01*
X177133168Y-94719672D01*
X177173604Y-94737638D01*
X177209749Y-94762513D01*
X177242120Y-94794811D01*
X177273870Y-94841460D01*
X177297542Y-94897417D01*
X177312669Y-94964503D01*
X177318080Y-95044965D01*
X177312592Y-95124757D01*
X177297230Y-95191374D01*
X177273145Y-95247042D01*
X177240752Y-95293555D01*
X177207850Y-95325730D01*
X177171430Y-95350466D01*
X177131003Y-95368287D01*
X177085838Y-95379280D01*
X177035002Y-95383094D01*
X176966888Y-95377627D01*
X176902769Y-95361454D01*
X176862489Y-95343983D01*
X176816897Y-95316467D01*
X176765065Y-95276800D01*
X176757396Y-95276800D01*
X176757396Y-95396235D01*
X176857469Y-95438978D01*
X176920550Y-95458126D01*
X176978056Y-95467621D01*
X177030117Y-95470631D01*
G37*
G36*
X176091639Y-95455000D02*
G01*
X176642504Y-95455000D01*
X176642504Y-95348852D01*
X176446035Y-95173974D01*
X176374680Y-95105151D01*
X176321731Y-95047150D01*
X176284004Y-94998510D01*
X176253660Y-94946119D01*
X176236497Y-94895980D01*
X176230955Y-94847030D01*
X176236224Y-94804383D01*
X176251100Y-94770148D01*
X176275505Y-94742348D01*
X176307212Y-94722136D01*
X176346852Y-94709312D01*
X176396551Y-94704685D01*
X176451095Y-94708980D01*
X176505597Y-94722000D01*
X176560659Y-94744243D01*
X176616810Y-94776591D01*
X176622281Y-94776591D01*
X176622281Y-94669759D01*
X176547266Y-94640356D01*
X176471372Y-94622948D01*
X176393816Y-94617149D01*
X176331300Y-94621407D01*
X176278825Y-94633351D01*
X176234721Y-94652115D01*
X176197640Y-94677379D01*
X176166545Y-94709901D01*
X176144437Y-94747377D01*
X176130804Y-94790794D01*
X176126028Y-94841608D01*
X176130642Y-94896173D01*
X176144346Y-94947903D01*
X176167303Y-94997057D01*
X176201450Y-95046528D01*
X176242765Y-95094529D01*
X176294360Y-95148426D01*
X176366402Y-95214971D01*
X176542999Y-95367463D01*
X176091639Y-95367463D01*
X176091639Y-95455000D01*
G37*
G36*
X175736971Y-94618126D02*
G01*
X175787504Y-94629845D01*
X175831832Y-94648630D01*
X175870892Y-94674399D01*
X175904461Y-94707323D01*
X175927648Y-94743320D01*
X175941550Y-94783094D01*
X175946314Y-94827784D01*
X175941462Y-94869639D01*
X175927063Y-94908072D01*
X175902536Y-94944125D01*
X175866265Y-94978411D01*
X175815742Y-95011064D01*
X175815742Y-95017561D01*
X175865270Y-95044165D01*
X175903370Y-95073825D01*
X175931819Y-95106474D01*
X175951838Y-95142445D01*
X175964003Y-95182448D01*
X175968198Y-95227512D01*
X175963065Y-95280368D01*
X175948264Y-95326472D01*
X175923993Y-95367200D01*
X175889503Y-95403464D01*
X175848611Y-95431873D01*
X175800828Y-95452775D01*
X175744868Y-95465963D01*
X175679113Y-95470631D01*
X175617773Y-95465961D01*
X175563661Y-95452538D01*
X175515576Y-95430828D01*
X175472581Y-95400729D01*
X175435944Y-95362888D01*
X175410530Y-95321637D01*
X175395260Y-95276187D01*
X175391117Y-95235914D01*
X175496028Y-95235914D01*
X175499339Y-95272381D01*
X175508761Y-95303397D01*
X175523964Y-95330012D01*
X175545219Y-95352955D01*
X175580294Y-95375915D01*
X175623795Y-95390396D01*
X175677989Y-95395600D01*
X175730367Y-95389899D01*
X175774391Y-95373629D01*
X175811883Y-95346995D01*
X175834679Y-95321032D01*
X175850899Y-95291654D01*
X175860872Y-95258181D01*
X175864346Y-95219647D01*
X175859747Y-95174682D01*
X175846377Y-95134874D01*
X175824211Y-95099086D01*
X175792341Y-95066592D01*
X175749064Y-95037149D01*
X175636881Y-95079729D01*
X175583760Y-95102899D01*
X175545007Y-95127196D01*
X175518450Y-95154727D01*
X175506448Y-95176266D01*
X175498789Y-95202907D01*
X175496028Y-95235914D01*
X175391117Y-95235914D01*
X175390027Y-95225314D01*
X175394244Y-95182998D01*
X175406559Y-95144997D01*
X175427045Y-95110337D01*
X175456521Y-95078373D01*
X175496489Y-95048849D01*
X175549029Y-95021908D01*
X175549029Y-95014874D01*
X175508438Y-94992241D01*
X175475115Y-94965024D01*
X175448205Y-94933053D01*
X175427787Y-94896711D01*
X175415840Y-94859494D01*
X175412012Y-94822166D01*
X175512979Y-94822166D01*
X175516998Y-94863684D01*
X175528719Y-94900933D01*
X175548151Y-94934835D01*
X175575978Y-94966015D01*
X175613509Y-94994748D01*
X175690407Y-94968289D01*
X175746599Y-94942987D01*
X175786237Y-94919033D01*
X175811850Y-94896523D01*
X175829249Y-94872155D01*
X175839545Y-94845478D01*
X175843048Y-94815669D01*
X175837917Y-94780031D01*
X175822972Y-94749949D01*
X175797424Y-94723981D01*
X175765320Y-94705122D01*
X175726607Y-94693275D01*
X175679650Y-94689054D01*
X175630285Y-94693621D01*
X175590520Y-94706328D01*
X175558359Y-94726423D01*
X175532979Y-94753895D01*
X175518085Y-94785344D01*
X175512979Y-94822166D01*
X175412012Y-94822166D01*
X175411862Y-94820701D01*
X175416552Y-94776160D01*
X175430148Y-94737114D01*
X175452667Y-94702351D01*
X175485086Y-94671127D01*
X175522822Y-94647082D01*
X175566918Y-94629283D01*
X175618528Y-94618015D01*
X175679064Y-94614023D01*
X175736971Y-94618126D01*
G37*
G36*
X167803117Y-115601631D02*
G01*
X167877343Y-115596688D01*
X167942092Y-115582590D01*
X167998802Y-115560070D01*
X168048650Y-115529346D01*
X168092496Y-115490110D01*
X168128589Y-115444253D01*
X168157358Y-115391123D01*
X168178771Y-115329624D01*
X168192336Y-115258366D01*
X168197130Y-115175720D01*
X168192337Y-115095027D01*
X168178706Y-115024703D01*
X168157055Y-114963283D01*
X168127780Y-114909524D01*
X168090836Y-114862454D01*
X168046165Y-114821967D01*
X167995934Y-114790438D01*
X167939356Y-114767458D01*
X167875338Y-114753147D01*
X167802531Y-114748149D01*
X167738842Y-114752457D01*
X167672665Y-114765699D01*
X167603383Y-114788575D01*
X167530396Y-114822057D01*
X167530396Y-114941980D01*
X167538065Y-114941980D01*
X167592170Y-114902316D01*
X167645897Y-114872619D01*
X167699630Y-114851969D01*
X167753842Y-114839752D01*
X167809077Y-114835685D01*
X167860658Y-114839554D01*
X167906168Y-114850672D01*
X167946604Y-114868638D01*
X167982749Y-114893513D01*
X168015120Y-114925811D01*
X168046870Y-114972460D01*
X168070542Y-115028417D01*
X168085669Y-115095503D01*
X168091080Y-115175965D01*
X168085592Y-115255757D01*
X168070230Y-115322374D01*
X168046145Y-115378042D01*
X168013752Y-115424555D01*
X167980850Y-115456730D01*
X167944430Y-115481466D01*
X167904003Y-115499287D01*
X167858838Y-115510280D01*
X167808002Y-115514094D01*
X167739888Y-115508627D01*
X167675769Y-115492454D01*
X167635489Y-115474983D01*
X167589897Y-115447467D01*
X167538065Y-115407800D01*
X167530396Y-115407800D01*
X167530396Y-115527235D01*
X167630469Y-115569978D01*
X167693550Y-115589126D01*
X167751056Y-115598621D01*
X167803117Y-115601631D01*
G37*
G36*
X167412182Y-115549852D02*
G01*
X167412182Y-115439063D01*
X167403438Y-115439063D01*
X167345895Y-115472683D01*
X167288843Y-115495906D01*
X167231737Y-115509566D01*
X167173948Y-115514094D01*
X167130497Y-115510812D01*
X167093328Y-115501505D01*
X167061372Y-115486661D01*
X167033801Y-115466321D01*
X167011191Y-115440755D01*
X166994858Y-115410730D01*
X166984652Y-115375357D01*
X166981045Y-115333404D01*
X166984335Y-115294034D01*
X166993436Y-115262471D01*
X167007655Y-115237152D01*
X167026963Y-115216949D01*
X167059868Y-115197781D01*
X167107722Y-115184632D01*
X167175609Y-115179579D01*
X167223676Y-115179579D01*
X167223676Y-115098295D01*
X167186502Y-115098295D01*
X167128529Y-115093589D01*
X167083145Y-115080721D01*
X167047723Y-115060877D01*
X167025739Y-115040282D01*
X167010250Y-115016372D01*
X167000741Y-114988495D01*
X166997409Y-114955609D01*
X167002500Y-114919519D01*
X167017026Y-114890532D01*
X167041422Y-114866900D01*
X167072283Y-114850380D01*
X167111876Y-114839626D01*
X167162468Y-114835685D01*
X167216411Y-114839951D01*
X167270701Y-114852923D01*
X167325943Y-114875158D01*
X167382678Y-114907591D01*
X167388686Y-114907591D01*
X167388686Y-114800026D01*
X167313702Y-114771061D01*
X167237624Y-114753880D01*
X167159684Y-114748149D01*
X167095113Y-114752002D01*
X167041973Y-114762684D01*
X166998374Y-114779186D01*
X166962727Y-114800954D01*
X166932018Y-114829929D01*
X166910576Y-114862775D01*
X166897545Y-114900273D01*
X166893020Y-114943690D01*
X166898138Y-114986015D01*
X166913377Y-115025028D01*
X166939475Y-115061806D01*
X166973051Y-115092241D01*
X167011540Y-115114121D01*
X167055881Y-115127849D01*
X167055881Y-115136300D01*
X166997919Y-115152162D01*
X166953678Y-115175210D01*
X166920454Y-115204875D01*
X166896560Y-115241652D01*
X166881515Y-115287032D01*
X166876118Y-115343320D01*
X166881450Y-115398179D01*
X166896895Y-115446595D01*
X166922343Y-115489902D01*
X166958623Y-115528993D01*
X167001717Y-115560115D01*
X167050728Y-115582677D01*
X167106755Y-115596716D01*
X167171212Y-115601631D01*
X167252832Y-115595917D01*
X167332914Y-115578768D01*
X167412182Y-115549852D01*
G37*
G36*
X166166837Y-114877011D02*
G01*
X166536279Y-115586000D01*
X166646090Y-115586000D01*
X166253152Y-114851317D01*
X166723711Y-114851317D01*
X166723711Y-114763780D01*
X166166837Y-114763780D01*
X166166837Y-114877011D01*
G37*
G36*
X164714131Y-90681882D02*
G01*
X164709188Y-90607656D01*
X164695090Y-90542907D01*
X164672570Y-90486197D01*
X164641846Y-90436349D01*
X164602610Y-90392503D01*
X164556753Y-90356410D01*
X164503623Y-90327641D01*
X164442124Y-90306228D01*
X164370866Y-90292663D01*
X164288220Y-90287869D01*
X164207527Y-90292662D01*
X164137203Y-90306293D01*
X164075783Y-90327944D01*
X164022024Y-90357219D01*
X163974954Y-90394163D01*
X163934467Y-90438834D01*
X163902938Y-90489065D01*
X163879958Y-90545643D01*
X163865647Y-90609661D01*
X163860649Y-90682468D01*
X163864957Y-90746157D01*
X163878199Y-90812334D01*
X163901075Y-90881616D01*
X163934557Y-90954603D01*
X164054480Y-90954603D01*
X164054480Y-90946934D01*
X164014816Y-90892829D01*
X163985119Y-90839102D01*
X163964469Y-90785369D01*
X163952252Y-90731157D01*
X163948185Y-90675922D01*
X163952054Y-90624341D01*
X163963172Y-90578831D01*
X163981138Y-90538395D01*
X164006013Y-90502250D01*
X164038311Y-90469879D01*
X164084960Y-90438129D01*
X164140917Y-90414457D01*
X164208003Y-90399330D01*
X164288465Y-90393919D01*
X164368257Y-90399407D01*
X164434874Y-90414769D01*
X164490542Y-90438854D01*
X164537055Y-90471247D01*
X164569230Y-90504149D01*
X164593966Y-90540569D01*
X164611787Y-90580996D01*
X164622780Y-90626161D01*
X164626594Y-90676997D01*
X164621127Y-90745111D01*
X164604954Y-90809230D01*
X164587483Y-90849510D01*
X164559967Y-90895102D01*
X164520300Y-90946934D01*
X164520300Y-90954603D01*
X164639735Y-90954603D01*
X164682478Y-90854530D01*
X164701626Y-90791449D01*
X164711121Y-90733943D01*
X164714131Y-90681882D01*
G37*
G36*
X164698500Y-91620360D02*
G01*
X164698500Y-91069495D01*
X164592352Y-91069495D01*
X164417474Y-91265964D01*
X164348651Y-91337319D01*
X164290650Y-91390268D01*
X164242010Y-91427995D01*
X164189619Y-91458339D01*
X164139480Y-91475502D01*
X164090530Y-91481044D01*
X164047883Y-91475775D01*
X164013648Y-91460899D01*
X163985848Y-91436494D01*
X163965636Y-91404787D01*
X163952812Y-91365147D01*
X163948185Y-91315448D01*
X163952480Y-91260904D01*
X163965500Y-91206402D01*
X163987743Y-91151340D01*
X164020091Y-91095189D01*
X164020091Y-91089718D01*
X163913259Y-91089718D01*
X163883856Y-91164733D01*
X163866448Y-91240627D01*
X163860649Y-91318183D01*
X163864907Y-91380699D01*
X163876851Y-91433174D01*
X163895615Y-91477278D01*
X163920879Y-91514359D01*
X163953401Y-91545454D01*
X163990877Y-91567562D01*
X164034294Y-91581195D01*
X164085108Y-91585971D01*
X164139673Y-91581357D01*
X164191403Y-91567653D01*
X164240557Y-91544696D01*
X164290028Y-91510549D01*
X164338029Y-91469234D01*
X164391926Y-91417639D01*
X164458471Y-91345597D01*
X164610963Y-91169000D01*
X164610963Y-91620360D01*
X164698500Y-91620360D01*
G37*
G36*
X164698500Y-92315964D02*
G01*
X164698500Y-91765099D01*
X164592352Y-91765099D01*
X164417474Y-91961568D01*
X164348651Y-92032923D01*
X164290650Y-92085871D01*
X164242010Y-92123598D01*
X164189619Y-92153943D01*
X164139480Y-92171106D01*
X164090530Y-92176648D01*
X164047883Y-92171379D01*
X164013648Y-92156503D01*
X163985848Y-92132098D01*
X163965636Y-92100390D01*
X163952812Y-92060751D01*
X163948185Y-92011051D01*
X163952480Y-91956508D01*
X163965500Y-91902005D01*
X163987743Y-91846944D01*
X164020091Y-91790793D01*
X164020091Y-91785322D01*
X163913259Y-91785322D01*
X163883856Y-91860336D01*
X163866448Y-91936231D01*
X163860649Y-92013787D01*
X163864907Y-92076303D01*
X163876851Y-92128778D01*
X163895615Y-92172882D01*
X163920879Y-92209963D01*
X163953401Y-92241058D01*
X163990877Y-92263166D01*
X164034294Y-92276799D01*
X164085108Y-92281575D01*
X164139673Y-92276961D01*
X164191403Y-92263256D01*
X164240557Y-92240300D01*
X164290028Y-92206152D01*
X164338029Y-92164837D01*
X164391926Y-92113242D01*
X164458471Y-92041201D01*
X164610963Y-91864603D01*
X164610963Y-92315964D01*
X164698500Y-92315964D01*
G37*
G36*
X165955631Y-90685882D02*
G01*
X165950688Y-90611656D01*
X165936590Y-90546907D01*
X165914070Y-90490197D01*
X165883346Y-90440349D01*
X165844110Y-90396503D01*
X165798253Y-90360410D01*
X165745123Y-90331641D01*
X165683624Y-90310228D01*
X165612366Y-90296663D01*
X165529720Y-90291869D01*
X165449027Y-90296662D01*
X165378703Y-90310293D01*
X165317283Y-90331944D01*
X165263524Y-90361219D01*
X165216454Y-90398163D01*
X165175967Y-90442834D01*
X165144438Y-90493065D01*
X165121458Y-90549643D01*
X165107147Y-90613661D01*
X165102149Y-90686468D01*
X165106457Y-90750157D01*
X165119699Y-90816334D01*
X165142575Y-90885616D01*
X165176057Y-90958603D01*
X165295980Y-90958603D01*
X165295980Y-90950934D01*
X165256316Y-90896829D01*
X165226619Y-90843102D01*
X165205969Y-90789369D01*
X165193752Y-90735157D01*
X165189685Y-90679922D01*
X165193554Y-90628341D01*
X165204672Y-90582831D01*
X165222638Y-90542395D01*
X165247513Y-90506250D01*
X165279811Y-90473879D01*
X165326460Y-90442129D01*
X165382417Y-90418457D01*
X165449503Y-90403330D01*
X165529965Y-90397919D01*
X165609757Y-90403407D01*
X165676374Y-90418769D01*
X165732042Y-90442854D01*
X165778555Y-90475247D01*
X165810730Y-90508149D01*
X165835466Y-90544569D01*
X165853287Y-90584996D01*
X165864280Y-90630161D01*
X165868094Y-90680997D01*
X165862627Y-90749111D01*
X165846454Y-90813230D01*
X165828983Y-90853510D01*
X165801467Y-90899102D01*
X165761800Y-90950934D01*
X165761800Y-90958603D01*
X165881235Y-90958603D01*
X165923978Y-90858530D01*
X165943126Y-90795449D01*
X165952621Y-90737943D01*
X165955631Y-90685882D01*
G37*
G36*
X165940000Y-91577368D02*
G01*
X165940000Y-91139099D01*
X165864968Y-91139099D01*
X165864968Y-91310704D01*
X165299106Y-91310704D01*
X165299106Y-91139099D01*
X165233454Y-91139099D01*
X165229163Y-91206304D01*
X165218874Y-91252386D01*
X165204584Y-91282811D01*
X165182631Y-91306915D01*
X165153352Y-91323143D01*
X165114654Y-91331464D01*
X165114654Y-91409085D01*
X165864968Y-91409085D01*
X165864968Y-91577368D01*
X165940000Y-91577368D01*
G37*
G36*
X165907857Y-91783314D02*
G01*
X165799316Y-91783314D01*
X165799316Y-91792057D01*
X165829994Y-91847140D01*
X165851307Y-91902142D01*
X165863905Y-91957551D01*
X165868094Y-92013928D01*
X165864660Y-92057796D01*
X165854905Y-92095368D01*
X165839301Y-92127737D01*
X165817829Y-92155735D01*
X165791068Y-92178521D01*
X165759661Y-92195035D01*
X165722691Y-92205373D01*
X165678904Y-92209029D01*
X165636654Y-92204604D01*
X165602449Y-92192197D01*
X165574508Y-92172239D01*
X165551793Y-92143985D01*
X165534153Y-92105620D01*
X165522348Y-92054461D01*
X165517948Y-91987159D01*
X165522705Y-91919005D01*
X165539832Y-91818826D01*
X165117780Y-91818826D01*
X165117780Y-92307947D01*
X165205317Y-92307947D01*
X165205317Y-91917207D01*
X165437543Y-91917207D01*
X165430411Y-92014465D01*
X165435082Y-92089067D01*
X165447951Y-92149515D01*
X165467732Y-92198296D01*
X165493768Y-92237459D01*
X165527962Y-92269896D01*
X165569067Y-92293389D01*
X165618499Y-92308159D01*
X165678269Y-92313418D01*
X165738057Y-92308009D01*
X165790411Y-92292429D01*
X165836760Y-92266998D01*
X165878108Y-92231157D01*
X165911380Y-92187934D01*
X165935433Y-92138533D01*
X165950389Y-92081780D01*
X165955631Y-92016126D01*
X165950092Y-91931212D01*
X165934012Y-91853983D01*
X165907857Y-91783314D01*
G37*
G36*
X171020000Y-105169976D02*
G01*
X170688611Y-105169976D01*
X170688611Y-105337722D01*
X171020000Y-105608783D01*
X171020000Y-105741602D01*
X170659741Y-105441037D01*
X170632494Y-105494215D01*
X170600713Y-105535530D01*
X170564426Y-105566786D01*
X170523125Y-105589115D01*
X170475820Y-105602894D01*
X170421116Y-105607708D01*
X170372305Y-105603064D01*
X170329847Y-105589703D01*
X170292474Y-105567857D01*
X170259330Y-105536926D01*
X170234840Y-105500508D01*
X170215578Y-105451465D01*
X170202615Y-105386505D01*
X170198153Y-105308217D01*
X170285317Y-105308217D01*
X170290445Y-105375063D01*
X170303980Y-105423474D01*
X170324023Y-105457862D01*
X170350039Y-105481461D01*
X170382953Y-105495940D01*
X170424975Y-105501120D01*
X170467812Y-105497656D01*
X170503061Y-105487975D01*
X170532148Y-105472720D01*
X170556133Y-105451930D01*
X170574140Y-105426453D01*
X170588186Y-105392450D01*
X170597582Y-105347735D01*
X170601074Y-105289655D01*
X170601074Y-105169976D01*
X170285317Y-105169976D01*
X170285317Y-105308217D01*
X170198153Y-105308217D01*
X170197780Y-105301672D01*
X170197780Y-105068322D01*
X171020000Y-105068322D01*
X171020000Y-105169976D01*
G37*
G36*
X170987857Y-105825573D02*
G01*
X170879316Y-105825573D01*
X170879316Y-105834316D01*
X170909994Y-105889399D01*
X170931307Y-105944401D01*
X170943905Y-105999810D01*
X170948094Y-106056187D01*
X170944660Y-106100055D01*
X170934905Y-106137627D01*
X170919301Y-106169996D01*
X170897829Y-106197994D01*
X170871068Y-106220780D01*
X170839661Y-106237294D01*
X170802691Y-106247632D01*
X170758904Y-106251288D01*
X170716654Y-106246863D01*
X170682449Y-106234456D01*
X170654508Y-106214498D01*
X170631793Y-106186244D01*
X170614153Y-106147879D01*
X170602348Y-106096720D01*
X170597948Y-106029418D01*
X170602705Y-105961264D01*
X170619832Y-105861085D01*
X170197780Y-105861085D01*
X170197780Y-106350206D01*
X170285317Y-106350206D01*
X170285317Y-105959466D01*
X170517543Y-105959466D01*
X170510411Y-106056724D01*
X170515082Y-106131326D01*
X170527951Y-106191774D01*
X170547732Y-106240555D01*
X170573768Y-106279718D01*
X170607962Y-106312155D01*
X170649067Y-106335648D01*
X170698499Y-106350418D01*
X170758269Y-106355677D01*
X170818057Y-106350268D01*
X170870411Y-106334688D01*
X170916760Y-106309257D01*
X170958108Y-106273416D01*
X170991380Y-106230193D01*
X171015433Y-106180792D01*
X171030389Y-106124040D01*
X171035631Y-106058385D01*
X171030092Y-105973471D01*
X171014012Y-105896242D01*
X170987857Y-105825573D01*
G37*
G36*
X171020000Y-107010834D02*
G01*
X171020000Y-106572565D01*
X170944968Y-106572565D01*
X170944968Y-106744170D01*
X170379106Y-106744170D01*
X170379106Y-106572565D01*
X170313454Y-106572565D01*
X170309163Y-106639770D01*
X170298874Y-106685853D01*
X170284584Y-106716277D01*
X170262631Y-106740381D01*
X170233352Y-106756610D01*
X170194654Y-106764931D01*
X170194654Y-106842551D01*
X170944968Y-106842551D01*
X170944968Y-107010834D01*
X171020000Y-107010834D01*
G37*
G36*
X175861631Y-116212882D02*
G01*
X175856688Y-116138656D01*
X175842590Y-116073907D01*
X175820070Y-116017197D01*
X175789346Y-115967349D01*
X175750110Y-115923503D01*
X175704253Y-115887410D01*
X175651123Y-115858641D01*
X175589624Y-115837228D01*
X175518366Y-115823663D01*
X175435720Y-115818869D01*
X175355027Y-115823662D01*
X175284703Y-115837293D01*
X175223283Y-115858944D01*
X175169524Y-115888219D01*
X175122454Y-115925163D01*
X175081967Y-115969834D01*
X175050438Y-116020065D01*
X175027458Y-116076643D01*
X175013147Y-116140661D01*
X175008149Y-116213468D01*
X175012457Y-116277157D01*
X175025699Y-116343334D01*
X175048575Y-116412616D01*
X175082057Y-116485603D01*
X175201980Y-116485603D01*
X175201980Y-116477934D01*
X175162316Y-116423829D01*
X175132619Y-116370102D01*
X175111969Y-116316369D01*
X175099752Y-116262157D01*
X175095685Y-116206922D01*
X175099554Y-116155341D01*
X175110672Y-116109831D01*
X175128638Y-116069395D01*
X175153513Y-116033250D01*
X175185811Y-116000879D01*
X175232460Y-115969129D01*
X175288417Y-115945457D01*
X175355503Y-115930330D01*
X175435965Y-115924919D01*
X175515757Y-115930407D01*
X175582374Y-115945769D01*
X175638042Y-115969854D01*
X175684555Y-116002247D01*
X175716730Y-116035149D01*
X175741466Y-116071569D01*
X175759287Y-116111996D01*
X175770280Y-116157161D01*
X175774094Y-116207997D01*
X175768627Y-116276111D01*
X175752454Y-116340230D01*
X175734983Y-116380510D01*
X175707467Y-116426102D01*
X175667800Y-116477934D01*
X175667800Y-116485603D01*
X175787235Y-116485603D01*
X175829978Y-116385530D01*
X175849126Y-116322449D01*
X175858621Y-116264943D01*
X175861631Y-116212882D01*
G37*
G36*
X175809852Y-116603817D02*
G01*
X175699063Y-116603817D01*
X175699063Y-116612561D01*
X175732683Y-116670104D01*
X175755906Y-116727156D01*
X175769566Y-116784262D01*
X175774094Y-116842051D01*
X175770812Y-116885502D01*
X175761505Y-116922671D01*
X175746661Y-116954627D01*
X175726321Y-116982198D01*
X175700755Y-117004808D01*
X175670730Y-117021141D01*
X175635357Y-117031347D01*
X175593404Y-117034954D01*
X175554034Y-117031664D01*
X175522471Y-117022563D01*
X175497152Y-117008344D01*
X175476949Y-116989036D01*
X175457781Y-116956131D01*
X175444632Y-116908277D01*
X175439579Y-116840390D01*
X175439579Y-116792323D01*
X175358295Y-116792323D01*
X175358295Y-116829497D01*
X175353589Y-116887470D01*
X175340721Y-116932854D01*
X175320877Y-116968276D01*
X175300282Y-116990260D01*
X175276372Y-117005749D01*
X175248495Y-117015258D01*
X175215609Y-117018590D01*
X175179519Y-117013499D01*
X175150532Y-116998973D01*
X175126900Y-116974577D01*
X175110380Y-116943716D01*
X175099626Y-116904123D01*
X175095685Y-116853531D01*
X175099951Y-116799588D01*
X175112923Y-116745298D01*
X175135158Y-116690056D01*
X175167591Y-116633321D01*
X175167591Y-116627313D01*
X175060026Y-116627313D01*
X175031061Y-116702297D01*
X175013880Y-116778375D01*
X175008149Y-116856315D01*
X175012002Y-116920886D01*
X175022684Y-116974026D01*
X175039186Y-117017625D01*
X175060954Y-117053272D01*
X175089929Y-117083981D01*
X175122775Y-117105423D01*
X175160273Y-117118454D01*
X175203690Y-117122979D01*
X175246015Y-117117861D01*
X175285028Y-117102622D01*
X175321806Y-117076524D01*
X175352241Y-117042948D01*
X175374121Y-117004459D01*
X175387849Y-116960118D01*
X175396300Y-116960118D01*
X175412162Y-117018080D01*
X175435210Y-117062321D01*
X175464875Y-117095545D01*
X175501652Y-117119439D01*
X175547032Y-117134484D01*
X175603320Y-117139881D01*
X175658179Y-117134549D01*
X175706595Y-117119104D01*
X175749902Y-117093656D01*
X175788993Y-117057376D01*
X175820115Y-117014282D01*
X175842677Y-116965271D01*
X175856716Y-116909244D01*
X175861631Y-116844787D01*
X175855917Y-116763167D01*
X175838768Y-116683085D01*
X175809852Y-116603817D01*
G37*
G36*
X175671368Y-117279934D02*
G01*
X175717472Y-117294735D01*
X175758200Y-117319006D01*
X175794464Y-117353496D01*
X175822873Y-117394388D01*
X175843775Y-117442171D01*
X175856963Y-117498131D01*
X175861631Y-117563886D01*
X175856961Y-117625226D01*
X175843538Y-117679338D01*
X175821828Y-117727423D01*
X175791729Y-117770418D01*
X175753888Y-117807055D01*
X175712637Y-117832469D01*
X175667187Y-117847739D01*
X175616314Y-117852972D01*
X175573998Y-117848755D01*
X175535997Y-117836440D01*
X175501337Y-117815954D01*
X175469373Y-117786478D01*
X175439849Y-117746510D01*
X175412908Y-117693970D01*
X175405874Y-117693970D01*
X175383241Y-117734561D01*
X175356024Y-117767884D01*
X175324053Y-117794794D01*
X175287711Y-117815212D01*
X175250494Y-117827159D01*
X175211701Y-117831137D01*
X175167160Y-117826447D01*
X175128114Y-117812851D01*
X175093351Y-117790332D01*
X175062127Y-117757913D01*
X175038082Y-117720177D01*
X175020283Y-117676081D01*
X175009015Y-117624471D01*
X175005023Y-117563935D01*
X175005065Y-117563349D01*
X175080054Y-117563349D01*
X175084621Y-117612714D01*
X175097328Y-117652479D01*
X175117423Y-117684640D01*
X175144895Y-117710020D01*
X175176344Y-117724914D01*
X175213166Y-117730020D01*
X175254684Y-117726001D01*
X175291933Y-117714280D01*
X175325835Y-117694848D01*
X175357015Y-117667021D01*
X175385748Y-117629490D01*
X175359289Y-117552592D01*
X175333987Y-117496400D01*
X175332497Y-117493935D01*
X175428149Y-117493935D01*
X175470729Y-117606118D01*
X175493899Y-117659239D01*
X175518196Y-117697992D01*
X175545727Y-117724549D01*
X175567266Y-117736551D01*
X175593907Y-117744210D01*
X175626914Y-117746971D01*
X175663381Y-117743660D01*
X175694397Y-117734238D01*
X175721012Y-117719035D01*
X175743955Y-117697780D01*
X175766915Y-117662705D01*
X175781396Y-117619204D01*
X175786600Y-117565010D01*
X175780899Y-117512632D01*
X175764629Y-117468608D01*
X175737995Y-117431116D01*
X175712032Y-117408320D01*
X175682654Y-117392100D01*
X175649181Y-117382127D01*
X175610647Y-117378653D01*
X175565682Y-117383252D01*
X175525874Y-117396622D01*
X175490086Y-117418788D01*
X175457592Y-117450658D01*
X175428149Y-117493935D01*
X175332497Y-117493935D01*
X175310033Y-117456762D01*
X175287523Y-117431149D01*
X175263155Y-117413750D01*
X175236478Y-117403454D01*
X175206669Y-117399951D01*
X175171031Y-117405082D01*
X175140949Y-117420027D01*
X175114981Y-117445575D01*
X175096122Y-117477679D01*
X175084275Y-117516392D01*
X175080054Y-117563349D01*
X175005065Y-117563349D01*
X175009126Y-117506028D01*
X175020845Y-117455495D01*
X175039630Y-117411167D01*
X175065399Y-117372107D01*
X175098323Y-117338538D01*
X175134320Y-117315351D01*
X175174094Y-117301449D01*
X175218784Y-117296685D01*
X175260639Y-117301537D01*
X175299072Y-117315936D01*
X175335125Y-117340463D01*
X175369411Y-117376734D01*
X175402064Y-117427257D01*
X175408561Y-117427257D01*
X175435165Y-117377729D01*
X175464825Y-117339629D01*
X175497474Y-117311180D01*
X175533445Y-117291161D01*
X175573448Y-117278996D01*
X175618512Y-117274801D01*
X175671368Y-117279934D01*
G37*
G36*
X178903677Y-115140000D02*
G01*
X178802023Y-115140000D01*
X178802023Y-114808611D01*
X178634277Y-114808611D01*
X178363216Y-115140000D01*
X178230397Y-115140000D01*
X178530962Y-114779741D01*
X178477784Y-114752494D01*
X178436469Y-114720713D01*
X178405213Y-114684426D01*
X178382884Y-114643125D01*
X178369105Y-114595820D01*
X178364631Y-114544975D01*
X178470879Y-114544975D01*
X178474343Y-114587812D01*
X178484024Y-114623061D01*
X178499279Y-114652148D01*
X178520069Y-114676133D01*
X178545546Y-114694140D01*
X178579549Y-114708186D01*
X178624264Y-114717582D01*
X178682344Y-114721074D01*
X178802023Y-114721074D01*
X178802023Y-114405317D01*
X178663782Y-114405317D01*
X178596936Y-114410445D01*
X178548525Y-114423980D01*
X178514137Y-114444023D01*
X178490538Y-114470039D01*
X178476059Y-114502953D01*
X178470879Y-114544975D01*
X178364631Y-114544975D01*
X178364291Y-114541116D01*
X178368935Y-114492305D01*
X178382296Y-114449847D01*
X178404142Y-114412474D01*
X178435073Y-114379330D01*
X178471491Y-114354840D01*
X178520534Y-114335578D01*
X178585494Y-114322615D01*
X178670327Y-114317780D01*
X178903677Y-114317780D01*
X178903677Y-115140000D01*
G37*
G36*
X177609776Y-115140000D02*
G01*
X178160641Y-115140000D01*
X178160641Y-115033852D01*
X177964172Y-114858974D01*
X177892817Y-114790151D01*
X177839869Y-114732150D01*
X177802142Y-114683510D01*
X177771797Y-114631119D01*
X177754634Y-114580980D01*
X177749092Y-114532030D01*
X177754361Y-114489383D01*
X177769237Y-114455148D01*
X177793642Y-114427348D01*
X177825350Y-114407136D01*
X177864989Y-114394312D01*
X177914689Y-114389685D01*
X177969232Y-114393980D01*
X178023735Y-114407000D01*
X178078796Y-114429243D01*
X178134947Y-114461591D01*
X178140418Y-114461591D01*
X178140418Y-114354759D01*
X178065404Y-114325356D01*
X177989509Y-114307948D01*
X177911953Y-114302149D01*
X177849437Y-114306407D01*
X177796962Y-114318351D01*
X177752858Y-114337115D01*
X177715777Y-114362379D01*
X177684682Y-114394901D01*
X177662574Y-114432377D01*
X177648941Y-114475794D01*
X177644165Y-114526608D01*
X177648779Y-114581173D01*
X177662484Y-114632903D01*
X177685440Y-114682057D01*
X177719588Y-114731528D01*
X177760903Y-114779529D01*
X177812498Y-114833426D01*
X177884539Y-114899971D01*
X178061137Y-115052463D01*
X177609776Y-115052463D01*
X177609776Y-115140000D01*
G37*
G36*
X177461716Y-115103852D02*
G01*
X177461716Y-114993063D01*
X177452972Y-114993063D01*
X177395429Y-115026683D01*
X177338377Y-115049906D01*
X177281271Y-115063566D01*
X177223482Y-115068094D01*
X177180031Y-115064812D01*
X177142861Y-115055505D01*
X177110905Y-115040661D01*
X177083335Y-115020321D01*
X177060725Y-114994755D01*
X177044392Y-114964730D01*
X177034186Y-114929357D01*
X177030579Y-114887404D01*
X177033869Y-114848034D01*
X177042970Y-114816471D01*
X177057188Y-114791152D01*
X177076496Y-114770949D01*
X177109402Y-114751781D01*
X177157256Y-114738632D01*
X177225142Y-114733579D01*
X177273209Y-114733579D01*
X177273209Y-114652295D01*
X177236036Y-114652295D01*
X177178062Y-114647589D01*
X177132679Y-114634721D01*
X177097257Y-114614877D01*
X177075273Y-114594282D01*
X177059784Y-114570372D01*
X177050275Y-114542495D01*
X177046943Y-114509609D01*
X177052034Y-114473519D01*
X177066559Y-114444532D01*
X177090955Y-114420900D01*
X177121816Y-114404380D01*
X177161410Y-114393626D01*
X177212002Y-114389685D01*
X177265945Y-114393951D01*
X177320235Y-114406923D01*
X177375477Y-114429158D01*
X177432212Y-114461591D01*
X177438220Y-114461591D01*
X177438220Y-114354026D01*
X177363236Y-114325061D01*
X177287157Y-114307880D01*
X177209218Y-114302149D01*
X177144646Y-114306002D01*
X177091507Y-114316684D01*
X177047908Y-114333186D01*
X177012260Y-114354954D01*
X176981552Y-114383929D01*
X176960110Y-114416775D01*
X176947079Y-114454273D01*
X176942553Y-114497690D01*
X176947672Y-114540015D01*
X176962911Y-114579028D01*
X176989008Y-114615806D01*
X177022585Y-114646241D01*
X177061074Y-114668121D01*
X177105415Y-114681849D01*
X177105415Y-114690300D01*
X177047453Y-114706162D01*
X177003211Y-114729210D01*
X176969988Y-114758875D01*
X176946093Y-114795652D01*
X176931049Y-114841032D01*
X176925652Y-114897320D01*
X176930984Y-114952179D01*
X176946429Y-115000595D01*
X176971876Y-115043902D01*
X177008157Y-115082993D01*
X177051250Y-115114115D01*
X177100262Y-115136677D01*
X177156289Y-115150716D01*
X177220746Y-115155631D01*
X177302366Y-115149917D01*
X177382448Y-115132768D01*
X177461716Y-115103852D01*
G37*
G36*
X166829000Y-103137976D02*
G01*
X166497611Y-103137976D01*
X166497611Y-103305722D01*
X166829000Y-103576783D01*
X166829000Y-103709602D01*
X166468741Y-103409037D01*
X166441494Y-103462215D01*
X166409713Y-103503530D01*
X166373426Y-103534786D01*
X166332125Y-103557115D01*
X166284820Y-103570894D01*
X166230116Y-103575708D01*
X166181305Y-103571064D01*
X166138847Y-103557703D01*
X166101474Y-103535857D01*
X166068330Y-103504926D01*
X166043840Y-103468508D01*
X166024578Y-103419465D01*
X166011615Y-103354505D01*
X166007153Y-103276217D01*
X166094317Y-103276217D01*
X166099445Y-103343063D01*
X166112980Y-103391474D01*
X166133023Y-103425862D01*
X166159039Y-103449461D01*
X166191953Y-103463940D01*
X166233975Y-103469120D01*
X166276812Y-103465656D01*
X166312061Y-103455975D01*
X166341148Y-103440720D01*
X166365133Y-103419930D01*
X166383140Y-103394453D01*
X166397186Y-103360450D01*
X166406582Y-103315735D01*
X166410074Y-103257655D01*
X166410074Y-103137976D01*
X166094317Y-103137976D01*
X166094317Y-103276217D01*
X166007153Y-103276217D01*
X166006780Y-103269672D01*
X166006780Y-103036322D01*
X166829000Y-103036322D01*
X166829000Y-103137976D01*
G37*
G36*
X166792852Y-103782679D02*
G01*
X166682063Y-103782679D01*
X166682063Y-103791423D01*
X166715683Y-103848966D01*
X166738906Y-103906019D01*
X166752566Y-103963125D01*
X166757094Y-104020914D01*
X166753812Y-104064364D01*
X166744505Y-104101534D01*
X166729661Y-104133490D01*
X166709321Y-104161060D01*
X166683755Y-104183671D01*
X166653730Y-104200003D01*
X166618357Y-104210210D01*
X166576404Y-104213817D01*
X166537034Y-104210527D01*
X166505471Y-104201426D01*
X166480152Y-104187207D01*
X166459949Y-104167899D01*
X166440781Y-104134994D01*
X166427632Y-104087140D01*
X166422579Y-104019253D01*
X166422579Y-103971186D01*
X166341295Y-103971186D01*
X166341295Y-104008360D01*
X166336589Y-104066333D01*
X166323721Y-104111717D01*
X166303877Y-104147139D01*
X166283282Y-104169123D01*
X166259372Y-104184612D01*
X166231495Y-104194121D01*
X166198609Y-104197453D01*
X166162519Y-104192362D01*
X166133532Y-104177836D01*
X166109900Y-104153440D01*
X166093380Y-104122579D01*
X166082626Y-104082986D01*
X166078685Y-104032393D01*
X166082951Y-103978451D01*
X166095923Y-103924160D01*
X166118158Y-103868919D01*
X166150591Y-103812184D01*
X166150591Y-103806175D01*
X166043026Y-103806175D01*
X166014061Y-103881160D01*
X165996880Y-103957238D01*
X165991149Y-104035178D01*
X165995002Y-104099749D01*
X166005684Y-104152888D01*
X166022186Y-104196488D01*
X166043954Y-104232135D01*
X166072929Y-104262843D01*
X166105775Y-104284285D01*
X166143273Y-104297317D01*
X166186690Y-104301842D01*
X166229015Y-104296724D01*
X166268028Y-104281484D01*
X166304806Y-104255387D01*
X166335241Y-104221810D01*
X166357121Y-104183321D01*
X166370849Y-104138981D01*
X166379300Y-104138981D01*
X166395162Y-104196943D01*
X166418210Y-104241184D01*
X166447875Y-104274407D01*
X166484652Y-104298302D01*
X166530032Y-104313347D01*
X166586320Y-104318744D01*
X166641179Y-104313412D01*
X166689595Y-104297966D01*
X166732902Y-104272519D01*
X166771993Y-104236238D01*
X166803115Y-104193145D01*
X166825677Y-104144133D01*
X166839716Y-104088106D01*
X166844631Y-104023649D01*
X166838917Y-103942029D01*
X166821768Y-103861948D01*
X166792852Y-103782679D01*
G37*
G36*
X166120011Y-105028025D02*
G01*
X166829000Y-104658583D01*
X166829000Y-104548771D01*
X166094317Y-104941709D01*
X166094317Y-104471151D01*
X166006780Y-104471151D01*
X166006780Y-105028025D01*
X166120011Y-105028025D01*
G37*
G36*
X169667000Y-105169976D02*
G01*
X169335611Y-105169976D01*
X169335611Y-105337722D01*
X169667000Y-105608783D01*
X169667000Y-105741602D01*
X169306741Y-105441037D01*
X169279494Y-105494215D01*
X169247713Y-105535530D01*
X169211426Y-105566786D01*
X169170125Y-105589115D01*
X169122820Y-105602894D01*
X169068116Y-105607708D01*
X169019305Y-105603064D01*
X168976847Y-105589703D01*
X168939474Y-105567857D01*
X168906330Y-105536926D01*
X168881840Y-105500508D01*
X168862578Y-105451465D01*
X168849615Y-105386505D01*
X168845153Y-105308217D01*
X168932317Y-105308217D01*
X168937445Y-105375063D01*
X168950980Y-105423474D01*
X168971023Y-105457862D01*
X168997039Y-105481461D01*
X169029953Y-105495940D01*
X169071975Y-105501120D01*
X169114812Y-105497656D01*
X169150061Y-105487975D01*
X169179148Y-105472720D01*
X169203133Y-105451930D01*
X169221140Y-105426453D01*
X169235186Y-105392450D01*
X169244582Y-105347735D01*
X169248074Y-105289655D01*
X169248074Y-105169976D01*
X168932317Y-105169976D01*
X168932317Y-105308217D01*
X168845153Y-105308217D01*
X168844780Y-105301672D01*
X168844780Y-105068322D01*
X169667000Y-105068322D01*
X169667000Y-105169976D01*
G37*
G36*
X169667000Y-106362223D02*
G01*
X169667000Y-105811358D01*
X169560852Y-105811358D01*
X169385974Y-106007827D01*
X169317151Y-106079182D01*
X169259150Y-106132130D01*
X169210510Y-106169857D01*
X169158119Y-106200202D01*
X169107980Y-106217365D01*
X169059030Y-106222907D01*
X169016383Y-106217638D01*
X168982148Y-106202762D01*
X168954348Y-106178357D01*
X168934136Y-106146649D01*
X168921312Y-106107010D01*
X168916685Y-106057310D01*
X168920980Y-106002767D01*
X168934000Y-105948264D01*
X168956243Y-105893203D01*
X168988591Y-105837052D01*
X168988591Y-105831581D01*
X168881759Y-105831581D01*
X168852356Y-105906595D01*
X168834948Y-105982490D01*
X168829149Y-106060046D01*
X168833407Y-106122562D01*
X168845351Y-106175037D01*
X168864115Y-106219141D01*
X168889379Y-106256222D01*
X168921901Y-106287317D01*
X168959377Y-106309425D01*
X169002794Y-106323058D01*
X169053608Y-106327834D01*
X169108173Y-106323220D01*
X169159903Y-106309515D01*
X169209057Y-106286559D01*
X169258528Y-106252411D01*
X169306529Y-106211096D01*
X169360426Y-106159501D01*
X169426971Y-106087460D01*
X169579463Y-105910862D01*
X169579463Y-106362223D01*
X169667000Y-106362223D01*
G37*
G36*
X169492368Y-106490797D02*
G01*
X169538472Y-106505597D01*
X169579200Y-106529869D01*
X169615464Y-106564358D01*
X169643873Y-106605251D01*
X169664775Y-106653033D01*
X169677963Y-106708993D01*
X169682631Y-106774749D01*
X169677961Y-106836089D01*
X169664538Y-106890200D01*
X169642828Y-106938285D01*
X169612729Y-106981281D01*
X169574888Y-107017918D01*
X169533637Y-107043331D01*
X169488187Y-107058602D01*
X169437314Y-107063835D01*
X169394998Y-107059618D01*
X169356997Y-107047303D01*
X169322337Y-107026817D01*
X169290373Y-106997341D01*
X169260849Y-106957373D01*
X169233908Y-106904833D01*
X169226874Y-106904833D01*
X169204241Y-106945424D01*
X169177024Y-106978747D01*
X169145053Y-107005656D01*
X169108711Y-107026075D01*
X169071494Y-107038022D01*
X169032701Y-107042000D01*
X168988160Y-107037309D01*
X168949114Y-107023714D01*
X168914351Y-107001195D01*
X168883127Y-106968776D01*
X168859082Y-106931040D01*
X168841283Y-106886944D01*
X168830015Y-106835333D01*
X168826023Y-106774798D01*
X168826065Y-106774212D01*
X168901054Y-106774212D01*
X168905621Y-106823577D01*
X168918328Y-106863342D01*
X168938423Y-106895503D01*
X168965895Y-106920882D01*
X168997344Y-106935776D01*
X169034166Y-106940883D01*
X169075684Y-106936864D01*
X169112933Y-106925143D01*
X169146835Y-106905711D01*
X169178015Y-106877883D01*
X169206748Y-106840353D01*
X169180289Y-106763455D01*
X169154987Y-106707263D01*
X169153497Y-106704798D01*
X169249149Y-106704798D01*
X169291729Y-106816981D01*
X169314899Y-106870102D01*
X169339196Y-106908855D01*
X169366727Y-106935412D01*
X169388266Y-106947414D01*
X169414907Y-106955072D01*
X169447914Y-106957834D01*
X169484381Y-106954522D01*
X169515397Y-106945100D01*
X169542012Y-106929897D01*
X169564955Y-106908643D01*
X169587915Y-106873568D01*
X169602396Y-106830067D01*
X169607600Y-106775873D01*
X169601899Y-106723495D01*
X169585629Y-106679470D01*
X169558995Y-106641979D01*
X169533032Y-106619183D01*
X169503654Y-106602962D01*
X169470181Y-106592990D01*
X169431647Y-106589515D01*
X169386682Y-106594115D01*
X169346874Y-106607484D01*
X169311086Y-106629651D01*
X169278592Y-106661521D01*
X169249149Y-106704798D01*
X169153497Y-106704798D01*
X169131033Y-106667624D01*
X169108523Y-106642011D01*
X169084155Y-106624613D01*
X169057478Y-106614317D01*
X169027669Y-106610813D01*
X168992031Y-106615945D01*
X168961949Y-106630890D01*
X168935981Y-106656438D01*
X168917122Y-106688541D01*
X168905275Y-106727254D01*
X168901054Y-106774212D01*
X168826065Y-106774212D01*
X168830126Y-106716891D01*
X168841845Y-106666358D01*
X168860630Y-106622030D01*
X168886399Y-106582970D01*
X168919323Y-106549401D01*
X168955320Y-106526214D01*
X168995094Y-106512312D01*
X169039784Y-106507547D01*
X169081639Y-106512400D01*
X169120072Y-106526798D01*
X169156125Y-106551325D01*
X169190411Y-106587597D01*
X169223064Y-106638120D01*
X169229561Y-106638120D01*
X169256165Y-106588592D01*
X169285825Y-106550492D01*
X169318474Y-106522042D01*
X169354445Y-106502024D01*
X169394448Y-106489859D01*
X169439512Y-106485663D01*
X169492368Y-106490797D01*
G37*
G36*
X167845000Y-103137976D02*
G01*
X167513611Y-103137976D01*
X167513611Y-103305722D01*
X167845000Y-103576783D01*
X167845000Y-103709602D01*
X167484741Y-103409037D01*
X167457494Y-103462215D01*
X167425713Y-103503530D01*
X167389426Y-103534786D01*
X167348125Y-103557115D01*
X167300820Y-103570894D01*
X167246116Y-103575708D01*
X167197305Y-103571064D01*
X167154847Y-103557703D01*
X167117474Y-103535857D01*
X167084330Y-103504926D01*
X167059840Y-103468508D01*
X167040578Y-103419465D01*
X167027615Y-103354505D01*
X167023153Y-103276217D01*
X167110317Y-103276217D01*
X167115445Y-103343063D01*
X167128980Y-103391474D01*
X167149023Y-103425862D01*
X167175039Y-103449461D01*
X167207953Y-103463940D01*
X167249975Y-103469120D01*
X167292812Y-103465656D01*
X167328061Y-103455975D01*
X167357148Y-103440720D01*
X167381133Y-103419930D01*
X167399140Y-103394453D01*
X167413186Y-103360450D01*
X167422582Y-103315735D01*
X167426074Y-103257655D01*
X167426074Y-103137976D01*
X167110317Y-103137976D01*
X167110317Y-103276217D01*
X167023153Y-103276217D01*
X167022780Y-103269672D01*
X167022780Y-103036322D01*
X167845000Y-103036322D01*
X167845000Y-103137976D01*
G37*
G36*
X167808852Y-103782679D02*
G01*
X167698063Y-103782679D01*
X167698063Y-103791423D01*
X167731683Y-103848966D01*
X167754906Y-103906019D01*
X167768566Y-103963125D01*
X167773094Y-104020914D01*
X167769812Y-104064364D01*
X167760505Y-104101534D01*
X167745661Y-104133490D01*
X167725321Y-104161060D01*
X167699755Y-104183671D01*
X167669730Y-104200003D01*
X167634357Y-104210210D01*
X167592404Y-104213817D01*
X167553034Y-104210527D01*
X167521471Y-104201426D01*
X167496152Y-104187207D01*
X167475949Y-104167899D01*
X167456781Y-104134994D01*
X167443632Y-104087140D01*
X167438579Y-104019253D01*
X167438579Y-103971186D01*
X167357295Y-103971186D01*
X167357295Y-104008360D01*
X167352589Y-104066333D01*
X167339721Y-104111717D01*
X167319877Y-104147139D01*
X167299282Y-104169123D01*
X167275372Y-104184612D01*
X167247495Y-104194121D01*
X167214609Y-104197453D01*
X167178519Y-104192362D01*
X167149532Y-104177836D01*
X167125900Y-104153440D01*
X167109380Y-104122579D01*
X167098626Y-104082986D01*
X167094685Y-104032393D01*
X167098951Y-103978451D01*
X167111923Y-103924160D01*
X167134158Y-103868919D01*
X167166591Y-103812184D01*
X167166591Y-103806175D01*
X167059026Y-103806175D01*
X167030061Y-103881160D01*
X167012880Y-103957238D01*
X167007149Y-104035178D01*
X167011002Y-104099749D01*
X167021684Y-104152888D01*
X167038186Y-104196488D01*
X167059954Y-104232135D01*
X167088929Y-104262843D01*
X167121775Y-104284285D01*
X167159273Y-104297317D01*
X167202690Y-104301842D01*
X167245015Y-104296724D01*
X167284028Y-104281484D01*
X167320806Y-104255387D01*
X167351241Y-104221810D01*
X167373121Y-104183321D01*
X167386849Y-104138981D01*
X167395300Y-104138981D01*
X167411162Y-104196943D01*
X167434210Y-104241184D01*
X167463875Y-104274407D01*
X167500652Y-104298302D01*
X167546032Y-104313347D01*
X167602320Y-104318744D01*
X167657179Y-104313412D01*
X167705595Y-104297966D01*
X167748902Y-104272519D01*
X167787993Y-104236238D01*
X167819115Y-104193145D01*
X167841677Y-104144133D01*
X167855716Y-104088106D01*
X167860631Y-104023649D01*
X167854917Y-103942029D01*
X167837768Y-103861948D01*
X167808852Y-103782679D01*
G37*
G36*
X167559554Y-104465558D02*
G01*
X167624144Y-104475893D01*
X167678834Y-104491971D01*
X167725029Y-104513175D01*
X167763911Y-104539197D01*
X167798472Y-104572311D01*
X167825129Y-104609791D01*
X167844438Y-104652229D01*
X167856437Y-104700538D01*
X167860631Y-104755889D01*
X167855459Y-104814682D01*
X167840473Y-104867034D01*
X167815899Y-104914177D01*
X167781203Y-104956999D01*
X167739004Y-104992216D01*
X167691909Y-105017241D01*
X167638939Y-105032574D01*
X167578726Y-105037892D01*
X167517601Y-105032715D01*
X167466830Y-105018170D01*
X167424452Y-104995069D01*
X167389047Y-104963300D01*
X167360779Y-104924334D01*
X167340230Y-104879710D01*
X167327407Y-104828377D01*
X167322906Y-104768981D01*
X167324859Y-104742212D01*
X167404190Y-104742212D01*
X167407988Y-104794198D01*
X167418295Y-104834532D01*
X167433980Y-104865602D01*
X167454651Y-104889246D01*
X167490513Y-104913452D01*
X167532554Y-104928296D01*
X167582438Y-104933503D01*
X167629148Y-104930173D01*
X167668043Y-104920856D01*
X167700477Y-104906232D01*
X167727519Y-104886510D01*
X167749782Y-104861383D01*
X167765823Y-104832037D01*
X167775821Y-104797636D01*
X167779347Y-104757013D01*
X167774732Y-104713834D01*
X167761467Y-104676829D01*
X167739644Y-104644658D01*
X167708321Y-104616524D01*
X167672160Y-104595697D01*
X167627653Y-104579802D01*
X167573129Y-104569463D01*
X167506625Y-104565722D01*
X167452306Y-104567920D01*
X167425192Y-104626208D01*
X167409396Y-104684039D01*
X167404190Y-104742212D01*
X167324859Y-104742212D01*
X167326380Y-104721375D01*
X167337035Y-104672317D01*
X167355423Y-104621308D01*
X167382355Y-104567871D01*
X167314892Y-104578425D01*
X167258203Y-104596350D01*
X167210613Y-104620951D01*
X167170792Y-104652037D01*
X167137979Y-104690438D01*
X167114418Y-104734568D01*
X167099809Y-104785551D01*
X167094685Y-104844940D01*
X167097279Y-104885272D01*
X167104697Y-104920742D01*
X167116570Y-104952065D01*
X167116570Y-104958611D01*
X167020191Y-104958611D01*
X167010704Y-104916776D01*
X167007149Y-104861353D01*
X167012679Y-104784387D01*
X167028420Y-104717811D01*
X167053570Y-104659945D01*
X167088000Y-104609455D01*
X167132250Y-104565429D01*
X167182915Y-104530109D01*
X167241962Y-104501650D01*
X167310670Y-104480294D01*
X167390583Y-104466691D01*
X167483471Y-104461870D01*
X167559554Y-104465558D01*
G37*
G36*
X172712117Y-97502631D02*
G01*
X172786343Y-97497688D01*
X172851092Y-97483590D01*
X172907802Y-97461070D01*
X172957650Y-97430346D01*
X173001496Y-97391110D01*
X173037589Y-97345253D01*
X173066358Y-97292123D01*
X173087771Y-97230624D01*
X173101336Y-97159366D01*
X173106130Y-97076720D01*
X173101337Y-96996027D01*
X173087706Y-96925703D01*
X173066055Y-96864283D01*
X173036780Y-96810524D01*
X172999836Y-96763454D01*
X172955165Y-96722967D01*
X172904934Y-96691438D01*
X172848356Y-96668458D01*
X172784338Y-96654147D01*
X172711531Y-96649149D01*
X172647842Y-96653457D01*
X172581665Y-96666699D01*
X172512383Y-96689575D01*
X172439396Y-96723057D01*
X172439396Y-96842980D01*
X172447065Y-96842980D01*
X172501170Y-96803316D01*
X172554897Y-96773619D01*
X172608630Y-96752969D01*
X172662842Y-96740752D01*
X172718077Y-96736685D01*
X172769658Y-96740554D01*
X172815168Y-96751672D01*
X172855604Y-96769638D01*
X172891749Y-96794513D01*
X172924120Y-96826811D01*
X172955870Y-96873460D01*
X172979542Y-96929417D01*
X172994669Y-96996503D01*
X173000080Y-97076965D01*
X172994592Y-97156757D01*
X172979230Y-97223374D01*
X172955145Y-97279042D01*
X172922752Y-97325555D01*
X172889850Y-97357730D01*
X172853430Y-97382466D01*
X172813003Y-97400287D01*
X172767838Y-97411280D01*
X172717002Y-97415094D01*
X172648888Y-97409627D01*
X172584769Y-97393454D01*
X172544489Y-97375983D01*
X172498897Y-97348467D01*
X172447065Y-97308800D01*
X172439396Y-97308800D01*
X172439396Y-97428235D01*
X172539469Y-97470978D01*
X172602550Y-97490126D01*
X172660056Y-97499621D01*
X172712117Y-97502631D01*
G37*
G36*
X171773639Y-97487000D02*
G01*
X172324504Y-97487000D01*
X172324504Y-97380852D01*
X172128035Y-97205974D01*
X172056680Y-97137151D01*
X172003731Y-97079150D01*
X171966004Y-97030510D01*
X171935660Y-96978119D01*
X171918497Y-96927980D01*
X171912955Y-96879030D01*
X171918224Y-96836383D01*
X171933100Y-96802148D01*
X171957505Y-96774348D01*
X171989212Y-96754136D01*
X172028852Y-96741312D01*
X172078551Y-96736685D01*
X172133095Y-96740980D01*
X172187597Y-96754000D01*
X172242659Y-96776243D01*
X172298810Y-96808591D01*
X172304281Y-96808591D01*
X172304281Y-96701759D01*
X172229266Y-96672356D01*
X172153372Y-96654948D01*
X172075816Y-96649149D01*
X172013300Y-96653407D01*
X171960825Y-96665351D01*
X171916721Y-96684115D01*
X171879640Y-96709379D01*
X171848545Y-96741901D01*
X171826437Y-96779377D01*
X171812804Y-96822794D01*
X171808028Y-96873608D01*
X171812642Y-96928173D01*
X171826346Y-96979903D01*
X171849303Y-97029057D01*
X171883450Y-97078528D01*
X171924765Y-97126529D01*
X171976360Y-97180426D01*
X172048402Y-97246971D01*
X172224999Y-97399463D01*
X171773639Y-97399463D01*
X171773639Y-97487000D01*
G37*
G36*
X171418122Y-96653757D02*
G01*
X171466893Y-96666789D01*
X171508412Y-96687563D01*
X171543862Y-96716106D01*
X171573946Y-96753147D01*
X171601147Y-96805306D01*
X171622693Y-96873888D01*
X171637165Y-96962774D01*
X171642529Y-97076427D01*
X171637178Y-97190161D01*
X171622752Y-97278960D01*
X171601297Y-97347339D01*
X171574239Y-97399219D01*
X171544285Y-97435988D01*
X171508889Y-97464362D01*
X171467331Y-97485042D01*
X171418409Y-97498033D01*
X171360526Y-97502631D01*
X171302924Y-97498032D01*
X171254192Y-97485031D01*
X171212749Y-97464317D01*
X171177403Y-97435872D01*
X171147449Y-97398974D01*
X171120374Y-97346956D01*
X171098902Y-97278398D01*
X171084465Y-97189371D01*
X171079110Y-97075353D01*
X171183499Y-97075353D01*
X171187072Y-97180108D01*
X171196391Y-97256422D01*
X171209613Y-97310280D01*
X171225314Y-97346902D01*
X171249447Y-97379474D01*
X171279188Y-97402272D01*
X171315575Y-97416346D01*
X171360526Y-97421347D01*
X171405505Y-97416349D01*
X171441965Y-97402278D01*
X171471812Y-97379478D01*
X171496081Y-97346902D01*
X171511894Y-97310263D01*
X171525192Y-97256530D01*
X171534553Y-97180553D01*
X171538140Y-97076427D01*
X171534540Y-96971353D01*
X171525159Y-96894941D01*
X171511860Y-96841129D01*
X171496081Y-96804634D01*
X171471828Y-96772180D01*
X171441988Y-96749452D01*
X171405523Y-96735419D01*
X171360526Y-96730433D01*
X171315365Y-96735521D01*
X171278878Y-96749838D01*
X171249109Y-96773054D01*
X171225020Y-96806295D01*
X171209332Y-96843562D01*
X171196206Y-96897484D01*
X171187009Y-96972904D01*
X171183499Y-97075353D01*
X171079110Y-97075353D01*
X171084476Y-96962653D01*
X171098976Y-96874226D01*
X171120609Y-96805728D01*
X171147986Y-96753392D01*
X171178187Y-96716189D01*
X171213636Y-96687566D01*
X171255009Y-96666771D01*
X171303460Y-96653748D01*
X171360526Y-96649149D01*
X171418122Y-96653757D01*
G37*
G36*
X177030117Y-99534631D02*
G01*
X177104343Y-99529688D01*
X177169092Y-99515590D01*
X177225802Y-99493070D01*
X177275650Y-99462346D01*
X177319496Y-99423110D01*
X177355589Y-99377253D01*
X177384358Y-99324123D01*
X177405771Y-99262624D01*
X177419336Y-99191366D01*
X177424130Y-99108720D01*
X177419337Y-99028027D01*
X177405706Y-98957703D01*
X177384055Y-98896283D01*
X177354780Y-98842524D01*
X177317836Y-98795454D01*
X177273165Y-98754967D01*
X177222934Y-98723438D01*
X177166356Y-98700458D01*
X177102338Y-98686147D01*
X177029531Y-98681149D01*
X176965842Y-98685457D01*
X176899665Y-98698699D01*
X176830383Y-98721575D01*
X176757396Y-98755057D01*
X176757396Y-98874980D01*
X176765065Y-98874980D01*
X176819170Y-98835316D01*
X176872897Y-98805619D01*
X176926630Y-98784969D01*
X176980842Y-98772752D01*
X177036077Y-98768685D01*
X177087658Y-98772554D01*
X177133168Y-98783672D01*
X177173604Y-98801638D01*
X177209749Y-98826513D01*
X177242120Y-98858811D01*
X177273870Y-98905460D01*
X177297542Y-98961417D01*
X177312669Y-99028503D01*
X177318080Y-99108965D01*
X177312592Y-99188757D01*
X177297230Y-99255374D01*
X177273145Y-99311042D01*
X177240752Y-99357555D01*
X177207850Y-99389730D01*
X177171430Y-99414466D01*
X177131003Y-99432287D01*
X177085838Y-99443280D01*
X177035002Y-99447094D01*
X176966888Y-99441627D01*
X176902769Y-99425454D01*
X176862489Y-99407983D01*
X176816897Y-99380467D01*
X176765065Y-99340800D01*
X176757396Y-99340800D01*
X176757396Y-99460235D01*
X176857469Y-99502978D01*
X176920550Y-99522126D01*
X176978056Y-99531621D01*
X177030117Y-99534631D01*
G37*
G36*
X176639182Y-99482852D02*
G01*
X176639182Y-99372063D01*
X176630438Y-99372063D01*
X176572895Y-99405683D01*
X176515843Y-99428906D01*
X176458737Y-99442566D01*
X176400948Y-99447094D01*
X176357497Y-99443812D01*
X176320328Y-99434505D01*
X176288372Y-99419661D01*
X176260801Y-99399321D01*
X176238191Y-99373755D01*
X176221858Y-99343730D01*
X176211652Y-99308357D01*
X176208045Y-99266404D01*
X176211335Y-99227034D01*
X176220436Y-99195471D01*
X176234655Y-99170152D01*
X176253963Y-99149949D01*
X176286868Y-99130781D01*
X176334722Y-99117632D01*
X176402609Y-99112579D01*
X176450676Y-99112579D01*
X176450676Y-99031295D01*
X176413502Y-99031295D01*
X176355529Y-99026589D01*
X176310145Y-99013721D01*
X176274723Y-98993877D01*
X176252739Y-98973282D01*
X176237250Y-98949372D01*
X176227741Y-98921495D01*
X176224409Y-98888609D01*
X176229500Y-98852519D01*
X176244026Y-98823532D01*
X176268422Y-98799900D01*
X176299283Y-98783380D01*
X176338876Y-98772626D01*
X176389468Y-98768685D01*
X176443411Y-98772951D01*
X176497701Y-98785923D01*
X176552943Y-98808158D01*
X176609678Y-98840591D01*
X176615686Y-98840591D01*
X176615686Y-98733026D01*
X176540702Y-98704061D01*
X176464624Y-98686880D01*
X176386684Y-98681149D01*
X176322113Y-98685002D01*
X176268973Y-98695684D01*
X176225374Y-98712186D01*
X176189727Y-98733954D01*
X176159018Y-98762929D01*
X176137576Y-98795775D01*
X176124545Y-98833273D01*
X176120020Y-98876690D01*
X176125138Y-98919015D01*
X176140377Y-98958028D01*
X176166475Y-98994806D01*
X176200051Y-99025241D01*
X176238540Y-99047121D01*
X176282881Y-99060849D01*
X176282881Y-99069300D01*
X176224919Y-99085162D01*
X176180678Y-99108210D01*
X176147454Y-99137875D01*
X176123560Y-99174652D01*
X176108515Y-99220032D01*
X176103118Y-99276320D01*
X176108450Y-99331179D01*
X176123895Y-99379595D01*
X176149343Y-99422902D01*
X176185623Y-99461993D01*
X176228717Y-99493115D01*
X176277728Y-99515677D01*
X176333755Y-99529716D01*
X176398212Y-99534631D01*
X176479832Y-99528917D01*
X176559914Y-99511768D01*
X176639182Y-99482852D01*
G37*
G36*
X175736122Y-98685757D02*
G01*
X175784893Y-98698789D01*
X175826412Y-98719563D01*
X175861862Y-98748106D01*
X175891946Y-98785147D01*
X175919147Y-98837306D01*
X175940693Y-98905888D01*
X175955165Y-98994774D01*
X175960529Y-99108427D01*
X175955178Y-99222161D01*
X175940752Y-99310960D01*
X175919297Y-99379339D01*
X175892239Y-99431219D01*
X175862285Y-99467988D01*
X175826889Y-99496362D01*
X175785331Y-99517042D01*
X175736409Y-99530033D01*
X175678526Y-99534631D01*
X175620924Y-99530032D01*
X175572192Y-99517031D01*
X175530749Y-99496317D01*
X175495403Y-99467872D01*
X175465449Y-99430974D01*
X175438374Y-99378956D01*
X175416902Y-99310398D01*
X175402465Y-99221371D01*
X175397110Y-99107353D01*
X175501499Y-99107353D01*
X175505072Y-99212108D01*
X175514391Y-99288422D01*
X175527613Y-99342280D01*
X175543314Y-99378902D01*
X175567447Y-99411474D01*
X175597188Y-99434272D01*
X175633575Y-99448346D01*
X175678526Y-99453347D01*
X175723505Y-99448349D01*
X175759965Y-99434278D01*
X175789812Y-99411478D01*
X175814081Y-99378902D01*
X175829894Y-99342263D01*
X175843192Y-99288530D01*
X175852553Y-99212553D01*
X175856140Y-99108427D01*
X175852540Y-99003353D01*
X175843159Y-98926941D01*
X175829860Y-98873129D01*
X175814081Y-98836634D01*
X175789828Y-98804180D01*
X175759988Y-98781452D01*
X175723523Y-98767419D01*
X175678526Y-98762433D01*
X175633365Y-98767521D01*
X175596878Y-98781838D01*
X175567109Y-98805054D01*
X175543020Y-98838295D01*
X175527332Y-98875562D01*
X175514206Y-98929484D01*
X175505009Y-99004904D01*
X175501499Y-99107353D01*
X175397110Y-99107353D01*
X175402476Y-98994653D01*
X175416976Y-98906226D01*
X175438609Y-98837728D01*
X175465986Y-98785392D01*
X175496187Y-98748189D01*
X175531636Y-98719566D01*
X175573009Y-98698771D01*
X175621460Y-98685748D01*
X175678526Y-98681149D01*
X175736122Y-98685757D01*
G37*
G36*
X167000131Y-90681882D02*
G01*
X166995188Y-90607656D01*
X166981090Y-90542907D01*
X166958570Y-90486197D01*
X166927846Y-90436349D01*
X166888610Y-90392503D01*
X166842753Y-90356410D01*
X166789623Y-90327641D01*
X166728124Y-90306228D01*
X166656866Y-90292663D01*
X166574220Y-90287869D01*
X166493527Y-90292662D01*
X166423203Y-90306293D01*
X166361783Y-90327944D01*
X166308024Y-90357219D01*
X166260954Y-90394163D01*
X166220467Y-90438834D01*
X166188938Y-90489065D01*
X166165958Y-90545643D01*
X166151647Y-90609661D01*
X166146649Y-90682468D01*
X166150957Y-90746157D01*
X166164199Y-90812334D01*
X166187075Y-90881616D01*
X166220557Y-90954603D01*
X166340480Y-90954603D01*
X166340480Y-90946934D01*
X166300816Y-90892829D01*
X166271119Y-90839102D01*
X166250469Y-90785369D01*
X166238252Y-90731157D01*
X166234185Y-90675922D01*
X166238054Y-90624341D01*
X166249172Y-90578831D01*
X166267138Y-90538395D01*
X166292013Y-90502250D01*
X166324311Y-90469879D01*
X166370960Y-90438129D01*
X166426917Y-90414457D01*
X166494003Y-90399330D01*
X166574465Y-90393919D01*
X166654257Y-90399407D01*
X166720874Y-90414769D01*
X166776542Y-90438854D01*
X166823055Y-90471247D01*
X166855230Y-90504149D01*
X166879966Y-90540569D01*
X166897787Y-90580996D01*
X166908780Y-90626161D01*
X166912594Y-90676997D01*
X166907127Y-90745111D01*
X166890954Y-90809230D01*
X166873483Y-90849510D01*
X166845967Y-90895102D01*
X166806300Y-90946934D01*
X166806300Y-90954603D01*
X166925735Y-90954603D01*
X166968478Y-90854530D01*
X166987626Y-90791449D01*
X166997121Y-90733943D01*
X167000131Y-90681882D01*
G37*
G36*
X166984500Y-91620360D02*
G01*
X166984500Y-91069495D01*
X166878352Y-91069495D01*
X166703474Y-91265964D01*
X166634651Y-91337319D01*
X166576650Y-91390268D01*
X166528010Y-91427995D01*
X166475619Y-91458339D01*
X166425480Y-91475502D01*
X166376530Y-91481044D01*
X166333883Y-91475775D01*
X166299648Y-91460899D01*
X166271848Y-91436494D01*
X166251636Y-91404787D01*
X166238812Y-91365147D01*
X166234185Y-91315448D01*
X166238480Y-91260904D01*
X166251500Y-91206402D01*
X166273743Y-91151340D01*
X166306091Y-91095189D01*
X166306091Y-91089718D01*
X166199259Y-91089718D01*
X166169856Y-91164733D01*
X166152448Y-91240627D01*
X166146649Y-91318183D01*
X166150907Y-91380699D01*
X166162851Y-91433174D01*
X166181615Y-91477278D01*
X166206879Y-91514359D01*
X166239401Y-91545454D01*
X166276877Y-91567562D01*
X166320294Y-91581195D01*
X166371108Y-91585971D01*
X166425673Y-91581357D01*
X166477403Y-91567653D01*
X166526557Y-91544696D01*
X166576028Y-91510549D01*
X166624029Y-91469234D01*
X166677926Y-91417639D01*
X166744471Y-91345597D01*
X166896963Y-91169000D01*
X166896963Y-91620360D01*
X166984500Y-91620360D01*
G37*
G36*
X166948352Y-91768420D02*
G01*
X166837563Y-91768420D01*
X166837563Y-91777164D01*
X166871183Y-91834707D01*
X166894406Y-91891760D01*
X166908066Y-91948866D01*
X166912594Y-92006655D01*
X166909312Y-92050105D01*
X166900005Y-92087275D01*
X166885161Y-92119231D01*
X166864821Y-92146801D01*
X166839255Y-92169412D01*
X166809230Y-92185744D01*
X166773857Y-92195951D01*
X166731904Y-92199558D01*
X166692534Y-92196268D01*
X166660971Y-92187167D01*
X166635652Y-92172948D01*
X166615449Y-92153640D01*
X166596281Y-92120735D01*
X166583132Y-92072881D01*
X166578079Y-92004994D01*
X166578079Y-91956927D01*
X166496795Y-91956927D01*
X166496795Y-91994101D01*
X166492089Y-92052074D01*
X166479221Y-92097458D01*
X166459377Y-92132879D01*
X166438782Y-92154864D01*
X166414872Y-92170353D01*
X166386995Y-92179862D01*
X166354109Y-92183194D01*
X166318019Y-92178103D01*
X166289032Y-92163577D01*
X166265400Y-92139181D01*
X166248880Y-92108320D01*
X166238126Y-92068727D01*
X166234185Y-92018134D01*
X166238451Y-91964192D01*
X166251423Y-91909901D01*
X166273658Y-91854660D01*
X166306091Y-91797925D01*
X166306091Y-91791916D01*
X166198526Y-91791916D01*
X166169561Y-91866901D01*
X166152380Y-91942979D01*
X166146649Y-92020919D01*
X166150502Y-92085490D01*
X166161184Y-92138629D01*
X166177686Y-92182229D01*
X166199454Y-92217876D01*
X166228429Y-92248584D01*
X166261275Y-92270026D01*
X166298773Y-92283058D01*
X166342190Y-92287583D01*
X166384515Y-92282465D01*
X166423528Y-92267225D01*
X166460306Y-92241128D01*
X166490741Y-92207551D01*
X166512621Y-92169062D01*
X166526349Y-92124722D01*
X166534800Y-92124722D01*
X166550662Y-92182684D01*
X166573710Y-92226925D01*
X166603375Y-92260148D01*
X166640152Y-92284043D01*
X166685532Y-92299088D01*
X166741820Y-92304485D01*
X166796679Y-92299153D01*
X166845095Y-92283707D01*
X166888402Y-92258260D01*
X166927493Y-92221979D01*
X166958615Y-92178886D01*
X166981177Y-92129874D01*
X166995216Y-92073847D01*
X167000131Y-92009390D01*
X166994417Y-91927770D01*
X166977268Y-91847689D01*
X166948352Y-91768420D01*
G37*
G36*
X172712117Y-94450631D02*
G01*
X172786343Y-94445688D01*
X172851092Y-94431590D01*
X172907802Y-94409070D01*
X172957650Y-94378346D01*
X173001496Y-94339110D01*
X173037589Y-94293253D01*
X173066358Y-94240123D01*
X173087771Y-94178624D01*
X173101336Y-94107366D01*
X173106130Y-94024720D01*
X173101337Y-93944027D01*
X173087706Y-93873703D01*
X173066055Y-93812283D01*
X173036780Y-93758524D01*
X172999836Y-93711454D01*
X172955165Y-93670967D01*
X172904934Y-93639438D01*
X172848356Y-93616458D01*
X172784338Y-93602147D01*
X172711531Y-93597149D01*
X172647842Y-93601457D01*
X172581665Y-93614699D01*
X172512383Y-93637575D01*
X172439396Y-93671057D01*
X172439396Y-93790980D01*
X172447065Y-93790980D01*
X172501170Y-93751316D01*
X172554897Y-93721619D01*
X172608630Y-93700969D01*
X172662842Y-93688752D01*
X172718077Y-93684685D01*
X172769658Y-93688554D01*
X172815168Y-93699672D01*
X172855604Y-93717638D01*
X172891749Y-93742513D01*
X172924120Y-93774811D01*
X172955870Y-93821460D01*
X172979542Y-93877417D01*
X172994669Y-93944503D01*
X173000080Y-94024965D01*
X172994592Y-94104757D01*
X172979230Y-94171374D01*
X172955145Y-94227042D01*
X172922752Y-94273555D01*
X172889850Y-94305730D01*
X172853430Y-94330466D01*
X172813003Y-94348287D01*
X172767838Y-94359280D01*
X172717002Y-94363094D01*
X172648888Y-94357627D01*
X172584769Y-94341454D01*
X172544489Y-94323983D01*
X172498897Y-94296467D01*
X172447065Y-94256800D01*
X172439396Y-94256800D01*
X172439396Y-94376235D01*
X172539469Y-94418978D01*
X172602550Y-94438126D01*
X172660056Y-94447621D01*
X172712117Y-94450631D01*
G37*
G36*
X171820631Y-94435000D02*
G01*
X172258900Y-94435000D01*
X172258900Y-94359968D01*
X172087295Y-94359968D01*
X172087295Y-93794106D01*
X172258900Y-93794106D01*
X172258900Y-93728454D01*
X172191695Y-93724163D01*
X172145613Y-93713874D01*
X172115188Y-93699584D01*
X172091084Y-93677631D01*
X172074856Y-93648352D01*
X172066535Y-93609654D01*
X171988914Y-93609654D01*
X171988914Y-94359968D01*
X171820631Y-94359968D01*
X171820631Y-94435000D01*
G37*
G36*
X171418971Y-93598126D02*
G01*
X171469504Y-93609845D01*
X171513832Y-93628630D01*
X171552892Y-93654399D01*
X171586461Y-93687323D01*
X171609648Y-93723320D01*
X171623550Y-93763094D01*
X171628314Y-93807784D01*
X171623462Y-93849639D01*
X171609063Y-93888072D01*
X171584536Y-93924125D01*
X171548265Y-93958411D01*
X171497742Y-93991064D01*
X171497742Y-93997561D01*
X171547270Y-94024165D01*
X171585370Y-94053825D01*
X171613819Y-94086474D01*
X171633838Y-94122445D01*
X171646003Y-94162448D01*
X171650198Y-94207512D01*
X171645065Y-94260368D01*
X171630264Y-94306472D01*
X171605993Y-94347200D01*
X171571503Y-94383464D01*
X171530611Y-94411873D01*
X171482828Y-94432775D01*
X171426868Y-94445963D01*
X171361113Y-94450631D01*
X171299773Y-94445961D01*
X171245661Y-94432538D01*
X171197576Y-94410828D01*
X171154581Y-94380729D01*
X171117944Y-94342888D01*
X171092530Y-94301637D01*
X171077260Y-94256187D01*
X171073117Y-94215914D01*
X171178028Y-94215914D01*
X171181339Y-94252381D01*
X171190761Y-94283397D01*
X171205964Y-94310012D01*
X171227219Y-94332955D01*
X171262294Y-94355915D01*
X171305795Y-94370396D01*
X171359989Y-94375600D01*
X171412367Y-94369899D01*
X171456391Y-94353629D01*
X171493883Y-94326995D01*
X171516679Y-94301032D01*
X171532899Y-94271654D01*
X171542872Y-94238181D01*
X171546346Y-94199647D01*
X171541747Y-94154682D01*
X171528377Y-94114874D01*
X171506211Y-94079086D01*
X171474341Y-94046592D01*
X171431064Y-94017149D01*
X171318881Y-94059729D01*
X171265760Y-94082899D01*
X171227007Y-94107196D01*
X171200450Y-94134727D01*
X171188448Y-94156266D01*
X171180789Y-94182907D01*
X171178028Y-94215914D01*
X171073117Y-94215914D01*
X171072027Y-94205314D01*
X171076244Y-94162998D01*
X171088559Y-94124997D01*
X171109045Y-94090337D01*
X171138521Y-94058373D01*
X171178489Y-94028849D01*
X171231029Y-94001908D01*
X171231029Y-93994874D01*
X171190438Y-93972241D01*
X171157115Y-93945024D01*
X171130205Y-93913053D01*
X171109787Y-93876711D01*
X171097840Y-93839494D01*
X171094012Y-93802166D01*
X171194979Y-93802166D01*
X171198998Y-93843684D01*
X171210719Y-93880933D01*
X171230151Y-93914835D01*
X171257978Y-93946015D01*
X171295509Y-93974748D01*
X171372407Y-93948289D01*
X171428599Y-93922987D01*
X171468237Y-93899033D01*
X171493850Y-93876523D01*
X171511249Y-93852155D01*
X171521545Y-93825478D01*
X171525048Y-93795669D01*
X171519917Y-93760031D01*
X171504972Y-93729949D01*
X171479424Y-93703981D01*
X171447320Y-93685122D01*
X171408607Y-93673275D01*
X171361650Y-93669054D01*
X171312285Y-93673621D01*
X171272520Y-93686328D01*
X171240359Y-93706423D01*
X171214979Y-93733895D01*
X171200085Y-93765344D01*
X171194979Y-93802166D01*
X171094012Y-93802166D01*
X171093862Y-93800701D01*
X171098552Y-93756160D01*
X171112148Y-93717114D01*
X171134667Y-93682351D01*
X171167086Y-93651127D01*
X171204822Y-93627082D01*
X171248918Y-93609283D01*
X171300528Y-93598015D01*
X171361064Y-93594023D01*
X171418971Y-93598126D01*
G37*
G36*
X167803117Y-112172631D02*
G01*
X167877343Y-112167688D01*
X167942092Y-112153590D01*
X167998802Y-112131070D01*
X168048650Y-112100346D01*
X168092496Y-112061110D01*
X168128589Y-112015253D01*
X168157358Y-111962123D01*
X168178771Y-111900624D01*
X168192336Y-111829366D01*
X168197130Y-111746720D01*
X168192337Y-111666027D01*
X168178706Y-111595703D01*
X168157055Y-111534283D01*
X168127780Y-111480524D01*
X168090836Y-111433454D01*
X168046165Y-111392967D01*
X167995934Y-111361438D01*
X167939356Y-111338458D01*
X167875338Y-111324147D01*
X167802531Y-111319149D01*
X167738842Y-111323457D01*
X167672665Y-111336699D01*
X167603383Y-111359575D01*
X167530396Y-111393057D01*
X167530396Y-111512980D01*
X167538065Y-111512980D01*
X167592170Y-111473316D01*
X167645897Y-111443619D01*
X167699630Y-111422969D01*
X167753842Y-111410752D01*
X167809077Y-111406685D01*
X167860658Y-111410554D01*
X167906168Y-111421672D01*
X167946604Y-111439638D01*
X167982749Y-111464513D01*
X168015120Y-111496811D01*
X168046870Y-111543460D01*
X168070542Y-111599417D01*
X168085669Y-111666503D01*
X168091080Y-111746965D01*
X168085592Y-111826757D01*
X168070230Y-111893374D01*
X168046145Y-111949042D01*
X168013752Y-111995555D01*
X167980850Y-112027730D01*
X167944430Y-112052466D01*
X167904003Y-112070287D01*
X167858838Y-112081280D01*
X167808002Y-112085094D01*
X167739888Y-112079627D01*
X167675769Y-112063454D01*
X167635489Y-112045983D01*
X167589897Y-112018467D01*
X167538065Y-111978800D01*
X167530396Y-111978800D01*
X167530396Y-112098235D01*
X167630469Y-112140978D01*
X167693550Y-112160126D01*
X167751056Y-112169621D01*
X167803117Y-112172631D01*
G37*
G36*
X167461373Y-111804362D02*
G01*
X167461373Y-111919400D01*
X167065162Y-111919400D01*
X167065162Y-112157000D01*
X166966830Y-112157000D01*
X166966830Y-111919400D01*
X166846027Y-111919400D01*
X166846027Y-111838116D01*
X166966830Y-111838116D01*
X167065162Y-111838116D01*
X167392545Y-111838116D01*
X167065162Y-111454508D01*
X167065162Y-111838116D01*
X166966830Y-111838116D01*
X166966830Y-111334780D01*
X167060815Y-111334780D01*
X167461373Y-111804362D01*
G37*
G36*
X166216027Y-112157000D02*
G01*
X166654297Y-112157000D01*
X166654297Y-112081968D01*
X166482692Y-112081968D01*
X166482692Y-111516106D01*
X166654297Y-111516106D01*
X166654297Y-111450454D01*
X166587091Y-111446163D01*
X166541009Y-111435874D01*
X166510584Y-111421584D01*
X166486480Y-111399631D01*
X166470252Y-111370352D01*
X166461931Y-111331654D01*
X166384311Y-111331654D01*
X166384311Y-112081968D01*
X166216027Y-112081968D01*
X166216027Y-112157000D01*
G37*
G36*
X177030117Y-92422631D02*
G01*
X177104343Y-92417688D01*
X177169092Y-92403590D01*
X177225802Y-92381070D01*
X177275650Y-92350346D01*
X177319496Y-92311110D01*
X177355589Y-92265253D01*
X177384358Y-92212123D01*
X177405771Y-92150624D01*
X177419336Y-92079366D01*
X177424130Y-91996720D01*
X177419337Y-91916027D01*
X177405706Y-91845703D01*
X177384055Y-91784283D01*
X177354780Y-91730524D01*
X177317836Y-91683454D01*
X177273165Y-91642967D01*
X177222934Y-91611438D01*
X177166356Y-91588458D01*
X177102338Y-91574147D01*
X177029531Y-91569149D01*
X176965842Y-91573457D01*
X176899665Y-91586699D01*
X176830383Y-91609575D01*
X176757396Y-91643057D01*
X176757396Y-91762980D01*
X176765065Y-91762980D01*
X176819170Y-91723316D01*
X176872897Y-91693619D01*
X176926630Y-91672969D01*
X176980842Y-91660752D01*
X177036077Y-91656685D01*
X177087658Y-91660554D01*
X177133168Y-91671672D01*
X177173604Y-91689638D01*
X177209749Y-91714513D01*
X177242120Y-91746811D01*
X177273870Y-91793460D01*
X177297542Y-91849417D01*
X177312669Y-91916503D01*
X177318080Y-91996965D01*
X177312592Y-92076757D01*
X177297230Y-92143374D01*
X177273145Y-92199042D01*
X177240752Y-92245555D01*
X177207850Y-92277730D01*
X177171430Y-92302466D01*
X177131003Y-92320287D01*
X177085838Y-92331280D01*
X177035002Y-92335094D01*
X176966888Y-92329627D01*
X176902769Y-92313454D01*
X176862489Y-92295983D01*
X176816897Y-92268467D01*
X176765065Y-92228800D01*
X176757396Y-92228800D01*
X176757396Y-92348235D01*
X176857469Y-92390978D01*
X176920550Y-92410126D01*
X176978056Y-92419621D01*
X177030117Y-92422631D01*
G37*
G36*
X176639182Y-92370852D02*
G01*
X176639182Y-92260063D01*
X176630438Y-92260063D01*
X176572895Y-92293683D01*
X176515843Y-92316906D01*
X176458737Y-92330566D01*
X176400948Y-92335094D01*
X176357497Y-92331812D01*
X176320328Y-92322505D01*
X176288372Y-92307661D01*
X176260801Y-92287321D01*
X176238191Y-92261755D01*
X176221858Y-92231730D01*
X176211652Y-92196357D01*
X176208045Y-92154404D01*
X176211335Y-92115034D01*
X176220436Y-92083471D01*
X176234655Y-92058152D01*
X176253963Y-92037949D01*
X176286868Y-92018781D01*
X176334722Y-92005632D01*
X176402609Y-92000579D01*
X176450676Y-92000579D01*
X176450676Y-91919295D01*
X176413502Y-91919295D01*
X176355529Y-91914589D01*
X176310145Y-91901721D01*
X176274723Y-91881877D01*
X176252739Y-91861282D01*
X176237250Y-91837372D01*
X176227741Y-91809495D01*
X176224409Y-91776609D01*
X176229500Y-91740519D01*
X176244026Y-91711532D01*
X176268422Y-91687900D01*
X176299283Y-91671380D01*
X176338876Y-91660626D01*
X176389468Y-91656685D01*
X176443411Y-91660951D01*
X176497701Y-91673923D01*
X176552943Y-91696158D01*
X176609678Y-91728591D01*
X176615686Y-91728591D01*
X176615686Y-91621026D01*
X176540702Y-91592061D01*
X176464624Y-91574880D01*
X176386684Y-91569149D01*
X176322113Y-91573002D01*
X176268973Y-91583684D01*
X176225374Y-91600186D01*
X176189727Y-91621954D01*
X176159018Y-91650929D01*
X176137576Y-91683775D01*
X176124545Y-91721273D01*
X176120020Y-91764690D01*
X176125138Y-91807015D01*
X176140377Y-91846028D01*
X176166475Y-91882806D01*
X176200051Y-91913241D01*
X176238540Y-91935121D01*
X176282881Y-91948849D01*
X176282881Y-91957300D01*
X176224919Y-91973162D01*
X176180678Y-91996210D01*
X176147454Y-92025875D01*
X176123560Y-92062652D01*
X176108515Y-92108032D01*
X176103118Y-92164320D01*
X176108450Y-92219179D01*
X176123895Y-92267595D01*
X176149343Y-92310902D01*
X176185623Y-92349993D01*
X176228717Y-92381115D01*
X176277728Y-92403677D01*
X176333755Y-92417716D01*
X176398212Y-92422631D01*
X176479832Y-92416917D01*
X176559914Y-92399768D01*
X176639182Y-92370852D01*
G37*
G36*
X175396035Y-92407000D02*
G01*
X175946900Y-92407000D01*
X175946900Y-92300852D01*
X175750431Y-92125974D01*
X175679076Y-92057151D01*
X175626128Y-91999150D01*
X175588401Y-91950510D01*
X175558056Y-91898119D01*
X175540893Y-91847980D01*
X175535351Y-91799030D01*
X175540620Y-91756383D01*
X175555496Y-91722148D01*
X175579901Y-91694348D01*
X175611609Y-91674136D01*
X175651248Y-91661312D01*
X175700948Y-91656685D01*
X175755491Y-91660980D01*
X175809994Y-91674000D01*
X175865055Y-91696243D01*
X175921206Y-91728591D01*
X175926677Y-91728591D01*
X175926677Y-91621759D01*
X175851663Y-91592356D01*
X175775768Y-91574948D01*
X175698212Y-91569149D01*
X175635696Y-91573407D01*
X175583221Y-91585351D01*
X175539117Y-91604115D01*
X175502036Y-91629379D01*
X175470941Y-91661901D01*
X175448833Y-91699377D01*
X175435200Y-91742794D01*
X175430424Y-91793608D01*
X175435038Y-91848173D01*
X175448743Y-91899903D01*
X175471699Y-91949057D01*
X175505847Y-91998528D01*
X175547162Y-92046529D01*
X175598757Y-92100426D01*
X175670798Y-92166971D01*
X175847396Y-92319463D01*
X175396035Y-92319463D01*
X175396035Y-92407000D01*
G37*
G36*
X154017631Y-122308882D02*
G01*
X154012688Y-122234656D01*
X153998590Y-122169907D01*
X153976070Y-122113197D01*
X153945346Y-122063349D01*
X153906110Y-122019503D01*
X153860253Y-121983410D01*
X153807123Y-121954641D01*
X153745624Y-121933228D01*
X153674366Y-121919663D01*
X153591720Y-121914869D01*
X153511027Y-121919662D01*
X153440703Y-121933293D01*
X153379283Y-121954944D01*
X153325524Y-121984219D01*
X153278454Y-122021163D01*
X153237967Y-122065834D01*
X153206438Y-122116065D01*
X153183458Y-122172643D01*
X153169147Y-122236661D01*
X153164149Y-122309468D01*
X153168457Y-122373157D01*
X153181699Y-122439334D01*
X153204575Y-122508616D01*
X153238057Y-122581603D01*
X153357980Y-122581603D01*
X153357980Y-122573934D01*
X153318316Y-122519829D01*
X153288619Y-122466102D01*
X153267969Y-122412369D01*
X153255752Y-122358157D01*
X153251685Y-122302922D01*
X153255554Y-122251341D01*
X153266672Y-122205831D01*
X153284638Y-122165395D01*
X153309513Y-122129250D01*
X153341811Y-122096879D01*
X153388460Y-122065129D01*
X153444417Y-122041457D01*
X153511503Y-122026330D01*
X153591965Y-122020919D01*
X153671757Y-122026407D01*
X153738374Y-122041769D01*
X153794042Y-122065854D01*
X153840555Y-122098247D01*
X153872730Y-122131149D01*
X153897466Y-122167569D01*
X153915287Y-122207996D01*
X153926280Y-122253161D01*
X153930094Y-122303997D01*
X153924627Y-122372111D01*
X153908454Y-122436230D01*
X153890983Y-122476510D01*
X153863467Y-122522102D01*
X153823800Y-122573934D01*
X153823800Y-122581603D01*
X153943235Y-122581603D01*
X153985978Y-122481530D01*
X154005126Y-122418449D01*
X154014621Y-122360943D01*
X154017631Y-122308882D01*
G37*
G36*
X153764400Y-123046837D02*
G01*
X154002000Y-123046837D01*
X154002000Y-123145169D01*
X153764400Y-123145169D01*
X153764400Y-123265972D01*
X153683116Y-123265972D01*
X153683116Y-123145169D01*
X153179780Y-123145169D01*
X153179780Y-123051184D01*
X153184876Y-123046837D01*
X153299508Y-123046837D01*
X153683116Y-123046837D01*
X153683116Y-122719454D01*
X153299508Y-123046837D01*
X153184876Y-123046837D01*
X153649362Y-122650626D01*
X153764400Y-122650626D01*
X153764400Y-123046837D01*
G37*
G36*
X154002000Y-123942964D02*
G01*
X154002000Y-123392099D01*
X153895852Y-123392099D01*
X153720974Y-123588568D01*
X153652151Y-123659923D01*
X153594150Y-123712871D01*
X153545510Y-123750598D01*
X153493119Y-123780943D01*
X153442980Y-123798106D01*
X153394030Y-123803648D01*
X153351383Y-123798379D01*
X153317148Y-123783503D01*
X153289348Y-123759098D01*
X153269136Y-123727390D01*
X153256312Y-123687751D01*
X153251685Y-123638051D01*
X153255980Y-123583508D01*
X153269000Y-123529005D01*
X153291243Y-123473944D01*
X153323591Y-123417793D01*
X153323591Y-123412322D01*
X153216759Y-123412322D01*
X153187356Y-123487336D01*
X153169948Y-123563231D01*
X153164149Y-123640787D01*
X153168407Y-123703303D01*
X153180351Y-123755778D01*
X153199115Y-123799882D01*
X153224379Y-123836963D01*
X153256901Y-123868058D01*
X153294377Y-123890166D01*
X153337794Y-123903799D01*
X153388608Y-123908575D01*
X153443173Y-123903961D01*
X153494903Y-123890256D01*
X153544057Y-123867300D01*
X153593528Y-123833152D01*
X153641529Y-123791837D01*
X153695426Y-123740242D01*
X153761971Y-123668201D01*
X153914463Y-123491603D01*
X153914463Y-123942964D01*
X154002000Y-123942964D01*
G37*
G36*
X173061677Y-96471000D02*
G01*
X172960023Y-96471000D01*
X172960023Y-96139611D01*
X172792277Y-96139611D01*
X172521216Y-96471000D01*
X172388397Y-96471000D01*
X172688962Y-96110741D01*
X172635784Y-96083494D01*
X172594469Y-96051713D01*
X172563213Y-96015426D01*
X172540884Y-95974125D01*
X172527105Y-95926820D01*
X172522631Y-95875975D01*
X172628879Y-95875975D01*
X172632343Y-95918812D01*
X172642024Y-95954061D01*
X172657279Y-95983148D01*
X172678069Y-96007133D01*
X172703546Y-96025140D01*
X172737549Y-96039186D01*
X172782264Y-96048582D01*
X172840344Y-96052074D01*
X172960023Y-96052074D01*
X172960023Y-95736317D01*
X172821782Y-95736317D01*
X172754936Y-95741445D01*
X172706525Y-95754980D01*
X172672137Y-95775023D01*
X172648538Y-95801039D01*
X172634059Y-95833953D01*
X172628879Y-95875975D01*
X172522631Y-95875975D01*
X172522291Y-95872116D01*
X172526935Y-95823305D01*
X172540296Y-95780847D01*
X172562142Y-95743474D01*
X172593073Y-95710330D01*
X172629491Y-95685840D01*
X172678534Y-95666578D01*
X172743494Y-95653615D01*
X172828327Y-95648780D01*
X173061677Y-95648780D01*
X173061677Y-96471000D01*
G37*
G36*
X172315320Y-96434852D02*
G01*
X172315320Y-96324063D01*
X172306576Y-96324063D01*
X172249033Y-96357683D01*
X172191980Y-96380906D01*
X172134874Y-96394566D01*
X172077085Y-96399094D01*
X172033635Y-96395812D01*
X171996465Y-96386505D01*
X171964509Y-96371661D01*
X171936939Y-96351321D01*
X171914328Y-96325755D01*
X171897996Y-96295730D01*
X171887789Y-96260357D01*
X171884182Y-96218404D01*
X171887472Y-96179034D01*
X171896573Y-96147471D01*
X171910792Y-96122152D01*
X171930100Y-96101949D01*
X171963005Y-96082781D01*
X172010859Y-96069632D01*
X172078746Y-96064579D01*
X172126813Y-96064579D01*
X172126813Y-95983295D01*
X172089639Y-95983295D01*
X172031666Y-95978589D01*
X171986282Y-95965721D01*
X171950860Y-95945877D01*
X171928876Y-95925282D01*
X171913387Y-95901372D01*
X171903878Y-95873495D01*
X171900546Y-95840609D01*
X171905637Y-95804519D01*
X171920163Y-95775532D01*
X171944559Y-95751900D01*
X171975420Y-95735380D01*
X172015013Y-95724626D01*
X172065606Y-95720685D01*
X172119548Y-95724951D01*
X172173839Y-95737923D01*
X172229080Y-95760158D01*
X172285815Y-95792591D01*
X172291824Y-95792591D01*
X172291824Y-95685026D01*
X172216839Y-95656061D01*
X172140761Y-95638880D01*
X172062821Y-95633149D01*
X171998250Y-95637002D01*
X171945111Y-95647684D01*
X171901511Y-95664186D01*
X171865864Y-95685954D01*
X171835156Y-95714929D01*
X171813714Y-95747775D01*
X171800682Y-95785273D01*
X171796157Y-95828690D01*
X171801275Y-95871015D01*
X171816515Y-95910028D01*
X171842612Y-95946806D01*
X171876189Y-95977241D01*
X171914678Y-95999121D01*
X171959018Y-96012849D01*
X171959018Y-96021300D01*
X171901056Y-96037162D01*
X171856815Y-96060210D01*
X171823592Y-96089875D01*
X171799697Y-96126652D01*
X171784652Y-96172032D01*
X171779255Y-96228320D01*
X171784587Y-96283179D01*
X171800033Y-96331595D01*
X171825480Y-96374902D01*
X171861761Y-96413993D01*
X171904854Y-96445115D01*
X171953866Y-96467677D01*
X172009893Y-96481716D01*
X172074350Y-96486631D01*
X172155970Y-96480917D01*
X172236051Y-96463768D01*
X172315320Y-96434852D01*
G37*
G36*
X171072172Y-96471000D02*
G01*
X171623038Y-96471000D01*
X171623038Y-96364852D01*
X171426569Y-96189974D01*
X171355213Y-96121151D01*
X171302265Y-96063150D01*
X171264538Y-96014510D01*
X171234193Y-95962119D01*
X171217031Y-95911980D01*
X171211489Y-95863030D01*
X171216758Y-95820383D01*
X171231634Y-95786148D01*
X171256038Y-95758348D01*
X171287746Y-95738136D01*
X171327386Y-95725312D01*
X171377085Y-95720685D01*
X171431629Y-95724980D01*
X171486131Y-95738000D01*
X171541192Y-95760243D01*
X171597343Y-95792591D01*
X171602814Y-95792591D01*
X171602814Y-95685759D01*
X171527800Y-95656356D01*
X171451905Y-95638948D01*
X171374350Y-95633149D01*
X171311833Y-95637407D01*
X171259358Y-95649351D01*
X171215255Y-95668115D01*
X171178174Y-95693379D01*
X171147079Y-95725901D01*
X171124971Y-95763377D01*
X171111338Y-95806794D01*
X171106562Y-95857608D01*
X171111175Y-95912173D01*
X171124880Y-95963903D01*
X171147836Y-96013057D01*
X171181984Y-96062528D01*
X171223299Y-96110529D01*
X171274894Y-96164426D01*
X171346936Y-96230971D01*
X171523533Y-96383463D01*
X171072172Y-96383463D01*
X171072172Y-96471000D01*
G37*
G36*
X177030117Y-97502631D02*
G01*
X177104343Y-97497688D01*
X177169092Y-97483590D01*
X177225802Y-97461070D01*
X177275650Y-97430346D01*
X177319496Y-97391110D01*
X177355589Y-97345253D01*
X177384358Y-97292123D01*
X177405771Y-97230624D01*
X177419336Y-97159366D01*
X177424130Y-97076720D01*
X177419337Y-96996027D01*
X177405706Y-96925703D01*
X177384055Y-96864283D01*
X177354780Y-96810524D01*
X177317836Y-96763454D01*
X177273165Y-96722967D01*
X177222934Y-96691438D01*
X177166356Y-96668458D01*
X177102338Y-96654147D01*
X177029531Y-96649149D01*
X176965842Y-96653457D01*
X176899665Y-96666699D01*
X176830383Y-96689575D01*
X176757396Y-96723057D01*
X176757396Y-96842980D01*
X176765065Y-96842980D01*
X176819170Y-96803316D01*
X176872897Y-96773619D01*
X176926630Y-96752969D01*
X176980842Y-96740752D01*
X177036077Y-96736685D01*
X177087658Y-96740554D01*
X177133168Y-96751672D01*
X177173604Y-96769638D01*
X177209749Y-96794513D01*
X177242120Y-96826811D01*
X177273870Y-96873460D01*
X177297542Y-96929417D01*
X177312669Y-96996503D01*
X177318080Y-97076965D01*
X177312592Y-97156757D01*
X177297230Y-97223374D01*
X177273145Y-97279042D01*
X177240752Y-97325555D01*
X177207850Y-97357730D01*
X177171430Y-97382466D01*
X177131003Y-97400287D01*
X177085838Y-97411280D01*
X177035002Y-97415094D01*
X176966888Y-97409627D01*
X176902769Y-97393454D01*
X176862489Y-97375983D01*
X176816897Y-97348467D01*
X176765065Y-97308800D01*
X176757396Y-97308800D01*
X176757396Y-97428235D01*
X176857469Y-97470978D01*
X176920550Y-97490126D01*
X176978056Y-97499621D01*
X177030117Y-97502631D01*
G37*
G36*
X176639182Y-97450852D02*
G01*
X176639182Y-97340063D01*
X176630438Y-97340063D01*
X176572895Y-97373683D01*
X176515843Y-97396906D01*
X176458737Y-97410566D01*
X176400948Y-97415094D01*
X176357497Y-97411812D01*
X176320328Y-97402505D01*
X176288372Y-97387661D01*
X176260801Y-97367321D01*
X176238191Y-97341755D01*
X176221858Y-97311730D01*
X176211652Y-97276357D01*
X176208045Y-97234404D01*
X176211335Y-97195034D01*
X176220436Y-97163471D01*
X176234655Y-97138152D01*
X176253963Y-97117949D01*
X176286868Y-97098781D01*
X176334722Y-97085632D01*
X176402609Y-97080579D01*
X176450676Y-97080579D01*
X176450676Y-96999295D01*
X176413502Y-96999295D01*
X176355529Y-96994589D01*
X176310145Y-96981721D01*
X176274723Y-96961877D01*
X176252739Y-96941282D01*
X176237250Y-96917372D01*
X176227741Y-96889495D01*
X176224409Y-96856609D01*
X176229500Y-96820519D01*
X176244026Y-96791532D01*
X176268422Y-96767900D01*
X176299283Y-96751380D01*
X176338876Y-96740626D01*
X176389468Y-96736685D01*
X176443411Y-96740951D01*
X176497701Y-96753923D01*
X176552943Y-96776158D01*
X176609678Y-96808591D01*
X176615686Y-96808591D01*
X176615686Y-96701026D01*
X176540702Y-96672061D01*
X176464624Y-96654880D01*
X176386684Y-96649149D01*
X176322113Y-96653002D01*
X176268973Y-96663684D01*
X176225374Y-96680186D01*
X176189727Y-96701954D01*
X176159018Y-96730929D01*
X176137576Y-96763775D01*
X176124545Y-96801273D01*
X176120020Y-96844690D01*
X176125138Y-96887015D01*
X176140377Y-96926028D01*
X176166475Y-96962806D01*
X176200051Y-96993241D01*
X176238540Y-97015121D01*
X176282881Y-97028849D01*
X176282881Y-97037300D01*
X176224919Y-97053162D01*
X176180678Y-97076210D01*
X176147454Y-97105875D01*
X176123560Y-97142652D01*
X176108515Y-97188032D01*
X176103118Y-97244320D01*
X176108450Y-97299179D01*
X176123895Y-97347595D01*
X176149343Y-97390902D01*
X176185623Y-97429993D01*
X176228717Y-97461115D01*
X176277728Y-97483677D01*
X176333755Y-97497716D01*
X176398212Y-97502631D01*
X176479832Y-97496917D01*
X176559914Y-97479768D01*
X176639182Y-97450852D01*
G37*
G36*
X175443027Y-97487000D02*
G01*
X175881297Y-97487000D01*
X175881297Y-97411968D01*
X175709692Y-97411968D01*
X175709692Y-96846106D01*
X175881297Y-96846106D01*
X175881297Y-96780454D01*
X175814091Y-96776163D01*
X175768009Y-96765874D01*
X175737584Y-96751584D01*
X175713480Y-96729631D01*
X175697252Y-96700352D01*
X175688931Y-96661654D01*
X175611311Y-96661654D01*
X175611311Y-97411968D01*
X175443027Y-97411968D01*
X175443027Y-97487000D01*
G37*
G36*
X154249702Y-102239958D02*
G01*
X154253673Y-102313961D01*
X154264682Y-102375140D01*
X154281646Y-102425503D01*
X154303877Y-102466783D01*
X154331133Y-102500370D01*
X154364834Y-102528768D01*
X154404189Y-102551364D01*
X154450064Y-102568181D01*
X154503587Y-102578851D01*
X154566094Y-102582631D01*
X154636134Y-102577875D01*
X154694424Y-102564586D01*
X154742959Y-102543797D01*
X154783347Y-102515905D01*
X154816715Y-102480646D01*
X154843621Y-102437116D01*
X154864005Y-102383845D01*
X154877193Y-102318897D01*
X154881949Y-102239958D01*
X154881949Y-101744780D01*
X154780344Y-101744780D01*
X154780344Y-102247872D01*
X154776245Y-102315316D01*
X154765195Y-102367438D01*
X154748635Y-102407257D01*
X154727343Y-102437258D01*
X154699111Y-102461417D01*
X154663923Y-102479374D01*
X154620254Y-102490919D01*
X154566094Y-102495094D01*
X154512774Y-102491024D01*
X154469391Y-102479727D01*
X154434084Y-102462096D01*
X154405431Y-102438332D01*
X154383663Y-102408748D01*
X154366763Y-102369363D01*
X154355491Y-102317674D01*
X154351307Y-102250607D01*
X154351307Y-101744780D01*
X154249702Y-101744780D01*
X154249702Y-102239958D01*
G37*
G36*
X153527183Y-102567000D02*
G01*
X154078048Y-102567000D01*
X154078048Y-102460852D01*
X153881579Y-102285974D01*
X153810224Y-102217151D01*
X153757276Y-102159150D01*
X153719549Y-102110510D01*
X153689204Y-102058119D01*
X153672041Y-102007980D01*
X153666499Y-101959030D01*
X153671768Y-101916383D01*
X153686644Y-101882148D01*
X153711049Y-101854348D01*
X153742757Y-101834136D01*
X153782396Y-101821312D01*
X153832096Y-101816685D01*
X153886639Y-101820980D01*
X153941142Y-101834000D01*
X153996203Y-101856243D01*
X154052354Y-101888591D01*
X154057825Y-101888591D01*
X154057825Y-101781759D01*
X153982810Y-101752356D01*
X153906916Y-101734948D01*
X153829360Y-101729149D01*
X153766844Y-101733407D01*
X153714369Y-101745351D01*
X153670265Y-101764115D01*
X153633184Y-101789379D01*
X153602089Y-101821901D01*
X153579981Y-101859377D01*
X153566348Y-101902794D01*
X153561572Y-101953608D01*
X153566186Y-102008173D01*
X153579891Y-102059903D01*
X153602847Y-102109057D01*
X153636995Y-102158528D01*
X153678310Y-102206529D01*
X153729905Y-102260426D01*
X153801946Y-102326971D01*
X153978544Y-102479463D01*
X153527183Y-102479463D01*
X153527183Y-102567000D01*
G37*
G36*
X163987610Y-95328000D02*
G01*
X163787038Y-95328000D01*
X163692011Y-95323723D01*
X163612568Y-95311832D01*
X163546496Y-95293520D01*
X163491821Y-95269657D01*
X163446859Y-95240748D01*
X163410269Y-95206904D01*
X163370861Y-95156335D01*
X163340594Y-95102708D01*
X163318941Y-95045527D01*
X163305748Y-94984130D01*
X163301239Y-94917720D01*
X163301335Y-94916060D01*
X163407777Y-94916060D01*
X163411859Y-94981288D01*
X163423355Y-95036771D01*
X163441446Y-95084009D01*
X163465748Y-95124254D01*
X163496340Y-95158446D01*
X163532094Y-95185586D01*
X163576526Y-95207948D01*
X163631274Y-95225155D01*
X163698325Y-95236393D01*
X163779955Y-95240463D01*
X163885956Y-95240463D01*
X163885956Y-94593317D01*
X163779955Y-94593317D01*
X163699633Y-94597495D01*
X163633225Y-94609072D01*
X163578575Y-94626888D01*
X163533812Y-94650186D01*
X163497415Y-94678655D01*
X163465992Y-94714286D01*
X163441309Y-94754984D01*
X163423165Y-94801482D01*
X163411778Y-94854773D01*
X163407777Y-94916060D01*
X163301335Y-94916060D01*
X163305174Y-94849898D01*
X163316436Y-94789919D01*
X163334430Y-94736723D01*
X163358880Y-94689402D01*
X163390506Y-94645635D01*
X163427000Y-94608278D01*
X163468664Y-94576835D01*
X163516026Y-94551063D01*
X163565188Y-94532784D01*
X163625722Y-94518537D01*
X163699657Y-94509175D01*
X163789236Y-94505780D01*
X163987610Y-94505780D01*
X163987610Y-95328000D01*
G37*
G36*
X162667233Y-95328000D02*
G01*
X163105502Y-95328000D01*
X163105502Y-95252968D01*
X162933897Y-95252968D01*
X162933897Y-94687106D01*
X163105502Y-94687106D01*
X163105502Y-94621454D01*
X163038297Y-94617163D01*
X162992215Y-94606874D01*
X162961790Y-94592584D01*
X162937686Y-94570631D01*
X162921458Y-94541352D01*
X162913137Y-94502654D01*
X162835516Y-94502654D01*
X162835516Y-95252968D01*
X162667233Y-95252968D01*
X162667233Y-95328000D01*
G37*
D11*
G36*
X159971000Y-81928976D02*
G01*
X159639611Y-81928976D01*
X159639611Y-82096722D01*
X159971000Y-82367783D01*
X159971000Y-82500602D01*
X159610741Y-82200037D01*
X159583494Y-82253215D01*
X159551713Y-82294530D01*
X159515426Y-82325786D01*
X159474125Y-82348115D01*
X159426820Y-82361894D01*
X159372116Y-82366708D01*
X159323305Y-82362064D01*
X159280847Y-82348703D01*
X159243474Y-82326857D01*
X159210330Y-82295926D01*
X159185840Y-82259508D01*
X159166578Y-82210465D01*
X159153615Y-82145505D01*
X159149153Y-82067217D01*
X159236317Y-82067217D01*
X159241445Y-82134063D01*
X159254980Y-82182474D01*
X159275023Y-82216862D01*
X159301039Y-82240461D01*
X159333953Y-82254940D01*
X159375975Y-82260120D01*
X159418812Y-82256656D01*
X159454061Y-82246975D01*
X159483148Y-82231720D01*
X159507133Y-82210930D01*
X159525140Y-82185453D01*
X159539186Y-82151450D01*
X159548582Y-82106735D01*
X159552074Y-82048655D01*
X159552074Y-81928976D01*
X159236317Y-81928976D01*
X159236317Y-82067217D01*
X159149153Y-82067217D01*
X159148780Y-82060672D01*
X159148780Y-81827322D01*
X159971000Y-81827322D01*
X159971000Y-81928976D01*
G37*
G36*
X159971000Y-83074231D02*
G01*
X159971000Y-82635961D01*
X159895968Y-82635961D01*
X159895968Y-82807566D01*
X159330106Y-82807566D01*
X159330106Y-82635961D01*
X159264454Y-82635961D01*
X159260163Y-82703167D01*
X159249874Y-82749249D01*
X159235584Y-82779674D01*
X159213631Y-82803778D01*
X159184352Y-82820006D01*
X159145654Y-82828327D01*
X159145654Y-82905947D01*
X159895968Y-82905947D01*
X159895968Y-83074231D01*
X159971000Y-83074231D01*
G37*
G36*
X159733400Y-83616303D02*
G01*
X159971000Y-83616303D01*
X159971000Y-83714635D01*
X159733400Y-83714635D01*
X159733400Y-83835438D01*
X159652116Y-83835438D01*
X159652116Y-83714635D01*
X159148780Y-83714635D01*
X159148780Y-83620651D01*
X159153877Y-83616303D01*
X159268508Y-83616303D01*
X159652116Y-83616303D01*
X159652116Y-83288920D01*
X159268508Y-83616303D01*
X159153877Y-83616303D01*
X159618362Y-83220092D01*
X159733400Y-83220092D01*
X159733400Y-83616303D01*
G37*
G36*
X145833092Y-85478104D02*
G01*
X145894295Y-85492287D01*
X145948252Y-85515072D01*
X145996053Y-85546388D01*
X146038453Y-85586722D01*
X146073039Y-85633171D01*
X146100636Y-85686636D01*
X146121169Y-85748154D01*
X146134158Y-85819016D01*
X146138739Y-85900720D01*
X146134161Y-85982478D01*
X146121190Y-86053260D01*
X146100704Y-86114590D01*
X146073195Y-86167782D01*
X146038746Y-86213889D01*
X145996494Y-86253863D01*
X145948754Y-86284942D01*
X145894752Y-86307585D01*
X145833388Y-86321696D01*
X145763289Y-86326631D01*
X145711363Y-86323896D01*
X145705195Y-86370827D01*
X145692544Y-86410527D01*
X145673864Y-86444225D01*
X145649081Y-86472835D01*
X145618931Y-86495897D01*
X145584267Y-86512620D01*
X145544231Y-86523050D01*
X145497699Y-86526715D01*
X145430848Y-86522836D01*
X145370888Y-86511669D01*
X145370888Y-86420420D01*
X145379095Y-86420420D01*
X145430158Y-86434585D01*
X145479674Y-86439178D01*
X145521946Y-86435225D01*
X145553426Y-86424583D01*
X145576687Y-86408257D01*
X145593607Y-86385371D01*
X145606511Y-86350975D01*
X145614105Y-86301034D01*
X145562088Y-86275576D01*
X145517150Y-86243003D01*
X145478514Y-86202991D01*
X145445773Y-86154782D01*
X145421107Y-86102577D01*
X145402828Y-86043533D01*
X145391331Y-85976635D01*
X145387301Y-85900720D01*
X145387331Y-85900183D01*
X145493303Y-85900183D01*
X145498449Y-85981864D01*
X145512748Y-86049273D01*
X145534932Y-86104804D01*
X145564378Y-86150434D01*
X145594794Y-86182140D01*
X145629159Y-86206580D01*
X145668010Y-86224272D01*
X145712171Y-86235257D01*
X145762703Y-86239094D01*
X145813497Y-86235250D01*
X145857843Y-86224252D01*
X145896811Y-86206550D01*
X145931236Y-86182114D01*
X145961663Y-86150434D01*
X145991086Y-86104808D01*
X146013255Y-86049278D01*
X146027546Y-85981867D01*
X146032689Y-85900183D01*
X146027549Y-85818481D01*
X146013263Y-85751008D01*
X145991093Y-85695383D01*
X145961663Y-85649639D01*
X145931221Y-85617840D01*
X145896786Y-85593323D01*
X145857818Y-85575568D01*
X145813481Y-85564540D01*
X145762703Y-85560685D01*
X145712157Y-85564515D01*
X145667989Y-85575475D01*
X145629139Y-85593122D01*
X145594781Y-85617494D01*
X145564378Y-85649101D01*
X145534981Y-85694577D01*
X145512794Y-85750152D01*
X145498467Y-85817865D01*
X145493303Y-85900183D01*
X145387331Y-85900183D01*
X145391882Y-85819016D01*
X145404871Y-85748154D01*
X145425405Y-85686636D01*
X145453002Y-85633171D01*
X145487588Y-85586722D01*
X145529979Y-85546411D01*
X145577820Y-85515099D01*
X145631876Y-85492305D01*
X145693243Y-85478110D01*
X145763289Y-85473149D01*
X145833092Y-85478104D01*
G37*
G36*
X144752417Y-86311000D02*
G01*
X145190686Y-86311000D01*
X145190686Y-86235968D01*
X145019081Y-86235968D01*
X145019081Y-85670106D01*
X145190686Y-85670106D01*
X145190686Y-85604454D01*
X145123481Y-85600163D01*
X145077398Y-85589874D01*
X145046973Y-85575584D01*
X145022869Y-85553631D01*
X145006641Y-85524352D01*
X144998320Y-85485654D01*
X144920700Y-85485654D01*
X144920700Y-86235968D01*
X144752417Y-86235968D01*
X144752417Y-86311000D01*
G37*
G36*
X161764631Y-93252382D02*
G01*
X161759688Y-93178156D01*
X161745590Y-93113407D01*
X161723070Y-93056697D01*
X161692346Y-93006849D01*
X161653110Y-92963003D01*
X161607253Y-92926910D01*
X161554123Y-92898141D01*
X161492624Y-92876728D01*
X161421366Y-92863163D01*
X161338720Y-92858369D01*
X161258027Y-92863162D01*
X161187703Y-92876793D01*
X161126283Y-92898444D01*
X161072524Y-92927719D01*
X161025454Y-92964663D01*
X160984967Y-93009334D01*
X160953438Y-93059565D01*
X160930458Y-93116143D01*
X160916147Y-93180161D01*
X160911149Y-93252968D01*
X160915457Y-93316657D01*
X160928699Y-93382834D01*
X160951575Y-93452116D01*
X160985057Y-93525103D01*
X161104980Y-93525103D01*
X161104980Y-93517434D01*
X161065316Y-93463329D01*
X161035619Y-93409602D01*
X161014969Y-93355869D01*
X161002752Y-93301657D01*
X160998685Y-93246422D01*
X161002554Y-93194841D01*
X161013672Y-93149331D01*
X161031638Y-93108895D01*
X161056513Y-93072750D01*
X161088811Y-93040379D01*
X161135460Y-93008629D01*
X161191417Y-92984957D01*
X161258503Y-92969830D01*
X161338965Y-92964419D01*
X161418757Y-92969907D01*
X161485374Y-92985269D01*
X161541042Y-93009354D01*
X161587555Y-93041747D01*
X161619730Y-93074649D01*
X161644466Y-93111069D01*
X161662287Y-93151496D01*
X161673280Y-93196661D01*
X161677094Y-93247497D01*
X161671627Y-93315611D01*
X161655454Y-93379730D01*
X161637983Y-93420010D01*
X161610467Y-93465602D01*
X161570800Y-93517434D01*
X161570800Y-93525103D01*
X161690235Y-93525103D01*
X161732978Y-93425030D01*
X161752126Y-93361949D01*
X161761621Y-93304443D01*
X161764631Y-93252382D01*
G37*
G36*
X161749000Y-94143868D02*
G01*
X161749000Y-93705599D01*
X161673968Y-93705599D01*
X161673968Y-93877204D01*
X161108106Y-93877204D01*
X161108106Y-93705599D01*
X161042454Y-93705599D01*
X161038163Y-93772804D01*
X161027874Y-93818886D01*
X161013584Y-93849311D01*
X160991631Y-93873415D01*
X160962352Y-93889643D01*
X160923654Y-93897964D01*
X160923654Y-93975585D01*
X161673968Y-93975585D01*
X161673968Y-94143868D01*
X161749000Y-94143868D01*
G37*
G36*
X161749000Y-94839472D02*
G01*
X161749000Y-94401202D01*
X161673968Y-94401202D01*
X161673968Y-94572807D01*
X161108106Y-94572807D01*
X161108106Y-94401202D01*
X161042454Y-94401202D01*
X161038163Y-94468408D01*
X161027874Y-94514490D01*
X161013584Y-94544915D01*
X160991631Y-94569019D01*
X160962352Y-94585247D01*
X160923654Y-94593568D01*
X160923654Y-94671188D01*
X161673968Y-94671188D01*
X161673968Y-94839472D01*
X161749000Y-94839472D01*
G37*
G36*
X147238000Y-93358976D02*
G01*
X146906611Y-93358976D01*
X146906611Y-93526722D01*
X147238000Y-93797783D01*
X147238000Y-93930602D01*
X146877741Y-93630037D01*
X146850494Y-93683215D01*
X146818713Y-93724530D01*
X146782426Y-93755786D01*
X146741125Y-93778115D01*
X146693820Y-93791894D01*
X146639116Y-93796708D01*
X146590305Y-93792064D01*
X146547847Y-93778703D01*
X146510474Y-93756857D01*
X146477330Y-93725926D01*
X146452840Y-93689508D01*
X146433578Y-93640465D01*
X146420615Y-93575505D01*
X146416153Y-93497217D01*
X146503317Y-93497217D01*
X146508445Y-93564063D01*
X146521980Y-93612474D01*
X146542023Y-93646862D01*
X146568039Y-93670461D01*
X146600953Y-93684940D01*
X146642975Y-93690120D01*
X146685812Y-93686656D01*
X146721061Y-93676975D01*
X146750148Y-93661720D01*
X146774133Y-93640930D01*
X146792140Y-93615453D01*
X146806186Y-93581450D01*
X146815582Y-93536735D01*
X146819074Y-93478655D01*
X146819074Y-93358976D01*
X146503317Y-93358976D01*
X146503317Y-93497217D01*
X146416153Y-93497217D01*
X146415780Y-93490672D01*
X146415780Y-93257322D01*
X147238000Y-93257322D01*
X147238000Y-93358976D01*
G37*
G36*
X147238000Y-94504231D02*
G01*
X147238000Y-94065961D01*
X147162968Y-94065961D01*
X147162968Y-94237566D01*
X146597106Y-94237566D01*
X146597106Y-94065961D01*
X146531454Y-94065961D01*
X146527163Y-94133167D01*
X146516874Y-94179249D01*
X146502584Y-94209674D01*
X146480631Y-94233778D01*
X146451352Y-94250006D01*
X146412654Y-94258327D01*
X146412654Y-94335947D01*
X147162968Y-94335947D01*
X147162968Y-94504231D01*
X147238000Y-94504231D01*
G37*
G36*
X147205857Y-94710176D02*
G01*
X147097316Y-94710176D01*
X147097316Y-94718920D01*
X147127994Y-94774002D01*
X147149307Y-94829005D01*
X147161905Y-94884414D01*
X147166094Y-94940790D01*
X147162660Y-94984659D01*
X147152905Y-95022231D01*
X147137301Y-95054600D01*
X147115829Y-95082598D01*
X147089068Y-95105384D01*
X147057661Y-95121898D01*
X147020691Y-95132236D01*
X146976904Y-95135891D01*
X146934654Y-95131467D01*
X146900449Y-95119059D01*
X146872508Y-95099102D01*
X146849793Y-95070848D01*
X146832153Y-95032483D01*
X146820348Y-94981324D01*
X146815948Y-94914021D01*
X146820705Y-94845868D01*
X146837832Y-94745689D01*
X146415780Y-94745689D01*
X146415780Y-95234810D01*
X146503317Y-95234810D01*
X146503317Y-94844070D01*
X146735543Y-94844070D01*
X146728411Y-94941328D01*
X146733082Y-95015929D01*
X146745951Y-95076378D01*
X146765732Y-95125158D01*
X146791768Y-95164321D01*
X146825962Y-95196758D01*
X146867067Y-95220252D01*
X146916499Y-95235022D01*
X146976269Y-95240281D01*
X147036057Y-95234871D01*
X147088411Y-95219291D01*
X147134760Y-95193861D01*
X147176108Y-95158020D01*
X147209380Y-95114796D01*
X147233433Y-95065395D01*
X147248389Y-95008643D01*
X147253631Y-94942988D01*
X147248092Y-94858074D01*
X147232012Y-94780846D01*
X147205857Y-94710176D01*
G37*
G36*
X167296092Y-87256104D02*
G01*
X167357295Y-87270287D01*
X167411252Y-87293072D01*
X167459053Y-87324388D01*
X167501453Y-87364722D01*
X167536039Y-87411171D01*
X167563636Y-87464636D01*
X167584169Y-87526154D01*
X167597158Y-87597016D01*
X167601739Y-87678720D01*
X167597161Y-87760478D01*
X167584190Y-87831260D01*
X167563704Y-87892590D01*
X167536195Y-87945782D01*
X167501746Y-87991889D01*
X167459494Y-88031863D01*
X167411754Y-88062942D01*
X167357752Y-88085585D01*
X167296388Y-88099696D01*
X167226289Y-88104631D01*
X167174363Y-88101896D01*
X167168195Y-88148827D01*
X167155544Y-88188527D01*
X167136864Y-88222225D01*
X167112081Y-88250835D01*
X167081931Y-88273897D01*
X167047267Y-88290620D01*
X167007231Y-88301050D01*
X166960699Y-88304715D01*
X166893848Y-88300836D01*
X166833888Y-88289669D01*
X166833888Y-88198420D01*
X166842095Y-88198420D01*
X166893158Y-88212585D01*
X166942674Y-88217178D01*
X166984946Y-88213225D01*
X167016426Y-88202583D01*
X167039687Y-88186257D01*
X167056607Y-88163371D01*
X167069511Y-88128975D01*
X167077105Y-88079034D01*
X167025088Y-88053576D01*
X166980150Y-88021003D01*
X166941514Y-87980991D01*
X166908773Y-87932782D01*
X166884107Y-87880577D01*
X166865828Y-87821533D01*
X166854331Y-87754635D01*
X166850301Y-87678720D01*
X166850331Y-87678183D01*
X166956303Y-87678183D01*
X166961449Y-87759864D01*
X166975748Y-87827273D01*
X166997932Y-87882804D01*
X167027378Y-87928434D01*
X167057794Y-87960140D01*
X167092159Y-87984580D01*
X167131010Y-88002272D01*
X167175171Y-88013257D01*
X167225703Y-88017094D01*
X167276497Y-88013250D01*
X167320843Y-88002252D01*
X167359811Y-87984550D01*
X167394236Y-87960114D01*
X167424663Y-87928434D01*
X167454086Y-87882808D01*
X167476255Y-87827278D01*
X167490546Y-87759867D01*
X167495689Y-87678183D01*
X167490549Y-87596481D01*
X167476263Y-87529008D01*
X167454093Y-87473383D01*
X167424663Y-87427639D01*
X167394221Y-87395840D01*
X167359786Y-87371323D01*
X167320818Y-87353568D01*
X167276481Y-87342540D01*
X167225703Y-87338685D01*
X167175157Y-87342515D01*
X167130989Y-87353475D01*
X167092139Y-87371122D01*
X167057781Y-87395494D01*
X167027378Y-87427101D01*
X166997981Y-87472577D01*
X166975794Y-87528152D01*
X166961467Y-87595865D01*
X166956303Y-87678183D01*
X166850331Y-87678183D01*
X166854882Y-87597016D01*
X166867871Y-87526154D01*
X166888405Y-87464636D01*
X166916002Y-87411171D01*
X166950588Y-87364722D01*
X166992979Y-87324411D01*
X167040820Y-87293099D01*
X167094876Y-87270305D01*
X167156243Y-87256110D01*
X167226289Y-87251149D01*
X167296092Y-87256104D01*
G37*
G36*
X166765158Y-87736362D02*
G01*
X166765158Y-87851400D01*
X166368948Y-87851400D01*
X166368948Y-88089000D01*
X166270615Y-88089000D01*
X166270615Y-87851400D01*
X166149813Y-87851400D01*
X166149813Y-87770116D01*
X166270615Y-87770116D01*
X166368948Y-87770116D01*
X166696331Y-87770116D01*
X166368948Y-87386508D01*
X166368948Y-87770116D01*
X166270615Y-87770116D01*
X166270615Y-87266780D01*
X166364600Y-87266780D01*
X166765158Y-87736362D01*
G37*
G36*
X158462631Y-82176882D02*
G01*
X158457688Y-82102656D01*
X158443590Y-82037907D01*
X158421070Y-81981197D01*
X158390346Y-81931349D01*
X158351110Y-81887503D01*
X158305253Y-81851410D01*
X158252123Y-81822641D01*
X158190624Y-81801228D01*
X158119366Y-81787663D01*
X158036720Y-81782869D01*
X157956027Y-81787662D01*
X157885703Y-81801293D01*
X157824283Y-81822944D01*
X157770524Y-81852219D01*
X157723454Y-81889163D01*
X157682967Y-81933834D01*
X157651438Y-81984065D01*
X157628458Y-82040643D01*
X157614147Y-82104661D01*
X157609149Y-82177468D01*
X157613457Y-82241157D01*
X157626699Y-82307334D01*
X157649575Y-82376616D01*
X157683057Y-82449603D01*
X157802980Y-82449603D01*
X157802980Y-82441934D01*
X157763316Y-82387829D01*
X157733619Y-82334102D01*
X157712969Y-82280369D01*
X157700752Y-82226157D01*
X157696685Y-82170922D01*
X157700554Y-82119341D01*
X157711672Y-82073831D01*
X157729638Y-82033395D01*
X157754513Y-81997250D01*
X157786811Y-81964879D01*
X157833460Y-81933129D01*
X157889417Y-81909457D01*
X157956503Y-81894330D01*
X158036965Y-81888919D01*
X158116757Y-81894407D01*
X158183374Y-81909769D01*
X158239042Y-81933854D01*
X158285555Y-81966247D01*
X158317730Y-81999149D01*
X158342466Y-82035569D01*
X158360287Y-82075996D01*
X158371280Y-82121161D01*
X158375094Y-82171997D01*
X158369627Y-82240111D01*
X158353454Y-82304230D01*
X158335983Y-82344510D01*
X158308467Y-82390102D01*
X158268800Y-82441934D01*
X158268800Y-82449603D01*
X158388235Y-82449603D01*
X158430978Y-82349530D01*
X158450126Y-82286449D01*
X158459621Y-82228943D01*
X158462631Y-82176882D01*
G37*
G36*
X158447000Y-83068368D02*
G01*
X158447000Y-82630099D01*
X158371968Y-82630099D01*
X158371968Y-82801704D01*
X157806106Y-82801704D01*
X157806106Y-82630099D01*
X157740454Y-82630099D01*
X157736163Y-82697304D01*
X157725874Y-82743386D01*
X157711584Y-82773811D01*
X157689631Y-82797915D01*
X157660352Y-82814143D01*
X157621654Y-82822464D01*
X157621654Y-82900085D01*
X158371968Y-82900085D01*
X158371968Y-83068368D01*
X158447000Y-83068368D01*
G37*
G36*
X158447000Y-83810964D02*
G01*
X158447000Y-83260099D01*
X158340852Y-83260099D01*
X158165974Y-83456568D01*
X158097151Y-83527923D01*
X158039150Y-83580871D01*
X157990510Y-83618598D01*
X157938119Y-83648943D01*
X157887980Y-83666106D01*
X157839030Y-83671648D01*
X157796383Y-83666379D01*
X157762148Y-83651503D01*
X157734348Y-83627098D01*
X157714136Y-83595390D01*
X157701312Y-83555751D01*
X157696685Y-83506051D01*
X157700980Y-83451508D01*
X157714000Y-83397005D01*
X157736243Y-83341944D01*
X157768591Y-83285793D01*
X157768591Y-83280322D01*
X157661759Y-83280322D01*
X157632356Y-83355336D01*
X157614948Y-83431231D01*
X157609149Y-83508787D01*
X157613407Y-83571303D01*
X157625351Y-83623778D01*
X157644115Y-83667882D01*
X157669379Y-83704963D01*
X157701901Y-83736058D01*
X157739377Y-83758166D01*
X157782794Y-83771799D01*
X157833608Y-83776575D01*
X157888173Y-83771961D01*
X157939903Y-83758256D01*
X157989057Y-83735300D01*
X158038528Y-83701152D01*
X158086529Y-83659837D01*
X158140426Y-83608242D01*
X158206971Y-83536201D01*
X158359463Y-83359603D01*
X158359463Y-83810964D01*
X158447000Y-83810964D01*
G37*
G36*
X161764631Y-101988882D02*
G01*
X161759688Y-101914656D01*
X161745590Y-101849907D01*
X161723070Y-101793197D01*
X161692346Y-101743349D01*
X161653110Y-101699503D01*
X161607253Y-101663410D01*
X161554123Y-101634641D01*
X161492624Y-101613228D01*
X161421366Y-101599663D01*
X161338720Y-101594869D01*
X161258027Y-101599662D01*
X161187703Y-101613293D01*
X161126283Y-101634944D01*
X161072524Y-101664219D01*
X161025454Y-101701163D01*
X160984967Y-101745834D01*
X160953438Y-101796065D01*
X160930458Y-101852643D01*
X160916147Y-101916661D01*
X160911149Y-101989468D01*
X160915457Y-102053157D01*
X160928699Y-102119334D01*
X160951575Y-102188616D01*
X160985057Y-102261603D01*
X161104980Y-102261603D01*
X161104980Y-102253934D01*
X161065316Y-102199829D01*
X161035619Y-102146102D01*
X161014969Y-102092369D01*
X161002752Y-102038157D01*
X160998685Y-101982922D01*
X161002554Y-101931341D01*
X161013672Y-101885831D01*
X161031638Y-101845395D01*
X161056513Y-101809250D01*
X161088811Y-101776879D01*
X161135460Y-101745129D01*
X161191417Y-101721457D01*
X161258503Y-101706330D01*
X161338965Y-101700919D01*
X161418757Y-101706407D01*
X161485374Y-101721769D01*
X161541042Y-101745854D01*
X161587555Y-101778247D01*
X161619730Y-101811149D01*
X161644466Y-101847569D01*
X161662287Y-101887996D01*
X161673280Y-101933161D01*
X161677094Y-101983997D01*
X161671627Y-102052111D01*
X161655454Y-102116230D01*
X161637983Y-102156510D01*
X161610467Y-102202102D01*
X161570800Y-102253934D01*
X161570800Y-102261603D01*
X161690235Y-102261603D01*
X161732978Y-102161530D01*
X161752126Y-102098449D01*
X161761621Y-102040943D01*
X161764631Y-101988882D01*
G37*
G36*
X161749000Y-102880368D02*
G01*
X161749000Y-102442099D01*
X161673968Y-102442099D01*
X161673968Y-102613704D01*
X161108106Y-102613704D01*
X161108106Y-102442099D01*
X161042454Y-102442099D01*
X161038163Y-102509304D01*
X161027874Y-102555386D01*
X161013584Y-102585811D01*
X160991631Y-102609915D01*
X160962352Y-102626143D01*
X160923654Y-102634464D01*
X160923654Y-102712085D01*
X161673968Y-102712085D01*
X161673968Y-102880368D01*
X161749000Y-102880368D01*
G37*
G36*
X161452161Y-103063821D02*
G01*
X161540960Y-103078247D01*
X161609339Y-103099702D01*
X161661219Y-103126760D01*
X161697988Y-103156714D01*
X161726362Y-103192110D01*
X161747042Y-103233668D01*
X161760033Y-103282590D01*
X161764631Y-103340473D01*
X161760032Y-103398075D01*
X161747031Y-103446807D01*
X161726317Y-103488250D01*
X161697872Y-103523596D01*
X161660974Y-103553550D01*
X161608956Y-103580625D01*
X161540398Y-103602097D01*
X161451371Y-103616534D01*
X161337353Y-103621889D01*
X161224653Y-103616523D01*
X161136226Y-103602023D01*
X161067728Y-103580390D01*
X161015392Y-103553013D01*
X160978189Y-103522812D01*
X160949566Y-103487363D01*
X160928771Y-103445990D01*
X160915748Y-103397539D01*
X160911149Y-103340473D01*
X160992433Y-103340473D01*
X160997521Y-103385634D01*
X161011838Y-103422121D01*
X161035054Y-103451890D01*
X161068295Y-103475979D01*
X161105562Y-103491667D01*
X161159484Y-103504793D01*
X161234904Y-103513990D01*
X161337353Y-103517500D01*
X161442108Y-103513927D01*
X161518422Y-103504608D01*
X161572280Y-103491386D01*
X161608902Y-103475685D01*
X161641474Y-103451552D01*
X161664272Y-103421811D01*
X161678346Y-103385424D01*
X161683347Y-103340473D01*
X161678349Y-103295494D01*
X161664278Y-103259034D01*
X161641478Y-103229187D01*
X161608902Y-103204918D01*
X161572263Y-103189105D01*
X161518530Y-103175807D01*
X161442553Y-103166446D01*
X161338427Y-103162859D01*
X161233353Y-103166459D01*
X161156941Y-103175840D01*
X161103129Y-103189139D01*
X161066634Y-103204918D01*
X161034180Y-103229171D01*
X161011452Y-103259011D01*
X160997419Y-103295476D01*
X160992433Y-103340473D01*
X160911149Y-103340473D01*
X160915757Y-103282877D01*
X160928789Y-103234106D01*
X160949563Y-103192587D01*
X160978106Y-103157137D01*
X161015147Y-103127053D01*
X161067306Y-103099852D01*
X161135888Y-103078306D01*
X161224774Y-103063834D01*
X161338427Y-103058470D01*
X161452161Y-103063821D01*
G37*
D13*
%TO.C,U2*%
X151108000Y-94600000D02*
X157528000Y-94600000D01*
X151108000Y-101500000D02*
X157528000Y-101500000D01*
X157528000Y-94600000D02*
X157528000Y-94870000D01*
X157528000Y-101500000D02*
X157528000Y-101230000D01*
X159258000Y-94910000D02*
X158918000Y-94440000D01*
X159598000Y-94440000D01*
X159258000Y-94910000D01*
G36*
X159258000Y-94910000D02*
G01*
X158918000Y-94440000D01*
X159598000Y-94440000D01*
X159258000Y-94910000D01*
G37*
%TO.C,D1*%
X162372000Y-95530000D02*
X162372000Y-99190000D01*
X162372000Y-95530000D02*
X164272000Y-95530000D01*
X164272000Y-95530000D02*
X164272000Y-99190000D01*
%TO.C,R14*%
X159116500Y-85343276D02*
X159116500Y-85852724D01*
X160161500Y-85343276D02*
X160161500Y-85852724D01*
%TO.C,Q1*%
X147806000Y-80110000D02*
X154226000Y-80110000D01*
X147806000Y-87010000D02*
X154226000Y-87010000D01*
X154226000Y-80110000D02*
X154226000Y-80380000D01*
X154226000Y-87010000D02*
X154226000Y-86740000D01*
X155956000Y-80420000D02*
X155616000Y-79950000D01*
X156296000Y-79950000D01*
X155956000Y-80420000D01*
G36*
X155956000Y-80420000D02*
G01*
X155616000Y-79950000D01*
X156296000Y-79950000D01*
X155956000Y-80420000D01*
G37*
%TO.C,C11*%
X160907000Y-96565767D02*
X160907000Y-96273233D01*
X161927000Y-96565767D02*
X161927000Y-96273233D01*
%TO.C,R15*%
X147813500Y-93979276D02*
X147813500Y-94488724D01*
X148858500Y-93979276D02*
X148858500Y-94488724D01*
%TO.C,Q4*%
X163519000Y-80110000D02*
X163519000Y-80380000D01*
X163519000Y-87010000D02*
X163519000Y-86740000D01*
X169939000Y-80110000D02*
X163519000Y-80110000D01*
X169939000Y-87010000D02*
X163519000Y-87010000D01*
X162129000Y-87170000D02*
X161449000Y-87170000D01*
X161789000Y-86700000D01*
X162129000Y-87170000D01*
G36*
X162129000Y-87170000D02*
G01*
X161449000Y-87170000D01*
X161789000Y-86700000D01*
X162129000Y-87170000D01*
G37*
%TO.C,C12*%
X157605000Y-85744267D02*
X157605000Y-85451733D01*
X158625000Y-85744267D02*
X158625000Y-85451733D01*
%TO.C,C10*%
X160907000Y-99675733D02*
X160907000Y-99968267D01*
X161927000Y-99675733D02*
X161927000Y-99968267D01*
%TD*%
%LPC*%
D14*
%TO.C,SW1*%
X146674000Y-126685000D03*
X148474000Y-126685000D03*
%TD*%
D15*
%TO.C,J10*%
X146236000Y-123355000D03*
X146236000Y-108355000D03*
D16*
X148336000Y-109855000D03*
D17*
X148336000Y-111855000D03*
X148336000Y-113855000D03*
X148336000Y-115855000D03*
X148336000Y-117855000D03*
X148336000Y-119855000D03*
X148336000Y-121855000D03*
%TD*%
D14*
%TO.C,SW2*%
X152538000Y-126680000D03*
X150738000Y-126680000D03*
%TD*%
D18*
%TO.C,H4*%
X142500000Y-127500000D03*
%TD*%
%TO.C,H1*%
X142500000Y-82500000D03*
%TD*%
D15*
%TO.C,J3*%
X193870000Y-108388000D03*
X193870000Y-121388000D03*
D19*
X191770000Y-119888000D03*
D17*
X191770000Y-117888000D03*
X191770000Y-115888000D03*
X191770000Y-113888000D03*
X191770000Y-111888000D03*
X191770000Y-109888000D03*
%TD*%
D20*
%TO.C,J2*%
X189073000Y-100203000D03*
X189073000Y-88773000D03*
D21*
X192453000Y-88163000D03*
X193973000Y-90703000D03*
X192453000Y-98273000D03*
X193973000Y-100813000D03*
D22*
X182733000Y-98933000D03*
D23*
X180193000Y-97663000D03*
X182733000Y-96393000D03*
X180193000Y-95123000D03*
X182733000Y-93853000D03*
X180193000Y-92583000D03*
X182733000Y-91313000D03*
X180193000Y-90043000D03*
D24*
X186023000Y-102263000D03*
X186023000Y-86713000D03*
%TD*%
D15*
%TO.C,J4*%
X146236000Y-107132000D03*
X146236000Y-102132000D03*
D16*
X148336000Y-103632000D03*
D17*
X148336000Y-105632000D03*
%TD*%
D15*
%TO.C,J6*%
X174378000Y-123766000D03*
X165378000Y-123766000D03*
D25*
X166878000Y-121666000D03*
D17*
X168878000Y-121666000D03*
X170878000Y-121666000D03*
X172878000Y-121666000D03*
%TD*%
D26*
%TO.C,C13*%
X172466000Y-82675349D03*
D27*
X172466000Y-86175349D03*
%TD*%
D15*
%TO.C,J5*%
X163964000Y-123766000D03*
X154964000Y-123766000D03*
D25*
X156464000Y-121666000D03*
D17*
X158464000Y-121666000D03*
X160464000Y-121666000D03*
X162464000Y-121666000D03*
%TD*%
D18*
%TO.C,H3*%
X197500000Y-82500000D03*
%TD*%
D15*
%TO.C,J7*%
X146236000Y-100782000D03*
X146236000Y-95782000D03*
D16*
X148336000Y-97282000D03*
D17*
X148336000Y-99282000D03*
%TD*%
D28*
%TO.C,J1*%
X142504000Y-94106000D03*
X142504000Y-87146000D03*
D29*
X152654000Y-88646000D03*
D30*
X152654000Y-92606000D03*
%TD*%
D18*
%TO.C,H2*%
X197500000Y-127500000D03*
%TD*%
D15*
%TO.C,J8*%
X184792000Y-123766000D03*
X175792000Y-123766000D03*
D25*
X177292000Y-121666000D03*
D17*
X179292000Y-121666000D03*
X181292000Y-121666000D03*
X183292000Y-121666000D03*
%TD*%
D31*
%TO.C,U2*%
X159258000Y-95770000D03*
D32*
X152958000Y-98050000D03*
D31*
X159258000Y-100330000D03*
%TD*%
D33*
%TO.C,D1*%
X163322000Y-96390000D03*
X163322000Y-99190000D03*
%TD*%
D34*
%TO.C,R14*%
X159639000Y-84685500D03*
X159639000Y-86510500D03*
%TD*%
D31*
%TO.C,Q1*%
X155956000Y-81280000D03*
D32*
X149656000Y-83560000D03*
D31*
X155956000Y-85840000D03*
%TD*%
D35*
%TO.C,C11*%
X161417000Y-97282000D03*
X161417000Y-95557000D03*
%TD*%
D34*
%TO.C,R15*%
X148336000Y-93321500D03*
X148336000Y-95146500D03*
%TD*%
D36*
%TO.C,Q4*%
X161789000Y-85840000D03*
D37*
X168089000Y-83560000D03*
D36*
X161789000Y-81280000D03*
%TD*%
D35*
%TO.C,C12*%
X158115000Y-86460500D03*
X158115000Y-84735500D03*
%TD*%
D38*
%TO.C,C10*%
X161417000Y-98959500D03*
X161417000Y-100684500D03*
%TD*%
%LPD*%
M02*
